<?xml version="1.0" encoding="UTF-8"?>
<svg id="Layer_2" data-name="Layer 2" xmlns="http://www.w3.org/2000/svg" viewBox="0 0 901.61 440.77"><style>path,polygon,circle,rect,ellipse,line,polyline { fill: #D4AF37 !important; stroke: #D4AF37 !important; }</style>
  <g id="Layer_1-2" data-name="Layer 1">
    <path d="M0,440.72c30.41-21.57,59.85-41.13,91.12-59.84,11.8-7.06,46.95-5.57,71.36-23.01l29.63-21.16c15.6-50.02,3.51-31.38,31.75-72.9,4.69-6.9,6.24-14.02,14.98-17.77,17.44-7.48,30.55-19.62,43.41-32.73,7.34-7.48,21.45-9.54,27.28-18.56,4.63-7.18,8.49-13.38,13.74-20.58,9.33-12.8-3.6-17.67,13.91-32.08,3.03-27.09,9.83-15.22,6.05-44.18,5.28-2.55,14.46-5.16,20.52-6.89,1.37-3.18,3.17-8.63,4.96-10.67s7.6-2.39,12.5-3.09c2.18-41.48,3.02-44.77,32.49-77.25,53.74,16.75,28.27,1.83,63.91,35.66l31.63,30.02c7.64,7.25,14.21,23.82,18.23,33.9,3.9,9.81,5.11,19.96,11.18,29.25,19.28,29.51-6.04,42.25,16.26,50.42,8.84,3.24,25.16,23.09,30.42,33.81l22.62,10.27,8.97-3.76c18.26,8.13,37.6,32.07,50.26,38.94l99.69,54.09c9.74,4.83,18.59,10.36,26.41,18.29l108.35,109.87-901.61-.04ZM212.47,356.47l42.53,5.17c6.11.74,18.94-5.85,21.63-11.32,3.07-6.25,2.95-16.61,7.55-20.7,10.17-9.04,16.12-15.6,22.94-28.74l18.09,9.5,36.4,18.98c12-11.34,23.63-18.07,37.99-24.81,3.54-13.72,5.4-27.82,9.67-40.94,2.67-8.21,11.31-16.11,11.97-25.21,1.11-15.33,14.98-24.95,18.86-37.61-2.53-38.35.56-56.09,9.39-94.31,1.76-7.6,7.82-14.85,13.49-21.4-27.05-24.41-14.02-23.99-34.63-55.32l-12.49-18.98c-27.91,31.18-23.78,32.61-27.25,71.94l-15.24,3.94c.09,11.73-10.96,13.89-19.84,13.89-1.51,10.62-3.52,21.16-6.13,31.41l-3.4,13.36c-8.21,5.89-9.26,15.76-10.19,26.21-16.23,38.39-32.55,35.51-44.13,46.83-16.12,15.77-32.62,29.29-53.44,38.85l-5.83,13.66c-15.49,17.06-20.05,26.89-22.38,46.61-.4,3.38-6.1,10.06-4.59,12.96,4.36,7.97,6.98,15.68,9.02,26.02Z"/>
  </g>
</svg>