<?xml version="1.0" encoding="UTF-8"?>
<svg id="Layer_2" data-name="Layer 2" xmlns="http://www.w3.org/2000/svg" viewBox="0 0 326 95.07">
  <g id="Layer_2-2" data-name="Layer 2">
    <path d="M172.99,73.02l-5.99.03v-10.92l-.96-.26-.1-1.7-.74-.24c-.18-.06-.2-.47-.32-.89l-3.61.04c.2-.03-2.06,2.62-2.24,2.13l-.03,11.83h-5.98l-.02-11.85c.18.69-2.8-2.26-2.17-2.12h-3.67c-.16.67-.46.97-1.13,1.12l-.02,11.72-.78.24c-.18.06-.21.47-.32.89h-4.78l-.21-.78c-.05-.18-.48-.23-.89-.34v-11.74l-.81-.24c-.19-.06-.22-.51-.31-.89l-4.78.02-.19.78c-.05.2-.55.23-.91.32v12.88h-6.83l-.33.99-1.77.1-.14.8c-.03.15-.38.11-.93.13v-36.89l-.99-.3-.02-1.8h-2.02l.1-2.01h37.08l.17-.82c.05-.25,1.74-.39,1.87.1l.19.68c.04.15.7.15.74,0l.27-.99.21.88c.04.19.64.2.83.16.23-.06.31-.48.5-1.01l15.72.03c.51,0,.37,1.35,1.03,1.09.59-.24.8-.27.95-1.11l11.41-.02.32,1h8.97l.32-.99h5.15l.32.84c.09.24.85.1,1.14.14l.74.1c.15.02.1.7-.05.75l-.77.27c-.17.56-.46.9-1.16.99v37.8l-.82.16c-.19.04-.2.47-.28.87l-.79.07-.17-.83c-.04-.21-.61-.18-.91-.19l-.83-.02c-.21,0-.21-.6-.3-.94l-6.88-.07v-11.57c0-.3-.72-.46-.96-.5l-.09-1.89-4.84.02-.21.78c-.05.19-.54.23-.9.33v11.76l-.8.22c-.19.05-.22.51-.32.9h-4.77l-.2-.78c-.05-.19-.48-.24-.89-.38l-.03-11.52c-.44-.31-.97-.63-1.16-1.27h-3.52l-1.03,1.23c-.34.41-.63.64-1.26.89l-.03,11.82-.07-.03ZM138,49.03v-6.99h-5v7.01l5-.02ZM152.01,47.98v-5.94l-5.02.02.03,7.01c.5-.05.88-.06.91-.2l.15-.77,3.93-.11h0ZM165,49.03v-7l-5,.05.02,5.85c.42.11.84.14.89.32l.2.79h3.9,0ZM179,49.05v-7.01l-5,.02.02,5.87c.41.1.84.14.89.33l.2.78h3.89ZM193,49.04v-7h-5v7.01s5,0,5-.01Z"/>
    <path d="M294.01,64.05v11h-7.01v-32.89c-.38-.04-.63-.04-1,0v32.89h-4s0-10.99,0-10.99h-5v11.01l-4-.04v-32.75c0-.26-.99-.28-.99,0v32.75l-3.01.04v-10.98h-5v10.98h-5v-38.99h65.96l.07,2.76-.83.47-.96.98c-.1.1-.28.47-.36.59-.11.15-.39.19-.87.32v33.87h-5v-10.99h-5v11.01l-4-.02v-32.97l-2,.04v32.94h-7v-6.66l.99-.17v-4.15h-5.99v-.04ZM268.98,48.73l.02-5.53-.89-.34c-.17-.07-.22-.8-.4-.8l-3.69-.03-.02,8.01,3.87-.02.3-.88c.05-.13.81-.23.82-.41h0ZM281.98,48.72l.02-6.65-5.01-.04v8.02l3.88-.02.29-.87c.04-.13.81-.24.81-.43h.01ZM295.26,50.02l3.73.03v-8.01l-3.99.03v5.89l-.97.22c-.15.04,0,.7.15.76l.73.27c.13.05.2.8.35.81h0ZM317,50.03v-7.98h-5v8l5-.02ZM269,58.05v-4.01h-6.01v4h6.01ZM282.01,58.04v-4.01l-5.01.03v3.99h5.01ZM300,58.04v-3.99h-6.01v4.01h6.01v-.02ZM317.01,58.04v-4l-5.01.03v3.99h5.01v-.02Z"/>
    <path d="M32.01,75.05v-11.01l-6.01.02v10.99l-7-.02v-9.38l1.01-.36v-10.8l-1.01-.47v-10.88l.85-.16c.2-.04.16-.76.07-.93h-1.91v32.98h-4v-11l-5,.02v8.74l-.94.38-.08,1.9-3.97-.11v-29.59c0-.29-.67-.4-.98-.43v-4.64l-.88-.46c-.15-.52-.44-.79-1.13-.93l.03-2.87h65.96v39h-5v-11h-5v10.98h-2.99l-.02-12.99-.95-.11c-.15-.02-.16-.71,0-.75l.97-.22.02-5.05-1-.26-.02-13.38c0-.32-.99-.25-.99,0v32.74l-3,.04v-11.01l-4.88.02-.23.79c-.05.18-.48.21-.89.31v8.79l.84.15c.15.03.13.44.17.93h-4.01v-32.95h-2v32.96l-5.99.02h-.03ZM13.98,48.74l.02-5.53-.89-.33c-.17-.06-.21-.8-.4-.8l-3.7-.02v8l3.86-.02.29-.89c.04-.14.82-.22.82-.41ZM31,50.01v-7.98l-4,.04v7.98l4-.04ZM49,50.03v-7.98h-5v8l5-.02ZM58.26,50.02l3.73.03.02-8.01-3.91.02c-.08.75-.35.99-1.09,1.08v5.76l.9.3c.14.05.2.82.35.82ZM14.01,58.05v-4.01h-6.01v3.99s6.01.02,6.01.02ZM32,58.05v-4.01h-6.01v4h6.01ZM49.01,58.05v-4.01l-6.01.02v3.98h6.01,0ZM62.01,58.04v-3.99h-5.01v4.01s5.01-.02,5.01-.02Z"/>
    <path d="M314.22,26.77l1.03,1.03,1.02,1.01c.38.38.63.52.88,1.22h5.86l-.04,5.02h-113.85l-.19-.81c-.04-.19-.53-.22-.87-.31l-.08-1.83-1.98-.08v-12.97h100.88c.39,1.42-.3.08,1.35,1.73l1.01,1.01,1,1,.99,1.01,1,1,1,.99.98.97h.01Z"/>
    <path d="M116.94,35.05H2.99l.04-4.99,5.8-.04c.29-.58.55-.87.89-1.21l8.45-8.42c.41-.41.73-.64.98-1.35h100.85v12.99s-2.97,0-2.97,0l-.08,3v.02Z"/>
    <path d="M257,75.05h-51v-37.88l.79-.21c.19-.05.22-.54.32-.91h49.89v39ZM214.99,43.03l-2.78.02-.34-.95-1.87-.04v8l5.01-.05-.02-6.98ZM227.01,50.04l-.02-8.01-3.88.03c-.07.74-.35,1.01-1.09,1.06l-.02,6.91h5.01ZM239.91,44.83c.09-.37.1-1.39.06-1.63l-.86-.32c-.17-.06-.21-.82-.4-.82h-3.69l-.03,7.98h4.02v-4.77c.05-.09.86-.26.9-.44h0ZM252.01,50.03l-.02-6.88-.9-.26c-.18-.05-.16-.81-.34-.81h-2.61c-.13.37-.17.79-.34.85l-.78.24-.02,6.89,5.02-.03h-.01ZM215.01,73.03v-9.9c-.38-.07-.85-.11-.91-.3l-.23-.8-2.67.06c.25.22-2.11,2.45-2.18,2.19l-.02,8.75h6.01ZM228.02,69.63l-.05-5.42c.16.62-2.74-2.28-2.15-2.14h-2.67c-.13.74-.62.95-1.13,1.22v9.74l6,.02-.05-1.89-.87-.27c-.19-.06-.19-.87,0-.93l.94-.32h-.02ZM240.01,73.04v-9.91c-.38-.07-.87-.09-.92-.29l-.21-.81-2.68.06c.33.14-2.17,2.5-2.17,2.2l-.02,8.75h6.01,0ZM246.17,71.95c.22.05.67.1.72.28l.21.81h4.9v-9.9c-.35-.09-.87-.13-.92-.32l-.2-.79-2.76.05c-.13.72-.41.96-1.07,1.11l-.13,1.9-.71.16c-.07.01-.07.15-.02.18s.78.15.78.22v5.32l-.93.21c-.16.04-.03.73.13.77Z"/>
    <path d="M120,38.15v36.89h-51v-39h48.88c.11.7.44.96.96,1.21.17.45.28.71,1.16.9ZM79.01,50.03l-.03-7.99-3.87.02c-.09.38-.11.86-.3.9l-.8.19v6.88h5ZM91.99,43.12c-.51-.1-.89-.11-.92-.25l-.19-.82-3.87.02v7.98l5-.05-.02-6.89h0ZM103.99,43.12c-.53-.1-.9-.12-.93-.26l-.18-.8h-3.88l-.02,7.95,5.01.04v-6.94h0ZM111.01,50.04h5l-.02-7.93c-.21-.06-.87-.07-.91.12l-.16.77-3.92.09v6.94h.01ZM80,63.07l-1.89-.06-.28-.98-2.71.06c-.1.3-.15.82-.34.87l-.77.21v9.88h6v-9.98h-.01ZM92.01,73.04v-9.91c-.37-.08-.84-.12-.9-.31l-.24-.79-2.68.06c.25.2-2.15,2.5-2.18,2.19l-.02,8.75h6.02ZM104.01,73.04v-9.86c-.76-.1-1.05-.37-1.11-1.13h-2.79c-.1.74-.37,1.01-1.1,1.09l-.02,9.9h5.02ZM117.01,73.02v-9.88c-.36-.07-.88-.1-.93-.29l-.2-.81-3.74.04c-.14.66-.39,1.02-1.13,1.07v9.92l6.01-.04h-.01Z"/>
    <path d="M159.3,81.29c-.41.41-.63.6-1.25.96l-.07,1.63-.98.26v10.9l-5-.02-.02-11.76c.06.3-2.66-2.08-2.18-2.17l-2.64-.09-.28.99-1.89.08v12.98l-5-.02v-11.9l-.8-.17c-.2-.04-.19-.62-.2-.9l-.02-.88c0-.22-.67-.12-.95-.14l-.85-.05c-.21-.01-.19-.53-.28-.91l-2.68-.05-.34.94-1.88.11v13.96h-7.88c-.12-.66-.51-1-.93-1.19l-.31-.64c-.21-.43-1.58.02-1.7-.2l-.38-.72-1.08-.97c-.37-.34-.62-.64-.95-1.21l-1.6-.13c-.33-.54-.58-.85-.96-1.2l-1.03-.96-.32-.6c-.24-.45-1.59.03-1.7-.2l-.36-.76c-.49-.25-.79-.53-.98-1.17l-1.85-.07.02-1.85.97-.3c.19-.06-.01-.89-.22-.87l-1.68.14c-.15.01.01.75-.13.78l-.62.15c-.19.05-.27-.36-.36-1l-9.84-.03-.2.8c-.05.18-.52.22-.9.31l-.03,4.7,1.03.3-.09,1.79-.74.18c-.2.05-.24.66-.22.88l.11,1.08c.02.21.53.18.93.28l-.04,2.68h-28.96v-18h47.91c.06.33.21.83.06.86-.21.04-.68.11-.94.13l-.83.07c-.2.02-.25.57-.38.73-.44.25-.78.56-.99,1.16l-1.65.06-.39.93-.77.23c-.15.05-.1.58-.02.71s.52.19.69.17l1.11-.09c.21-.02.19-.64.25-.91l1.83-.09.17-.75s2.69-.51,3.1-2.15l1.73-.11.18-.75c.05-.2.62-.19.89-.2l.83-.04c.21-.01.2-.59.28-.88l1.82-.13.18-.74c.05-.2.62-.2.9-.21l.83-.05c.2-.01.19-.51.29-.94h73.79l.18.83c.04.2.65.16.92.17l.83.04c.2.01.18.62.26.9l1.77.06.32,1,1.74.02.16.81c.04.2.68.22.9.2l.85-.07c.21-.02.21-.56.3-.96h48.88v17.99h-29l-.02-12.99h-11.93l-.14-.86c-.03-.21-.64-.12-.93-.14l-.82-.05c-.21-.01-.18-.65-.26-.93l-1.83-.06-.16-.79c-.04-.21-.63-.18-.92-.19h-.83c-.21-.01-.18-.68-.27-.93l-1.84-.08c-.07.13-.23.77-.08.82l.89.35c.15.06.04.71.19.73.2.03.56.07.93.1l.82.06c.21.02.18.62.26.9l1.83.08.16.8c.04.21.62.18.91.19h.85c.21,0,.11.77.31.83l.7.22c.14.04.3.45.19.54l-.66.56-1.12,1.05c-.11.1-.26.49-.34.62-.27.42-1.54,0-1.68.22-.11.17-.31.52-.43.7l-1.04,1c-.36.34-.6.62-.95,1.17l-1.61.16c-.3.55-.55.83-.95,1.21l-1.01.95c-.11.1-.26.47-.35.6-.27.42-1.56,0-1.69.22l-.41.7-1.09.98c-.35.31-.63.65-.91,1.26h-7.79v-13.97s-1.83-.03-1.83-.03l-.3-.95-2.7-.06-.29.97-1.88.1v2.74l-1,.32v10.9l-5.01-.04v-10.6c-.13-.17-.68-.41-.92-.5l-.12-1.86-5.95.02-.02,12.99-5.75-.02c-.15,0-.33-.81-.19-.85l.95-.25v-7.51c0-.21-.71-.43-.97-.48l-.05-3.8-.98-.18-.04-1.9h-2.77l-.33-.99h-2.68c-.33.68-.52.85-.91,1.25l-.98.98.07-.03ZM79.01,85.92l1.01-.34-.04-2.43c-.35-.11-.81-.16-.87-.34l-.23-.77-3.75.02c-.11.38-.16.83-.35.88l-.77.21v6.89l5.99-.03c-.01-.54.02-1.09-.18-1.14l-.79-.18v-2.77h-.02ZM92.01,90.03v-7.98h-5.01v8l5.01-.02ZM240.01,90.04v-8l-4.9.02c-.1.39-.13.83-.31.88l-.78.22-.03,6.85,6.02.03h0ZM252.01,90.04v-7.99h-5.01v8h5.01Z"/>
    <path d="M204.25,16.13c-.34.18-.37,1.43-.09,1.79.09.11.53.15.67.17.19.03.31.78.12.82l-.94.22v12.92h-82.01v-15.57c0-.34-.63-.48-.97-.53l-.02-1.9h12.04c.19.54.43,1.07.82,1.07.61,0,.94-.25,1-1.07h54.64l.41,1h14.62c.28,0,.65.56.52.65s-.23.14-.81.43ZM179.01,29.02v-9.96l-2.01-.09-.11-.85c-.02-.15-.72-.14-.76.01l-.16.63-.88.6c-.18.48-.42.68-1.08.8l-.02,8.89,5.01-.02h.01ZM138.01,29.03v-8.91c-.41-.08-.84-.09-.9-.27l-.27-.79h-2.71c-.12.34-.18.81-.36.87l-.76.24v8.88l5-.02ZM151.99,20.14c-.86-.13-.99-.44-1.1-1.09l-3.89.04v9.96h5v-8.91h0ZM165.01,29.03l-.02-9.99-3.83.02c-.16.68-.42,1.05-1.15,1.08l-.02,8.91,5.01-.02h.01ZM193.01,29.03v-8.9c-.39-.09-.85-.11-.91-.29l-.27-.79h-2.68c-.12.34-.17.85-.36.89l-.79.21v8.9s5.01-.02,5.01-.02Z"/>
    <path d="M68,95.05H0v-18h68v18ZM14,83.12c-.53-.12-.87-.14-.91-.28l-.21-.78-3.87-.02-.02,8h5.01v-6.93h0ZM32,90.03v-8l-5,.03v7.98l5-.02h0ZM49,90.04v-8h-5.01v8h5.01ZM62.01,90.03v-7.98h-5v8l5-.03h0Z"/>
    <path d="M326,95.05h-68v-18h68v18ZM269.01,90.04l-.03-7.99h-4.98v8.01s5.01-.02,5.01-.02ZM282.01,90.03l-.02-7.98h-4.98v8.01l5.01-.03h-.01ZM299.01,90.04l-.02-8-3.89.03c-.09.38-.11.85-.3.89l-.79.2v6.87h5ZM317.01,90.03l-.02-7.99-4.99.02v8l5.01-.03h0Z"/>
    <path d="M204.93,13.04h-83.87l-.09-1.89,1.02-.22v-5.85l1.01-.03v2.97l5.99.02v-4h2.01v3.99h10.99l-.02-1.94-.77-.11c-.19-.03-.32-.7-.14-.77l.76-.33c.14-.06.21-.54.25-.69.05-.2.73-.25.8-.05l.24.67c.07.18.47.22.86.34l.02,2.89h10.98l-.06-2.01c-.37-.03-.93.03-.92-.12l.08-.74c.02-.15.39-.06.67-.09l1.06-.1c.21-.02.19-.53.27-.89l1.9-.08.04-1.84c.75-.11,1.02-.39,1.09-1.08l2.79-.11.17-.76c.05-.2.69-.23.9-.21l.84.09c.2.02.18.59.26.89l2.81.11c.1.71.39.96,1.08,1.06l.07,1.63c.57.27.95.53,1.1,1.2l1.88.09v2.97h11.01v-3.98h2v3.99h10.97l.05-1.84-1-.25-.03-1.88,3-.03v4.02l6.01-.02-.07-1.9-.76-.17c-.2-.04-.18-.64-.16-.89h1.99l-.02,5.79,1.03.34-.08,1.85v-.04Z"/>
    <path d="M208.25,91.32c.36-.33.63-.68.94-1.2l1.6-.16c-.21-.13,1.98-2.31,2.02-2.15l.28-.61c.18-.39,1.57.01,1.69-.21l.38-.69,1.08-1.02c.38-.36.64-.58.87-1.24l9.87-.02-.08,11.01h-22.58c-.33,0-.49-.81-.35-.85l.86-.29c.16-.05.08-.71.23-.74l.93-.14c.18-.03.72.1.79-.03l.39-.69,1.07-.99v.02Z"/>
    <path d="M114.74,89.08c.08.33,1.69,2.05,2.05,2.19l.32.61c.21.4,1.58-.04,1.7.2l.36.75c.48.26.81.54.98,1.17l1.86.07-.09.98h-22.92v-10.98l8.83-.02c.16.67.55.99.99,1.18l.28.66c.17.39,1.57-.04,1.7.2.1.18.28.53.38.72l1.08.99c.37.34.61.61.94,1.18l1.54.11h0Z"/>
  </g>
</svg>