<?xml version="1.0" encoding="UTF-8"?>
<svg id="Layer_2" data-name="Layer 2" xmlns="http://www.w3.org/2000/svg" viewBox="0 0 157.97 178.06">
  <g id="Layer_1-2" data-name="Layer 1">
    <path d="M85.79,177.99c-.15-.61-.25-.99-.44-1.04-.22-.06-.55.24-.64.65-.06.3-.59.42-1.18.46-.33.02-.54-.39-.7-1.06h-9.54c-.08.38-.05.92-.25.93l-.92.03c-.2,0-.1-.73-.27-.82-.23-.12-.93-.19-1.26-.17-.26.01-.32.43-.59,1.02h-12.03c-.18-.01-.4-.69-.37-.81s-.44-.11-.49,0l-.3.77c-.07.19-.79-.03-.82-.23s-.07-.64-.21-.67l-.8-.18v-6.87s20.94-.02,20.94-.02l.06-.97-2.86-.05-.23-.78c-.06-.2-.6-.18-.9-.2l-.84-.03c-.21,0-.18-.63-.25-.9l-1.73-.13c-.34-.55-.58-.83-.95-1.19l-1-.98c-.37-.36-.64-.6-1.2-.97l-.14-1.63c-1.8-.44-.07-.9-1.88-1.3l-.1-2.73-.95-.38.02-8.62.99-.31v-1.79s-1.81-.08-1.81-.08c-.33-.58-.56-.86-.95-1.22l-1.05-.95c-.11-.1-.24-.48-.31-.62-.22-.42-1.57.04-1.69-.21l-.36-.75c-.51-.24-.85-.52-.99-1.15l-1.74-.1c-.06-.29-.07-.65-.2-.72l-.76-.42c-.13-.07-.15-.55-.24-.67-.33-.4-1.59.04-1.7-.2l-.35-.75c-.5-.23-.85-.53-1-1.14l-1.68-.15c-.23-.56-.59-.88-1.01-1.11l-.26-.65c-.16-.41-1.56.03-1.69-.22l-.4-.72c-.49-.27-.78-.53-.98-1.14l-1.64-.15c-.32-.53-.58-.84-.95-1.19l-1.04-.96-.32-.61c-.22-.43-1.56.04-1.69-.21l-.37-.73c-.47-.28-.77-.56-1.01-1.17l-1.73-.1-.17-.78c-.07-.33-1.68-.19-1.72-.11l-.38.71c-.45.31-.73.6-1,1.16l-1.72.17-.18.75c-.05.2-.64.16-.92.17l-.82.05c-.2.01-.2.52-.32.91l-4.55.06c-.22,0-.26.71-.42.77l-.86.32-.05,2.71-.97.27v3.74s-1,.27-1,.27v4.71s-.99.28-.99.28l-.04,3.8-.96.19-.05,3.79-.98.33v4.6s-.97.3-.97.3l-.05,3.77-.97.33v3.58s-.97.32-.97.32l-.04,4.79-.96.19-.05,3.8-.96.28-.05,1.82H.03s-.03-1.88-.03-1.88l.95-.34.05-2.65.95-.35v-2.58s.98-.33.98-.33l.04-3.69.95-.29.08-2.78.78-.18c.2-.05.16-.65.17-.91l.05-.84c.01-.21.56-.19.93-.26l.02-3.74.98-.29.03-2.72.97-.28.03-2.72.96-.29.08-2.77.95-.34v-2.57s.96-.35.96-.35l.1-2.74.95-.34v-3.59s.96-.3.96-.3l.08-2.75.95-.35.03-3.53-.82-.43c-.34-.41-.62-.73-.97-1.08l-.99-1c-.36-.37-.6-.59-1.19-.95l-.11-1.7-.78-.16c-.21-.04-.18-.63-.19-.92l-.03-.83c0-.2-.56-.18-.91-.27l-.07-2.71-.96-.32v-7.75c.37-.12.86-.28.98-.34l.06-2.6c1.85-.48.09-.92,1.91-1.33l.11-1.64c.56-.36.83-.6,1.2-.96l.99-.99c.36-.36.6-.64.95-1.19l1.69-.13.18-.75c.05-.2.63-.18.9-.2l.83-.04c.21-.01.19-.59.27-.87l1.81-.15.22-.71c.06-.18.49-.22.89-.32v-29.8s-.76-.2-.76-.2c-.18-.05-.24-.55-.34-.86l-1.82-.08-.17-.76c-.04-.2-.62-.19-.9-.2l-.85-.03c-.21,0-.18-.63-.25-.91l-1.72-.13c-.34-.56-.58-.83-.95-1.19l-1.02-1.01c-.37-.37-.58-.57-1.19-.93l-.07-1.64-.96-.25-.07-1.81-.77-.17c-.2-.04-.17-.63-.19-.9l-.05-.85c-.01-.2-.51-.18-.93-.26l-.03-8.72.99-.31.02-2.67.84-.36c.16-.53.5-.85,1.1-.98l.13-1.65c.57-.37.82-.59,1.18-.94l1.03-1.03c.35-.35.57-.61.94-1.17l1.69-.15.18-.74c.05-.2.64-.18.91-.2l.83-.04c.2,0,.18-.56.26-.91l2.76-.06.28-.96,5.65-.02.35.96,2.79.09.17.79c.04.2.62.14.91.16l.84.04c.21.01.18.66.25.91l1.65.1c1.16,2.14.69-.15,1.35,1.79.06.18.71.34.76.15l.25-.89,1.72-.19c.32-.55.56-.82.94-1.17l1.06-.98c.08-.13.23-.44.31-.58.24-.45,1.57-.02,1.69-.24l.4-.74c.46-.28.74-.54.97-1.13l1.66-.17c.21-.51.61-.89.98-1.12l.29-.6c.22-.46,1.56-.01,1.69-.24.1-.18.31-.52.41-.71l1.05-.98c.34-.31.63-.68.96-1.17l1.69-.17.18-.76c.05-.2.61-.16.9-.18l.82-.04c.21,0,.25-.61.37-.75.44-.25.81-.53.99-1.12l1.68-.17c.16-.51.59-.89.97-1.12l.3-.6c.22-.45,1.55-.01,1.69-.24l.42-.7,1.04-.98c.34-.32.63-.68.96-1.17l1.66-.18.33-.83.78-.28c.09-.03-.02-.73-.16-.75l-.82-.14v-8.8c.34-.08.95-.2.97-.38l.07-2.57c.56-.16.93-.36,1.04-.91l.92-.46.05-1.58c.61-.38.83-.59,1.2-.96l1.01-1.02c.36-.36.59-.62.95-1.17l1.7-.13.18-.75c.05-.2.63-.18.9-.2l.83-.07c.2-.02.19-.52.29-.88l2.7-.07.32-.96h5.74s.34.97.34.97l2.68.05.19.8c.05.2.62.14.91.16l.84.05c.21.01.18.68.25.92l1.65.08c.34.47.67.87,1.02,1.23l1,1c.34.34.63.59,1.17.96l.16,1.63c1.81.41.09.92,1.88,1.3l.07,2.69.97.28v8.82s-.79.15-.79.15c-.2.04-.32.74-.13.8l.73.21c.19.05.21.53.3.88l1.79.07c.06.28.06.67.19.74l.77.43c.13.07.14.51.24.63.36.43,1.6-.01,1.71.21l.35.76c.47.24.83.51,1,1.14l1.74.1c.05.25.06.66.19.73l.77.43c.13.07.14.51.24.63.34.44,1.57-.04,1.7.21l.39.75c.47.27.78.52.98,1.15l1.74.1c.05.26.05.66.18.73l.77.43c.14.07.14.52.24.63.35.43,1.6-.03,1.71.2l.35.77c.47.23.84.51,1,1.13l1.74.1c.05.26.06.66.19.73l.78.43c.13.07.14.51.24.63.35.44,1.56-.03,1.69.21l.41.71,1.06.98c.37.35.62.64.94,1.19l1.55.13c.26.44.71.89,1.06,1.17.07.14.23.46.3.59s.39.2.55.23c.19.04.33-.6.48-.74l1.12-1.03c.42-.39.63-.6.95-1.21l1.65-.08.28-.95,3.75-.09c.11-.29.32-.81.42-.95h5.55s.37.98.37.98l2.69.05.18.8c.05.2.63.14.92.16l.83.04c.21.01.18.68.24.91l1.65.09c.36.51.64.85,1.01,1.22l1.01,1,1,1c.37.37.62.59,1.19.95l.09,1.64.96.25.03,2.74.98.26.02,8.71-.98.36-.11,1.75-.78.17c-.2.04-.11.61-.13.92l-.04.82c-.01.21-.61.19-.92.26l-.08,1.78-.73.22c.25-.08-1.37,1.86-1.03,1.01l-.35.84-1.71.13c-.16.55-.54.92-.97,1.13l-.28.61c-.08.18-.57.17-.89.19l-.82.06c-.21.02-.19.57-.27.86l-1.92.16v31.85s1.92.11,1.92.11l.17.77c.04.2.62.15.9.17l.84.04c.21.01.19.63.26.9l1.71.12c.34.57.57.85.93,1.2l1.02,1c.36.36.61.58,1.17.97l.14,1.68c.22.05.92.14.93.33l.06,1.66.78.17c.21.05.14.63.17.93l.07.81c.02.2.51.2.92.34v8.5c0,.18-.73.43-.93.48l-.12,2.72c-.59.15-.92.61-1.14.98l-.65.29c-.42.18.06,1.52-.2,1.68l-.72.43-.98,1.04c-.31.32-.68.66-1.05.96-.15.13-.21.72-.42.74l-1.03.08c-.2.02-.76-.08-.75.07l.07.74c.01.16.39.1.85.15l.12,2.76.91.36.08,2.65.93.34.06,2.71.95.28.04,2.72.95.28.05,2.71.95.3.06,2.66.94.33.06,3.7.94.29.09,2.76.94.34v2.61s.96.3.96.3l.1,2.75.94.33v2.61s.96.29.96.29l.1,2.76.94.34.02,2.58.95.32.06,2.71.96.28.02,3.8-.86.07c-.16.01-.11-.32-.16-.9l-1.85-.04-.36.96-4.83.02c-.27,0-.46-.53-.56-.97l-2.29-.04-.16.81c-.04.2-.76.25-.82.05l-.2-.66c-.06-.18-.52-.23-.87-.34l-.07-2.77-.94-.32-.04-3.67-.97-.34-.02-4.54-.96-.38-.04-3.64-.95-.38-.06-3.56c-.04-.17-.62-.32-.94-.39l-.06-4.79-.94-.19-.05-3.83-.94-.19-.07-3.8c-.22-.05-.94-.23-.94-.42l-.05-4.41c-.12-.09-.63-.28-.95-.39l-.05-3.71-.97-.35-.03-1.73-.78-.19c-.19-.05-.21-.48-.32-.87l-4.78-.05-.18-.79c-.05-.2-.62-.18-.9-.19l-.84-.03c-.21,0-.19-.63-.26-.91l-1.72-.14c-.86-1.87.09.33-1.33-1.73-.11-.16-.58-.25-.79-.23l-.87.08c-.21.02-.25.6-.37.76-.46.24-.83.54-.99,1.13l-1.68.15c-.21.53-.56.89-.98,1.13-.08.14-.25.47-.32.6-.09.17-.54.21-.84.22l-.82.02c-.21,0-.25.58-.4.72l-1.09.97c-.35.31-.61.66-.91,1.18l-1.64.17c-.21.53-.6.87-.94,1.14l-.34.61c-.23.41-1.56-.03-1.69.23l-.37.72c-.46.29-.74.55-1.02,1.13l-1.63.18c-.26.49-.63.85-.98,1.14l-.3.59c-.09.18-.56.2-.87.21l-.83.02c-.2,0-.24.61-.34.77-.48.23-.84.5-1.01,1.12l-1.69.16c-.19.53-.56.89-.99,1.11l-.26.62c-.2.46-1.56.02-1.69.23l-.42.69-1.04,1c-.32.31-.67.71-.99,1.12l-.56.23c-.14.06-.2.42-.23.6-.04.19.4.24,1.01.32l.05,8.8-1.01.38-.05,2.67c-1.81.38-.08.85-1.9,1.3l-.14,1.63c-.57.38-.82.59-1.18.94l-1.03,1.02c-.36.35-.57.61-.94,1.17l-1.69.14-.18.75c-.05.2-.62.18-.9.2l-.83.06c-.21.02-.19.55-.28.9l-2.91.06.05.97h20.95s0,6.89,0,6.89l-.79.2c-.18.05-.22.5-.33.91h-16.06ZM46.8,62.04c.25.79.54.92,1.02,1.17l.36.73c.11.23,1.63-.21,1.72.23l.16.78,1.83.09c.07.28.05.91.26.92l.83.04c.33.01.82-.04.89.15l.24.68c.48.15.92.51.99,1.11l1.8.1c.07.29.05.91.25.92l.83.03c.29.01.87-.02.91.18l.16.79,1.76.1c.16.62.54.9,1,1.14.12.16.15.75.35.76l.83.03c.28,0,.86-.02.9.18l.16.79,1.82.08.21.94c.03.14.73.09.76-.05l.16-.76,1.75-.28c.29-.43.63-.85.94-1.14l1.1-1,.37-.7c.11-.2,1.63.16,1.72-.24l.18-.77,2.9-.07v-36.94s-2.93-.05-2.93-.05c-.08-.31-.05-.92-.26-.93l-.82-.04c-.32-.01-.82.02-.9-.17l-.27-.63c-.43-.22-.81-.57-.99-1.14l-1.76-.11c-.07-.31-.05-.89-.25-.91l-.84-.07c-.25-.02-.85-.03-.89.17l-.17.78-1.7.17c-.31.49-.61.86-.95,1.17l-1.05.98-.41.71c-.13.23-1.4-.22-1.69.24-.08.13-.21.49-.32.58-.32.26-.72.66-.97,1.14l-1.73.16c-.08.25-.06.88-.26.9l-.81.05c-.37.02-.79-.02-.9.15-1.53,2.29-.46-.26-1.29,1.76l-1.65.17c-.24.53-.55.84-1,1.14l-.37.72c-.14.27-1.43-.18-1.69.22-1.56,2.38.03-.66-1.38,1.78l-1.53.15c-.33.53-.58.81-.94,1.15l-1.05,1-.42.7c-.15.24-1.44-.19-1.69.21-1.47,2.34-.47-.22-1.28,1.76l-1.71.15c-.05.47-.44,1-.83.98-.19-.01-.43.77-.23.81l.91.17.07,9.77c-.13-.6,2.66,2.34,2.18,2.12l1.72.14c.07.26.04.89.25.9l.83.03c.29.01.87-.03.91.18l.16.79,1.74.08ZM112.23,62.23c.37-.33.68-.69.93-1.14l1.74-.16c.07-.27.05-.88.26-.89l.82-.04c.29-.01.86.02.91-.17l.19-.75,1.89-.13.02-10.88.96-.21c.15-.03-.05-.74-.12-.71.33.63-2.63-2.32-2.05-2.09l-1.63-.15c-.19-.6-.55-.87-.99-1.13l-.37-.76c-.11-.23-1.5.24-1.7-.21l-.28-.62c-.41-.21-.87-.55-.97-1.14l-1.7-.14c-.16-.6-.54-.9-1-1.13l-.35-.77c-.1-.22-1.34.24-1.71-.2-.1-.12-.12-.56-.26-.64l-.76-.43c-.13-.07-.13-.47-.18-.73l-1.71-.11c-.27-.6-.56-.85-1.02-1.14l-.36-.75c-.11-.23-1.51.23-1.7-.21l-.27-.64c-.08-.18-.72-.23-.77-.42l-.2-.72-1.67-.12c-.36-.57-.59-.84-.97-1.19l-1.04-.97-.41-.72c-.14-.24-1.49.23-1.69-.23l-.28-.63c-.41-.21-.89-.49-.96-1.18h-2.72c-.19.7-.45.95-.95,1.15l-.39.82-1.72.07c-.08.28-.06.89-.26.91l-.83.05c-.26.02-.85,0-.9.19l-.18.72-1.8.15c-.09.31-.14.74-.31.81l-.8.33v34.67c.45.1.84.12.89.31l.21.77,1.82.09c.08.29.06.88.27.89l.82.04c.34.02.8,0,.89.19l.3.6,1.06.96c.4.36.63.61.94,1.19l1.72.11c.06.25.03.92.25.93l.84.04c.3.01.78,0,.88-.18,1.54-2.44-.07.72,1.36-1.75l1.66-.14c.08-.27.08-.84.28-.86l.81-.07c.33-.03.8-.01.89-.19l.29-.59c.39-.25.76-.62.99-1.14l1.75-.14c.07-.26.05-.89.26-.9l.84-.03c.28-.01.86.01.9-.19l.18-.75,1.82-.15c.08-.29.07-.84.27-.86l.81-.08c.37-.04.72-.08.92-.13.15-.04.1-.6.23-.67l.77-.42c.13-.07.14-.45.19-.71l1.81-.12c.08-.29.06-.86.27-.88l.82-.06c.35-.03.77-.03.88-.19.09-.12.27-.46.38-.57ZM55.13,94.05l1.75-.13c.08-.28.07-.84.27-.86l.81-.08c.37-.04.72-.08.92-.12.15-.03.1-.61.23-.68l.77-.42c.13-.07.13-.45.19-.71l1.78-.12c.06-.68.44-.95,1.09-1.1l.05-8.82c.59-.1,1-.15.99-.35-.02-.22-.03-.55-.18-.6l-.72-.21c-.2-.06-.1-.85-.3-.85h-.84c-.27-.01-.86.02-.91-.19l-.17-.79-1.75-.12c-.17-.62-.53-.89-.99-1.14l-.36-.76c-.1-.2-1.66.22-1.74-.21l-.16-.8-1.83-.08c-.07-.27-.05-.9-.26-.91l-.82-.04c-.36-.02-.75-.03-.91-.17-.12-.1-.09-.57-.23-.65l-.78-.42c-.13-.07-.14-.47-.19-.73l-1.83-.08c-.07-.28-.03-.93-.24-.93h-.84c-.28-.02-.88.02-.92-.19l-.16-.79-1.83-.09c-.07-.28-.04-.9-.25-.91l-.82-.04c-.36-.02-.76-.03-.91-.17-.11-.11-.1-.57-.23-.64l-.79-.42c-.13-.07-.13-.49-.18-.74l-1.83-.09c-.07-.29-.04-.93-.24-.94l-.84-.02c-.31,0-.81,0-.89-.18l-.27-.64c-.43-.2-.85-.46-.98-1.16l-1.66.03c-.32.62-.56.85-.97,1.17-.12.18-.32.55-.43.73-.14.24-1.54-.18-1.7.2l-.26.66c-.44.22-.82.52-1,1.11l-2.71.16-.33.9-1.8.05v30.85c.44.11.84.15.89.33l.22.72,1.82.14c.07.26.05.89.25.9h.84c.28.02.87.01.91.22l.16.76,1.75.1c.21.64.47.91.96,1.12l.42.85,2.7-.05c.09-.34.08-.88.28-.9l.82-.08c.3-.03.85.03.9-.17l.19-.72,1.72-.2c.23-.53.55-.85,1.02-1.12l.37-.73c.1-.21,1.62.17,1.72-.22l.19-.75,1.72-.14.35-.94,1.66-.1c.24-.6.52-.85.98-1.13l.39-.73c.12-.22,1.63.19,1.72-.23l.17-.74,1.82-.17c.08-.31.07-.83.27-.85l.82-.07c.3-.02.84.02.91-.17l.25-.78ZM102.84,94.26c.11.2.17.68.32.69l.82.04c.29.01.86-.01.9.19l.16.78,1.79.08.29.97,1.7.02c.12.38.16.76.34.84l.66.31c.18.09.12.77.33.78l.83.03c.29.01.87-.02.91.18l.16.79,1.83.09c.07.29.05.91.26.92l.83.03c.29.01.87-.03.91.17l.16.79,1.76.1c.17.63.47.89.97,1.14l.39.75c.1.19,1.63-.2,1.73.21l.19.82h2.69c.35-.65.56-.89.94-1.25l1.04-.97.42-.71c.1-.18,1.61.17,1.71-.24l.19-.76,2.77-.1c.11-.36.15-.77.33-.82l.79-.22v-30.88s-2.92-.06-2.92-.06c-.08-.32-.06-.89-.26-.91l-.82-.06c-.29-.02-.89.04-.93-.17l-.16-.79-1.72-.11c-.31-.59-.55-.82-.93-1.19l-1.13-1.07c-.14-.14-.27-.73-.47-.71-.15.02-.56.09-.59.23l-.14.74-1.84.14c-.08.31-.06.87-.27.88l-.82.04c-.34.02-.78.02-.88.19-.07.13-.24.46-.32.58-.33.28-.72.65-.98,1.14l-1.73.18c-.08.26-.07.85-.28.86l-.83.05c-.29.02-.86-.03-.9.17l-.17.78-1.75.13c-.22.6-.51.85-1,1.14l-.37.72c-.1.2-1.62-.16-1.72.25l-.18.74-1.82.15c-.07.33-.06.86-.26.87l-.82.05c-.28.02-.87-.04-.92.16l-.18.76-1.74.14c-.23.57-.52.86-1,1.16l-.37.7c-.11.2-1.6-.17-1.71.27l-.18.74-1.82.12c-.07.28-.05.87-.26.89l-.81.08-.94.09c-.16.02-.05.74-.19.78l-.87.25c-.14.04-.07.73.08.75l.88.11.03,8.85c.33.1.86.17.91.37l.2.73,1.81.08c.07.31.05.91.26.92l.83.04c.29.01.87-.03.91.18l.16.79,1.75.09c.22.61.51.87,1.04,1.21ZM48.83,129.26c.11.19.18.69.34.69h.82c.31.02.76.05.89.21.1.12.13.56.25.63l.73.44c.13.08.15.47.21.71l1.72.11c.21.64.51.88.97,1.16l.4.74c.12.22,1.51-.23,1.69.22l.26.63c.44.21.81.56,1,1.13l1.72.1c.1.34.15.76.33.84l.67.32c.18.08.12.75.32.76l.81.03c.36.02.79-.01.89.16.07.13.2.52.31.61l1.05.95c.39.36.63.65.95,1.2l1.7.15.24.88c.04.14.66.16.72.03,1.05-2.41.35.3,1.34-1.88l1.67-.17c.16-.57.47-.91.97-1.1l.38-.8,2.66-.07c.11-.35.19-.77.35-.84l.78-.33v-35.68s-.91-.26-.91-.26c-.18-.05-.16-.79-.35-.8l-2.64-.09c-.09-.31-.08-.91-.28-.92l-.8-.04c-.37-.02-.8.02-.91-.16-.08-.13-.24-.5-.34-.61l-.99-.98-.68-.5c-.12-.09-.14-.44-.22-.76l-2.78.04c-.09.32-.09.9-.29.91l-.79.06c-.38.03-.79-.01-.91.16-1.56,2.38.04-.63-1.37,1.75l-1.66.18c-.08.25-.07.84-.27.86l-.82.05c-.27.02-.85.02-.9.21l-.18.74-1.82.14c-.07.28-.06.86-.26.88l-.82.05c-.28.02-.87-.04-.92.16l-.17.76-1.74.14c-.24.57-.53.86-1,1.16l-.37.7c-.11.21-1.61-.16-1.71.27l-.18.75-1.75.13c-.18.61-.51.89-.99,1.14l-.37.72c-.1.2-1.62-.15-1.71.25l-.17.76-1.73.07-.34.97-1.72.05c-.07.72-.39,1-1.11,1.08v11.85s1.88.05,1.88.05c.1.36.15.77.33.85l.66.31c.19.09.12.76.33.77l.82.04c.36.02.78-.01.88.16.07.13.2.52.31.62l1.05.95c.39.36.64.65.94,1.2l1.65.15c.22.61.48.84,1.02,1.2ZM111.72,127.69l1.07-.94.38-.71c.11-.2,1.49.21,1.7-.23l.28-.59c.43-.24.78-.6.99-1.15l1.65-.14c-.13-.78,3.23-2.61,2.06-2.85l-.86-.18-.02-9.74c-.67-.14-1.06-.4-1.1-1.1l-1.81-.12c-.07-.27-.04-.9-.25-.9l-.82-.04c-.34-.02-.81,0-.9-.18l-.29-.61c-.37-.25-.87-.55-.97-1.15l-1.75-.11-.27-.91c-.07-.24-1.51.21-1.73-.21-.77-1.56-.83-.53-1-1.06l-.24-.73-1.8-.08c-.07-.27-.03-.93-.24-.93l-.83-.02c-.28,0-.88.04-.93-.17l-.16-.8-1.83-.09c-.07-.28-.05-.9-.25-.91l-.82-.04c-.36-.02-.77-.02-.91-.17-.1-.11-.11-.58-.25-.65l-.77-.42c-.13-.07-.13-.47-.18-.73l-1.83-.09c-.07-.31-.04-.92-.25-.92l-.83-.02c-.3,0-.88.03-.92-.18l-.16-.82h-1.75s-.34-1.05-.34-1.05l-2.65.09c-.28.62-.51.85-.9,1.2l-1.09.97-.38.78-1.72.05c-.07.31-.06.87-.26.89l-.82.07c-.28.02-.87-.02-.92.18l-.18.76-1.9.09v35.84c.44.11.85.15.9.33l.22.74,2.78.11c.09.34.08.87.28.88l.82.05c.37.02.78,0,.88.18.08.13.24.51.35.62l1,.94c.42.39.6.6.97,1.23h1.58c.38-.61.58-.86.95-1.21l1.05-.98.42-.7c.13-.22,1.47.22,1.69-.24l.29-.6c.39-.23.82-.59.97-1.13l1.67-.15c.28-.56.54-.84.97-1.16l.42-.7c.16-.26,1.47.19,1.68-.26.07-.14.22-.43.28-.59.4-.25.76-.62.99-1.15l1.65-.15c.27-.57.52-.84.97-1.16l.42-.7c.17-.28,1.4.18,1.68-.23,1.6-2.31.4.24,1.28-1.75l1.63-.18c.29-.5.57-.88.94-1.21Z"/>
  </g>
</svg>