<?xml version="1.0" encoding="UTF-8"?>
<svg id="Layer_2" data-name="Layer 2" xmlns="http://www.w3.org/2000/svg" viewBox="0 0 126.4 613.04"><style>path,polygon,circle,rect,ellipse,line,polyline { fill: #D4AF37 !important; stroke: #D4AF37 !important; }</style>
  <g id="Layer_1-2" data-name="Layer 1">
    <path d="M118.58,612.7l-110.67.34-.17-258.4c.02,29.88-7.17-38.84-7.1-29.21L.06,244.46c-.04-4.91-.51-7.16,2.05-11.36l3.85-27.93,3.06,15.35c5-4.87.07-36.92,3.4-50.83l3.7,21.45c12.02-13.08,15.56-27.58,19.15-42.99,4.12-17.71-2.57-32.05,2.86-56.61l2.63,10.65c9.3-20.29,20.62-42.38,19.34-65.48l-.91-16.44L62.53,0l4.5,20.3c.76,3.45-1.24,11.52-.67,15.35,3.56,23.96,9.8,46.08,19.84,66.77l2.63-10.76c5.06,26.05-.51,34.19,2.86,56.6,2.53,16.85,8.91,31.7,18.86,43.41l1.99-21.96c4.62,13.87.77,44.84,4.85,49.62l3.25-13.67,3.75,25.98c1.14,4.42,2.01,7.85,2,12.88l-.19,79.9c.02-8.28-7.54,56.87-7.53,29.32l-.1,258.96ZM49.89,129.39l-4.88-.1c-.32,7.17-1.41,12.52,2.52,20.29l2.36-20.19ZM54.78,148.74c3.1-7.43,2.86-13.9.04-20.84-3.21,6.52-3.09,14.18-.04,20.84ZM63.28,149.54c3.46-8.6,3.36-15.25.13-23-2.82,7.8-2.77,15.39-.13,23ZM71.28,149.54c3.46-8.6,3.36-15.25.13-23-2.82,7.8-2.77,15.39-.13,23ZM79.28,149.54c3.46-8.6,3.36-15.25.13-23-2.82,7.8-2.77,15.39-.13,23ZM34.27,213.35l-5.08.31c-.88,5.28-1.34,11.84,2.1,16.57,4.46-3.96,3.46-9.73,2.99-16.88ZM42.49,230.69c3.75-6.77,3.59-13.45-.38-18.81-4.08,5.83-5.12,13.06.38,18.81ZM51.96,230.64c5.82-6.29,5.17-13.91-.15-18.76-2.8,6.23-3.24,12.6.15,18.76ZM64.12,230.8c2.6-6.64,2.25-13.01-.58-19.19-5.11,5.4-6.46,13.46.58,19.19ZM74.44,230.45c2.96-6.35,2.8-13.07-.38-18.81-5.38,5.84-6.41,13.63.38,18.81ZM84.11,230.54c4.05-6.47,3.82-13.21-.07-18.66-4.1,5.79-4.9,12.97.07,18.66ZM92.66,213.39c-.86,4.04-4.69,14.25,3.63,16.54,4.81-9.03-2.08-23.82-3.63-16.54ZM10.74,234.67l.5-11.22-4.15,5.85c-.91,1.28,2.41,5.44,3.65,5.37ZM116.81,233.77c3.63-2.8.95-7.36-2.02-8.44-.22,4.08.41,8.55,2.02,8.44ZM57.45,249.34c-20.33,3.78-31.85,22.3-27.5,41.17,3.98,17.27,20.91,29.32,39.07,26.11,18.17-3.21,30.97-20.6,28.11-39.32-2.69-17.55-19.73-31.67-39.68-27.96Z"/>
    <path d="M76.54,297.56c-6.43-.25-15.45-6.33-16.45-11.34-1.77-8.84-.68-17.52,2.91-27.26l3.19,26.5c3.37,3.21,8.2,7.46,10.35,12.1Z"/>
  </g>
</svg>