<?xml version="1.0" encoding="UTF-8"?>
<svg id="Layer_2" data-name="Layer 2" xmlns="http://www.w3.org/2000/svg" viewBox="0 0 474.36 322.93"><style>path,polygon,circle,rect,ellipse,line,polyline { fill: #D4AF37 !important; stroke: #D4AF37 !important; }</style>
  <g id="Layer_1-2" data-name="Layer 1">
    <path d="M454.03,127.52c3.14,7.28.79,9.75.54,15.2-1.49,31.41-1.28,62.35-.18,94.19.16,4.74,4.75,12.72,4.44,17.11,1.74,1.14,4.96,2.36,5.77,3.82s.85,5.49,1.15,8.29c.22,2.1,4.66,3.96,8.22,5.56l.39,33.63c-12.77,1.02-22.73-.89-33.42-7.38l12.45,10.74c-13.05.86-25.97-.19-37.98-2.61,7.39-16.07-12.91-19.64-6.65-21.3l7.83-2.08c-6.83-1.74-13.08-1.01-20.95,2.47-7.68,3.39-9.33-4-24.68-4.09,7.1-5.96,9.73-19.03,4.31-27.88-4.79-2.54-15.81-2.61-20.52,1.58l20.54-1.08-.85,21.29-8.48,6.09c-2.99-1.52-7.31-3.37-9.7-3.57-2.66-.22-6.36,5.59-6.35,8.25l.04,14.4c6-2.62.03-20.38,6.01-20.4,2.03,0,5.88,1.86,8.36,2.99l15.55,1.96c8.6,4.38,15.99,3.91,24.77-.8l10.46,14.49-4.37,15.65-58.01-1.48,19.06,5.7-22.53,4.26c-12.41,2.35-23.4-5.81-42.28-2.2-8.37-7.9-16.94-5.23-26.23-3.04-31.25,7.36-63.86,6.38-95.7-1.04l-21.94-5.12,7.37-13.05-12.84,16.07-29.28,2.65c-12.13,1.1-24.86.3-37.45.72-13.73.46-26.42-1.02-39.73-2.5-6.29-.7-13.69.64-19.4-1.63,8.2-9.86,32.53.95,43.84-10.98l-9.35-6c-3.75,5.24-7.59,6.84-13.16,7.68l-20.55,3.08c-9.87,1.48-21.44.12-32.54-.86l10.2-21.35c2.66-5.56,5.02-11.2,3.11-16.86l-2.3-6.83c-.57-1.7,5.83-3.18,6.01-4.99.4-4,3.56-12.58,3.59-16.67l.73-93.89-3.72-12.07c6.97-6.85,3.65-12.52-1.74-21.14,5.68-2.06,12.19-1.4,19.19-1.16,22.71.79,44.89.75,67.67-.01,9.19-.31,16.34-.26,26.73.7-7.94,10.36-1.27,13.99-1.13,20.15.83,34.7.99,68.61-.14,103.35-.25,7.73-7.11,18.2-3.09,25.72,8.24-.96,18.25-1.53,24.38-1.32l1.9,11.78c6.93-3.04,8.99-3.56,15.06-4.81.32.57-.46-2.48-1.13-2.42l-4.58.41c-1.18.1-3.9-2.32-4.92-1.74l-4.85,2.77c-1.39-10.16,9.44-5.71,14.54-13.03-12.87,3.45-24.65,5.14-38.61,5.18-1.87-7.53,3.53-14.02,3.53-20.45v-105.6s-.12-18.43-.12-18.43c-.03-4.22-4.59-8.96-8.58-15.16l31.03-.59c-11.16,8.97-5.79,17.24-7.34,26.26-2.62,15.22-2.65,29.8-1.52,45.64,1.69,23.48-1.52,46.37,2.12,70.3l1.46-104.05c.1-7.47.89-14.69.37-21.44-.75-9.76,6.14-13.72,14.99-13.72,4.45,0,11.35.53,14.46,3.17,2.6,2.2,3.71,8.78,2.74,12.83-1.28,5.33.18,10.38.31,15.53.91,34.77.94,68.39-.13,103.71-2.39-17.24-2.13-33.59-1.89-53.04l-27.38-.24-.18,51.39c2.89-1.49,7.06-5.36,6.38-7.63l-3.56-11.95c-2.22-7.44,7.2-11.85,10.63-24.68.3-1.12,3.3-1.16,4.38-.75s.19,3.87.81,5.16l5.69,12,.37,19.08,1.26,7.2c.26,1.49-2.68,3.38-3.91,4.55l9.65,2.38,1.66-38.3.75-69.13-3.72-8.07c3.52-9.14,1.62-15.75-5.52-25.68l27.81-.4c-4.44,8.58-5.82,13.5-6.69,21.95l-1.65,16.03-.41,91.99c-.03,6.62.94,12.87,3.93,18.12l.47-113.46c.01-3.07,2.22-9.45,1.12-11.96-2.89-6.53-.61-19.08,8.57-19.06l56.16.09c7.93.01,11.38,8.55,9.21,15.93-1.28,4.34.19,10.03.24,14.77l.99,95.04.44,12.28,12.18.88c-3.06-1.72-5.39-2.44-9.05-3.48l-.51-104.66-.6-13.41c-.3-6.67-2.81-11.96-7.24-20.84h27.93c-7.47,11.05-9.48,16.84-6.02,25.99-.38,2.18-1.61,7.57-1.62,9.61l-.08,108.48c-3.61.57-4.8,1.87-3.35,3.48l11.57-.32-4.63-2.16c-1.13-.53-1.67-3.18-1.65-5.19l.63-102.06c.05-7.75,1.02-14.04.37-22.12-.26-3.19,1.72-9.01,4.08-10.85,4.8-3.74,22.01-3,26.06,2.57,2.58,3.55,3.17,8.83,2.07,13.46-.97,4.08.51,9.13.54,13.28l.74,107.7c5.36-29.98,4.22-77.13,2.76-107.36-.22-4.5-3.75-9.69-1.8-14.86,2.89-7.68-.39-11.87-6.65-19.83l30.91.26c-7.83,8.64-10.27,14.94-7.7,22.45.9,2.63-1.73,8.97-1.73,11.66l.03,106.45,7.72,12.82c.37-5.18-2.63-11.37-5.64-16.45-.33-34.32-.85-68.33.57-102.01.27-6.37,6.37-10.63-1.91-21.16,14.19-1.73,24.55-1.18,37.16-.63,18.68.82,37.06.32,55.8.1l22.36-.26c-2.68,5.93-6.84,12.34-5.11,16.35ZM53.25,151.67c.12-5.63,0-14.06-.3-18.05-.23-3.16-11.98-3.1-12.29-.05l.51,19.77c2.86,1.41,12.03,1.08,12.08-1.68ZM88.01,153.78l-.09-22.18-12.43-.04.04,22.35,12.49-.12ZM122.54,153.61l.28-22.09-12.93.54.66,21.93,11.98-.39ZM364.23,154.16l-.19-22.43-12.58.09-.02,22.31,12.79.03ZM399.1,151.3l-.24-19.28c-3.25-1.21-10.67-.78-12.62,1.31l.63,20.08c2.11,2.3,12.28,1.39,12.23-2.11ZM434.35,154.15l.35-22.68-13.13.18.33,22.86,12.45-.36ZM260.6,166.62c6.81-16.18-14.15-27.69-26.22-26.24-11.77,1.41-27.53,14.13-20.92,27.7,8.95,9.6,41.61,11.68,47.13-1.46ZM240.03,196.1c2.12,7.84,3.18,14.78,3.69,22.57,12.15,3.28,14.52,12.63,18.23,24.55l.68-60.98c-18.73,4.99-33.3,3.84-51.1.05l.27,58.69,9.36-15.09c1.47-2.37,4.22-6.51,3.76-8.75s-4.31-5.66-5.25-7.87c-2.57-6.12,6.94-12.77,12.08-13.52l2.75-7.01c.39-1,3.53-.04,3.81.98l1.72,6.37ZM315.69,197.29l5.07-3.03c3.15,16.79-11.8,23.67,1.9,39.88l-.07-51.22-26.34-.15.98,51.19c9.66-14.28-6.01-19.41,6.58-32.93,9.22-9.91.61-5.45,6.18-12.61,3.11-4.01,3.64,10.11,5.7,8.88ZM202.75,241.14c3.5-20.63,3.37-39.13.1-59.12-3.2,20.44-3.07,39.21-.1,59.12ZM270.75,241.14c3.5-20.63,3.37-39.13.1-59.12-3.2,20.44-3.07,39.21-.1,59.12ZM53.37,221.71l.2-20.99-13.09.25.3,22.48c4.11.6,10.79.59,12.58-1.73ZM88.21,223.43l-.26-22.91-12.47-.1-.03,23.34,12.76-.33ZM122.94,223.85l-.24-23.57-12.6.67-.12,22.33,12.96.56ZM364.31,223.68l-.26-23.13-12.64-.13-.11,23.28,13.01-.02ZM398.95,221.32l.2-20.69-12.95.32.26,21.25c1.67,2.61,12.47,2.79,12.5-.88ZM434.64,223.76l-.27-23.34-12.72.11-.04,23.15,13.04.07ZM180.34,259.27c5.91-6.6.75-9.21-3.73-11.32l3.73,11.32ZM204.14,267.03c-1.46,4.68.79-.02,1.78-1.51.65-.97-1.74-1.91-3.33-3.37l-3.73-3.43c-.79-.72,2.2-3.34,2.51-4.36l1.68-5.53c.21-.69-1.32-.02-2.56.54-2.86,5.06-3.81,8.82-2.26,14.26l-7.57,3.62,13.48-.24ZM291.83,261.72l2.48-8.86-9.5-4.37c-.73.8-1.77,6.82-1.81,9.2l5.31-4.07c.91-.7,2.42,2.14,2.62,3.27l.89,4.83ZM286.48,270.67l-20.79,1.3c10.22,2.95,20.57,2.96,30.79,2.11,23.48-11.44,35.21-1.71,52.85-13.96l-19.28,4.61c-4.4,1.05-11.06.02-16.43,2-3.71,1.37-8.54.08-9.63-2.02l-4.83,6.1c-.91,1.15-5.03.14-5.85-.96l-3.35-4.51c-.71-.96-2.68,3.65-3.48,5.33ZM121.04,264.8c-4.66-.73-8.74-.71-12.31.06,4.66.73,8.74.71,12.31-.06ZM257.03,269.44c-5.75-6.71-36.48-9.79-38.39-.01h38.39ZM185.04,270.8c-4.66-.73-8.74-.71-12.31.06,4.66.73,8.74.71,12.31-.06ZM276.48,281.53c-8.03-2.66-10.85-3.72-14.07-9.65l-50.86.23c1.3,7.58,4.9,9.77,11.11,9.73l53.81-.31ZM61.35,293.65c3.9-11.74,28.03-6.44,46.17-12.09-1.71-2.77-4.63-6.56-5.81-7.65.21,3.22.23,4.29.31,4.9.07.57-1.92,1.85-2.77,1.96l-32.71,4.33c-1.23.16-4.33,1.83-4.99,2.84s-.38,3.89-.2,5.71ZM249.07,318.62l31.42-3.1-8.08-22.64c-.77-2.16.69-6.72,2.35-8.85l-77.99-.59-6.5,22.43c-.62,2.15-2.97,4.96-5.66,8.43l39.76,4.59c8.29.96,16.24.57,24.69-.26ZM148.65,288.73l-27.82-2.6c9.09,2.81,16.98,4.43,27.82,2.6Z"/>
    <path d="M277.76,59.76l-76.63-.09c-5.88,0-10.32-3.57-16.94-.02-4.31,2.31-13.82.14-19.1.38l-33.77,1.5,5.22-16.76c33.13,7.13,40.59.24,69.26,1.04l-1.09-8.98c-.27-2.23,4.33-4.92,6.17-6.16l-12.62-2.7c2.18-5.26,7.33-6.45,11.44-5.3.73-.32,2.94-6.17,4.05-5.14l5.43,5.03c1.31-5.09,3.33-9.57,6.55-13.67l-2.99-3.58c6.4-1.82,7.92-2.26,13.64-5.29l8.49,4.37,3.24-.51c.91-.14,3.31,1.4,2.83,2.19l-2.17,3.62c3.73,3.48,5.77,7.52,6,13.19l4.73-5.35,16.92,8.77-12.18,5.03,3.94,15.34c29.54-2.46,34.91,5.37,69.97-1.65,1.58,6.39,2.8,10.51,4.96,16.09l-45.97-1.38c-6.35-.19-11.83.06-19.38.05Z"/>
    <path d="M279.07,64.19c-13.84,18.2,1.94,22.86-4.07,29.8-1.45,1.67-6.44,4.1-9.04,4.1h-43.09c-7.7,0-18.33,2.16-24.08-3.84l.43-30.34,65.62-.35c4.79-.03,10.09.2,14.23.64Z"/>
    <path d="M439.61,108.32c-21.65-.67-41.96-.89-62.45.2-10.37.55-19.33,1.21-28.58-1.42l14.81-3.52c.73-1.5,1.06-8.18-.86-8.54-12.66-2.37-11.27,3.46-17.76-.44-1.99-1.2-.43-8.69,2.59-8.69l101.28.04c10.62,0,1.36,12.93,3.47,22.77l-12.49-.39ZM388.19,96.02c-1.65,1.94-.65,9.01,1.61,8.91,2.49-.1,6.09-.15,7.6-1.25,1.82-1.32,1.39-7.66-.71-8.45-1.75-.66-7.29-.63-8.5.79ZM432.85,95.64c-2.4-1.2-9.1-1.5-10.34.52-.83,2.79-.29,8.85,1.83,8.75,3.04-.15,6.92-.49,8.93-1.28,1.67-.66,1.19-7.19-.41-7.99Z"/>
    <path d="M123.01,107.51c-21.19,2.6-61.2-1.42-86.09.62l-14.68,1.2c1.78-14.05-5.89-23.23,5.41-23.22l99.8.06c2.19,0,3.24,7.41,1.55,8.21-2.05.97-4.31.86-8.74.75l-8.16-.21c-2.16-.06-1.71,6.79-1.34,8.89l12.25,3.71ZM51.71,95.81c-2.28-.91-8.73-1.08-10.39-.7-.46,3.65-1.09,9.52.89,9.52l8.96.02c2.01,0,2.41-8.1.54-8.84ZM86.41,95.78c-1.99-1.4-9.03-1.62-10.06-.07-.59,2.53-1.28,8.61.69,8.69l8.79.38c2,.09,2.21-7.85.58-9Z"/>
    <path d="M179.76,94.34c-7.91,7.54-21.62,4.53-31.25,1.33-8.79-18.42,3.42-10.52-6.14-32.65l40.7.63c-9.26,16.3,2.37,25.3-3.3,30.7Z"/>
    <path d="M328.31,81.37l-1.79,13.33c-7.92,3.39-24.44,8.55-32.3-.7-6.15-7.62.67-22.03,4.19-30.61,8.89-.04,16.64-.28,24.11.67s6.46,12.37,5.79,17.32Z"/>
    <path d="M196.11,95.72l-12.52-.39c2.53-22.26-8.35-17.89,6.66-35.12l6.97,2.39c-.33,4-.74,10.39-.82,15.32l-.3,17.8Z"/>
    <path d="M143.78,77.49l-1.36,18.39-10.54-.48-5.52-34.17c5.05,2.29,4.08,4.02,5.54,8.62l2.72-7.97c9,.82,9.73,7.87,9.16,15.6Z"/>
    <path d="M341.59,93.16c-.73,3.31-10.69,3.44-13.25,1.44,3.02-11.31,5.16-20.63.14-30.76,8.45-5.3,20.52,5.11,17.72,13.42-1.6,4.77-3.2,9.47-4.62,15.89Z"/>
    <path d="M292.78,95.27l-15.25.4.27-11.05c-1.68-7.01-.47-18.31,6.63-20.5l6.15-1.9c1.63-.5,3.18,6.05,2.07,7.57-4.27,5.84-5.93,13.92.14,25.49Z"/>
  </g>
</svg>