<?xml version="1.0" encoding="UTF-8"?>
<svg id="Layer_2" data-name="Layer 2" xmlns="http://www.w3.org/2000/svg" viewBox="0 0 867.41 660.2"><style>path,polygon,circle,rect,ellipse,line,polyline { fill: #D4AF37 !important; stroke: #D4AF37 !important; }</style>
  <g id="Layer_1-2" data-name="Layer 1">
    <path d="M92.09,616.16l1.28-27.98,1.37-27.95,1.66-39.16c.67-15.9.9-30.31.35-48.85h158.99c3.21,3.18,1.69,9.27,1.75,14.18.64,52.78-2.12,104.24,1.75,157.28,5.44-57.79-.3-113.93,2.99-171.35.23-4.04-.04-6.52-.1-10.55l-1.51-104.5c-6.3-7.25-15.15-16.14-8.12-27.1.09.18,2.68,4.61,3.45,3.68l3.47-4.14c.35.56,3.28,5.65,4.34,4.59l4.74-4.76,5.68,4.96c1.2,1.05,3.22-5.6,4.77-5.27,1.63.35,4.24,6.39,5.42,5.24l5.53-5.39,2.47,3.8c.53.81,3,2,3.46,1.15l2.62-4.79,3.47,4.2c.91,1.1,3.67-1.99,4.8-3.15.82,8.84,1.85,16.67-5.42,22.98l.09,275.11c1.71-3.82,1.97-8.83,2.26-14.32l197.47.12c.61,10.5.13,20.05-.94,30.09l-1.68,15.77-408.57.03,2.18-43.92ZM287.02,359.08l-1.93-5.47c-.28-.81-5.69.61-5.66,1.47l.38,14.03c3.99-.47,6.69-.59,6.76-1.88l.45-8.16ZM286.45,398.52c.07-1.68-.58-4.47-.95-5.59s-5.76-.96-5.78.22l-.27,14.12c2.85.16,6.64.59,6.7-1l.3-7.76ZM286.45,446.61c-.05-2.09-.55-4.32-.93-5.37s-5.83-.88-5.84.24l-.14,14.11c2.17.56,7.13.94,7.09-.66l-.18-8.32ZM284.26,500.42c3.82-1.2,3.25-15.14-1.06-15.06-5.95.45-7.23,16.55,1.06,15.06ZM129.66,504.91c.04-4.99-.54-10.96-3.91-12.24-3.95,3.93-3.76,14.61-2.19,18.92.49,1.34,6.03.92,6.05-.49l.05-6.19ZM139.48,504.72c.57-3.94-.5-11.17-4.53-11.7-2.92,1.18-3.56,9.03-3.07,12.96l.76,6.08c.16,1.28,5.59,1.3,5.77.02l1.07-7.36ZM181.06,510.49c.06-4.01-.62-14.8-1.24-17.54-7.7.03-5.66,8.03-5.4,13.16l.3,5.91c.06,1.25,6.32-.29,6.34-1.53ZM190.59,504.91c.62-5.19.25-12.54-4.97-11.83-1.6,2.19-2.56,9.26-2.1,12.89l.78,6.1c.16,1.23,5.3,1.14,5.44-.09l.84-7.06ZM207.67,513.49c8.47-4.6,6.5-15.78,1.05-21.47-4.68,4.86-4.79,15.87-1.05,21.47ZM217.06,493.28c-4.49,5.1-5.37,15.47.84,19.48,5.61,3.86,5.32-23.37-.84-19.48ZM242.9,510.04c.32-3.96-.22-13.73-2.3-18.17-7.77,1.92-3.74,18.78-2.91,21.06.28.76,5.14-1.94,5.21-2.89ZM252.57,504.86c.45-5.17.06-11.82-5.18-12.03-3.43,1.84-1.74,16.28-1.13,19.22.26,1.23,5.6,1,5.71-.25l.6-6.95ZM286.24,538.77c.03-2.68-.36-5.79-.63-7.13-.2-1.01-5-.94-5.37.02-1.2,3.13-1.51,10.48-.73,13.74.29,1.2,6.62,1.63,6.64.4l.08-7.03ZM127,557.3c3.84-6.69,3.2-14.79.09-20.94-5.82,4.74-7.76,13.97-.09,20.94ZM138.05,538.59c-.51-1.31-2.15-.87-5.71-.73l-.5,16.08c-.05,1.49,5.81,2.62,6.28,1.21,1.81-5.44,1.8-11.78-.07-16.56ZM179.61,556.06c2.24-7.19,2.16-14.59-1.1-20.03-5.58,5.46-7.54,13.86,1.1,20.03ZM185.36,556c7.72-6.54,6.44-15.3.18-19.68-2.41,5.9-2.51,13.05-.18,19.68ZM212.38,545.29l-.15-6.64c-.02-1.09-3.91-1.55-5-1.33-1.57,3.57-2.46,12.21-1.06,15.96.58,1.54,6.39.73,6.36-.93l-.15-7.06ZM217.71,556.08c7.1-6.75,5.62-15.11-.1-20.03-3.49,5.64-4.04,13.71.1,20.03ZM242.78,545.15l-.24-6.81c-.04-1.11-5.14-1.68-5.32-.58-.64,3.93-.77,11.73-.39,16.15,2.91.09,6.29.39,6.24-.86l-.29-7.9ZM247.56,556.15c7.8-6.75,6.56-15.75-.07-20.15-2.73,5.95-2.86,13.34.07,20.15ZM286.29,583.02c.08-3.08-.05-4.97-.19-6.13s-5.81-1.34-5.87-.16l-.63,12.75c-.06,1.27,6.47,1.84,6.5.58l.18-7.03ZM184.85,588.61c.08-1.53-1.22-5.7-1.83-6.86s-4.89-.26-5.32.96c-1.18,3.31-1.04,11.25-.01,14.51.5,1.57,6.7.96,6.78-.68l.39-7.93ZM210.25,597.8c3.92-2.87,3.26-14.05-.68-17.58-5.9,3.59-7.09,16.49.68,17.58ZM217.56,599.26c7.93-6.26,5.8-14.88-.01-19.21-3.1,5.64-3.91,13.12.01,19.21ZM242.62,589.14l-.24-6.7c-.04-1.09-4.72-1.69-5.02-.64-.98,3.48-1.35,11.05-.39,14.59.39,1.45,5.97,1.68,5.92.19l-.26-7.44ZM248.86,598.8c6.01-6.12,4.97-15.79-1.04-18.13-3.35,4.25-4.13,14.77,1.04,18.13Z"/>
    <path d="M305.3,376.04c-3.59-27.87,6.91-20.57,4.59-47.66l-6.37-4.35c-.59-.4.2-33.98,1.3-39.48,1.4-7.01,2.57-12.81,3.69-21.14l174.24.15c2.69-6.34,6.98-14.62,10.6-18.06.98-.93,5.86.55,5.59,1.88s-1.36,5.61-.98,7.36l14.41,65.38c-.52-2.35-.4,56.16-16.95,56.14l-190.12-.22ZM485.07,300.14c4.07,10.6,6.75,19.05,11.68,28.62-1.59-14.21-6.66-25.89-12.53-39.27l-12.54,39.7c10.64-8.42,5.84-20.2,13.38-29.06ZM360.38,314.34c4.64,9.52,5.89,14.41,11.06,20.39-3.42-10.98-6.54-18.75-10.96-28.81-4.82,11.3-7.79,18.86-10.27,29.51,5.65-7.58,7.3-14.41,10.17-21.09ZM404.28,314.39c4.31,8.43,5.45,12.81,10.37,18.85l-10.34-28.13c-5.04,10.79-7.86,17.82-9.94,28.45,4.74-7.44,6.8-12.94,9.92-19.16ZM494.24,365.44l-.26-33.71-17.82.25.98,34.2,17.11-.74ZM413.76,356.76l-.53-16.59h-17.11s.05,16.51.05,16.51l17.59.09ZM369.62,366.23l-.2-24.52-16.41.03.06,24.39,16.55.1ZM414.93,371.48c-7.02-5.93-15.33-5.23-19.89.62l19.89-.62Z"/>
    <path d="M797.16,632.34c-12.42-18.35-12.09-18.07-31.78-26.76l-.05-102.71,25.76.03c1.32,34.76-1.52,68.7,1.89,104.95,6.47-35.08-.83-68.67,3.38-102.78.45-3.61,3.83-9.73,3.75-14.86l-1.65-95.91c-.25-14.7-5.35-28.18-2.61-44.24l71.17.77c.49,26.33,2.49,23.3-11.08,46.13l.12,262.63-48.46.59c-3.27-9.99-5.21-20.14-10.43-27.85ZM814.87,375.12l1.33,21.34,3.1-14.89c.88-4.21-3.82-13.37-7.9-15.34-2.85-1.37-8.66,4.89-8.47,7.66l1.46,22.38,1.34-21.89c.1-1.59,3.14-4.58,4.67-4.73s4.38,3.86,4.48,5.47ZM836.66,378.37c1.35,6.81-5.33,13.16,2.03,19.07.79-5.9,3.6-33.81-6.42-31.57-8.52,1.91-12.07,22.95-10.15,30.27l7.3-25c.35-1.21,5.65-1.23,5.88,0l1.36,7.23ZM849.03,374.57c.53-2.08,5.71-4.49,8.14-5.56-.44-.92-4.41-3.47-5.66-2.29-7.6,7.16-10.61,23.55-8.25,30.62l5.78-22.78ZM821.4,416.65c-.12-2.06-.97-6.93-2.25-6.65l-4.75,1.05c-.97.21-1.77,4.39-1.48,5.44.41,1.5,3.09,3.37,4.55,3.84,1.17.38,4.01-2.38,3.93-3.69ZM824.18,453.62c2.85,3.17,8.3-.36,8.07-4.46-.21-3.63-2.92-6.74-7.33-5.74-2.16.49-2.25,8.51-.73,10.19ZM824.29,485.42c3.02,3.16,8.66.45,7.99-6.11-.28-2.74-2.65-5.86-7.56-4.81-1.91,1.15-2.33,8.93-.44,10.92ZM821.81,529.43l-1.29-15.04-6.56,5.37-1.35-4.33c-.16-.52-3.19.76-3.2,1.33l-.26,12.79,12.66-.11ZM832.85,530.6c6.68-5.09,5.77-11.76.42-15.8-1.02,4.92-1.11,10.3-.42,15.8ZM839.84,531.69c6.44-6.22,5.41-13.96-.63-17.83l.63,17.83ZM771.16,533.71c6.1-6.77,5.94-13.83-.21-18.83-.85,6.5-.84,12.04.21,18.83Z"/>
    <path d="M249.35,348.83c6.86,8.51,12.98,17.65,6.58,27.17l-147.53-.12.4-25.94c.07-4.72,1.1-11.45,1.87-16.14l-14.69-56.24-15.36,56.91-28.37-84.35,183.63.14,2.97,11.58c.58,2.25,7.56,1.82,8.81,2.82l4.4,19.97c1.94,8.81.48,19.57,1.63,28.66l1.19,9.45c.29,2.27-5.11,4.06-7.11,6.16-1.09,4.66-1.38,16.12,1.55,19.95ZM150.82,314.07l9.89,20.6c-.78-10.88-4.79-19.36-10.04-29.49-4.95,11.58-7.97,19.48-10.46,30.24,5.69-7.47,7.18-14,10.61-21.35ZM159.67,366.6l-.23-22.63-16.64-.35.07,23.1,16.8-.11Z"/>
    <path d="M309.97,610.47c-2.88-.02-6.32-1.6-6.07-3.17s3.52-3.8,5.53-3.79l35.88.15,46.11-.04,106.82-.23.98-20.73-3.53-2.62-1.34,20.17h-92.56s-.15-115.95-.15-115.95l-.14-54.11,103.61.1.17,79.92-9.69,9.4c2.12,2.15,5.65,5.46,6.09,7.11v27.22c.02,2.49.33,5.81-.72,6.38l-5.74,3.11,6.32,2.3-.03,44.88-110.02.06-44.05.06-37.46-.22ZM422.78,446.85c-4.3,4.28-4.21,10.32-3.47,15.34l.87,5.87c2.17,14.56,8.59-17.11,2.59-21.21ZM430.63,446.22c-4.88,8.07-5.3,17.01.38,23.15,2.88-7.86,2.94-15.07-.38-23.15ZM454.71,452.51c.02-.72-.65-2.99-.86-3.69s-3.96-.42-4.02.32c-.36,4.9-5.71,16.98,4.32,19.55l.56-16.18ZM458.6,469.35c6.77-7.85,6.28-17.39-.93-22.01-.49,7.9-.26,14.95.93,22.01ZM491.12,454.02c.35-2.97-4.29-7.03-6.95-6.59-2.4.4-5.45,5.63-5.11,8.16l1.39,10.25c.3,2.19,9.04,2.19,9.3,0l1.37-11.82ZM432.13,503.09c.43-5.21.52-11.72-5.75-11.08-.37,3.68-.84,13.8-.86,18.01,0,1.59,5.85,2.35,5.98.76l.63-7.69ZM437.14,513.56c3.46-8.6,3.36-15.25.13-23-2.82,7.8-2.77,15.39-.13,23ZM449.19,496.53c0-1.31-1.69-5.61-2.65-4.87-.64.49-3.64,2.27-3.62,3.07l.5,16.45c.04,1.2,5.85.19,5.84-1.05l-.07-13.6ZM454.87,513.05c5.35-8.08,5.56-16.89-1.08-22.03-2.72,7.69-3.38,16.07,1.08,22.03ZM483.57,499.28l.16-6.15c.02-.96-3-.69-4.54-.53l.89,20.86c5.59-3.65,3.34-8.14,3.49-14.18ZM488.63,513.26c4.41-7.78,4.37-16.27-.69-22.29-2.98,7.57-3.41,15.13.69,22.29ZM428.15,534.12c-3.2.42-5.44.64-7.2,1.2s-3.4,17.99,1.11,17.74l8.55-.47c2.25-.13,3.87-19.29-2.46-18.46ZM458.23,534.24c-2.48-.16-8.17-.53-8.45,1.53l-1.2,8.82c-.32,2.37,1.13,8.6,3.44,8.4l8.25-.69c1.53-.13,3.06-17.74-2.04-18.07ZM487.08,534.41c-2.92.07-5.71-.64-6.99.65-2.4,2.42-3.44,18.3,1.57,17.82l7.93-.75c1.02-.1,3.18-17.86-2.51-17.72ZM428.16,574.64c-1.86-.11-6-.1-6.32,1.51l-1.65,8.3c-.45,2.27.35,8.45,2.43,9.43s8.22,1.22,8.7-1.02c.87-4.04,2.46-17.89-3.16-18.22ZM458.28,574.59c-1.97-.38-7.25-.18-7.5,1.82l-1,7.87c-.32,2.51-.78,8.56,1.24,9.46s7.2.89,9.25.07c2.8-1.12,3.17-18.24-1.99-19.22ZM488.1,574.58c-2.11-.27-7.58-.29-7.84,1.69l-1.08,8.02c-.3,2.27-.47,9.06,1.66,9.59s6.91.53,9.03-.06,3.16-18.6-1.77-19.24Z"/>
    <path d="M114.7,468.19l-17.49.25-.13-73.97,10.24,5.62,1.74-21.8,148.89.07.25,89.76-143.49.07ZM161.58,382.34l-17.99-.1c-.21,2.06-.06,6.72,1.59,7.03l6.22,1.17c1.7.32,7.04.08,7.62-1.44l2.56-6.67ZM129.3,407.48l-1.15-6.6c-.14-.8-4.43-.34-4.66.44-1.22,4.12-1.46,14.38,1.16,17.45,5.18.66,5.43-6.85,4.66-11.29ZM139.31,410.34c.4-2.59-1.53-10-3.86-10.12-3.3,1.37-4.04,8.08-3.54,11.68l.86,6.09c.17,1.24,5.16,1.28,5.35.05l1.19-7.7ZM167.45,402.08c.02-1.28-5.46-1.78-5.65-.51-.2,1.38-.82,5.18-.82,6.52v8.96c-.01,1.35,5.3,1.65,6.26.93l.2-15.9ZM177.73,410.37c.44-2.52-1.88-10.67-4.19-9.93-3.33,1.06-3.89,7.98-3.54,11.42l.63,6.02c.13,1.27,5.51,1.44,5.74.18l1.36-7.69ZM210.04,419.73c3.37-8.07,2.94-14.27-.47-20.66-6.16,5.65-7.59,16.13.47,20.66ZM221.55,407.63l-1.75-6.86c-.2-.78-3.78-.27-4.13.45-1.91,3.92-3.02,15.02,1.7,17.21,3.66,1.7,5.09-7.27,4.18-10.81ZM242.88,410.59c.5-3.8-.44-9.16-4.26-10.81-2.6,2.75-3.35,12.59-2.48,16.5.33,1.49,5.54,3.35,5.74,1.82l.99-7.52ZM248.8,400.03c-.71.3-3.35,1.83-3.33,2.6l.5,16.24c8.5,5.98,7.22-20.69,2.83-18.84ZM127.04,468.07c3.33-7.46,3.25-15.45.17-22.06-6.47,5.14-7.56,14.94-.17,22.06ZM139.29,457.1c.2-5.87,0-10.68-6.51-9.99l-.91,18.22c1.71.52,7.09,1.37,7.14-.3l.28-7.94ZM168.76,458.68c.57-4.42-.91-11.49-5.17-11.85-3.13.69-3.39,17.78-.8,19.14,1.2.63,4.98.4,5.15-.93l.82-6.35ZM177.25,455.06l-.51-6.74c-.08-1.11-4.37-1.78-4.91-.82-2.27,3.99-2.51,14.22.11,18.11.97,1.43,6.04-.78,5.91-2.45l-.61-8.1ZM207.83,468.02c7.97-6.93,6.46-16.93.04-21.98-3.49,6.63-3.95,14.79-.04,21.98ZM221.32,455.17l-.5-6.77c-.08-1.11-4.42-1.8-5-.97-2.07,3.99-2.44,14.05-.06,18.14.92,1.5,6.26-.74,6.14-2.41l-.58-8ZM242.55,457.16l-.32-8.77c-.04-1.13-2.66-.94-5.48-1.12l-.49,17.84c.47,1.04,6.64,1.45,6.58-.18l-.28-7.77ZM252.39,458.78c.45-4.84-.37-11.23-4.99-12.26-2.75,1.07-3.07,17.93-.56,19.44,1.14.69,4.83.57,4.95-.76l.6-6.43Z"/>
    <path d="M364.3,465.76c-.92-8.42-.61-12.53-3.55-19.65l-2.48,18.49-3.77-19.07c-3.09,8.27-2.71,12.13-3.42,20.49l-16.45-.31c-.61-8.04.35-13-3.98-20.17l-2.26,20.9-3.3-20.74c-3.75,7.19-2.73,11.24-3.56,19.93-4.01.5-12.3.15-16.59-.73l-.11-86.61,200.19.02c2.63,16.75,2.7,31.08,2.29,48.1-7.03.72-13.26,1.69-19.85,1.7l-87.83.11-1.7,39.84c-12.56-6.93.46-14.94-9.05-22.14l-2.32,20.57-2.34-20.74c-3.81,7.5-2.88,12.27-3.28,20.33l-16.62-.32ZM371.94,382.38l-20.22-.05c1.46,3.73,1.5,7.42,3.18,7.56l7.13.63c3.97.35,8.89-3.59,9.91-8.14ZM413.03,382.17l-17.45.27,3.21,7.46c.09.21,6.81,1.89,13.84-1.52,1.14-.55.64-4.56.39-6.21ZM332.14,419.82c1.21-7.79,1.09-13.49-.6-19.96-5.95,5.48-7.38,15.56.6,19.96ZM339.83,420.18c1.96-7.02,1.89-14.11-.62-20.07-5.43,5.42-6.51,14.85.62,20.07ZM345.81,420.44c5.92-6.37,5.78-15.25-.02-20.52-2.66,6.55-2.76,13.96.02,20.52ZM373.19,419.53c3.33-7.9,3.24-13.91.12-20.91-2.85,7-2.82,14.07-.12,20.91ZM381.19,419.53c3.33-7.9,3.24-13.91.12-20.91-2.85,7-2.82,14.07-.12,20.91ZM389.19,419.53c3.33-7.9,3.24-13.91.12-20.91-2.85,7-2.82,14.07-.12,20.91ZM419.14,420.25c3.08-7.16,2.93-14.1-.22-20.13-4.39,6.05-4.83,14.24.22,20.13ZM427.78,420.19c2-7.07,1.94-14.13-.59-20.05-5.2,5.56-6.17,14.7.59,20.05ZM433.73,420.43c6.02-6.37,5.82-15.08-.09-20.22-2.51,6.26-2.59,13.76.09,20.22ZM464.25,419.77c.9-7.66.76-13.42-.78-19.67-6.38,4.87-7.49,15.48.78,19.67ZM472.05,419.83c1.2-7.76,1.09-13.48-.66-19.69-5.88,5.07-7.08,15.51.66,19.69ZM477.5,420.27c6.9-7.13,5.67-15.2-.1-20.36-2.35,6.27-2.62,13.44.1,20.36Z"/>
    <path d="M92.56,534.53l-2.24,48.41-1.93,40.37-1.89,36.76-86.51.04,8.64-88.69c10.77-18.13,7.35-79.01,9.62-99.42l2.81,58.72c.28,5.9,8.36,14.59,12.76,19.61l43.5,6.34.08-84.61,15.88.69c.16,21.08.26,40.22-.74,61.77Z"/>
    <path d="M352.63,579.58l-.3,20.86-47.68-.59.48-86.13c1.54-1.3,7.13-1.93,7.23-3.93l.49-9.86c.08-1.66-.33-5.64-1.17-6.8s-3.35-.44-7.01-.36l.32-23.24,93.99-.12.21,130.22-35.91.9-.47-20.83c-.05-2.16-2.38-5.98-4.41-6-2.36-.02-5.73,3.49-5.77,5.86ZM321.21,510.85c.98-4.56.64-14.83-1.18-19.16-6.4.88-4.9,7.53-4.84,12.46l.07,6.48c.01,1.31,5.68,1.5,5.95.22ZM356.35,497.32l-.29-4.37c-.88-13.32-8.12,10.89-3.81,19.78,6.5-3.51,4.52-9.12,4.1-15.41ZM360.67,513.38c4.29-8.16,4.62-16.02-.23-22.18-1.79,7.74-1.84,15.47.23,22.18ZM383.4,513.73c3.72-8.52,2.96-15.41-.2-23.12-2.72,7.78-2.88,15.52.2,23.12ZM388.19,492.82c-.48,4.64-.33,13.96.83,19.25,9.05-.23.54-32.48-.83-19.25ZM327.97,550.87c3.07-4.41,2.77-12.51-.09-16.93-6.77,3.56-7.14,14.94.09,16.93ZM358.62,550.24c3.55-2.47,2.92-14.16-.91-15.54-5.62,1.48-6.75,15.05.91,15.54ZM390.63,541.39l-1.07-5.92c-.18-.98-5.02-.51-5.03.49l-.16,14.5c7.03-.06,7.16-4.05,6.25-9.07ZM331.59,575.2c-.49-1.52-6.87-1.19-7.22.37-.93,4.13-1.43,14-1,18.27.22,2.16,7.28,3.05,8.79,1.54,3.04-3.06,1.2-14.7-.58-20.18ZM391.67,594.08c.48-4.4.34-13.52-.25-17.47-.22-1.47-5.63-2.94-6.81-2.03s-3.23,3.83-3.2,5.48l.29,14.22c.05,2.5,9.69,2.28,9.96-.2Z"/>
    <path d="M794.63,634.54c4.46,7.27,6.64,16.16,9.33,25.47l-106.77.14c-1.19-9.19-1.34-17.04-1.87-26.01l-1.43-23.84c-.94-15.65-.44-29.58-.13-45.83l68.12-.03-.69,42.54c18.36,10.24,20.43,6.37,33.44,27.58ZM714.32,590.98c4.19-2.9,3.48-11.37-.59-14.08-4.11,3.88-4.37,12.18.59,14.08ZM737.54,590.68c6.51-1.44,5.56-13.42-.38-12.82-2.51,1.41-2.44,11.5.38,12.82Z"/>
    <path d="M692.08,627.25l1.5,32.82-58.79-.12,1.06-92.62c18.44-1.55,35.53-1.38,54.85-.11l1.38,60.03ZM654.99,594.44l-.47-15.49c-6.55,4.29-7.04,10.96.47,15.49ZM662.66,593.94c.59-3.98.37-10.68-.41-15.16-7.21,3.56-7.05,12.65.41,15.16Z"/>
    <path d="M82.84,375.35l-72.13.09c3.63-8.56,6.39-14.47,8.48-21.44l30.26-100.99,33.52,99.45-.13,22.88Z"/>
    <path d="M602.4,660h-57.4s1.92-23.82,1.92-23.82l1.93-24.04.66-44.42,48.45.27c-.1,11.92-1.08,24.65-.11,36.1l2.03,24.04,2.53,31.87ZM574.42,594.37c3.25-.43,2.75-12.45-.38-12.58-5.61.57-6.21,13.45.38,12.58Z"/>
    <path d="M542.32,659.66l-40.27.54,2.18-28.91.83-65.89c13.33-1.44,26.95-1.35,40.86-.06l-1.47,61.8-2.12,32.51ZM520.54,592.86c7.26-4.55,5.94-11.84.62-14.36-1.17,3.51-1.29,10.14-.62,14.36ZM527.76,593.49c6.88-5.34,5.24-12.38-.66-15.56l.66,15.56ZM536.19,593.71c3.95-5.82,3.54-11.49-.19-15.29-3.27,4.13-3.77,10.04.19,15.29Z"/>
    <path d="M77.41,468.61c-.02-10.89.25-23.31-.22-32.08-.28-5.17-9.24-13.66-13.81-14.07l-22.44-2-23.06,13.18-1.12-36.94c-2.39-4.9-7.44-9.66-5.31-18.18l71.08-.08,1.76,21.66,8.95-5.6.07,73.84-15.9.27ZM38.86,406.87c.13-2.51.07-7.56-1.48-7.57l-7.92-.09.19,18.1c1.96.58,8.58,1.18,8.69-.87l.51-9.57ZM59.86,406.23c.15-2-1.64-6.41-3.36-6.39-2.31.03-6.8-.05-6.9,1.67l-.4,6.92c-.17,3.01,0,7.41,1.47,9s8.26,1.42,8.42-.74l.77-10.46ZM79.51,406.94c.11-2.42-.25-6.07-1.52-6.14l-7.7-.39v17.65c3.29.15,8.7.51,8.78-1.28l.45-9.85Z"/>
    <path d="M796.61,497.95l-11.06-14.1-14.11-1.78-.14-84.09-8.81-20.4c-3.5-8.1-1.01-17.72-.9-26.65l30.18-.37-.07,21.86,5.51,31.6-.59,93.93ZM776.47,396.68c.67-10.74-.73-19.88-4.23-28.89-1.36,9.94-.41,19.65,4.23,28.89ZM786.7,396c.15-11.22-.84-19.82-3.43-29.5-2.77,11.11-.46,20.95,3.43,29.5Z"/>
    <path d="M162.4,196.12l6.1-13.95,2.24,5.75c.57,1.47,5.45,3.46,5.81,1.83l1.71-7.7,3.3,7.28c.61,1.34,5,.3,5.15-1.2.15-1.59.58-5.98.56-5.79l-3.26,3.09c-.63.6-1.81-2.38-2.62-3.75-.55-.93-3.54-1.63-4.08-.64l-2.92,5.37-2.24-4.4c-.69-1.36-5.4-2.11-6.07-.75l-8.08,16.6c-6.71-3.4-7.95-18.31-9.95-16.88l-4.82,3.44c-29.83-14.23,56.68-10.34,61.75-8.38,2.32,3.07-1.94,8.7-4.07,11.16l-.18,49.76c-5.5.13-11.06.08-14.38-.23l-1.18-6.93c-.2-1.14-4.19-1.37-4.55-.28l-2.24,6.68c-.97,2.9-22.41-1.12-34.52,1.14l.26-54.14c4.26,4.16,6.17,9.79,7.95,14.26,1.1,1.39,9.38.85,10.33-1.31ZM193.25,189.99c1.34.35,2.72-4.85,1.37-5.17l-5.6-1.33c.46,1.83,2.51,6.05,4.23,6.5ZM183.37,217.44c3.85-1.06,2.79-9.51-.16-10.01-1.55-.26-4.17,3.81-4.27,5.53-.09,1.59,2.84,4.91,4.43,4.48Z"/>
    <path d="M631.26,659.93l-25.97.06-3.05-40.74c-1.37-18.27-.93-35.33-.82-54.31l31.41.06c2.36,37.16-1.48,56.21-1.57,94.93ZM609.58,593.44c2.5-6.46,2.43-11.21.05-16.64-3.38,5.34-3.4,11.4-.05,16.64ZM621.58,593.44c2.5-6.46,2.43-11.21.05-16.64-3.38,5.34-3.4,11.4-.05,16.64Z"/>
    <path d="M595.27,521.74l-43.45-.13-.27-61.45,43.65-.04.07,61.61ZM576.49,505.64l-1.65-5.93c-.2-.74-4.47.46-4.46,1.23l.16,13.61c5.82-.03,7.19-4.45,5.95-8.9Z"/>
    <path d="M761.97,561.2l-68.12.36-.09-38.86,68.13.15.08,38.35ZM712.69,552.91c6.54-5.3,5.88-11.48-.06-15.56-1.97,4.87-2.04,10.42.06,15.56ZM741.46,543.93c.08-1.21-.7-3.99-1.27-5.05s-4.38-.49-4.47.73l-.38,5.09c-.13,1.72.48,5.04,1.24,6.42.57,1.03,4.37.61,4.45-.55l.43-6.63Z"/>
    <path d="M300.87,259.91l-5.14.19c-6.8-.59-14.45-.19-20.4.3-7.11-1.33-14.58-1.91-19.92,1.6,5.29-22.5,1.94-24.4,7.99-41.02,5.56-15.28,9.36-32.21,11.88-48.76,1.32-8.66-1.73-17.09,3.4-26.18,1.96,7.88,1.35,16.27,2.41,25,3.7,30.32,13.64,50.21,15.74,63.47l4.03,25.41Z"/>
    <path d="M275.33,260.4l.83,5.95c.16,1.16,4.7.07,5.29-.94l2.82-4.79,2.72,5.29c.55,1.08,3.69,1,4.14.59l4.61-6.41,1.15,6.1c.23,1.23,4.7.38,4.57-.89l-.58-5.4c4.71,4.47,4.94,11.85,2.9,17.02l-28.31-.35-22.29-.04c-2.11-4.23-1.92-12.78,2.24-14.53-.18,2.93,3.17,5.59,4.21,4.39l3.55-4.13,3.71,4.14c4.17,4.66,3.22-6.64,8.45-6Z"/>
    <path d="M200.77,136.44h-28.09s1.94-14.08,1.94-14.08l-15.28-46.03c9.45-24.98,11.28-49.48,12.92-76.33,1.78,14.63,1.22,29.76,4.38,44.86,3.08,14.76,6.68,30.76,12.48,44.16,2.91,6.74,5.87,6.53,4.3,15.53-1.7,9.77,4.04,19.78,7.35,31.89Z"/>
    <path d="M195.41,139.52c2.83,2.72,1.91,11.08-.23,14.36l-5.58-3.1c-1.18-.65-3,1.44-5.26,4.9l22.26.24c1.19,3.76,1.29,10.44.75,16.26l-70.26-.23-.53-12.6c-.09-2.24,4.33-3.59,7.93-5.33l-.11-29.75,24.65-.02.03,32.23,15.33-1.1c-1.77-2.94-2.98-5.4-3.92-4.91l-6.98,3.62-.28-14.12,22.2-.45ZM154.81,153.35l-.15-14.41c-5.25,4.33-5.45,10.2.15,14.41Z"/>
    <path d="M690.33,563.84l-53.84.21c-1.15-13.8-1.18-24.74-.24-39.24l54.28.07c.8,14.13.7,24.41-.2,38.95ZM650.77,555.68c7.81-5.37,6.2-12.2.39-15.5l-.39,15.5ZM661.66,554.82c2.25-3.98,1.91-10.86-.13-14.87-5.16,3.2-6.42,12.61.13,14.87Z"/>
    <path d="M533.3,426.05l-23.24-.46c1.51-16.55,1.59-29.65-.77-45.85l10.51-2.66-11.8-1.3,12.02-76.14,15.89,76.77-14.93.59,12.37,2.18-.05,46.89ZM513.46,370.96c-1.2.24,1.61,3.71,2.77,3.39.77-.21,2.32-.77,3.15-1.1.73-.29-.4-3.4-1.18-3.24l-4.73.95ZM514.09,415.6c6.17-5.57,4.75-12.44-.67-15.61l.67,15.61ZM526.09,415.6c6.17-5.57,4.75-12.44-.67-15.61l.67,15.61Z"/>
    <path d="M762.08,520.09h-68.02s-.58-32.03-.58-32.03l68.31.27.29,31.75ZM713.08,510.26c6.61-2.71,5.43-12.3-.24-13.6-2.13,1.76-2.11,11.44.24,13.6ZM737.4,510.8c6.93-2.5,5.51-13.12.06-13.67-2.67,1.72-2.74,11.44-.06,13.67Z"/>
    <path d="M827.5,286.54l1.48-6.17c.29-1.21,5.15-2.07,5.64-.92l2.94,6.98c.31,4.59.9,4.48,1.79.09l1.38-6.38c.27-1.24,5.79-.34,5.79.92l-.05,22.59c-.02,7.3-7.22,10.03-12.95,9.53-34.39-2.96-52.49,6.11-52.29-11.17l.24-20.79c.01-.94,4.63-2.26,4.93-1.36l2.3,6.86c.36,4.49,1.18,4.17,1.99-.09l1.88-6.39c.39-1.31,5.22-1.44,5.71-.16l2.61,6.82c.22,4.41.81,3.93,1.69-.29l1.94-6.3c.41-1.32,5.44-1.6,5.91-.3l2.58,7.08c-.55,4.6.87,2.96,2.34-.7l1.29-6.11c.26-1.24,5.46-1.92,5.97-.76l3.08,6.96c.27,4.65.9,4.47,1.84.06Z"/>
    <path d="M597.96,564.35l-48.88.18.07-39.71,48.79.19.02,39.35ZM573.06,554.75c5.15-3.34,4.32-10.78-.01-13.66-4.15,2.99-3.94,12.7.01,13.66Z"/>
    <path d="M743.05,466.64l12.63,17.52-61.3.58c-6.33-1.83-13.27-12.09-17.61-17.63l-9.97-12.72,44.26-.14,13.2,11.48,18.78.92Z"/>
    <path d="M840.76,347.91l-53.42.3.04-32.22,52.77.13.61,31.79ZM801.58,330.18c-.56.95-.56,4.8.53,5s4.2.78,4.22-.31l.05-4.69c.01-1.1-4.24-.95-4.8,0ZM825.26,329.44c-1.25-.14-2.75,5.36-1.68,5.47l4.43.45c1.05.11,1.07-2.29,1.26-4.16.11-1.06-2.51-1.59-4-1.76Z"/>
    <path d="M690.27,521.97l-53.88.06c-.8-11.87-.82-20.99-.33-33.84l54.18.36c1.03,11.65.89,20.48.03,33.42ZM654.99,514.42l-.66-14.89c-5.91,3.41-7.69,10.62.66,14.89ZM659.05,514.31c6.43-4.36,6.29-12.55-.46-14.67-.81,3.49-.58,10.58.46,14.67ZM672.61,515.2c4.49-6.68,4.16-11.18.06-16.31-1.53,5.31-1.55,11.4-.06,16.31ZM678.25,514.65c7.46-5.25,6.84-11.42-.09-15.43l.09,15.43Z"/>
    <path d="M545.88,561.32c-13.48.93-27.68.91-40.96.02l.34-38.4h40.11s.52,38.38.52,38.38ZM520.48,552.65c7.36-5,6.34-11.27-.07-15.14l.07,15.14ZM530.87,553.26c.37-6.7.27-11.18-.32-16.37-5.65,4.98-6.24,11.91.32,16.37ZM534.54,553.11c7.3-5.82,6.15-11.61-.05-15.56-.53,4.9-.53,10.62.05,15.56Z"/>
    <path d="M633.85,484.82l-36.42-.73.93-23.59c2.53-.5,6.49-1.03,6.11-1.8l-1.84-3.7c17.97-.91,33.81-.46,51.32.52l-20.1,29.31Z"/>
    <path d="M642.29,414.48l-1.41,31.81-30.26-29.78c-4.56-4.48-3.99-17.07-2.61-20.63l35.65-.13c2.16,3.54-1.07,11.89-1.37,18.73ZM627.47,424.2c2.35-1.61,2.22-8.04,0-8.18-2.8.6-2.64,8.15,0,8.18Z"/>
    <path d="M290.12,308.25l-5.67-1.83c-1.34-.43-3.99,2.92-5.34,3.36s-4.05-3.92-5.33-3.42l-6.17,2.42-10.62-2.41-.19-26.29,43.83-.07.06,26.98-10.58,1.25Z"/>
    <path d="M780.99,276.19l16.16-16.51,2.59-17.96,4.79,11.57c7.5-4.24,7.44-9.79,9.57-19.43,1.94,3.79,2.26,8.07,2.56,12.91l31.36,29.77-67.04-.35Z"/>
    <path d="M633.12,561.92l-31.82-.13-.15-38.03,31.64-.3.33,38.45ZM610.97,553.45l.1-15.47c-5.32,4.28-6.69,10.61-.1,15.47ZM622.81,553.35l-.15-14.41c-5.25,4.33-5.45,10.2.15,14.41Z"/>
    <path d="M59.48,441.05l-1.07,38.41-35.2-3.54.16-39.29,27.05-.44c2.17-.04,9.12,2.83,9.06,4.86ZM28.29,467.78c5.4-7.74,5.04-16.7-.65-22.01-.15,7.72-.01,14.18.65,22.01ZM37.19,467.53c3.33-7.9,3.24-13.91.12-20.91-2.85,7-2.82,14.07-.12,20.91ZM45.39,469.13c2.25-7.56,2.34-15.01-.93-21.33-3.62,7.18-4.39,15.06.93,21.33ZM52.93,469.6c2.93-7.97,2.71-14.62-.13-21.2-4.2,6.57-4.67,15.23.13,21.2Z"/>
    <path d="M75.5,524.21l-13.96-.72-.06-86.48,13.69-.54.33,87.73ZM69.14,471.56c3.46-8.6,3.36-15.25.13-23-2.82,7.8-2.77,15.39-.13,23ZM68.2,514.61c5.18-8.32,4.94-16.44.34-24.08-1.37,8.9-1.37,16.35-.34,24.08Z"/>
    <path d="M633.23,520.47l-34.89-.22-1.28-32.11,35.82.1.36,32.24ZM610.81,511.35l-.15-14.41c-5.25,4.33-5.45,10.2.15,14.41ZM622.81,511.35l-.15-14.41c-5.25,4.33-5.45,10.2.15,14.41Z"/>
    <path d="M58.41,524.16l-35.14-4.73.14-40.52,34.76,3.76.24,41.49ZM29.14,511.56c3.46-8.6,3.36-15.25.13-23-2.82,7.8-2.77,15.39-.13,23ZM36.04,511.64c5.9-7.57,5.38-16.58-.51-21.87l.51,21.87ZM44.46,512.2c3.74-7.64,3.69-14.87-.86-21.05-2.36,7.42-3,15.24.86,21.05ZM53.18,513.73c2.53-7.98,2.59-15.57-.75-21.93-3.74,7.37-4.64,15.62.75,21.93Z"/>
    <path d="M595.9,451.63l-8.84-10.09,21.66-22.33,31.76,31.82c-16.43,1.28-29.28,1.09-44.58.6Z"/>
    <path d="M547.32,500.5c-5.5-5.5-10.72-12.57-13.96-18.31,2.97-13.1,3.76-22.52,3.78-37.14l12.36-1.67-.43-23.18c-.05-2.53,2.78-8.86,5.5-8.79,4.33.12,7.55,7.7,5.95,16.85l9.6-7.57c-5.86,13.87-16.32,26.59-28.39,38.16l6.58,3.67-.99,37.98Z"/>
    <path d="M687.44,485.02c-17.35,1.64-32.52,1.46-50.84.13l23.65-32.79,27.19,32.66Z"/>
    <path d="M533.94,465.28l-24.94-.04-.24-21.11c-.05-4.62-.26-10.86,1.24-14.83l23.29-.63.65,36.61ZM514.09,463.6c6.17-5.57,4.75-12.44-.67-15.61l.67,15.61Z"/>
    <path d="M548.53,520.17l-47.3-.48c20.23-21.05,19.09-18.51,46.89-16.14l.41,16.62Z"/>
    <path d="M528.69,488.35c5.74.66,9.29,5.04,11.42,11.36l-20.68-.08-10.86,7.44c-1.27-13.82-1.13-23.88-.25-38.39l25.28.27-5.83,4.97.92,14.42Z"/>
    <path d="M209.49,248.06l-77.39-.16.26-7.89,78.18.09c1.87,0,5.09,3.82,4.26,4.93s-3.76,3.03-5.31,3.03Z"/>
    <polygon points="595.33 456.59 551.28 456.41 572.35 425.85 595.33 456.59"/>
    <path d="M170.34,120.23c-10.83.75-18.75.77-27.02-.66,6.02-13.95,9.02-32.7,9.05-43.48,0-.79,3.46-2.83,3.57-2.05.17,1.17.25,4.68.63,5.79l13.77,40.39Z"/>
    <path d="M105.76,365.28h-19.6s.01-28.33.01-28.33l19.4-.09.19,28.42ZM93.42,362.19c5.4-4.79,5.85-11.47-.78-15.04l.78,15.04Z"/>
    <path d="M643.26,391.04c-12.25.99-21.73.99-34.95.17l17.49-27.4,17.46,27.23Z"/>
    <polygon points="107.48 333.11 84.96 333.08 95.88 293.61 107.48 333.11"/>
    <path d="M25.71,304.34c3.05,12.83-1.56,27.04-5.81,30.29-2.04,1.56-9.98,0-10.22-1.84l12.05-45.22,3.98,16.76Z"/>
    <path d="M58,550.89l-13.43-18.21c-.71-.19-3.47,2.52-4.29,2.13l-3.41-1.63c-3.04,1.23-3.31,1.57-4.24.98l-6.57-4.17,7.41,11.8c-6.49-3.61-10.09-10.48-10.18-19.73l33.75,5.16c.87,17.12,14.95,20.08,8.76,25.92-5.71-8.15-8.14-14.84-15.54-19.85.43,7.9,6.21,10.89,7.76,17.59Z"/>
    <path d="M104.07,394.11l-8.27-5.84c-1.65-1.17-5.18,2.7-8.44,4.84l-1.17-15.02,9.6-.86-8.01-1.98c-1.38-.34-2.04-5.72-.65-5.8l15.44-.88c.97-.06,2.86,4.13,2.1,4.73l-4.62,3.56c6.51,2.59,5.58,11.07,4.03,17.25Z"/>
    <path d="M62.3,246.64l-12.99-.09,1.72-14.39c1.01-8.44.14-16.52,5.22-23.42,2.8,6.69,5.62,13.07,5.69,16.98l.36,20.92Z"/>
    <polygon points="603.84 419.09 585.03 439.99 573.49 419.06 603.84 419.09"/>
    <path d="M69.79,433.31c-14.48,1.28-26.61,1.23-40.58-1.07,5.73-10.18,39.16-12.54,40.58,1.07Z"/>
    <path d="M791.73,499.25l-26.2.95.12-14.01c5.32,0,12.74-.07,17.22.96,3.22.74,6.58,7.85,8.85,12.1Z"/>
    <path d="M760.57,484.4l-17.67-22.36c1.07-3.85,3.44-8.87,5.54-12.43l9.9,15.88c3.41,5.47,4.94,11.67,2.23,18.91Z"/>
    <path d="M75.82,527.67l-1.97,23.31c-6.59-6.87-10.2-11.97-13.27-21.96,5.08-1.26,9.19-1.48,15.24-1.35Z"/>
    <path d="M19.72,340l-7.66,24.7-1.14-25.26c.95-1.18,7.41-1.28,8.8.56Z"/>
    <path d="M285.3,327.68c-6.32-2.6-6.43-15.5.31-17.33,4.34,1.93,5.48,13.16-.31,17.33Z"/>
    <path d="M274.39,325.82c-8.65,1.59-7.46-15.11-.61-15.35,4.63-.16,5.26,14.49.61,15.35Z"/>
    <path d="M297.01,327.66c-7.78-5.28-5.86-12.68-.68-18.5,3.27,4.94,3.45,11.6.68,18.5Z"/>
    <path d="M653.11,450.69l-9.07.26,7.12-16.55c1.68,6.31,2.11,10.45,1.95,16.29Z"/>
    <path d="M263.26,327.26c-7.79-4.18-6.58-14.03-.22-17.88,2.74,5.55,2.86,13.52.22,17.88Z"/>
    <path d="M18.4,468.37c-1.37-10.42-1.38-20.83-.04-32.37,1.37,10.42,1.38,20.83.04,32.37Z"/>
    <path d="M157.2,384.48c-1.83,4.35-6.55,6.55-10.93.54l10.93-.54Z"/>
    <path d="M367.18,384.49c-1.58,4.4-7.01,6.35-10.63.58l10.63-.58Z"/>
    <path d="M410.53,384.84c-4.11,6.56-9.12,4.07-11.21-.63l11.21.63Z"/>
  </g>
</svg>