<?xml version="1.0" encoding="UTF-8"?>
<svg id="Layer_2" data-name="Layer 2" xmlns="http://www.w3.org/2000/svg" viewBox="0 0 1087.6 562.63"><style>path,polygon,circle,rect,ellipse,line,polyline { fill: #D4AF37 !important; stroke: #D4AF37 !important; }</style>
  <g id="Layer_1-2" data-name="Layer 1">
    <path d="M907.52,528.23l1.96,34.3-158.73.11-.42-39.11c-38.31-11.86-165.04-34.46-198.74-33.35-48.83,1.61-150,20.18-198.73,33.56l-.42,38.86-158.14.03-.47-71.31-192.71-.22-.28-20.28,14.23-.98c.98-13.73.87-27.47-.06-41.78l-12.61,5.51-1.73-4.53c-.48-1.25,2.68-3.43,3.87-4.09l10.63-5.86-.13-33.07-12.67,4.62c-1,.36-3.08-5.15-2.11-5.66l4.26-2.26c82.62-43.8,153.04-94.34,214.85-164.55l.21-53.99h105.52s1.59,11.91,1.59,11.91l91.32-.35,29.95.02,83.27.25c-.69-6.16-.97-11.48,3.85-13.7,1.49,1.59,2.78,5.81,3.7,10.25,11.05-2.53,9.86-6.14,11.47-17.11.1-.67,2.78-1.54,2.98-.89,3.71,11.96.86,15.53,11.72,18.11,1.44-4.57,2.68-8,3.95-10.48,4.78,3.62,4.53,7.57,4.02,13.76l107.03-.09,96.46.17,1.94-11.83h105.98s.08,53.2.08,53.2c22.97,26.47,46.22,49.54,73.19,71.35l43.67,35.32c1.98,1.6,3.42,7.19,2.69,9.03-.87,2.22-6.04,2.84-9.1,3.35l5.79,10.83.29-8.53c9.58,3.59,7.18,19.65,12.76,21.06,3.01.76,10.08.42,11.75-.1l-.4-4.57c-.08-.97,4.52-1.29,5.44-.73l17.05,10.29,38.4,19.59c.99.5,2.21,5.42,1.43,5.47-10.13.63-3.64-1.04-15.43-3.71l-.56,22.29c-.07,2.72-.29,7.99.64,9.97,2.4,5.12,17.44,4.85,14.33,14.07l-14.73-3.74.07,40.85,15.53,1.18-.34,20.48-179.12.25c-1.82,12.96-.91,24.51-.2,36.82ZM281.62,193.49l-.31-20.66-16.38.17.02,20.27,16.67.23ZM839.34,193.25l-.19-20.24-16.51-.04.02,20.16,16.67.12ZM255.83,193.49c3.33-7.9,3.24-13.91.12-20.91-2.85,7-2.82,14.07-.12,20.91ZM291.78,195.51c3.46-8.6,3.36-15.25.13-23-2.82,7.8-2.77,15.39-.13,23ZM811.83,193.49c3.33-7.9,3.24-13.91.12-20.91-2.85,7-2.82,14.07-.12,20.91ZM849.05,192.32c1.06-6.77,1.05-12.68-.06-18.37-1.06,6.77-1.05,12.67.06,18.37ZM352.2,184.35l-8.22.35c1.9,1.96,4.15,4.41,4.83,3.61l3.39-3.96ZM454.09,184.93c-1.17.24,1.59,3.91,2.72,3.49l3.19-1.21c.72-.27-.35-3.4-1.15-3.24l-4.76.97ZM474.21,184.35l-8.29.35c2.01,2.02,4.19,4.42,4.89,3.61l3.4-3.96ZM600.18,184.36l-8.26.33c2.01,2.01,4.21,4.41,4.89,3.61l3.37-3.94ZM612.13,184.39l-8.22.3c2.01,2.02,4.2,4.43,4.88,3.63l3.33-3.92ZM638.19,184.36l-8.27.34c2.01,2.01,4.2,4.41,4.89,3.62l3.39-3.95ZM748.17,184.37l-8.19.32c1.91,1.99,4.13,4.44,4.81,3.64l3.38-3.96ZM327.81,187.89c-.93-.55-2.3,4.75-1.22,4.99s2.28.64,3.64,1.1c1.02.35,2.02-3.48,1.07-4.04l-3.49-2.05ZM491.58,192.16l-1.51-5.38c-.18-.63-2.24.33-2.95.78l.02,6.29c0,1.07,4.77-.54,4.45-1.7ZM340.44,188.47c-.74,1.13-2.29,4.61-1.09,4.87.9.19,3.8.6,4.1-.26l.93-2.65c.31-.87-3.43-2.74-3.94-1.95ZM352.3,189.2c-.4,1.06-.58,3.03.03,3.99.46.71,3.18.75,3.39-.08l.73-2.88c.21-.82-3.85-1.82-4.15-1.02ZM363.22,189.15l1.35,4.01c.29.86,3.69.79,3.78-.12l.32-3.54c.08-.91-3.19-.52-5.44-.35ZM377.15,189.21c-.55.85-.93,4.32.07,4.16l3.95-.63c.97-.16-.33-2.93-1.1-3.58-.51-.44-2.55-.51-2.92.06ZM388.99,189.05c-.57.98-.95,4.73.17,4.54l4.2-.72c1.12-.19-.18-3.11-.88-4.01-.46-.6-3.11-.47-3.49.19ZM402.56,188.63c-.7,1.17-2.28,4.74-1.13,4.59l4.04-.52c.82-.11.62-.29.58-1.19-.04-.85-3.04-3.61-3.48-2.87ZM413.21,189.3c-1.3.37,1.33,5.49,2.26,4.48l2.9-3.17c.69-.75-3.57-1.76-5.16-1.3ZM448.93,189.28l.21,4.25c.05,1.07,4.25.41,4.02-.65l-.83-3.96c-.15-.7-3.44-.36-3.4.36ZM462.7,188.46c-1.07.55-2.54,4.67-1.36,4.94.88.21,3.72.88,4.05.04l1.25-3.18c.33-.84-3.13-2.22-3.94-1.81ZM474.22,189.16c-.52,1.21-.61,3.56.4,4.31.76.56,3.88.65,3.94-.3l.23-3.39c.06-.94-4.2-1.48-4.58-.61ZM499.89,189.21c-.49.71-.48,4.19.38,4.08l3.4-.4c.87-.1.82-2.14.69-3s-3.98-1.4-4.47-.69ZM511.8,189.17c-.5,1.37.79,5.94,1.64,5.11l3.47-3.38c.84-.82-4.71-2.84-5.11-1.73ZM524.12,189.22c-.18,2.08-.45,3.37.38,3.78s3.59.92,3.73.07l.56-3.39c.15-.91-4.55-1.22-4.67-.45ZM576.25,188.65c-.98.3-2.39,3.84-1.39,4.02l3.98.69c1.01.17,1.09-2.98.49-3.81-.4-.55-2.43-1.1-3.08-.9ZM588.44,188.77c-.74.96-1.46,3.68-.46,4.36.75.51,3.28,1.11,3.55.25l1.01-3.23c.27-.86-3.55-2.1-4.11-1.38ZM600.05,188.08c.03,4.08.02,5.77.99,5.36,1.98-.84,3.52-1.53,3.69-2.58s-2.94-2.36-4.68-2.78ZM612.38,188.67c-.57,1.13-1.26,4.52-.1,4.47l3.75-.15c.88-.03.82-2.05.56-2.89s-3.81-2.23-4.21-1.44ZM625.97,188.54c-.85,1.05-2.05,4.6-.81,4.82.92.17,3.76.8,4.09-.08l1.08-2.8c.34-.88-3.77-2.67-4.36-1.95ZM638.16,189.07c-.44,1.22-.6,3.58.33,4.34.7.57,3.42.72,3.6-.17l.65-3.16c.18-.89-4.28-1.87-4.58-1.01ZM650.52,189.99c-.26,1.11.87,4.85,1.9,4.34.69-.35,2.29-1.3,2.95-1.7.98-.6-.23-3-.67-4.06-.29-.7-4,.67-4.17,1.42ZM686.44,189.1c-.62,1.07-1.11,3.63.02,4.13.87.38,3.71.98,3.8.07l.38-3.58c.1-.92-3.74-1.42-4.2-.62ZM698.89,189.16c-.56.92-1.08,4.32-.01,4.17l4.31-.6c1.07-.15-.22-2.92-1.01-3.66-.52-.49-2.92-.53-3.29.08ZM710.81,189.13c-.38,1.12-.48,3.65.43,4.4s4.24.76,4.1-.42l-.52-4.38c-.09-.78-3.75-.34-4.01.41ZM724.15,188.5c-.62,1.17-1.43,5-.28,4.87l3.69-.43c.86-.1.85-1.82.68-2.66s-3.69-2.54-4.09-1.78ZM736.43,189.19c-.78.83-1.1,3.4-.15,4.01.72.46,3.18.77,3.38-.08l.67-2.87c.19-.83-3.32-1.68-3.9-1.06ZM748.36,188.69c-.71,1.31-.29,5.99.67,5.33l4-2.76c.98-.68-4.11-3.58-4.67-2.56ZM760.4,189.28c-.45,1.18-.86,3.29.09,3.97.71.51,3.55.7,3.67-.16l.44-3.29c.12-.87-3.88-1.34-4.19-.53ZM771.25,189.23c-1.28.44,1.23,5.32,2.31,4.37l3.35-2.96c.78-.69-3.92-2.02-5.66-1.41ZM987.7,368.08c-.05-7.98-9.93-17.79-5.26-26.18l6.67,13.09,4.57,9.47,16.35-2.83c-5.11-7.28-9.76-11.42-16.28-17.41-3.22-2.96-5.43-11.41-11.74-8.17.7,4.84-7.43,12.82-11.49,10.69-2.01-1.05-2.95-7.77-3.57-10.08l-34.59-36.75-3.6,46.35-1.06-52.12-41.3-55.66c-7.2-3.26-19.03-.53-28.09-.52l-72.45.06c-3.05,0-8.49-.74-8.35-2.96l.49-8c.22-3.58,98.44,2.18,107.72-2.92-11.68-5.27-106.11.94-107.28-3.4l-1.77-6.56h-449.57s-2.69,7.87-2.69,7.87c-.64,1.87-95-2.64-106.09,2.06,11.76,5.41,106.56-1.01,107.37,3.09.44,2.26.03,7.15-.5,10.54l-83.33.19c-6.65.02-18-2.62-23.44.32l-42.82,56.15.2,25.87-.17,149.78,176.64.22h399.69s197.96.06,197.96.06c1.46-8.41,2.19-16.1,2.18-24.22-.03-23.44-.31-46.09.82-69.03l2.31-47.23c3.62,50.78-2.61,90.52-.95,140.51l34.05-.55-.62-101.73ZM926.24,271.22l-18.19-16.49c5.59,8.95,11.77,16.86,18.86,24.99.67-2.02.79-7.18-.67-8.5ZM177.23,279.93c5.96-7.11,9.15-11.1,12.68-17.72-4.1,1.62-20.25,14.55-12.68,17.72ZM939.84,289.43l-7.22-11.35c-.6,1.66-.64,7.2.68,9.01,1.1,1.51,4.32,2.12,6.54,2.34ZM163.47,289.92c5.81-.92,7.6-1.27,7.45-2.77l-.65-6.74-6.8,9.51ZM953.81,295.83l-6.97-7.72c-1.79,3.47,2.46,7.9,6.97,7.72ZM154.4,306.05l10.05-9.62c-5.8.2-9.84,4.36-10.05,9.62ZM947.71,303.93c.15-4.52-4.18-8.71-7.72-6.98l7.72,6.98ZM136.62,470.26l35.17-.25-.4-169.94-34.68,36.52-.09,133.68ZM149.25,305.54l-1.58-3.79c-5.57,2.62-10.43,3.77-10.61,6.55-.2,3.09.1,9.06.36,12.96l11.83-15.72ZM965.26,320.39c1.52-2.92,1.87-9.95-.33-13.52-1.65-2.68-6.9-3.82-11.31-3.92l11.64,17.44ZM133.18,330.25l-.77-17.62-11.27,16.36,12.04,1.27ZM983.57,329.26l-12.54-17.58-.91,10.76c-.19,2.22,2.96,7.68,5.23,7.85,1.89.14,5.47-.43,8.23-1.04ZM107.75,328.87c9.87,3.92,12.11-2.79,13.33-9.82l-13.33,9.82ZM999.62,329.35l-16.55-10.02c.51,6.78,6.22,14.46,16.55,10.02ZM113.06,334.76l-15.57.31.84,23.44,14.73-23.76ZM126.37,335.27c-2.51-.89-8.44-1.16-9.28.4l-8.86,16.35,18.14-16.75ZM93.7,364.5l-.79-22.47-12.74,19.33,13.54,3.14ZM133.61,469.76l-.85-128.74-34.84,31.22.1,98.04,35.59-.52ZM82.78,345.9l-16.84,11.02c2.32,1.67,8.34,4.53,10.31,2.81,2.18-1.9,9.4-12.55,6.53-13.84ZM74.12,364.4l-15.79-3,.93,26.11,14.86-23.11ZM1029.84,392.09l.21-29.37-13.28,2.31.6,6.03c-2.8-2.26-5.88-4.87-7.86-4.8s-5.43,2.25-7.18,3.88l27.51,21.96ZM54.86,394.69l-.84-29.54-14.8,23.26,15.64,6.28ZM88.75,368.72l-11.96-3.08-10.41,20.14,22.37-17.06ZM1048.05,388.33l-14.07-23.28c-1.18,12.12-1.12,19.35-.15,30.81l14.22-7.54ZM1063.22,380.45l-21.16-12.33,8.66,18.62,12.49-6.3ZM36.35,385.08c3.7-4.11,6.79-10.04,8.54-14.85l-20.36,10.78c1.86,2.66,9.68,6.45,11.82,4.07ZM1030.02,470.19l-.03-68.15-37.91-31.37-.16,99.48,38.09.05ZM58.71,470.3l35.44-.18-.32-94.4-35,25.8-.12,68.78ZM33.76,390.25l-14.93-5.51.7,27.97,14.23-22.46ZM1060.87,412.6l-1.98-10.05,8.94,13.46-.47-31.99c-5.39,1.65-11.4,4.98-13.33,8.04l2,5.14c.22.56-1.29.47-1.74.05-.48-.46-2.16-3.09-2.75-3.36-3.38-1.51-10.32,2.11-13.53,5.39l22.85,13.33ZM50.36,397.88l-13.72-5.88-10.87,20.42c9.88-5.04,14.27-7.77,24.59-14.54ZM1067.53,470.28l-.07-44.76-33.85-21.17.29,65.55,33.63.38ZM54.57,469.62l-.19-64.7-34.97,20.84c-1.41,14.77-1.67,29.23-.18,44.49l35.34-.62ZM373.92,484.18l-16.91.81,16.23,21.62.68-22.43ZM399.47,484.1l-15.42.93,14.6,16.25.82-17.18ZM424.01,484.25l-13.37.91,12.93,11.23.43-12.14ZM447.73,485.05l-12.01-.09,12.76,8.22c.65-2.29.92-8.12-.75-8.13ZM473.85,490.3c1.72-8.51-3.55-6.62-9.43-5.43l9.43,5.43ZM489.42,488.26l-10.52-3.51c.71,4.38.97,6.19,2.05,5.88l8.47-2.37ZM620.85,490.19c1.14.38,4.07-1.73,3.83-2.92-.16-.8-.89-3.04-1.67-2.79s-3.14,1.12-3.85,1.56l-3.52,2.17c-.4.25-.04.23.48.4l4.73,1.59ZM638.35,485.13l-5.65-1.29c-1.22-.28-1.78,1.27-3.06,4.79l8.71-3.5ZM637.78,491.63l10.83,2.49c1.63.38,1.25-5.44.8-9.19l-11.63,6.7ZM668.12,484.79l-11.78-.03c-1.68,0-1.13,5.84-.68,7.68l12.46-7.65ZM693.8,485.09l-13.9-1,.79,12.13,13.11-11.13ZM720.63,484.77l-15.87-.28.82,16.77,15.05-16.49ZM746.55,484.9l-16.61-.76.87,22.03,15.74-21.27ZM466.35,492.42l-11.61-6.39c-.57,3.26-1.47,8.67.32,8.36l11.29-1.96ZM395.75,505.41l-16.61-17.5-.53,21.57,17.14-4.07ZM420.03,500.32l-15.4-13.35-.55,16.83,15.95-3.48ZM443.47,496.53l-13.51-9.9-.78,12.21,14.29-2.31ZM674.98,497.35l-.41-11.03-12.89,9.09c4.58,2,11.53,3.45,13.3,1.94ZM700.04,503.95l-.65-16.66-14.92,12.92,15.57,3.74ZM725.62,509.44l-.74-21.18-16.01,16.82,16.75,4.36ZM370.32,511.21l-17.06-22.31-.3,26.98,17.36-4.67ZM750.7,515.87l-.91-26.09-16.17,21.57,17.08,4.52Z"/>
    <path d="M777.37,118.52l28.3-.19.54,27.42,6.81.36c1.3.07,1.08-4.2,1.25-5.85l2.3-22.48c.88-8.64,8.35-18.08,14.09-25.92l15.27,20.87c-2.89-10.03-8.12-16.26-15.29-25.54-8.59,10.61-16.45,22.74-18.83,36.62-1.3,7.56,3.68,14.88-3.1,21.94l-1.22-37.38c-.09-2.86-2.68-8.56-3.91-12.62l8.28-2.88c4.72-18.57,12.1-37.23,14.49-56.12l4.65-36.74c2.13,37.01,8.56,55.87,18.36,92.26l8.33,3.09c-.96,4.4-3.23,11.6-3.38,16.4l-1.04,34.17c-9.14-11.88,2.66-23.08-7.17-33.96l.12,31.39c0,2.2,8.17,3.37,9.63,2.56l.2-27.9,28.45.62-.1,43.01-106.63.15-.42-43.26ZM839.5,145.44l.08-21.22-17.44.09.08,21.19,17.28-.05Z"/>
    <path d="M220.08,161.84l-.88-43.11,29.33-.6c-4.43,11.95-.79,27.89.63,27.9l5.92.05c1.25.01.6-4.46.8-5.96l3.04-23.92c1.07-8.44,9.09-17.99,13.75-24.05,28.2,30.28,4.6,57.75,25.28,53.68l.08-27.83,28.08.6v43.03s-106.03.2-106.03.2ZM281.56,145.71l-.14-21.42-17.28-.02.04,21.28,17.38.17Z"/>
    <path d="M254.12,121.01c-2.44,8.95,4.06,17.33-3.36,24.6l-1.52-39.49c-.09-2.31-2.27-7.55-2.56-9.29s4.1-2.79,6.76-3.86c5.3-18.71,10.99-37.32,15.01-56.75,4.57-22.08-1.65-32.95,4.8-36.17,1.44,39.48,8.26,56.07,18.11,92.61l8.27,2.76c-7.81,19.06.8,43.54-6.8,50.36.26-23.22-4.24-42.23-20.98-58.61-7.24,10.76-14.29,21.23-17.72,33.83Z"/>
    <path d="M885.04,115.05l-29.47,1.27,12.73-52.56c.92-3.79-5.52-8.75,1.24-14.92,7.52,2.91,2.65,9.97,3.27,14.76,2.23,17.41,7.19,30.52,12.24,51.45Z"/>
    <path d="M326.78,115.11l-29.29,1.19,12.78-52.31c.99-4.05-6.41-9.29,1.45-15.36,6.8,3.01,2.32,10.14,2.92,15.16,2.1,17.43,7.18,30.79,12.13,51.33Z"/>
    <path d="M248.08,116.28l-29.5-.9,12.78-51.81c.89-3.6-5.1-8.75,1.12-14.73,6.52,2.02,2.03,10.31,3.19,15.19l12.41,52.25Z"/>
    <path d="M806.17,116.28l-29.12-.96c4.58-19.01,9.39-34.05,12.22-51.59.77-4.77-5.02-12.01,2.83-15.1,4.12,6.15.98,11.31,1.75,15.74,3.1,17.87,7.85,33.78,12.32,51.91Z"/>
    <path d="M879.86,466.47h-98.09s-.31-90.16-.31-90.16l97.98.16.42,90ZM813.75,399.18l-.34-12.15c-5.55,3.47-5.95,8.87.34,12.15ZM847.94,399.22c6.55-1.39,5.92-11.2-.39-11.22-.81,1.83-.5,9.57.39,11.22ZM835.46,419.6l-.38-20.26-8.79.72-.17,19.54h9.33ZM813.75,419.18l-.34-12.15c-5.55,3.47-5.95,8.87.34,12.15ZM847.28,418.8c7.68-1.91,6.76-10.41.1-11.03l-.1,11.03ZM836.07,427.51c.39-3.12-4.19-5.85-7.34-5.25-1.91.37-2.85,4.39-3,8.02-.09,2.13,1.26,7.2,3.01,6.89l5.79-1.05c1.32-.24.83-2.95,1.53-8.62ZM813.45,439.3l-.15-14.41c-5.25,4.33-5.45,10.2.15,14.41ZM851.5,437.8l-.47-12.41c-6.7,1.22-7.27,10.75.47,12.41Z"/>
    <path d="M321.32,466.4h-97.49s-.34-90.08-.34-90.08l98.09.09-.26,89.99ZM254.06,398.32c5.37-.38,4.32-10.83-.17-10.06-2.45.42-2.18,9.81.17,10.06ZM289.35,399.1c8.39-2.74,6.23-11.1-.16-11.15l.16,11.15ZM278.04,419.63l-.19-20.07-9.83.2.19,19.96,9.84-.08ZM254.25,418.14c5.07-.73,4.15-10.48-.4-9.86-2.49.34-2.07,10.22.4,9.86ZM291.64,418.59c1.04-.84,2.73-5.87,2.86-7.52.1-1.22-2.49-2.45-4.65-3.17-1.56,3.39-1.57,9.6,1.79,10.69ZM276.74,422.8l-7.51-.03c-1.6,0-2.6,15.01,1.54,14.37l6.15-.95c1.49-.23,1.64-13.39-.19-13.4ZM252.9,438.47c7.02-3.96,6.43-11.78.19-12.89-.65,2.53-.63,9.73-.19,12.89ZM293.64,438.26l-.39-13.46c-7.18,3.34-7.44,9.89.39,13.46Z"/>
    <path d="M879.46,358.76l-97.58.02-.38-52.9,98.01.04-.05,52.85ZM814.98,332.59c.02-1.14-5.08-2.17-5.13-1.04l-.17,4.52c-.24,6.31-3.54,13.68,4.92,16.86l.38-20.34ZM837.47,351.95l-.37-21.11-13.1.25.16,20.95,13.31-.1ZM852.04,351.6l-.32-20.66c-1.49.14-5.07.66-5.07,1.61l-.08,18.96,5.47.09Z"/>
    <path d="M321.54,358.68l-97.66.11-.41-53.02,97.85-.08.22,52.99ZM257.62,351.5l-.41-20.41-5.29.36.23,20.43,5.47-.38ZM279.49,352.02l-.35-21.12-12.45-.03-.1,21.17,12.9-.02ZM293.79,332.07c-.02-.98-5.24-.73-5.24.25l.08,17.97c0,1.11,3.95,2.87,4.3,1.82.23-.7,1.25-3.52,1.24-4.26l-.38-15.79Z"/>
    <path d="M321.67,287.37l-97.83.48c.07-16.4-.38-29.6-3.88-47.67h106.53c-3.87,15.66-5.89,27.46-4.82,47.2ZM257.92,280.63l-.02-16.04c0-.82-1.17-3.53-1.87-3.47l-4.05.34.32,19.54c.01.89,4.37-.03,5.63-.38ZM276.52,281.63v-20.06s-7.14-.17-7.14-.17l-.02,19.33,7.17.9ZM294.22,281.24l-.31-19.91-4.27-.22c-.7-.04-1.5,2.42-1.5,3.26l.14,16.67,5.94.21Z"/>
    <path d="M879.63,287.44l-97.83.39c.21-16.49-.69-29.5-4.71-47.46l107.34-.39c-3.7,15.94-5.32,27.81-4.8,47.47ZM814.85,281.73c.86-7.11,2.5-14.89-2.56-22.66-3.14,5.88-3.42,11.58-2.79,16.94l.53,4.54c.09.8,2.41.8,4.82,1.19ZM834.06,279.98l-.2-18.64c-1.62-.15-6.55-.08-6.55,1.1v18.1c.02,1.45,6.76.9,6.75-.55ZM852.09,281.08v-19.74s-6.08.04-6.08.04l.24,19.87,5.84-.17Z"/>
    <path d="M878.71,373.9l-94.51-.28c-3.84-.01-3.61-11.45-.27-11.46l94.46-.13c.7,3.04.75,7.3.32,11.87Z"/>
    <path d="M320.51,302.43l-94.85-.02c-1.99-2.1-2.17-7.51-1.4-12.15l96.26-.05c.5,3.94.51,7.86,0,12.21Z"/>
    <path d="M878.54,302.35h-94.8c-2.25-1.98-2.41-7.53-1.37-12.11l95.83.06c1.12,3.46,1.18,8.18.34,12.06Z"/>
    <path d="M320.33,373.84l-94.7-.22c-2.64,0-2.63-9.37-.71-11.44l95.53-.17c.97,2.86.9,7.16-.11,11.83Z"/>
  </g>
</svg>