<?xml version="1.0" encoding="UTF-8"?>
<svg id="Layer_2" data-name="Layer 2" xmlns="http://www.w3.org/2000/svg" viewBox="0 0 514.46 209.68"><style>path,polygon,circle,rect,ellipse,line,polyline { fill: #D4AF37 !important; stroke: #D4AF37 !important; }</style>
  <g id="Layer_1-2" data-name="Layer 1">
    <path d="M199.54,165.52l-117.08.09c-2.31-4.43-3.95-10.64-3.94-15.75l.2-64.46c.01-4.04,3.8-7.82,7.69-7.82l108.28.02c3.58,0,7.88,4.07,7.88,7.85v66.26c0,2.87-1.77,8.22-3.04,13.8ZM97.67,91.89l-12.15.34c3.47,5.55,8.87,5.95,12.15-.34ZM121.67,91.89l-12.15.34c3.47,5.55,8.87,5.95,12.15-.34ZM144.6,93.54c-1.48-2.38-8.01-2.23-8.13,0,.59,2.79,8.22,2.63,8.13,0ZM171.67,91.89l-12.15.34c3.47,5.55,8.87,5.95,12.15-.34ZM194.9,93.69c-4.23-1.51-7.66-2.61-8.09-1.63l-1.68,3.76c5.96-.58,10.07-1.25,9.78-2.12ZM96.04,114.62l-1.25-6.77c-.31-1.66-7.29-1.82-7.52-.15l-1.13,8.17c-.28,2.01.2,6.25,1.61,7.27s6.61,1.17,6.9-.53l1.39-7.99ZM119.99,114.13c.19-2.71-.6-7.16-2.25-7.12-2.13.05-6.25.2-6.23,1.86l.07,6.83c.03,2.66.2,5.64.32,7.24s7.37,1.61,7.48,0l.61-8.81ZM145.8,113.82c.25-2.1-2.04-7.41-3.9-7.12-1.48.23-5.14.82-5.24,2.2l-.49,6.98c-.16,2.28.09,6.28,1.56,7.29s6.8,1.1,7.01-.66l1.05-8.69ZM169.64,114.57l-.28-6.88c-.05-1.3-6.78-1.22-7.03.06-.72,3.74-.69,11.39.27,15.38,2.15.53,7.39.62,7.33-.95l-.29-7.61ZM195.39,113.58c.19-1.96-1.72-6.98-3.59-6.82-1.56.14-5.38.56-5.47,1.95l-.5,7.26c-.14,2.01.39,6.17,1.78,7.24s6.78.8,6.94-.95l.83-8.68ZM95.63,156.08l-.14-16.34c-2.78-.44-8.6-.62-8.66,1.18l-.33,8.8c-.08,2.19.56,6.21.97,7.96s8.18.22,8.17-1.61ZM120.13,146.46c.04-2.56.03-6.78-1.26-6.79l-7.42-.02.29,18.29c3.22.29,8.2.37,8.23-1.36l.16-10.13ZM145.58,145.7c0-1.56-1.15-5.06-1.78-6.28s-6.67-.14-6.93,1.2c-.78,4.11-.48,13.06.44,17.84,4.29-.21,8.27-1.34,8.27-3.24v-9.52ZM170.18,148.37c.27-2.89.38-8.06-1.3-8.51-1.26-.33-4.75-.25-7.37-.19l.21,17.04c.02,1.68,7.44,2.41,7.6.74l.86-9.08ZM195.22,148.02c.1-2.88-.69-6.87-1.59-8.46-.67-1.19-6.38-.43-6.72.9-1.01,3.85-1.22,12.6-.07,16.66.52,1.83,8,1.44,8.07-.49l.31-8.62Z"/>
    <path d="M310.16,165.27l-53.48.04-53.17.04c.34-4.05.98-7.43.99-10.08l.08-77.72,104.49-.08-.6,64.12c-.07,7.82.68,13.49,1.7,23.68ZM264.6,154.26c.01,1.84,4.1,4.66,4.62,3.5.34-.74,1.63-3.7,1.62-5.17l-.21-60.63,13.87-.23.4,66.14c6.5-23.9,3.12-46.87,2.42-70.14h-61.88c-.25,24.64-2.75,47.03,1.08,71.76,4.13-23.09,1.66-42.86,1.23-67.14l14.89-.21-.12,61.01c0,1.75,1.91,4.48,3.12,4.89s3.35-3.1,3.35-4.76l-.13-61.6,15.29.32.42,62.27ZM239.45,114.15c.22-2.31-1.77-7.48-3.5-7.23-1.43.21-4.47.46-4.55,1.78l-.41,7.27c-.12,2.11.29,5.37,1.37,6.56s6.18,1.09,6.33-.47l.75-7.91ZM260.62,113.97c.15-2.58-1.11-7.44-2.9-7.19-1.68.23-5.23.83-5.28,2.17l-.27,6.9c-.09,2.19.02,6.47,1.54,7.14s6.37.75,6.46-.92l.46-8.11ZM281.84,111.88c-.01-2.28-.72-4.56-1.96-4.93-.82-.25-5.83.35-5.8,1.21l.55,15.17c5.71-1.18,7.25-1.47,7.24-2.88l-.04-8.57ZM239.33,146.32c.03-2-.4-7.07-1.73-6.94l-6.33.64.23,17.84c4.15-.37,7.69-1.13,7.72-2.96l.12-8.59ZM260.42,155.7c.41-3.99-.14-13.09-1.02-16.68-2.68-.35-7.25,1.62-7.2,3.49l.21,7.53c.05,1.67.87,5.75,1.34,7.35.47,1.6,6.51-.08,6.67-1.7ZM281.22,139.9c-.57-1.22-5.58-1.77-5.9-.47l-1.51,6.25c-1.02,4.21-.31,12.79,5.03,12.13,3.95.66,3.39-15.73,2.38-17.91Z"/>
    <path d="M431.57,165.63l-118.05-.11c-1-4.59-2.73-10.4-2.75-13.61l-.3-54.5c-.04-6.61,1.61-13.61,4.12-19.75l112.29-.08c3.11,0,7.7,4.58,7.7,7.76l.06,68.42c0,2.81-1.63,7.94-3.08,11.87ZM326.76,93.49c-1.86-2.26-8.15-2.16-8.27,0,.61,2.91,7.97,2.7,8.27,0ZM353.67,91.89l-12.15.34c3.47,5.55,8.87,5.95,12.15-.34ZM376.61,93.67c-1.56-2.61-8.02-2.47-8.12-.02.49,2.56,8.23,2.39,8.12.02ZM403.67,91.89l-12.15.34c3.47,5.55,8.87,5.95,12.15-.34ZM426.89,93.67c-4.19-1.49-7.65-2.61-8.09-1.61l-1.66,3.74c5.91-.55,10.09-1.23,9.76-2.13ZM327.79,113.91c.28-2.27-2.02-7.4-3.88-7.2-1.46.16-5.38.68-5.45,2.1l-.37,7.09c-.12,2.29.2,6.22,1.62,7.29,1.42,1.07,6.84,1.01,7.05-.75l1.03-8.53ZM349.92,106.9c-2.01.07-6.21.19-6.29,1.88l-.31,6.94c-.1,2.32-.55,6.57.91,7.36s5.77.82,7.27.11c1.35-.64,2.78-16.43-1.58-16.29ZM377.37,113.99c.21-2.21-1.71-7.34-3.5-7.18-1.36.12-5.08.87-5.13,2.23l-.27,6.81c-.09,2.29.38,5.93,1.32,7.38s6.64.57,6.81-1.14l.77-8.09ZM402.38,114.1c.28-2.54-.87-7.32-2.54-7.21-2.37.16-6.14.23-6.16,1.91l-.09,7.03c-.03,2.3.19,5.55.37,7.15s7.27,1.45,7.45-.16l.97-8.72ZM426.49,114.24c-.04-2.92-.41-5.3-.78-6.65s-6.79-.54-6.97.87c-.43,3.37-.31,10.9.56,14.18.44,1.65,7.32,1.44,7.3-.24l-.11-8.16ZM327.56,157.07l-.18-17.42c-3.35-.26-8.67-.7-8.81,1.17l-.68,9.05c-.15,1.94.04,7.35,1.81,7.98s6.51-.13,7.85-.79ZM352.7,146.28c.07-2.41-.23-6.67-1.57-6.64l-7.57.15.29,18.11c2.98.37,8.49.41,8.54-1.44l.31-10.17ZM377.36,147.86c.1-2.46-.94-6.55-1.84-8.11-.67-1.17-6.53-.58-6.69.76-.45,3.87-.49,12.3.03,16.4.25,1.97,8.04,1.81,8.12-.15l.37-8.89ZM402.2,146.53c.04-2.66.17-6.94-1.13-6.92l-7.36.16.09,18.25c3.05.37,8.24.4,8.27-1.4l.14-10.09ZM426.74,146.16c-.12-2.48-.67-5.19-1.02-6.45-.35-1.26-6.96-.44-7.09.86-.44,4.19-.16,12.97.45,18.12,4.55-.59,8.15-1.94,8.07-3.73l-.41-8.8Z"/>
    <path d="M427.45,74.2c-33.73,11.56-72.74,3.07-108.59-.32-21.33-2.01-40.14-22.15-62.35-22.16-21.81,0-40.8,19.67-62.15,21.97-36.26,3.9-72.99,2.37-109.08.58-16.62-.82-30.28-13.6-46.88-16.04L.06,72.23l2.11-16.48,73.35.39,4.29,6.81,3.71-7.55c.84-1.72,7.03-1.43,9.05-1.29l9.87.7c1.99.14,2.44,4.93,3.59,8.26l98.44-.06c.12-7.71.36-12.18,1.36-18.53l38.84.04,23.9.03h38.86s1.24,18.49,1.24,18.49l98.01-.02c.99-3.46,1.41-6.64,2.72-7.58,1.64-1.17,6.54-1.54,8.97-1.39l10,.6c2.36.14,2.52,4.93,4.32,8.88l4.54-7.5,73.55-.41,3.13,17.2-39.73-14.65-46.75,16.02Z"/>
    <path d="M513.55,165.09l-77.83.14.61-9.72.31-66.05c.02-3.57-.8-9.21-1-12l78.82.08c-.69,2.35-2.51,7.71-2.5,10.01l.11,66.17c0,2.7.88,6.68,1.48,11.38ZM451.78,123.7l6.1-1.65-.17-14.27c-6.35-1.65-7.76-3.59-7.59-9.69.09-3.27,3.58-3.94,9.64-6.53-1.8-2.07-10.15-2.75-10.92-.2l.4,40,.21,20.63c.03,2.61.65,5.24,2.07,6.12,1.06.65,6.2-.01,6.19-1.26l-.1-16.5c-2.62-.92-6.35-1.07-6.68-2.58-.46-2.1-1.33-13.47.85-14.06ZM461.43,89.26c.59,23.81-1.41,46.02,1.89,70.5,3.13,10.13,5.19-95.44-1.89-70.5ZM479.19,91.29c-6.12-1.8-9.3-1.75-11.77.11,3.75,3.09,10.25,3.18,11.77-.11ZM498.51,94.09l1.08,63.78,1.11-68.27-19.08.14,1.27,66,.36,4c.06.68,3.5-3.1,3.49-4.32l-.61-63.09,12.39,1.76ZM477.67,113.23c-.25-3.5-.23-5.48-1.39-6.24s-6.18-1.49-6.38-.11l-1,7.01c-.29,2.06.37,6.09,1.04,7.76s6.78.88,6.97-.92l.76-7.5ZM496.89,111.47c.12-1.19-.25-5.09-1.36-5l-4.77.36c-1.41.11-4.42,19.81,4.97,15.77l1.15-11.13ZM477.94,157.91l-.23-18.59h-8.7s.17,18.56.17,18.56l8.76.03ZM496.93,157.87l-.58-17.96-6.7-.38-.06,18.15,7.33.19Z"/>
    <path d="M76.95,157.03c0,13.55,7.65,4.19-34.56,7.95-13.98,1.25-28.59.49-42.39-.46.89-6.81,1.87-12.49,1.81-18.79l-.61-67.99,75.75-.46v79.74ZM28.16,158.87c4.79-18.68,1.69-35.52,2.4-53.3l1.7-15.76-19.72-.07,1.12,68.07,1.19-65.44,12.48.22c-.47,22.85-1.97,44.51.83,66.28ZM45.52,91.45c-6.54-2.24-9.91-2.25-11.92.48,4.24,2.35,10.3,2.12,11.92-.48ZM62.71,105.9c-3.47.56-7.29.4-7.43,1.57l-.74,6.41c-.22,1.88.4,6.25,1.08,7.91s6.83,1.13,7.69-.45,1.58-4.71,1.68-7.11l1.01-25.08-19.14.97c2.47,25.07-2.2,46.21,2.98,69.75,3.65-23.6.81-43.41,2.08-67.92l11.05,3.8c2.35.81,2.15,9.73-.25,10.14ZM24.28,112.4c0-2.59-.05-5.89-1.22-5.85l-6.37.23.39,14.29c.05,1.73,7.19,1.37,7.19-.41v-8.25ZM44.72,110.88c.31-2.25-4.74-5.78-6.98-4.74-1.65.77-3.03,5.19-2.78,7.03l1.11,8.27c.23,1.7,6.99,1.68,7.22-.01l1.43-10.54ZM24.46,157.59l-.36-18.33-7.51,1.02-.12,17.71,8-.4ZM44.28,157.78l-.45-18.39-8.62.03.09,18.41,8.98-.05ZM64.49,146.32c0-3-.41-5.22-.84-6.49s-7.38-1.3-7.79-.02c-1.38,4.3-1.41,13.48-.19,18.14,1.78.86,8.84.13,8.84-1.7l-.02-9.92Z"/>
    <path d="M381.78,187.34c-.25-3.79-6.25-8.49-9.86-8-4.57.62-8.5,5.74-8.6,10.11l-.4,16.98-50.31-.11-.1-38.67h120s.24,38.64.24,38.64l-49.72.19-1.24-19.15ZM324,197.62c1.9.05,4.16-5.33,4.08-7.16s-3.38-5.95-5.67-5.66c-4.52.56-5.85,12.61,1.59,12.82ZM347.92,197.13c2.05.21,4.32-4.97,4.24-6.77s-3.48-5.94-5.24-5.41c-3.75,1.13-4.76,11.6,1,12.18ZM397.41,197.02c6.54-.1,5.74-11.31,1.21-12.26-1.87-.39-5.27,3.77-5.4,5.55s1.95,6.74,4.19,6.71ZM427.26,190.16c.29-2.41-4.27-6.53-5.91-5.66s-2.78,3.69-3.71,7.9c-.47,2.16,3.45,5.49,6.03,5.49,1.67,0,3.14-4.1,3.58-7.73Z"/>
    <path d="M149.83,188.36c-.14-4.52-5.65-9.21-10.13-8.63-3.54.46-8.06,5.84-8.16,9.62l-.46,17.15-50.56-.18.22-38.66h119.78s.18,38.67.18,38.67l-50.29.14-.58-18.11ZM88.28,196.65c1.9,1.92,7.1-1.3,7.09-3.82-.02-4.67-2.76-9.26-6.47-7.43-2.35,1.16-2.49,9.36-.62,11.25ZM116.4,197.34c1.97.27,4.21-5.05,4.08-6.92-.16-2.25-3.3-6.24-5.35-5.54-4.63,1.57-5.5,11.54,1.28,12.45ZM166.63,197.44c4.9-2.19,5.14-11.49-.41-12.58-2.38-.47-4.99,5.01-4.98,7.69,0,1.76,3.6,5.69,5.38,4.89ZM195,189.92c.13-2.03-3.81-6.19-5.36-5.31-5.44,3.09-2.81,12.12-1.75,12.2l5.58.43c1.21.09,1.36-4.76,1.53-7.32Z"/>
    <path d="M270.35,209.68c-5.93-11.8,3.51-35.19-12.97-37.32-3.62-.47-10.77,4.31-11.15,8.46l-2.46,27.1c-7.89-3.74-.93-9.13-5.96-20.17-.69-1.5-6.77.43-6.8,2.06l-.31,17.26-27.05.27c-.86-13.44-.9-25.36-.26-39.69h106.34s.09,39.22.09,39.22l-27.66.35-.83-15.8c-.05-.88-.91-3.93-1.76-3.75l-5.75,1.2c-.7,6.22-1.21,12.82-3.46,20.8Z"/>
    <path d="M480.63,182.83l-12.18-.41-.87,24.23h-31.82c-.99-12.84-1.04-24.9-.44-38.93l77.7-.17-.24,39.15-32.05-.38-.1-23.5ZM454.77,195.82c4.38-1.31,3.45-10.51-.54-10.47-4.7.04-4.41,11.95.54,10.47ZM493.29,195.86c6.76.83,6.86-10.53.49-10.73-3.08-.1-3.54,10.36-.49,10.73Z"/>
    <path d="M45.9,183.78c-1.82-1.55-9.75-1.43-12.11-.39l-.61,22.95-32.05-.04-.14-38.53,76.83-.46.1,39.25-31.43-.07-.59-22.71ZM20.92,195.91c3.13-1.76,2.94-10.66-.51-10.81-1.76-.07-4.5,3.82-4.66,5.58s3.31,6.28,5.17,5.23ZM59.62,196.16c2.24,0,4.41-5.71,4.01-7.52-.3-1.36-3.56-3.43-5.03-3.19-3.39.55-2.99,10.71,1.02,10.71Z"/>
    <polygon points="307.31 73.65 205.42 73.55 256.25 52.22 307.31 73.65"/>
    <path d="M72.83,74.66l-24.15-.9-40.76-.34,29.37-13.37c11.36,3.81,23.55,9.07,35.55,14.61Z"/>
    <polygon points="504.71 73.44 441.83 73.68 472.97 59.6 504.71 73.44"/>
    <path d="M268.59,6.73c1.6.93,3.14,6.13,2.57,7.71-1.15,3.23-13.51-2.35-14.65-4.43-1.26-2.29-.14-9.06.55-10.02l11.53,6.73Z"/>
  </g>
</svg>