<?xml version="1.0" encoding="UTF-8"?>
<svg id="Layer_2" data-name="Layer 2" xmlns="http://www.w3.org/2000/svg" viewBox="0 0 544.51 392.19"><style>path,polygon,circle,rect,ellipse,line,polyline { fill: #D4AF37 !important; stroke: #D4AF37 !important; }</style>
  <g id="Layer_1-2" data-name="Layer 1">
    <path d="M176.9,392.19c-36.17.02-144.85-5.51-175.38-16.67l1.59-50.08c18.63-3.14,36.93-6.02,56.18-7.55,61.07-4.86,120.97-7.84,182.53-8.86,34.07-.56,65.83-.07,99.92-2.42-22.6-5.84-43.8-2-65.81-1.65l-85.95,1.33-128.79,7.58c-20.13,1.19-39.05,4.79-58.89,8.1-5.47-2.09.48-9.99,1.03-13.92,1.94-14.02,2.65-30.4.47-44.17-1.4-8.82-1.61-11.13,1.43-20.1,3.97-11.73,3.7-29.62,1.34-41.9-1.66-8.65.62-12.42,1.27-20.63l4.09-51.42c.68-8.57,6.15-18.94,2.23-27.3-1.44-3.08,2.36-10.24,4.35-12.87C55.57,40.61,109.71,16.66,167.56,0c4.01,3.16,6.39,6.95,8.66,11.49l9.81,7.55,25.68,58.86c5.13-.57,9.19-.96,11.59.13,2.4,1.09,6.59,7.1,6.61,9.83l.33,37.99,7.42,19.17,9.99,29.58,31.34.66c4.39,6.8,8.93,13.28,13.53,18.57l56.26-.4,1.1-21.34c48.73-1.08,155.62,9.79,188.09,49.27l4.95,94.27,1.58,54.67c-52.95,13.76-118.41,14.22-173.53,17.43-4.6,2.59-9.98,4.38-15.51,4.38l-178.58.08ZM111.18,69.69c-1.31.16-6.55.99-7.09,2.2-1.83,4.04-1.55,12.8-.61,17.72,4.37-1.29,7.74-1.75,8.74-3.45,1.79-3.04,1.69-16.79-1.04-16.47ZM54.13,102.49l-5.25-.05-.38,17.23c7.9-4.29,5.13-7.63,5.63-17.18ZM8.83,193.95c40.61-56.86,149.35-81.37,215.5-86.14l-1.09-3.38c-.29-.88-4.4-1.28-5.47-1.18-45.57,4.01-90.04,14.24-132.32,31.29-24.3,9.8-69.59,33.98-76.63,59.41ZM206.95,178.65c.01-14.72.46-26.1-1.26-40.09-.63-5.08-11.33-7.43-15.38-5.95s-10.97,8.08-11,13.12l-.22,36.47,27.87-3.55ZM158.86,185.54l-1.21-38.85c-.14-4.55-10.26-6.23-13.58-4.62-3.28,1.6-8.87,7.12-8.93,11.09l-.56,36.75,24.29-4.38ZM115.55,193.01c.34-13.05.99-27.11-1.04-38.38-.45-2.52-8.12-3.45-9.71-1.65-1.36,1.54-5.26,5.67-5.3,8.08l-.63,36.01,16.68-4.06ZM81.64,202.23l-.79-35.93c-.05-2.15-7.06-3.26-8.16-1.58-.91,1.4-3.74,5.29-3.79,7.45l-.79,34.69,13.52-4.64ZM54.54,209.46l.34-29.25c.02-1.97-4.39-5.79-5.63-4.61-.98.94-3.65,4.32-3.68,6.04l-.61,32.64c2.45,1.44,9.55-2.01,9.58-4.82ZM422.77,196.77l-1.02-8.25c-.16-1.26-3.99-1.14-6.78-1.36l-.82,12.26c-.12,1.79,4.24,4.83,6.01,4.61s2.92-4.84,2.62-7.26ZM34.64,216.76l.23-23.3c.02-1.71-2.54-5.42-3.83-4.84s-4.42,3.73-4.42,5.43l-.13,29.73c3.93.04,8.12-3.45,8.15-7.01ZM474.44,213.23c2.79-5.77,2.44-11.54-1.27-17.49-4.16,5.18-4.32,12.02,1.27,17.49ZM131.22,215.72c50.28-8.79,99.45-11.08,150.74-12.98-1.26-2.5-4.56-3.87-8.02-3.77-75.12,2.3-171.85,9.74-240.55,39.23-10.89,4.68-22.09,9.71-27.9,20.27,36.24-25.12,82.8-35.25,125.73-42.75ZM511.28,228.93c.66-8.09.62-13.12-.47-19.49-5,7.05-4.42,15.34.47,19.49ZM259.33,274.33l-.84-42.31c-.19-9.41-11.76-12.39-19.04-10.64s-13.04,8.59-12.97,17.4l.32,36.89,32.52-1.35ZM455.63,242.68l-1.57-17.12c-.13-1.37-4.25-4.53-5.52-4.01l-5.66,2.33.41,17.67,12.34,1.14ZM204.67,277l.13-36.9c.03-8.7-4.93-15.28-13.87-15.06-5.15.13-13.98,5.11-14.01,12.47l-.18,41.16,27.92-1.67ZM156.27,280.39l.06-35.69c.01-7.5-4.49-13.24-11.47-13.69-5.25-.34-13.31,4.94-13.41,11.71l-.54,38.99,25.36-1.33ZM367.09,276.02l-.32-25.55c-.09-7.28-5.8-13.64-12.04-15.15s-15.97.78-17.5,8.5c-2.07,10.44-1.42,21.29-.51,31.93l30.37.28ZM113.61,283.76l.14-35.19c.02-5.31-3.71-10.81-8.6-10.91-3.77-.08-10.65,4.83-10.71,9.01l-.55,38.92,19.72-1.83ZM316.15,272.65c-.35-11.87,4.21-33.92-11.36-35.13-3.89-.3-10.08,1.61-12.46,5.3l11.4,29.99c1.11,2.92,11.41,2.74,12.42-.16ZM79.55,287.26l-.3-35.79c-.03-3.15-5.34-7.77-7.98-7.09-2.26.59-6.85,4.69-6.92,7.27l-1.1,37.8,16.29-2.19ZM430.98,285.43l-1.1-30.88c-.13-3.77-7.31-8.43-10.68-7.78-2.97.57-8.09,5.65-8.09,8.79v28.85s19.87,1.01,19.87,1.01ZM51.72,291.13l.13-34.17c0-1.81-3.13-5.5-4.87-5.7s-5.97,3.3-6.04,5.16l-1.36,36.2,12.14-1.48ZM459.58,296.61l-1.15-38.08c-.08-2.69-4.9-7.23-7.5-7.31s-7.52,4.56-7.43,7.22l1.3,37.08,14.78,1.1ZM484.41,295.04l-.96-34.09c-.08-2.8-5.93-7.11-8.43-6.25-2.15.73-5.02,5.53-4.92,7.87l1.43,33.58c3.66,1.64,12.54,1.72,12.88-1.11ZM31.51,292.85l.18-29.53c0-1.57-3.09-5.59-4.31-4.67-.92.69-4.01,3.99-4.04,5.25l-.54,31.58c1.84,1.64,8.69-.16,8.71-2.63ZM503.68,297.77l-.92-33.11c-.05-1.94-4.04-5.93-5.9-6.1s-4.84,4.28-4.76,6.19l1.31,32.14c.1,2.38,10.34,3.31,10.27.88ZM518.23,300.24l-1.23-33.41c-.04-1.04-3.48-4.68-4.21-3.97s-3.43,3.72-3.38,4.7l1.39,32.26c.12,1.49,6.79,1.52,7.44.42ZM529.34,301.7l-1.26-29.94c-.03-.8-2.64-3.3-3.19-3.88s-2.5,2.81-2.47,3.66l1.23,28.62c.04.92,2.48,3.64,3.1,4.3.41.44,2.61-2.1,2.59-2.76ZM536.36,308.02c1.72-12.85,2.2-24.99-2.26-35.53-2.2,12.63-1.8,24.65,2.26,35.53ZM204.63,383.47l-.3-44.71c-.05-7.83-8.71-13.86-15.16-13.49-7.51.43-13.27,7.36-13.24,15.48l.17,42.19,28.54.53ZM260.03,383.64l-.3-42.64c-.07-9.93-7.98-16.87-16.75-16.78-8.77.08-16.7,6.78-16.65,16.77l.24,42.56,33.46.09ZM318.45,383.38l-.1-40.51c-.03-11.07-6.4-19.11-17.38-18.85-8.35.19-16.78,6.59-16.72,17.01l.27,43.24,33.93-.89ZM155.45,382.64l-.21-43.58c-.04-7.4-8.15-12.45-14.19-11.78-5.98.67-11.01,6.67-11.02,13.43l-.08,40.72,25.51,1.21ZM368.02,381.23c4.32-15.23,1.36-25.28,2.02-38.61-1.43-5.4-4.83-11.43-9.26-13.63-4.67-2.32-11.4-2.01-15.54,1.32,7.07,18.08,13.21,33.45,22.78,50.92ZM414.93,377.71l-.8-37.01c-.15-7.01-6.7-13.14-12.91-12.94-4.82.15-12.45,5.74-12.39,11.58l.4,39.42,25.69-1.05ZM113.02,380.93l-.19-42.64c-.02-4.6-7.52-9.95-11.63-9.47-3.47.4-8.69,5.96-8.7,10.03l-.03,40.89,20.55,1.19ZM462.51,373.29l-1.51-37.33c-.13-3.31-7.17-7.51-10.07-6.55-2.53.84-5.9,6.17-5.82,8.99l1.01,36.56,16.39-1.67ZM78,378.82l-.15-40.41c-.01-2.81-4.36-7.63-7.03-7.97s-8.24,4.09-8.3,7.22l-.73,39.53,16.21,1.63ZM487.75,371.12l-1.32-33.61c-.11-2.74-4.83-7.76-7.2-7.35s-6.42,5.2-6.38,7.62l.59,35.03,14.31-1.69ZM507.02,368.87l-1.12-31.77c-.07-1.87-3.11-5.62-4.85-6.24s-5.69,4.07-5.63,6.11l.97,33.68c3.18.26,8.83-.47,10.64-1.79ZM50.67,375.87l.05-36.85c0-2.5-3.5-6.9-5.56-6.89s-6.15,3.85-6.23,6.3l-1.19,36.5,12.93.94ZM521.12,366.48l-.97-29.11c-.06-1.65-3.66-5.68-4.64-4.61-.74.81-3.16,3.79-3.13,5.04l.79,29.72c.05,2.04,8.02,1.06,7.95-1.04ZM526.43,333.09c-1.72,8.79-2.86,29.08,2.44,34.55,4.49,4.64,3.46-37.42-2.44-34.55ZM30.31,371.87l.38-32.47c.02-2.1-4.1-6.16-5.28-4.95-.87.89-3.36,3.84-3.39,5.32l-.73,31.48c-.05,2.23,8.99,3.71,9.03.61ZM536.17,334.71c-.35,11.61-.78,20.51,1.47,31.94,3.77,3.23,3.48-39.17-1.47-31.94Z"/>
  </g>
</svg>