<?xml version="1.0" encoding="UTF-8"?>
<svg id="Layer_2" data-name="Layer 2" xmlns="http://www.w3.org/2000/svg" viewBox="0 0 507.42 591.99"><style>path,polygon,circle,rect,ellipse,line,polyline { fill: #D4AF37 !important; stroke: #D4AF37 !important; }</style>
  <g id="Layer_1-2" data-name="Layer 1">
    <path d="M33.21,374.32c7.6.58,4,9.86,4.88,13.93,4.18,19.1,9.13,36.78,17.53,57.14,8.88-19.1,12.93-35.75,18.07-53.9,1.64-5.78-4.37-12.8,5.59-17.77l3.2,19.36c2.99,18.11,8.88,34.28,16.66,52.23,7.86-19.35,13.46-37.92,17.75-55.73.95-3.96-.71-13.15,2.82-14.43,8.29.36,2.96,10.65,4.2,14.6l15.25,48.48c1.88,5.97,6.81,10.56,5.8,17.76l-9.88,70.01c-10.22-11.03-11.09-34.38-17.54-22.32l-13.1,24.49c-5.58-5.45-12.26-31.26-15.78-28.45-6.97,5.56-4.64,15.85-15.82,27.98-6-6.34-12.93-32.42-16.25-27.39-5.73,8.67-5.9,15.47-14.39,27.64-10.07-10.28-12.83-37.55-19.11-24.19l-12.76,27.15c6.85-7.07,11.9-17.13,16.24-26.92,4,9.89,8.65,18.99,15.42,30.07l15.7-29.23,15.24,29.11c6.59-9.63,11.89-19.72,15.79-30.1,4.56,11.13,9.63,20.54,15.94,30.3l16.47-30.19c.61,3.4,2.19,10,4.28,13.09l10.75,15.92,13.41-78.29c5.05,12.33,6.31,69.49,13.13,76.37,9.38,9.46,23.82-81.13,24.64-85.89,4.52-26.32,3.35-48.16,10.96-78.36,2.65,9.08,4.63,16.94,5.98,26.58l13.62,97.76c.19,1.39,2.3,4.18,3.07,5.14s4.74-1.84,5.1-3.21l13.14-49.67c6.13-23.17,11.8-46,11.91-69.6.04-8.91-.67-13.33,3.46-21.09,5.49-10.32,4.26-24.7,6.01-36.45,1.8-12.06.5-20.96-3.4-32.86.63-8.41,4.46-19.65,5.6-28.68l3.78-29.97c.14-1.94-3.57-6.8-2.09-7.6,2.28-1.23,5.79-2.64,7.8-2.54s3.22,5.52,2.96,7.75c-2.49,21.05,8.44,40.7,7.99,61.1-.24,10.82-4.38,20.8-2.23,32.27,2.12,11.32.32,25.74,5.33,35.85,4.1,8.29,3.94,12.86,4.07,22.17.4,29.63,8.93,58.23,16.4,86.55,3.5,13.25,6.21,24.6,11.88,38.32,7.2-11,6.43-19.91,7.83-30.21,4.71-34.46,7.31-67.89,15.92-101.7,3.1,14.71,5.45,27.32,6.83,40.93l1.84,18.17c3.1,30.6,11.9,72.55,20.61,100.37.43,1.36,3.53,4.04,3.89,4.94.48,1.21,4.85-1.99,5.15-3.39,4.76-22.85,4.18-51.48,10.92-72.22l12.23,77.39c8.92-10.59,11.87-19.29,15.61-30.75,4.31,12.15,8.55,20.31,15.96,32.32,7.15-9.09,11.2-18.45,15.62-30.93l3.62,9.27,12,21.67c7.04-11.62,12.3-21.24,16.43-30.77,2.99,9.24,11.57,33.84,23.95,31.71l.32,55.87-157.42.11-.61-23.4c-.05-1.95-3.28-5.33-4.89-5.9s-5.76,2.61-5.81,4.36l-.76,24.85-46.91.14-.68-32.33c-.1-4.95-4.28-11.96-8.2-15.37-4.39,3.89-8.43,10.44-8.39,15.51l.22,28.52c0,1.27-1.99,4.25-3.25,4.19s-3.44-2.99-3.45-4.27l-.19-32.13c-.02-3.1-4.58-9-7.6-12.06-5.23,4.45-8.72,11.25-8.74,17.75l-.07,30.07-47.91-.12-.29-23.4c-.03-2.26-3.62-6.06-5.46-5.9s-5.14,3.69-5.22,5.67l-.86,23.74-190.39.11-.53-55.2,7.66-3.4v-89.04s7.4-4.56,7.4-4.56c5.58-16.83,11.11-32.88,15.23-50.03.91-3.8-1.11-13.7,2.91-14.88ZM286.83,443.31c-2.74-13.03-5.99-28.35-16.6-39.58-9.06,12.54-13.56,26.5-15.26,39.5l31.86.08ZM209.47,494.41l-11.31-25.48-9.67,25.82c8.36.35,11.92.33,20.97-.33ZM352.7,495.39c-3.86-11.95-5.99-17.59-10-25.52-5.43,10.87-7.78,16.07-10.01,25.6l20.01-.08Z"/>
    <path d="M379.56,514.47c-.66,5.61,1.14,9.68-3.17,13.6-10.61-27.84-18.97-75.13-22.27-106.68-.18-1.71-6.21-69.64-13.36-57.96l-2.52,4.12c-1.79,8.74-4.19,16.93-5.3,25.18l-13.37,99.73c-10.52-34.45-24.73-83.69-25.64-118.58-.85-32.62-9.65-13.43-8.82-55.82l9.01-5.12-.5-37.09-8.94-6.66-3.19-17.57,11.26-.19,8.94-126.22c1.04-14.7,1.82-29.06,4.71-43.49,2.46-12.28,2.81-22.96,2.02-35.75-.4-6.53,4.94-17.13,1.67-22.97-3.03-5.41-6.26-9.46-4.14-15.4,1.42-3.98,8.82-9.56,13.32-6.86,4.13,2.48,8.69,8.26,8.42,11.74s-4.58,7.9-7.7,11.83c7.76,35.18.23,22.93,6.27,56.76,6.16,34.48,3.14,58.47,8.4,93.4,3.81,2.32,8.79,4.54,12.34,5.55.85-25.71,5.1-47.85,7.47-72.48.87-9.03-2.64-18.51,1-27.97,2.97-7.72-1.26-14.38-4.68-20.83-3.11-5.88,4.89-14.82,11.63-14.37,3.63.24,9.46,5.37,9.69,8.76.27,4.04-2.37,9.51-4.35,13.77-3.58,7.73,1.84,18.49,1.58,26.67-.33,10.35-.87,19.28,1.47,28.83,4.09,16.72,4.41,33.17,6.16,50.47,6.16,60.87,10.94,120.84,9.91,182.7-.22,13.44,1.9,26.76.14,39.57-1.25,9.07-2.06,17.06,8.39,21.93l-2.99,16.57c-1.47,8.12,2.64,16.15-5.78,21.05l-7.09,59.81ZM317.38,133.95l-.6-11.54c-5.33,4.05-4.85,11.09.6,11.54ZM326.13,135.38c-1.02-5.52-1.54-8.52-2.32-8.14-1.29.63-2.83,5.62-1.54,6.25l3.86,1.89ZM318.11,159.39c-.99-5.51-1.51-8.57-2.28-8.15-1.33.72-2.87,5.6-1.6,6.23l3.88,1.92ZM324.04,163.53c4.63-2.01,5.36-7.22.63-8.14l-.63,8.14ZM314.06,161.94l.33,5.76c.04.78,3.3-.34,3.32-1.12l.11-3.91c.02-.78-3.81-1.5-3.77-.74ZM304.06,167.93l.33,5.78c.04.78,3.3-.34,3.32-1.12l.11-3.91c.02-.78-3.81-1.51-3.77-.75ZM363.52,183.71l-.5-13.61c-2.63,6.9-4.7,11.51.5,13.61ZM314.06,171.93l.33,5.77c.04.78,3.3-.34,3.32-1.12l.11-3.9c.02-.78-3.81-1.56-3.77-.75ZM326.09,176.08c-.51.88-2.23,4.31-1.35,4.4l3.22.32c.88.09,1.45-2.83.81-3.44-.42-.4-2.38-1.8-2.68-1.28ZM304.06,177.94l.33,5.76c.05.78,3.29-.34,3.32-1.12l.12-3.91c.02-.78-3.81-1.47-3.77-.73ZM314.06,181.92l.33,5.78c.05.78,3.3-.35,3.32-1.12l.12-3.91c.02-.78-3.81-1.49-3.77-.75ZM325.99,185.89l-1.18,4.28c-.24.86,3.54,2.11,3.53,1.21l-.02-3.64c0-.59-2.18-2.42-2.33-1.86ZM363.36,193.64c.39-2.18.46-5.73-.09-6.62-2.74-.2-2.35,3.65.09,6.62ZM314.05,191.95l.34,5.76c.05.78,3.29-.35,3.32-1.13l.12-3.91c.02-.78-3.82-1.47-3.78-.72ZM336.9,192.17c-.07,10.89-.39,21.44,3.53,32.85,2.55-1.18,10.58-40.59-3.53-32.85ZM352.06,191.96l.34,5.75c.05.78,3.29-.35,3.32-1.13l.12-3.91c.02-.78-3.82-1.5-3.77-.71ZM306.84,202.62l-1.92-7.37-2.41,5.37c-.36.79.51.84,4.33,2ZM325.86,196c-.97,1.69-1.79,3.86-.89,4.58.67.54,2.6,2.08,2.92,1.25l1.21-3.16c.31-.81-2.81-3.42-3.24-2.67ZM359.76,196.58c-1.27.34,1.64,3.53,2.92,3.38.85-.1,2.66-.65,2.98-1.44s-.32-3.41-1.17-3.19l-4.73,1.25ZM314.06,201.93l.33,5.77c.05.78,3.3-.34,3.32-1.12l.12-3.91c.02-.78-3.81-1.49-3.77-.74ZM326.59,207.53c-.82,1.17-2.26,3.59-1.52,3.94.85.39,3.14,1.75,3.34.94l.92-3.74c.19-.79-2.23-1.87-2.74-1.14ZM302.71,208.21l.59,4.22c.12.88,2.85-.12,2.83-1.03l-.05-3.02c-.01-.59-3.45-.75-3.37-.17ZM318.13,219.39c-1.01-5.54-1.52-8.51-2.31-8.14-1.3.62-2.86,5.6-1.53,6.25l3.84,1.89ZM362.25,214.1c-1.04,1.24-2.61,3.23-1.85,3.7s3.28,2.02,3.46,1.14l.7-3.47c.12-.59-1.98-1.52-2.31-1.38ZM302.06,217.92l.33,5.78c.04.78,3.3-.34,3.32-1.12l.12-3.91c.02-.78-3.81-1.54-3.77-.76ZM326.06,217.93l.33,5.77c.05.78,3.3-.34,3.32-1.13l.12-3.9c.02-.78-3.81-1.52-3.77-.74ZM350.9,221.42c.22,1.38,1.01,4.76,1.71,4.22.65-.5,1.94-1.74,2.34-2.16.6-.63-.52-2.23-1.12-3-.35-.46-3.02.36-2.93.94ZM372.06,219.94l.33,5.76c.05.78,3.3-.34,3.32-1.12l.12-3.91c.02-.78-3.82-1.53-3.77-.73ZM315.62,229.69c2.68-1.7,2.55-8.02.03-8.18-2.48.52-2.32,8.17-.03,8.18ZM361.65,221.63l-.63,5.68c-.08.73,2.43,1.56,2.61.83l.79-3.31c.17-.73-.25-.72-2.77-3.2ZM302.06,227.94l.33,5.76c.04.78,3.3-.34,3.32-1.12l.12-3.91c.02-.78-3.82-1.53-3.77-.73ZM326.06,227.96l.34,5.74c.05.78,3.29-.35,3.32-1.13l.12-3.91c.02-.78-3.82-1.47-3.77-.71ZM316.82,241.56l.94-10.36-4.27,3.82c-.84.75.9,3.34,3.34,6.55ZM362.28,232.79l-1.21,4.56c-.21.79,2.77,1.26,2.96.48l.74-3.04c.19-.79-2.26-2.86-2.49-2.01ZM302.1,245.52c4.51-1.9,4.98-7.42.71-8.03-.21.86-.69,6.73-.71,8.03ZM326.06,237.91l.33,5.79c.04.78,3.3-.34,3.32-1.12l.11-3.9c.02-.78-3.81-1.57-3.76-.78ZM350.06,237.91l.33,5.79c.04.78,3.3-.34,3.32-1.12l.11-3.91c.02-.78-3.81-1.53-3.77-.76ZM372.06,237.96l.34,5.75c.05.78,3.29-.35,3.32-1.13l.12-3.91c.02-.78-3.82-1.49-3.77-.71ZM341.28,276.03c.62-13.75,1.04-24.41-1.11-38.28-4.05-4.06-3.55,46.95,1.11,38.28ZM362.3,241.82c-1.37,2.08-2.77,3.93-1.87,4.25l3.91,1.4c.92.33.94-3.48.16-4.06l-2.19-1.6ZM314.06,243.97l.34,5.74c.05.78,3.29-.36,3.32-1.13l.12-3.91c.02-.78-3.82-1.47-3.77-.7ZM302.69,256.31c5.39-3.68,3.04-8.02-.96-8.24l.96,8.24ZM329.5,255.73l-.05-8.35-3.95,3.56c-.78.7,1.63,2.71,4,4.78ZM350.06,247.95l.34,5.75c.05.78,3.29-.35,3.32-1.13l.12-3.91c.02-.78-3.82-1.48-3.77-.72ZM373.09,249.46l.52,4.46c.09.79,2.35.17,2.43-.62l.37-3.5c.08-.78-3.42-1.12-3.32-.34ZM362.04,252.31c-.69.79-2.51,3.51-1.64,3.73l3.7.94c.88.22,1.32-3.28.46-3.57-.59-.2-1.19-.51-2.52-1.1ZM316.01,261.65c1.96-1.46,1.83-8.09-.03-8.16-3.16.65-3.03,8.12.03,8.16ZM350.28,263.62c1.74-1.56,4.47-4.09,3.63-4.8l-3.86-3.25.23,8.05ZM373.87,257.93c-.78,1.09-2.33,3.69-1.49,4.03s3.48,1.76,3.65.87l.62-3.17c.12-.59-2.44-2.21-2.78-1.73ZM326.74,260.36l.52,4.29c.12.99,3.61.66,3.46-.33l-.55-3.79c-.1-.66-3.51-.84-3.43-.17ZM362.06,261.94l.33,5.77c.05.78,3.3-.34,3.32-1.12l.11-3.91c.02-.78-3.82-1.5-3.77-.73ZM374.06,267.91l.33,5.79c.04.78,3.3-.34,3.32-1.12l.11-3.9c.02-.78-3.81-1.53-3.77-.77ZM362.06,271.95l.34,5.75c.05.78,3.29-.35,3.32-1.13l.12-3.91c.02-.78-3.82-1.49-3.77-.72ZM350.29,283.62c1.73-1.56,4.46-4.1,3.61-4.81l-3.86-3.23.24,8.04ZM374.06,277.93l.33,5.77c.04.78,3.3-.34,3.32-1.12l.11-3.91c.02-.78-3.81-1.54-3.77-.74ZM302.07,279.29c-.5,18.21-1,33.86,1,52.23,4.19,5.93,3.99-63.9-1-52.23ZM362.06,281.96l.34,5.75c.05.78,3.29-.35,3.32-1.12l.12-3.91c.02-.78-3.82-1.5-3.77-.71ZM317.42,337.79c.27-18.78,1.38-35.06-1.45-53.96-3.48-4.25-3.86,65.49,1.45,53.96ZM374.06,287.97l.34,5.74c.05.78,3.29-.35,3.32-1.13l.12-3.91c.02-.78-3.82-1.49-3.77-.7ZM327.56,342.97c3.51-18.61,3.38-35.15.1-53.15-3.17,18.45-3.04,35.23-.1,53.15ZM339.55,352.97c3.51-17.93,3.39-33.82.1-51.16-3.15,17.78-3.03,33.9-.1,51.16ZM349.68,308.6c-.76,3.76-3.76,51.48,2.6,49.55,2.88,3.55,1.73-70.88-2.6-49.55ZM363.8,366.89c2.66-19.12,4.18-37.19-.93-54.7-3.29,19.37-1.93,37.24.93,54.7ZM375.56,372.97c3.51-18.61,3.38-35.15.1-53.15-3.17,18.45-3.04,35.23-.1,53.15Z"/>
    <path d="M164.34,528.34l-11.61-74.41c-.51-3.28-6.67-6.26-5.13-12.58,1.38-5.67-1.51-14.18-3.19-20.01-.85-2.95,4.61-7.5,8.09-9.71.94-14.06,1.58-30.54,1.27-46.04-1.3-64.85,2.67-127.48,9.22-191.59,1.68-16.44,2.46-31.77,5.53-47.58,2.16-11.13,2.61-21.14,2.08-32.69-.37-8.03,5.16-19.32,1.38-26.73l-6.15-12.05c2.24-4.33,8.65-10.74,13.18-10.53,3.57.17,9.48,6.24,10.33,9.39s-2.46,8.21-4.6,12.6c-3.43,7.04,2,17.1,1.62,24.11-2.24,42.06,6.68,47.48,6.15,89.81,3.15-.97,7.67-2.49,10.06-3.9,2.39-1.4,3.89-8.88,4.1-12.16l3.01-46.7c2.11-32.65,8.45-43.66,6.66-69.91-.49-7.21,4.72-17.99,1.44-24.57-2.33-4.68-4.84-9.81-4.44-14,.38-3.92,7.17-9.95,11.35-8.86,4.26,1.11,9.13,5.8,10.24,9.42.96,3.14-2.26,8.24-4.82,12.46-3.43,5.64,1.19,15.2,1.14,21.84-.08,11.4-.59,21.53,1.54,32.43,3.21,16.41,4,32.48,5.54,49.49,3.82,42.23,7.69,83.52,8.91,125.42l12.92.51-4.17,18.35-9.33,5.98v36.57s9.79,5.85,9.79,5.85c1.01,33.03-8.51,28.48-8.82,53.36-.35,28.11-7.51,55.56-14.88,82.48l-10.47,38.22c-5.31-11.45-14.58-142.62-25.39-129.36-7.32,8.98-9.32,63.07-13.17,82.43-5.49,27.63-8.34,54.66-19.39,82.65ZM224.22,139.59c1.78-7.26,1.84-11.83.15-16.12l-.15,16.12ZM217.49,135.73l-.05-8.35-3.93,3.54c-.79.71,1.62,2.73,3.98,4.81ZM231.24,135.67c.11,1.07.87,4.51,1.38,3.92.44-.51,1.76-1.84,2.33-2.13.73-.37-.54-2.09-1.13-2.7-.37-.39-2.65.37-2.59.91ZM226.36,157.54l-1.36-8.53-2.36,5.5c-.36.85,1.32,1.62,3.71,3.03ZM215.46,163.73l.07-8.47-4.01,3.66c-.79.72,1.62,2.74,3.95,4.8ZM232.06,157.91l.33,5.79c.04.78,3.3-.34,3.33-1.12l.11-3.9c.02-.78-3.81-1.55-3.77-.77ZM226.57,166.05l-1.96-6.74-1.79,6.05c-.22.75,1.41.59,3.75.69ZM212.05,167.97l.34,5.74c.05.78,3.29-.35,3.31-1.13l.12-3.92c.02-.78-3.82-1.47-3.78-.69ZM222.96,172.38l.51,4.4c.11.96,2.78-.16,3.41-.89s-.3-2.8-1-3.45c-.47-.43-3-.72-2.92-.06ZM235.73,182.34l-.16-7.2-2.75,3.9c-.55.78,1.75,2.77,2.9,3.3ZM176.06,177.92l.33,5.78c.04.78,3.3-.34,3.32-1.12l.11-3.9c.02-.78-3.81-1.55-3.77-.75ZM226.78,186.75l-1.7-7.63-2.55,5.38c-.41.86.61,1.06,4.25,2.25ZM176.27,193.65c1.8-1.65,4.47-4.11,3.63-4.82l-3.85-3.26.22,8.07ZM212.05,185.98l.34,5.73c.05.78,3.29-.35,3.31-1.13l.12-3.91c.02-.78-3.82-1.46-3.78-.69ZM234.29,193.62c1.73-1.55,4.45-4.1,3.61-4.81l-3.85-3.23.24,8.05ZM197.11,192.15c-1.51,1.01-3.03,4.91-2.76,6.94l3.69,27.15c4.82,1.31,10.82-41.98-.93-34.09ZM222.92,192.78l.43,3.93c.1.89,3.13-.29,3.1-1.18l-.12-3.54c-.02-.6-3.47.2-3.4.79ZM212.29,203.62c1.7-1.52,4.46-4.09,3.61-4.8l-3.86-3.23.25,8.04ZM234.06,197.89l.33,5.8c.04.78,3.3-.34,3.33-1.11l.11-3.9c.02-.78-3.81-1.54-3.76-.79ZM166.06,199.93l.33,5.77c.04.78,3.3-.34,3.32-1.12l.11-3.9c.02-.78-3.81-1.54-3.77-.74ZM222.84,202.38l.45,4.22c.1.93,3.39.49,3.27-.45l-.45-3.53c-.08-.62-3.33-.87-3.26-.25ZM176.06,203.95l.34,5.76c.05.78,3.29-.35,3.31-1.13l.12-3.91c.02-.78-3.82-1.48-3.78-.72ZM211.64,207.1l-.73,4.21c-.14.82,2.48,1.83,2.72,1.04l1.13-3.61c.25-.79-.87-.87-3.12-1.64ZM235.68,213.63c2.57-1.54,2.42-8.02.02-8.12-2.6.5-2.44,8.22-.02,8.12ZM186.06,209.98l.34,5.73c.05.78,3.29-.35,3.32-1.13l.12-3.91c.02-.78-3.82-1.45-3.77-.68ZM224.39,212.5c-1.07.08-2.35,4.1-1.41,4.61l2.07,1.12c.71.39,1.66-2.74,1.5-3.53s-1.36-2.27-2.16-2.21ZM176.06,213.95l.34,5.76c.05.78,3.29-.35,3.32-1.13l.12-3.91c.02-.78-3.82-1.49-3.77-.72ZM212.04,218.04c-.43.8-1.86,4.11-1.01,4.2l3,.31c.85.09,1.48-2.85.82-3.39-.44-.36-2.52-1.64-2.8-1.12ZM234.06,217.95l.34,5.75c.05.78,3.29-.35,3.32-1.13l.12-3.91c.02-.78-3.82-1.48-3.77-.71ZM223.91,223.17c-.73.44-1.45,3.36-1,4.09.44.73,2.23,1.82,2.54,1.03l1.4-3.54c.32-.8-2.22-2.03-2.95-1.58ZM176.2,224.06c-.83.46-2.63,3.35-1.8,3.8s3.3,1.94,3.51,1.02l.87-3.87c.14-.62-2.03-1.25-2.58-.94ZM186.06,227.97l.33,5.73c.05.78,3.3-.34,3.32-1.12l.12-3.91c.02-.78-3.81-1.51-3.77-.7ZM211.72,228.04l-.97,4.79c-.19.94,3.4.85,3.59-.09l.67-3.33c.12-.62-3.16-1.97-3.28-1.37ZM234.06,227.91l.33,5.79c.04.78,3.3-.35,3.32-1.12l.12-3.91c.02-.78-3.81-1.54-3.77-.76ZM176.02,231.99l-1.01,4.21c-.21.86,3.38,2.01,3.41,1.13l.11-3.72c.02-.58-2.37-2.19-2.5-1.63ZM224.04,232.16l-1.19,5.22c-.18.78,1.92.87,2.68.6s1.7-2.65,1.13-3.21l-2.61-2.61ZM186.06,237.92l.33,5.78c.04.78,3.3-.34,3.33-1.12l.11-3.9c.02-.78-3.81-1.56-3.77-.76ZM211.04,239.08c-1.16.03-.11,3.88.43,4.93.4.78,2.14-.61,2.75-1.26s1.49-3.36.62-3.48-2.83-.22-3.8-.2ZM234.86,239.49c.12,1.24.46,3.48.71,4.3s2.72.38,2.77-.43l.2-3.63c.05-.84-3.76-1.14-3.68-.24ZM201.07,275.82c.9-13.07,1.09-24.59-.63-38-6.35,13.58-1.46,25.73.63,38ZM175.89,242.04l-.88,4.14c-.17.81,3.1,1.43,3.2.61l.37-3.11c.07-.55-2.59-2.09-2.69-1.64ZM222.91,244.16c-.06,1.06-.59,4.65.39,4.46l3.67-.7c.98-.19-.2-2.82-.88-3.55-.46-.48-3.14-.9-3.17-.21ZM164.06,247.94l.34,5.76c.05.78,3.3-.34,3.32-1.12l.12-3.91c.02-.78-3.82-1.51-3.77-.73ZM186.85,248.29l.56,4.48c.12.96,2.71-.19,3.44-.83s-.26-2.79-1-3.43c-.49-.42-3.08-.89-3-.22ZM212.82,257.56l.94-10.36-4.28,3.82c-.85.76.91,3.35,3.34,6.54ZM235.79,250.09c-.76.57-2.18,3.59-1.29,3.92s3.55,1.69,3.72.75l.72-3.98c.11-.62-2.65-1.08-3.15-.7ZM175.13,252.79l-.13,4.31c-.02.56,3.05.16,3.1-.4l.33-3.31c.05-.54-.68-.36-3.3-.61ZM222.86,254.99c-.02,1.57-.02,4.86.82,4.96s2.36.13,2.45-.7l.4-3.73c.09-.83-3.65-1.39-3.66-.52ZM188.07,256.27l-1.01,4.81c-.15.72,1.11.77,2.09,1.13.7.25,1.67-2.91,1.17-3.46l-2.26-2.48ZM164.06,257.96l.34,5.75c.05.78,3.29-.35,3.32-1.13l.12-3.91c.02-.78-3.82-1.51-3.77-.71ZM210.06,259.96l.33,5.74c.05.78,3.3-.34,3.32-1.13l.12-3.91c.02-.78-3.82-1.49-3.77-.71ZM174.98,262.93l.26,3.84c.06.9,3.32.14,3.23-.78l-.33-3.42c-.06-.6-3.2-.25-3.16.36ZM188.05,265.94l-1.35,4.5c-.26.86,3.63,1.82,3.66.91l.14-3.66c.02-.6-2.3-2.26-2.45-1.75ZM174.97,272.88l.29,3.88c.07.91,3.31.17,3.22-.74l-.32-3.49c-.06-.61-3.23-.26-3.18.35ZM188.16,283.51c4.38-1.71,4.79-7.73.77-7.96-.43.88-.87,6.59-.77,7.96ZM163.76,278.04l-1.11,4.44c-.23.91,3.07,1.19,3.33.32l1.04-3.44c.18-.6-3.12-1.92-3.27-1.33ZM236.19,332.06c3.81-.51,4.05-55.25.51-51.51-3.95,4.18-3.68,44.11-.51,51.51ZM175.79,282.02l-1.2,4.56c-.24.93,3.52,1.18,3.72.23l.7-3.42c.13-.63-3.05-2.02-3.22-1.37ZM225.16,284.14c-6.02,18.3-1.78,33.89-3.07,51.14,1.34.38,3.34,1.03,3.42.93.06-.08,1-1.82,1.46-2.68-.14-16.61,1.05-32.04-1.81-49.39ZM212.42,290.94c-4.57,3.4-1.71,50.04-1.41,52.27,3.7,27.61,5.84-61.66,1.41-52.27ZM199.51,352.78c3.84-17.35,1.97-32.3,1.89-49.37l-3.85,4.73c.29,12.95-.82,30.91,1.95,44.64ZM188.81,306.89c-4.71,17.53-1.69,33.26-2.34,50.22l3.02,1.21c1.79.72,3.42-47.16-.68-51.44ZM176.83,312.9c-4.08-2.28-3.84,56.19-.16,51.84,3.32-3.93,3.39-44.59.16-51.84ZM162.99,321.63c-.37,3.35-2.16,49.75,1.37,51.35,5.08,8.79,2.18-83.83-1.37-51.35Z"/>
    <path d="M456.24,508.8c-.6-1.16-.82-5.4-.64-6.23.27-1.24-6.11-1.37-6.72-.29l-12.97,26.84-11.05-20.1c-.68-1.25-1.2-5.19-1.45-6.39s-4.78-1-6.17-.68l-11.26,22.58-9.03-60.49c-6.68-44.7,10.37-38.77-5.67-55.32-2.48-14.89-2.87-33.47-.01-48.34l4.72-24.61,3.74,25.11,3.05-3.13c4.08-4.19,6.16,36.92,6.3,39.16l2.96,49.19c7.8-3.59,2.15-14.9,7.03-21l2.88,15.87c.21,1.16,2.22,3.41,3.08,4,1.15.79,2.75-3.75,2.79-5.46.46-21.1,1.72-42.62,3.58-63.79l4.02-45.8c3.43,9.86,3.66,22.75,4.87,30.75.23,1.52,6.73,16.96,6.19,39.23-.26,10.62-1.98,20.45.57,30.37l4,15.56,5.25-70.3,4.34-34.16,4.9,29.21,3.63-17.29,4.02,20.17,5.98,29.96c.85,4.28-1.85,11.01-2.12,15.44-.66,10.77,1.84,22.41,3.41,32.87l3.1-18.76c6.52,27.75,8.25,55.06,7.83,82.93l-9.08-18.18-15.47,31.55-10.59-20.46Z"/>
    <path d="M150.33,401.99c.66,17.01-13.71,2.65-7.16,31.84-.4,4.58-.62,4.47-.93.28-6.23-16.05-11.63-31.44-14.9-48.28-.98-5.03.23-15.48-7.96-14.63-6.97.72-4.39,13.16-5.77,18.12-4.53,16.3-8.78,30.01-14.71,47.45-5.75-16.63-10.31-30.86-14.72-47.8-1.26-4.85,2.38-17.92-6.41-17.65-8.2.25-5.95,12.92-7.2,17.84-4.13,16.28-9.16,30.65-14.66,46.76-5.62-15.77-11-30.4-13.97-46.19l-3.49-18.59,14.17-55.23c1.76-6.86-.56-14.9,3.74-20.24,6.15,7.4,2.75,15.08,4.23,21.78,3.54,16,8.07,30.44,14.06,48.04,6.26-16.49,11.36-32.66,14.28-49.75,1.11-6.52-.65-13.87,3.82-19.42,7.37,5.65,2.87,14.11,4.4,20.59,3.9,16.47,8.43,31.14,14.39,48.64,6.38-17.97,10.92-33.38,14.29-50.29,1.19-5.98-1.14-13.64,3.52-19.1,6.25,6.04,3.17,14.14,4.75,21.59,3.04,14.35,7.28,28.32,12.15,42.14.81,2.3,4.06,6.81,3.99,9.29-.36,11.82-.38,21.11.07,32.81Z"/>
  </g>
</svg>