<?xml version="1.0" encoding="UTF-8"?>
<svg id="Layer_2" data-name="Layer 2" xmlns="http://www.w3.org/2000/svg" viewBox="0 0 511.97 687.65"><style>path,polygon,circle,rect,ellipse,line,polyline { fill: #D4AF37 !important; stroke: #D4AF37 !important; }</style>
  <g id="Layer_1-2" data-name="Layer 1">
    <path d="M126.11,231.99c-6.15,1.57-13.22,1.6-20.62.87l-.35-122.62c-.02-5.73-6.35-15.98-11.93-15.94-6.7.04-12.26,11.11-12.25,17.72l.14,120.67c-16.04,3.96-20.45-9.3-49.4.06v-116.95c.01-4.24-2.02-10.2-2.76-13.28l3.7-17.5c.85-4.01,2.99-7.26,6.46-9.79l5.55,10.93,1.36-16.37h142.22s1.9,14.04,1.9,14.04l4.36-7.68c.67-1.19,5.04,1.77,5.4,3.11l4.8,17.66c1.18,4.33-1.36,7.42-1.39,11.1l-.9,124.81-10.21-1.92c-23.56-4.44-25.22,1.9-41.66,1.98l-.2-116.98c-.01-7.72-3.16-19.91-11.65-21.64-6.08-1.24-12.35,10.79-12.36,17.09l-.22,120.64Z"/>
    <path d="M405.07,232.66l-20.52.42-.25-120.59c-.01-6.75-5.03-18.63-12.51-18.16-6.29.39-11.52,11.83-11.54,18.25l-.26,119.8c-3.26,1.17-7.86-.62-11.85-1.42-12.46-2.49-25.65-.14-39.49,2.53l-.62-125.2c0-1.94-3.6-22.41,7.78-33.21l5.62,9.48,1.96-14.77,142.33-.05,2.24,14.47,3.57-7.31c.62-1.28,5.51.15,5.85,1.52,1.1,4.54,2.85,13.39,4.64,18.79,1.52,4.59-1.07,6.57-1.09,9.98l-.98,123.91c-24.31-3.58-30.78,2.16-50.25,2.23l-.11-117.56c0-7.98-3.17-20.27-12.78-21.41-4.91-.58-11.52,10.41-11.53,15.95l-.2,122.38Z"/>
    <path d="M249.37,686.08l-.43-52.33c-.02-2.95-5.98-6.01-8.66-6.24s-10.08,2.19-10.11,5.01l-.57,53.89-31.68.28-.91-58.93c-.35-22.5,3.81-46.18,18.66-63.15,10-11.43,21.6-21.92,36.04-26.3,12.52-3.8,20.02,8.36,31.84,11.26-7.06-7.1-18.01-13.43-28.21-16.03-30.72,10.75-52.7,35.01-59.5,66.91-3.51,29,4.09,57.38-3.88,87.2l-1.15-159.54,130.23.27.21,153.44-1.28,3.93c-.24.75-2.81.66-3.2-.02s-.97-2.6-.99-3.76l-1.36-82.03c-.3-18.23-13.34-37.89-28.14-48.2,10.96,15.04,26.29,31.26,26.4,52.27l.43,82.39-30.92.21-.61-52.61c-.03-2.42-5.34-6.1-7.74-6.32-2.9-.26-8.58,1.6-11.45,4.05l-.18,54.18-12.83.18Z"/>
    <path d="M320.75,433.85c.29,9.65.06,19.59-.83,28.4l-128.45.08-.72-126.26,130.05-.02-.05,97.8ZM201.5,349.9c.89-.81-.22-4.64-1.33-3.99l-4.64,2.69c-.87.5.91,3.89.97,4.89s3.34-2.09,5-3.59ZM213.12,353.43l-.4-7.71-5.63.93c-.81.13.74,2.35,1.37,2.87l4.66,3.91ZM316.35,409.3c3.99-37.1-29.67-65.06-63.82-63.39-32.93,1.61-62.36,30.83-58.32,64.2,2.52-35.17,28.09-61.74,61.88-61.33,34.46.42,58.07,27.27,60.26,60.51ZM303.64,350.05c.8-.57,1.12-4.41.11-4.25l-4.86.77c-.7.11-.69,1.45-1.06,3.8.4.4,1.93,2.15,1.94,2.28,0,.1,2.58-1.68,3.88-2.6ZM314.94,352.67c1.14-1.44,1.71-5.34.14-6.12-1.25-.63-6.83.25-5.78,1.17l5.64,4.95ZM203.69,352.98c-2.06.62-4.41,4.72-3.6,6.58.75,1.71,3.45,3.38,5.13,3.21,1.81-.18,4.34-4.25,4.25-5.93s-4.17-4.34-5.78-3.86ZM305.71,352.55c-2.02.67-3.75,6.05-2.6,7.84.92,1.43,5.15,2.25,6.75,1.68s1.96-5.02,1.67-6.9c-.26-1.68-4.21-3.15-5.82-2.62ZM254.28,371.05l1.6-1.92c.62-.74,2.36-2.7,1.55-2.68-.89.01-6.86-.67-7.51-.18-3.68,2.78-2.63,12.81,1.66,18.23,2.76-3.65,3.12-6.57,2.7-13.45ZM262.04,383.36c2.24-6.18,2.87-12.1,2.39-17.77-8.39,4.27-9.61,12.59-2.39,17.77ZM246.14,386.06l-6.19-17.43c-5.17,2.88-4.17,8.78-2.29,11.3,1.61,2.16,3.41,3.55,8.47,6.13ZM275.52,391.56c4.71-3.18,9.41-8.17,10.84-11.67-4.68-5.05-8.79-10.92-13.39-8.11-3.64,2.23-5.68,9.09-6.39,13.87,6.49-1.04,8.7-7.26,9.65-13.83,10.82,12.8-4.37,6.31-.71,19.73ZM233.33,376.72c2.62-3.79,2.72-7.05-2.72-2.4-5.29.12-2.59,1.13,2.72,2.4ZM225.77,382.86l11.91,9.37c.59-7.93-3.66-11.41-8.94-15.03l-10.08,6.73c1.79,1.13,3.91,2.16,4.64,1.42l2.46-2.5ZM217.3,430.41l13.66-9.55c-5.38-3.6-13.06-1.93-17.05,2.7l.93-6.31,14.03-5.3-15.52-3.19c-.47.61,1.64-1.32,1.26-1.92-.41-.65-1.5-2.38-1.42-2.26l17.12,2.13c-3.45-8.35-8.83-6.64-15.27-10.99,5.81-.3,10,.15,17.81.66-2.51-3.6-9.18-8.94-13.29-9.33-8.34,2.67-8.69,21.62-9.09,20.88l1.61,2.96c-6.28,12.57,6.87,31.14,17.91,37.99l3.97,2.46c.45.28.42-2.17.26-2.66-.22-.7-.57-1.38-1.35-1.3l-3.11.35c3.23-4.18,6.14-8.43,9.35-13.8-9.21-.05-10.2,5.44-13.39,10.45l-1.19-7.04,8.52-9.59-15.76,2.66ZM256.54,401.87l4.69-9.09c.83-1.6-3.55-3.93-6.09-4.43-1.53,4.15-.92,8.88,1.39,13.51ZM295.37,392.54c-.38,1.59-1.59,5.29-.64,4.99l4.72-1.48-6.23-8.33c-6.33,1.55-11.35,3.65-13.82,10.01,6.3-1.07,11.26-2.85,15.95-5.19ZM251.73,403.6c.03-4.77-1.7-10.08-4.05-11.89-1.16-.89-4.23,1.94-5.86,3.75l9.91,8.13ZM273.36,396.71c-4.53-3.45-6.69-5.23-7.31-4.3-1.5,2.24-3.66,7.71-4.75,11.74l12.06-7.43ZM247.73,407.7l-6.21-7.77c-1.11-1.39-5.88,1.88-7.16,3.67,4.21,2.5,7.12,3.34,13.37,4.1ZM299.92,401.26c-9.92-4.25-15.96-1.42-16.07,6.88,5.85-1.33,12.46-3.97,16.07-6.88ZM273.3,408.22c1.42.08,5.12-2.34,4.41-3.37-.88-1.28-2.31-4.06-3.46-3.57-.76.33-3.15,1.51-3.81,1.99l-3.94,2.89c-.55.4-.54,1.65.13,1.69l6.67.38ZM255.01,406.84c-1.91-.06-4.96,6.1-3.34,7.11,1.3.8,4.21,1.9,6.01,2.24s2.87-4.26,2.86-6.3c0-1.53-3.45-2.98-5.53-3.04ZM247.22,412.75c-5.31-1.67-8.61-2.2-11.57-1.97-1.52.12-1.17,2.16-1.46,6.4,4.29.03,8.91-1.4,13.03-4.44ZM301.66,413.96c-6.32-3.49-11.85-3.35-18.54-1.3,5.54,3.34,12.06,4.3,18.54,1.3ZM279.16,416.16c-2.51-6.16-9.84-5.01-14.09-2.52,4.14,3.83,12.01,7.28,14.09,2.52ZM242.42,429.89l6.9-12.53-13.36,5.5,6.46,7.03ZM273.55,423.56c-2.94-2.15-6.89-4.09-10.91-5.29l7.36,11.9c2.55-1.99,5.09-5.49,3.55-6.61ZM300.59,424.99c-6.18-4.52-12.14-5.33-18.03-3.53,4.79,4.17,11.2,9.16,18.03,3.53ZM250.83,434.76c2.22-2.2,3.64-9.48,3.26-13.13-6.38,1.99-10.06,10.13-3.26,13.13ZM263.83,432.95c.92-3.24-2.4-9.78-4.77-11.06-2.84,5.01-2.69,13.61,4.77,11.06ZM280.15,451.74l6.19-9.36c.8.49,2.87,1.74,2.79,1.82-.06.06.98-1.46,1.88-2.8l6.68-9.88c.44-.65-1.99-1.48-2.68-.96l-2.65,1.97-12.54-4.51c1.43,7.01,6.28,8.63,11.94,11.41l-7.27,1.53c-3.67-2.88-6.23-4.69-11.14-6.66l6.26,12.52-2.52,2.03c-.51.41,2.7,3.43,3.06,2.88ZM262.04,457.11l15.92-4.67c-2.9-6.94-6-11.46-10.28-16.4l.08,18.04-8.16-15.28c-2.15,7.45-1.28,12.75,2.44,18.31ZM237.4,453c6.55-3.03,9.92-10.69,6.11-15.26-4.74,2.74-7.63,9.98-6.11,15.26ZM249.38,456.12c4.57-5.25,4.9-11.31,3.02-16.06-4.73,4.48-6.52,10.49-3.02,16.06Z"/>
    <path d="M388.05,462.56l-.5-43.08c-.06-4.85-7.13-10.57-11.57-11.01-4-.39-11.42,5.24-11.49,10.14l-.61,43.75-16.13-.2c-.94-35.33-1.4-55.33,17.81-84.37-10.93,6.86-13.2,19.03-18.28,30.26l-.54-71.21c34.44-1.24,66.79-1.37,101.85-.24.67,23.09,1.08,44.55.45,67.22l-1.6,58.21-17.9.33-.35-42.95c-.04-4.92-6.64-10.65-10.95-10.95-4.88-.35-12.27,5.65-12.37,11.45l-.73,42.22-17.09.44ZM358.36,353.24c-.92-.34-4.15-2.09-4.67-1.28l-2.78,4.33c-.54.84,1.76,2.38,2.76,2.41.52.01,6.32-4.86,4.69-5.46ZM369.42,359.07l.74-5.28c.14-1.02-3.28-2.97-4.02-2.26s-2.77,2.55-2.95,2.69l6.23,4.85ZM427.76,356.71c1.52-1.48,3.43-2.82,2.56-3.22s-4-2.2-4.6-1.5l-2.57,2.98c-.49.57.49,3.6,1.18,3.29l3.43-1.55ZM441.62,359.4c.42-3.58.82-6.08-.47-6.81s-4.94.1-6.28.79l6.75,6.02ZM443.49,414.03l.73,6.12c.1.8,3.24-1.47,3.07-2.87-3.22-25.63-22.36-54.38-50.18-61.14-8.96,1.31-20.58,9.22-25.37,15.14,9.74-2.44,17.27-14.27,27.48-11.23,23.34,6.94,41.34,29.57,44.26,53.98ZM359.64,358.32c-2.18.09-4.55,7.35-2.6,8.37,1.56.82,4.57,1.23,6.76,1.26,1.76.02,2.21-5.09,1.73-6.78s-3.92-2.94-5.89-2.85ZM431.64,358.39c-1.91.46-4.46,4.94-3.75,6.77s4.69,3.51,6.62,3.21,3.56-5.13,2.88-6.97c-.55-1.47-4.23-3.38-5.75-3.01ZM391.87,370.07c-9.24,2.8-11.74,12.81-9.51,19.57,3.14,9.52,12.22,12.27,19.66,9.93,9.07-2.85,12.48-12.68,9.4-20.37s-11.17-11.68-19.55-9.14Z"/>
    <path d="M163.49,460.68c-3.17,2.08-11.06,2.25-15.74,1.32l-.4-42.57c-.05-5.27-6.77-10.87-11.14-11.12-4.11-.23-11.93,5.37-12.02,10.3l-.75,43.71-17.62-.04c-1.94-13.97,6.59-55.64-13.5-53.91-4.52.39-10.8,6.36-10.84,11.48l-.32,42.32c-5.95.23-11.61.18-17.6-.24l-.91-125.44,102.52-.55-.35,74.43c-8.27-26.08-24.68-46.31-51.28-54.64-11.64,5.51-23.32,11.24-31.35,20.84-10.08,12.05-19.59,27.59-15.86,42.67,2.41-23.32,19.05-56.02,47.46-57.44,25.32-1.27,43.44,30.1,47.25,50.78.8,4.37,2.33,7.26,3.06,9.33l-.6,38.77ZM74.09,357.13c1.57-.85-.55-7.01-1.73-5.74-1.11,1.2-2.41,2.88-4.3,5.55-1.07,1.51,3.32,1.65,6.03.19ZM87.37,359c.09-3.37-.98-7.95-2.5-7.38s-4.67,2.29-5.37,2.89l7.88,4.49ZM147.52,356.19c.92-.65,1.71-4.54.62-4.3l-5.81,1.28c-1.26.28-.26,4.45.42,5.5.51.79,2.52-.9,4.78-2.48ZM159.81,359.51c.78-2.83,1.2-7.1-.29-7.12s-4.31.3-7.13.69l7.43,6.43ZM75.64,358.88c-1.89.41-2.78,6.5-1.54,7.99s5.39,1.3,7.56.62c1.85-.58,1.36-5.86.09-7.33-1.01-1.18-4.45-1.64-6.12-1.28ZM149.7,358.61c-2.17.2-4.45,7.08-2.51,8.05,1.55.78,4.65,1.26,6.7,1.31,1.73.04,2.07-5.03,1.59-6.72s-3.76-2.82-5.77-2.64ZM114.59,397.55l-3.21-11.89-11.75,5.49c5.66,9.77,15.41,11.37,22.81,7.07,6.67-3.88,8.85-13.41,5.77-19.86-3.87-8.1-13.14-11.48-20.96-7.55-7.06,3.56-10.46,11.65-7.38,19.55l15.53-9.79c.6-.67.82,5.94,1.01,9.37l.27,4.88c.06,1.01-2.61,3.36-2.09,2.71Z"/>
    <path d="M421.26,561.86c2.65,3.55,5.44,5.9,8,8,11.29,17.45,16.67,33.75,16.38,54l-.9,62.35-19.64.2-1.06-51.74c-.12-5.9-18.42-6.79-18.92-1.44-1.65,17.56-1.02,34.33-1.45,52.68l-10.07-.12-.88-51.84c-.78-5.39-18.66-5.68-19.02-.42-1.26,18.42-.86,33.59-1.02,52.73l-20-.07c.82-29.77-.92-56.93,2.06-85.41,1.88-17.95,16.32-30.47,26.51-42.93,5.04-2.04,8.25-4.32,13.44-7.34,8.54-4.96,18.73,9.76,26.56,11.34Z"/>
    <path d="M429.26,569.86c-2.25-3.48-1.93-6.78-8-8-5.41-7.25-14.06-13.15-23.88-16.45l-16.12,12.45c-8.45,3.42-14.57,11.44-20.18,19.91-7.63,10.09-9.65,21.09-11.41,34.23l-.9-83.86,101.94-.03-.44,159.4c-7.11-27.65-.77-54.16-3.24-81.76-1.31-13.47-6.99-27.05-17.77-35.9Z"/>
    <path d="M118.16,684.64c-.06,2.85-9.44,2.33-9.49-.43l-.74-43.54c-.11-6.66-18.42-6.71-18.56-1.06l-1.16,46.97-20.34-.31-.99-52.44c-.6-31.93,13.47-61.76,44.91-74.64,24.71,7.17,44.72,30.27,44.89,56.91l.46,70.06-18.13.19-.81-47.12c-3.56-4.32-15.16-4.81-19.06-.6l-.98,46.02Z"/>
    <path d="M511.97,685.7c-11.53.88-21.51.87-32.67.33l.25-191.35c0-6.04,8.26-13.03-2.03-17.27l-.22-39.85,31.22-.51,1.63,63.76,1.82,184.89Z"/>
    <path d="M320.51,333.43h-129.91c.71-29.27.83-53.6.02-83.31l130.7-.38-.81,83.69ZM227.33,260.66c-1.19.24,1.6,3.91,2.73,3.48l3.17-1.2c.76-.29-.36-3.4-1.14-3.25l-4.76.97ZM241.51,261.55c-1.68.83-4.5,6-2.85,6.54l5.82,1.89c1.67.54,3.28-4.68,2.33-6.16-.76-1.18-4.05-2.89-5.31-2.27ZM267.15,261.37c-1.74-.16-5.08,6.1-3.44,6.68l5.83,2.06c1.64.58,3.04-4.11,2.61-5.8-.35-1.35-3.21-2.78-5.01-2.95ZM277.34,260.66c-1.13.23,1.6,3.93,2.72,3.5l3.19-1.23c.74-.29-.38-3.39-1.16-3.24l-4.76.96ZM291.77,261.47c-1.66.79-4.68,5.94-2.98,6.51l5.69,1.9c1.69.56,3.47-4.62,2.48-6.1-.8-1.18-3.9-2.93-5.19-2.32ZM215.39,262.12c-1.72.78-2.35,6.49-.55,7.07,1.44.46,4.87.6,6.13-.23s1.31-3.72.73-5.12-4.93-2.35-6.31-1.73ZM229.99,326.05c5.53-7.17-.49-12.98-.76-20.36l-1.08-29.36c-.06-1.54-4.06-6.1-4.7-4.86-.51.98-3.98,4.63-3.97,5.73l.12,44.32,8.97-9.09,1.43,13.63ZM243.56,327.14l.3-23.54-3.6-26.95c-.18-1.36-2.57-4.31-3.49-5.33-4.96-5.53-6.18,29.33-4.51,33.96l8.77-7.43c0,9.83-.97,18.65,2.52,29.3ZM280.99,321.17c-5.18-20.3,2.61-44.46-7.25-50.29-15.7,29.85,9.03,23.53,3.47,51.91,1.11,4.98,3.94,3.91,3.79-1.62ZM290.81,321.03l.12-43.93c0-1.53-3.35-6.68-4.36-5.7s-4.46,4.75-4.48,6.44l-.36,34.4,9.07,8.79ZM216.64,316.39c.71-12.53.75-29.28-.78-39.66-.25-1.68-4.78-6.42-5.52-5.11-.56.99-3.42,4.64-3.42,6.3l-.05,48.07c2.43.98,9.13,1.95,9.24-.13l.54-9.46ZM245.76,287.17c6.95-4.73,9.11-12.26,2.97-15.15-3.98,2.22-5.68,11.96-2.97,15.15ZM266.05,288.5c1.38-9.27-.83-16.09-5.61-16.4-5.37,6.59,1.32,13.8,5.61,16.4ZM303.97,324.69l-.26-47.37c0-1.59-4.11-6.81-4.98-5.75s-4.11,4.36-4.29,5.98c-1.15,9.93-1.9,42.79.61,49.02.74,1.83,8.94.53,8.93-1.87ZM254.28,326.04c1.4-14.22,1.4-27.27-.04-40.35-1.4,14.22-1.4,27.27.04,40.35ZM266.58,327.68c5.56-12.25,2.79-23.42-.76-34.05-.78,11.79-.95,21.98.76,34.05Z"/>
    <path d="M31.31,551.86l-.02,134.2-31.29-.02,1.74-187.04,1.46-61.77,29.95.11.1,40.46c-8.58,3.88-3.91,9.48-3.09,15.58,2.57,19.13,1.17,38.62,1.17,58.47Z"/>
    <polygon points="474.64 465.49 474.19 479.9 37.22 479.86 35.42 465.54 307.03 465.66 474.64 465.49"/>
    <path d="M498.5,248.66c-6.44,1.13-16.61,2.19-23.33-.75-11.32-4.95-23.49-.96-35.86-.6-28.26.82-55.87,1.08-84.08-.19-14.38-.64-27.79-2.92-41.95.77l-114.07-.08c-14.26-4.13-27.79-.95-41.93-.49-28.93.94-57.1.78-86.1.02-11.72-.31-23.49-4.13-34.22-.22-7.3,2.66-15.41,2.68-23.59,2.46l.34-19.23c5.78,8.19,12.64,7.44,21.08,4.74,12.18-3.9,25.69.7,38.34.77l84.12.45c13.94-3.71,28.1-3.39,41.99-.02l113.97-.05c13.92-3.76,28.13-3.38,42.12-.08l85.91.04c30.89-9.92,43.94,10.07,57.21-5.76l.06,18.22Z"/>
    <path d="M119.39,556.98c-4.4-.81-11.31-.18-16.69,1.45l9.13-10.14,9.56,4.69c-3.56-5.33-4.6-6.41-8.79-10.22l-39.23,42.88c-17.59,19.23-1.42,76.43-10.83,101.99-1.71-34.15-1.57-66.23-1.66-99.6l-.17-59.97,102.33.05v79.86c0,26.82,1.17,52.27-1.1,79.65-10.03-27.25,9.62-80.86-11.94-104.41l-29.82-32.55-.8,6.32Z"/>
    <path d="M349.28,333.3c-.85-1.18-1.84-5.13-.64-5.29l7.86-1.05c.52.6,3.11-63.57-4.3-54.76l-4.96,5.89-.02-28.18,101.07.08c1.42,27.89,1.51,53.53-.33,83.34l-98.69-.02ZM357.44,261.44c-1.73.32-4.68,5.97-3.06,6.56l5.76,2.07c1.62.58,3.01-4.43,2.15-5.93-.69-1.2-3.49-2.95-4.85-2.7ZM381.78,261.49c-1.79.67-2.99,7.16-1.26,7.47,1.39.25,4.15.35,6.13.25,1.76-.09,1.21-4.22.6-5.96-.47-1.32-3.95-2.34-5.47-1.76ZM433.49,261.5c-1.72.64-4.64,5.11-3.55,6.29s3.9,3.24,5.41,2.72,3.47-3.64,3.67-5.23-4.03-4.34-5.53-3.78ZM407.62,261.7c-1.71,1-4.33,5.22-2.74,6.27,1.35.89,4.59,2.72,5.87,1.93s2.71-3.52,2.49-5.01-4.33-3.95-5.63-3.19ZM381.92,281.38c.11-3.24-2.27-7.66-4.76-10.22-2.57,3.51-4.48,8.18-4.37,12.38.37,13.91.34,24.63-.17,38.87-.1,2.85,2.89,5.54,5.69,5.52,5.37-.04,3.05-29.91,3.61-46.55ZM394.69,327.07c.73-16.32.77-36.91-.67-49.98-.23-2.13-4.22-7.01-4.74-5.69-.42,1.05-3.89,4.83-3.9,6.3l-.33,48.91,9.64.47ZM369.42,325.32l-.31-47.67c-.01-1.87-3.75-7.03-4.61-6.01-.65.76-3.8,3.55-3.92,4.57-1.65,13.53-1.7,34.01-.41,49.1.23,2.66,9.27,2.83,9.26.02ZM407.39,325.25l-.27-47.9c-.03-5.75-14.71-19.91-8.96,48.08.19,2.26,9.25,2.16,9.24-.17ZM419.84,283.52c.14-4.1-1.57-8.12-4.48-12.56-2.66,3.54-4.73,7.47-4.65,10.42.43,14.94.45,25.91-.13,41.13-.1,2.54,2.98,5.24,5.81,5.42,5.29.33,2.91-28.34,3.44-44.41ZM432.55,325.15c.96-14.41,1.07-35.45-.61-49.05-.17-1.42-4.65-5.57-4.96-4.27-.23.97-3.6,4.64-3.6,5.86l-.2,49.16c2.79.71,8.09.15,9.37-1.7ZM445.24,324.76l-.42-47.41c-.01-1.56-2.99-6.46-4.07-5.69-9.76,6.92-4.2,41.25-4.88,54.62,1.74,1.27,9.38.94,9.36-1.52Z"/>
    <path d="M165.22,333.91l-102.05-.24-.42-83.55,102.49-.38-.03,84.17ZM75.44,261.5c-1.78.46-4.66,6.03-2.99,6.59l5.75,1.92c1.66.56,3.46-4.38,2.5-5.85-.77-1.17-3.91-3.01-5.26-2.66ZM101.32,261.35c-1.61-.06-5.22,5.69-3.84,6.52s3.78,2.15,5.35,2.89c1.45.69,3.36-3.71,3.44-5.32s-3.14-4.02-4.95-4.09ZM125.99,260.48c-1.88,3.22-4.06,7.3-2.56,7.77l5.94,1.87c1.5.47,2.93-5.4,1.63-6.28l-5-3.37ZM149.65,262.57c-1.47,2.2-2.07,6.45-.56,6.68,2.28.35,4.93.54,6.35-.02s1.58-4.14.96-5.54-5.87-2.45-6.75-1.13ZM75.23,326.63l-.27-48.88c-.01-1.96-3.81-7.25-4.91-6.44-8.67,6.38-3.3,43.53-4.59,55.41l9.77-.09ZM125.38,325.39l-.24-47.8c0-1.55-4.12-7.18-3.97-5.85.12,1.05-4.44,3.86-4.61,5.18-1.63,13.11-1.63,34.56-.38,49.09,2.53,1.24,9.09,1.35,9.2-.62ZM87.68,324.44l-.33-45.39c-.08-11.37-15.6-16.81-8.96,46.31.3,2.83,9.3,1.94,9.28-.91ZM100.29,325.13c1.32-14.5,1.44-35.36-.5-48.77-.2-1.38-4.52-5.74-4.87-4.49-.26.94-3.55,4.52-3.55,5.82l-.21,48.79c2.61.94,8.74.54,9.14-1.35ZM112.94,325.95c-1.1-17.36,4.44-44.01-4.75-54.35-.87-.98-4.57,4.18-4.57,5.77l-.3,49.34,9.63-.76ZM137.51,318.83l.41-35.29c.04-3.59-1.91-9.21-4.61-11.87-3.22,2.55-4.92,7.89-4.73,11.95.49,10.59-.49,43.47,1.6,43.31l7.15-.57c1.29-.1.14-5,.17-7.53ZM150.67,325.34c.66-14.8.74-33.9-.22-48.26-.12-1.81-4.79-6.7-5.51-5.18-.58,1.23-3.59,5.53-3.6,7.3l-.12,46.45c1.57,1.79,8.05,1.68,9.44-.32ZM163.22,326.27l-.26-48.95c0-1.53-3.35-6.5-4.33-5.61-9.57,8.65-4.07,40-4.65,54.73l9.24-.17Z"/>
    <path d="M477.16,685.57c-8.5.98-15.26.97-23.87.27l.02-157.18,23.74.15.1,156.76ZM471.32,627.96l-.16-24.06c-.02-3.03-4.66-6.69-6.99-6.4-1.94.24-5.56,4.27-5.57,6.38l-.16,23.3,12.88.79Z"/>
    <path d="M320.32,525.69l-129.72-.09c-1.41-14.53-1.12-28.21-.03-42.19l129.71-.05c1.08,13.55,1.14,27.05.03,42.33ZM200.81,519.86v-23.83c0-1.8-2.94-5.77-4.56-5.44s-4.29,3.84-4.25,6.12l.42,22.54,8.38.62ZM215.62,519.56l-.07-23.59c0-1.64-2.25-4.61-3.22-5.6s-5.89,2.44-5.91,3.73l-.39,25.78,9.59-.33ZM230.69,519.93l-.16-25.22c-.01-1.83-4.97-5.36-6.14-4.16-.95.97-3.1,4.16-3.1,5.66l.06,23.37,9.34.35ZM245.42,519.71l-.19-23.92c-.01-1.76-3-5.95-4.6-5.44-1.28.41-4.58,3.22-4.6,4.62l-.25,24.61,9.64.13ZM260.13,517.7l.04-21.7c0-2.07-4-6.41-5.6-5.54-1.27.69-3.83,3.88-3.81,5.49l.27,22.28c.03,2.44,9.09,2.25,9.1-.52ZM275.03,518.35l-.03-23.67c0-1.77-5.05-5.65-6.11-4.28-.84,1.1-3.43,4.61-3.39,6.04l.59,22.75c.31,1.55,8.94.97,8.94-.84ZM289.89,518.04v-22.17c0-1.91-3.85-6.27-5.43-5.4-1.26.7-3.81,4.09-3.79,5.65l.33,22.02c.04,2.6,8.89,2.15,8.89-.11ZM304.51,518.31l.36-22.32c.03-1.78-2.93-5.65-4.65-5.6s-4.92,3.92-4.89,5.85l.34,23.07c1.06,1.12,8.7.82,8.83-1ZM318.84,519.51l.31-23.46c.03-2.13-3.32-6.18-4.86-5.37-1.22.64-3.84,4.03-3.83,5.38l.15,21.73c.01,2,6.66,2.51,8.23,1.72Z"/>
    <path d="M344.89,685.58c-6.8,1.14-13.84,1.12-21.59.25l.05-157.17,22.01-.12-.46,157.04ZM341.58,627.73l-.7-25.16c-.06-2.1-4.79-5.17-6.77-5.02s-5.5,4.02-5.51,6.24l-.17,23.5,13.15.44Z"/>
    <path d="M187.54,685.58c-7.41.93-13.79.9-21.97.35l-.1-88.06.2-69.17,21.85-.07.03,156.95ZM183.36,628.01l-.11-24.73c-.01-2.43-4.7-5.95-6.98-5.59-1.9.3-5.69,4.16-5.68,6.2l.14,22.89c2.75.51,8.04.94,12.63,1.23Z"/>
    <path d="M57.32,685.85l-22.39.83.1-15.05.03-127.59-.13-15.81,22.56.47-.09,79.04-.09,78.11ZM52.84,628.11l.08-24.48c0-2.4-4.42-6.26-6.69-6.09-1.89.14-5.79,3.69-5.81,5.83l-.16,23.68,12.58,1.07Z"/>
    <path d="M163.68,525.16l-102.66.27-.05-41.89,101.88-.14.84,41.76ZM72.13,515.38l-.16-19.4c-.02-2.04-3.8-6.38-5.39-5.51-1.27.7-3.33,3.8-3.34,5.42v21.58c-.01,1.39,3.75,3.18,5.13,3.24s3.77-3.59,3.76-5.33ZM86.75,518.11l-.15-23.5c-.01-1.82-4.64-5.55-5.73-4.21-.87,1.06-3.64,4.64-3.61,6.07l.53,22.65c.87,1.73,8.96,1.08,8.95-1ZM101.87,517.73l.02-21.72c0-2.07-3.81-6.53-5.37-5.56-1.25.78-3.89,4.14-3.87,5.78l.36,22.17c.04,2.35,8.84,1.92,8.85-.68ZM116.94,517.88l-.31-23.29c-.02-1.86-4.51-5.27-5.7-4.04-.95.97-3.71,4.51-3.68,5.82l.53,22.79c1.3,1.68,9.18.86,9.16-1.28ZM132.13,513.39l-.17-17.5c-.02-1.95-3.87-6.37-5.42-5.4-1.23.78-3.9,4.12-3.88,5.62l.25,21.66c.02,1.83,6.15,3.73,7.32,2.33.87-1.05,1.92-4.62,1.9-6.71ZM147.51,519.55l-.69-24.59c-.04-1.51-3.28-4.33-4.57-4.66s-4.36,3.04-4.36,4.45v25.03s9.62-.22,9.62-.22ZM161.32,519.76l-.13-25.33c0-1.49-3.71-4.84-4.74-3.96-.79.67-3.41,3.3-3.43,4.32l-.47,24.15,8.77.82Z"/>
    <path d="M450.1,525.51h-101.61c-1.61-14.32-1.17-28.22.16-42.22l101.3.05c1.43,13.68,1.51,26.95.16,42.16ZM358.74,519.81c.31-2.95,1.51-36.08-5.72-29.17-.71.68-3.39,3.33-3.39,4.31l.06,24.59,9.04.28ZM373.06,518.34l.45-22.69c.03-1.71-3.23-5.85-4.84-5.31-1.29.44-4.56,3.2-4.57,4.71l-.2,24.4c1.94.66,8.4.61,9.15-1.11ZM388.64,519.9l-.24-25.13c-.02-1.76-4.88-5.37-6.04-4.21-.94.94-3.19,4.11-3.18,5.63l.15,23.18,9.3.52ZM403.48,519.57l-.29-23.47c-.02-1.97-3.19-5.86-4.87-5.7s-4.68,3.87-4.66,5.85l.21,23.62,9.62-.29ZM418.24,513.33l-.13-17.6c-.01-1.8-3.93-6.08-5.52-5.26-1.28.66-3.52,3.76-3.51,5.37l.13,21.68c.01,1.83,5.92,4.04,7.1,2.63.89-1.06,1.95-4.66,1.94-6.83ZM433.35,519.84l-.19-23.95c-.02-1.91-3.02-5.89-4.67-5.58-1.32.25-4.36,3.1-4.37,4.59l-.17,24.62,9.4.32ZM447.79,515.91v-20.03c-.01-1.86-3.65-6.17-5.14-5.28-1.19.71-3.41,3.87-3.42,5.32l-.09,21.55c0,1.35,3.89,3.41,5.23,3.2s3.42-3.23,3.42-4.76Z"/>
    <path d="M323.18,48.04c-1.35-3.39.32-12.17,3.9-14.27l108.01-.11c-.06-20.15,4.94-14.45,9.16-33.5l9.24,21.85c1.05,2.49.94,9.38,1.84,10.53,3.58,1.1,9.05,2.33,9.76,4.55.83,2.59,1.15,8.74.67,10.96h-142.59Z"/>
    <path d="M187.33,47.99l-142.23-.02c.03-2.64.41-7.88.86-10.47s7.92-3.92,10.18-5c.59-3.2,1.23-10.44,2.52-13.73L66.06,0l6.91,17.97c1.62,4.22,2.32,10.09,2.78,15.62l108.04.17c3.8,0,5.51,12.15,3.54,14.24Z"/>
    <path d="M496.4,381.37c1.88,7.46-.59,44.92,5.53,34.43l3.41-5.84,4.13,24.3-31.01.11c-1.33-5.58-2.61-12.32-2.65-18.33l-.49-79.35,19.43-.4c-4.16,23.01-3.36,25.19,1.65,45.07Z"/>
    <path d="M468.02,67.26c-7.67-.64-13.81-1.42-20.79-1.42l-107.91.09c-6.77,0-13.2.87-19.27,1.21-.56-5.32-1.04-10.76.15-13.19s7.71-2.31,11.19-2.31l121.72.1c4.16,0,12.22-1.83,14.88,1.5,2.23,2.8.99,11.5.03,14.02Z"/>
    <path d="M191.03,67.09c-5.53-.3-11.67-1.14-17.79-1.14l-101.93-.12c-9.72-.01-17.97.66-27.99,1.29-1.08-2.81-2.54-11.19-.65-13.91,2.33-3.35,10.73-1.47,14.75-1.48l121.66-.17c3.19,0,8.51-.36,10.41.97,2.28,1.59,1.89,6.92,1.54,14.57Z"/>
    <path d="M2.59,434.34l4.1-24.29,6.8,6.98c2.28-12.88-.83-24.33,1.9-35.55,3.86-15.87,7.26-24.23.89-45.18l19.55.17-.64,79.57c-.05,6.04-1.68,13.14-3.39,18.4l-29.2-.1Z"/>
    <path d="M472.87,248.05c-.74,31.99-3.05,46.74-.71,80.96l-20.89.67.11-80.97,21.49-.66Z"/>
    <polygon points="187.63 328.51 167.27 330.01 167.26 247.68 187.65 249.08 187.63 328.51"/>
    <path d="M59.45,328.49c-4.96.67-13.01.92-20.21.85l-.04-80.3c6.27-.78,14.4-.72,20.24.14l.02,79.3Z"/>
    <polygon points="343.38 329.25 323.45 329.34 323.17 247.75 343.81 248.71 343.38 329.25"/>
    <path d="M492.46,281.32l.94,51.85-17.98-.12-.25-81.3,20.21.79c-1.17,9.05-.61,14.68,2.17,20.3-.62.27-5.15,5.75-5.1,8.47Z"/>
    <polygon points="267.48 233.07 243.88 233.28 253 137.92 256.28 97.67 257.94 126.14 267.48 233.07"/>
    <path d="M18.58,333.65l1.09-50.52c.06-2.66-3.06-8.15-4.97-10.37,1.93-5.78,2.79-11.55.91-20.31l20.31.24c-.8,28.57-.68,51.63.12,79.76l-17.45,1.2Z"/>
    <polygon points="471.65 374.08 451.19 373.94 451.48 332.99 471.81 332.97 471.65 374.08"/>
    <path d="M461.41,411.57c5.02,5.21,8.22,10.45,10.45,17.37l-16.73.2,6.47-15.88-9.82,12.39-.75-47.91,22.11.31-.71,43.63-8.58-17.78-2.44,7.67Z"/>
    <polygon points="59.7 374.17 39.14 374.19 39.12 332.91 59.69 332.85 59.7 374.17"/>
    <polygon points="343.71 374.18 323.05 373.91 323.78 332.71 343.44 332.86 343.71 374.18"/>
    <polygon points="187.62 374.37 167.15 373.89 167.48 332.13 187.71 332.95 187.62 374.37"/>
    <path d="M58.98,423.72c-4.67-5.25-7.88-11.93-10.57-19.58l-9.56,16.58c-2.09-15.69-1.78-26.58-.5-42.66,7.54-.5,14.79-.39,21.56.35l-.94,45.31Z"/>
    <polygon points="60.76 462.76 35.03 461.72 35.87 431.96 60.64 432.43 60.76 462.76"/>
    <polygon points="343.06 422.25 333.87 406.43 324.31 423.43 323.01 377.8 343.78 377.7 343.06 422.25"/>
    <path d="M187.05,421.88c-4.59-6.87-6.78-12.16-8.7-17.74l-10.49,19.97-.8-46.28,20.72-.14-.73,44.19Z"/>
    <polygon points="475.41 461.84 450.93 462.47 450.77 432.04 475.1 432.04 475.41 461.84"/>
    <path d="M475.63,496.78l.05,28.08-22.28.42-.06-41.99,26.98.04c-1.2,4.57-4.7,10.36-4.69,13.46ZM469.66,517.54l-.66-22.62c-.06-1.92-5.21-5.92-6.51-4.69-6.1,5.74-4.31,20.43-2.89,28.92.37,2.23,10.13.77,10.06-1.61Z"/>
    <polygon points="188.92 462.34 166.92 462.32 166.87 431.96 188.64 432.43 188.92 462.34"/>
    <polygon points="344.79 462.36 323.42 462.31 323.57 431.89 344.83 432.47 344.79 462.36"/>
    <path d="M345.17,525.17l-21.4-.11.08-42.05,21.16.35.17,41.8ZM339.86,517.78l-.52-23.14c-.04-1.78-5.6-5.65-6.84-4.38-6.03,6.17-3.63,19.4-2.91,28.7.31,2.3,10.29,1.3,10.26-1.18Z"/>
    <path d="M57.73,524.96l-22.25.16-.84-30.1c-.07-2.65-3.54-8.41-4.03-11.67l26.75-.07.38,41.68ZM52.84,519.85c-.15-8.61-.43-19.02-1.03-25.71-.16-1.81-5.7-5.1-6.79-3.74-.88,1.09-3.49,4.49-3.5,5.91l-.11,23.47,11.44.07Z"/>
    <path d="M187.18,524.99l-20.44-.08.1-40.9,20.26-.73.08,41.7ZM183.17,519.84l-.72-24.78c-.06-1.97-4.49-6.06-5.88-5.09-1.11.77-4.47,3.74-4.49,5.15l-.3,24.52,11.4.2Z"/>
    <polygon points="56.69 428.42 38.12 429.06 47.34 412.29 56.69 428.42"/>
    <polygon points="185.86 428.68 169.52 428.88 177.35 412.6 185.86 428.68"/>
    <path d="M342.31,428.25l-16.2,1c2.35-6.13,3.94-9.43,7.55-15.77l8.65,14.76Z"/>
    <path d="M396.08,381.34c.68-.71,4.08.18,3.96,1.12l-.63,4.68c-.17,1.29-5.22.33-5.12-.97s.89-3.89,1.79-4.83Z"/>
  </g>
</svg>