<?xml version="1.0" encoding="UTF-8"?>
<svg id="Layer_2" data-name="Layer 2" xmlns="http://www.w3.org/2000/svg" viewBox="0 0 802.53 515.22"><style>path,polygon,circle,rect,ellipse,line,polyline { fill: #D4AF37 !important; stroke: #D4AF37 !important; }</style>
  <g id="Layer_1-2" data-name="Layer 1">
    <path d="M802.53,515.21H0s27.24-50.12,27.24-50.12c5.93-10.92,13.57-17.05,23.27-25.36,15.05-12.89,19.71-59.78,25.41-66.34l34.89-40.23c11.95-13.78,8.87-37.48,14.74-56.09l25.71-17.6.07-80.56c0-2.23,6.01-3.57,6.73-2.32l4.52,7.93c6.16-9.21,5.96-17.79,5.17-29.42l24.03-11.03c2.04-5.44,5.1-11.24,9.76-14.39,15.54-10.51,2.57-27.14,11.44-27.42,3.05-.1,7.61,2.25,7.88,4.78l1.07,10.38,40.07-13.68,1.28-16.01,12.7-.21,1.59,13.36,28.55-9.42,1.18-20.73c1.57-1.06,8.11-.64,10.82.2.37,10.7-.29,19.35,1.66,30.84,5.7-4.78-1.03-27.86,5.92-32.03,1.64-.99,6.17,1.63,6.24,3.64l.57,16.95c8.73.21,4.56-6.41,6.79-11.09,2.11-3.81,13.28-2.04,17.45-.81l1.29,13.54c11.35-1.08,17.27.95,24.01,9.96l.47-16.27c10.96-6.51,3.29-29.29,8.77-26.09l6.29,3.68c11.04-10.34-.35-45.54,6.61-63.23,6.19,16.98-3.62,51.97,6.36,63.75l4.68-4.4c1.16-1.09,4.68,2.77,4.71,4.75l.48,34.22,10.44-3.81c2.05-.75,6.33,3.37,8.69,4.57,1.8.92,5.91-3.57,7.75-2.71l8.14,3.78c4.48-.94,9.59-1.63,15.21-1.26l6.99-5.5c6.53,3.12,12.92-1.26,17.69-7.17,4.84,4.47,9.19,9.83,9.43,14.43.43,8.24-2,12.69-6.14,18.89l-.45,14.62-24.08,1.61c-6.09.41-11.84.26-16.32,3.96,40.29-2.41,118.06-9.14,152.24,10.37.57,21.14-.75,40.56,1.24,61.04,1.03,10.63,9.11,19.23,11.29,30.82l-46.4,2.58-36.01,1.88c-9.84.51-19.01,1.29-29.44,3.84l27.54-.32,20.06-1.35,31.03-1.72,43.22-2.67.9-27.01,23.62.53c1.01.02,2.49,4.7,3.4,5.14s3.12.1,3.83-.63l4.78-4.95c1.42-1.47,8.32-.29,8.06,1.72l-1.15,8.86c-1.97,15.13-.44,30.49.05,46.07l1.02,32.83,33.81,19.2,38.9,124.05,28.73,21.76c8.4,13.24,16.43,25.16,24.08,43.43ZM292.52,219.13c3.09-35.64,1.11-69.37,1.58-105.3l-4.53,3.8c2.6,34.33-2.69,66.28,2.95,101.5ZM374.57,131.77c.24-1.44-.2-5.16-1.39-5.16h-5.36c-1.19,0-1.41,3.8-1.2,5.3l.83,5.93c.19,1.34,5.86,1.38,6.08.05l1.04-6.13ZM509.56,155.96c2.17.18,4.43-5.2,4.31-7.07-.11-1.77-3.54-4.99-5.24-4.5-5.49,1.57-4.66,11.12.93,11.58ZM474.65,155.8c1.93.86,5.62-5.99,4.15-6.79l-4.65-2.54c-1.32,1.95-1.54,8.42.49,9.33ZM545.6,155.31c2.85.84,6.03-2.55,5.74-4.48-.27-1.8-3.37-5.71-5.04-5.3-2.61.64-3.03,9.09-.7,9.78ZM583.56,161.04l-.15-14.41c-5.25,4.33-5.45,10.2.15,14.41ZM374.06,162.31c-.07-2.14-.7-4.58-1.2-5.7s-5.66-.57-5.9.64c-.74,3.59-.73,11.42.61,14.83.51,1.28,6.82-.05,6.77-1.43l-.27-8.33Z"/>
  </g>
</svg>