<?xml version="1.0" encoding="UTF-8"?>
<svg id="Layer_2" data-name="Layer 2" xmlns="http://www.w3.org/2000/svg" xmlns:xlink="http://www.w3.org/1999/xlink" viewBox="0 0 298.76 611.52"><style>path,polygon,circle,rect,ellipse,line,polyline { fill: #D4AF37 !important; stroke: #D4AF37 !important; }</style>
  <defs>
    <style>
      .cls-1 {
        fill: url(#linear-gradient);
      }
    </style>
    <linearGradient id="linear-gradient" x1="149.46" y1="-15.38" x2="149.38" y2="634.95" gradientUnits="userSpaceOnUse">
      <stop offset="0" stop-color="#BF9106"/>
      <stop offset="1" stop-color="#947105"/>
    </linearGradient>
  </defs>
  <g id="Layer_1-2" data-name="Layer 1">
    <path class="cls-1" d="M144.12,530.07c-45.82,2.1-77.53,37.77-82.1,81.45l-62.02-.45c24.49-36.47,46.47-70.48,65.79-108.87,9.42-18.72-8.59-38.66,15.42-35.72,9.97-28.83,19.42-58.83,27.77-88.76l-5.52-16.54c3.75-3.71,8.82-8.37,9.82-13.97,7.64-42.83,12.96-84.19,15.86-127.8l6.85-103.11c.65-9.84,2.25-22.99-.32-31.97-4.18-14.6-9.21-25.34,8.34-43.51L148.75,0c6.18,14.03-1.03,29.9,7.07,41.57,19.11,27.53,7.88,33.98,6.73,42.24-3.21,23.01.71,46.23,1.91,69.69,3.27,64.04,8.84,126.44,19.14,189.59,1.28,7.85,4.83,12.83,10.69,17.24-.84,5.75-6.07,15.99-4.17,22.34,8.66,28.84,17.69,55.77,27.62,83.43l12.93,1.62c1.44,9.84-2.96,22.28,1.42,31.04,19.71,39.4,42.75,74.51,66.68,112.39l-63.54.33c-3.15-48.83-41.36-83.7-91.11-81.42ZM140.54,159.09c-2.89,6.8-1.18,7.04,6.42,14.75,3.5.1-5.8-16.22-6.42-14.75ZM155.49,161.43c-.41.62-.8,2.82-.77,3.57s2.32,1.35,2.57.65l1.11-3.09c.25-.7-2.5-1.74-2.91-1.12ZM140.2,174.97c-.86.63-2,3.23-1.33,4.07.49.61,1.89,1.41,2.3.74l2-3.26c.42-.68-2.33-2.02-2.97-1.55ZM163.1,189.43l-3.74-11.61c-.22-.69-2.39-2.59-2.97-3.08s-1.76,1.89-2.06,2.58l8.77,12.11ZM147.7,189.28c-1.01-5.52-1.53-8.51-2.32-8.14-1.31.63-2.82,5.62-1.54,6.25l3.86,1.88ZM159.28,190.97l-7.15-8.63c-.21,3.98-.4,5.78.59,6.2l2.89,1.23c-.47,2.62-1.32,5.96-.15,6.18s4.46.47,4.3-.71c-.12-.92-.42-3.23-.49-4.27ZM141.2,196.95c1.28-.4,2.48-4.68,1.6-5.7l-2.83-3.3-2.42,6.51c-.36.96,2.66,2.79,3.64,2.48ZM141.6,207.25l-7.14-8.48,3.37,14.31c.57,1.12,4.35,1.27,4.55-.02.24-1.53.09-4.78-.79-5.82ZM147.06,205.63l-.05-8.35-3.95,3.56c-.77.69,1.62,2.72,4,4.79ZM151.84,205.55c1.8-1.64,4.47-4.11,3.62-4.83l-3.84-3.24.22,8.07ZM164.14,205.05l-1.36-6.61c-.24-1.15-3.47,3.56-2.5,4.17l3.86,2.43ZM155.82,206.07c-.84,2.33-1.45,4.96-.56,6.32.71,1.09,3.79,2.71,4.2,1.47l1.68-5.01c.41-1.23-4.87-4-5.32-2.78ZM131,224.16c7.12-2.46,7.97-7.5,3.06-10.7l-3.06,10.7ZM146.74,222.89l-.96-7.73-3.88,2.83c-.98.71,3.56,4.14,4.84,4.9ZM151.74,223.75c2.33-2.33,4.82-5.74,3.7-6.81l-4.08-3.86.38,10.67ZM164.97,224.1l.12-11.07c-2.03,1.99-4.21,4.02-4.07,5.52s2,3.45,3.95,5.55ZM139.96,233.71c2.5-1.98,4.72-5.96,3.77-7.5-1.03-1.68-4.83-4.6-5.84-3.24-1.9,2.56-3.75,6.28-3.61,8.12.12,1.52,4.46,3.58,5.67,2.62ZM159.97,233.99c1.83.58,4.49-4.61,3.65-6.33s-4.48-5.37-6.07-4.36-4.52,5.06-3.45,6.31,4.3,3.89,5.87,4.39ZM132.21,242.35c2.7-1.97,5.35-3.74,5.01-3.79s-2.73-2.13-3.55-2.87c-.92-.83-2.89,1.77-2.55,2.93.36,1.25,1.33,4.61,1.09,3.73ZM144.75,242.35l1.27-7.29-4.44,2.29c-.97.5,2.42,5.48,3.17,5.01ZM152.72,243.38c.94-.81,3.39-3.47,4.33-4.75.75-1.03-2.34-2.89-4.79-4.55l.46,9.3ZM166.27,242.47l-.22-8.29-4.64,4.35c-.88.82,3.53,3.22,4.86,3.94ZM137.81,243.4c-2.22,1.16-5.76,4.49-4.7,5.95s3.38,4.66,4.83,4.22c1.74-.52,4.53-4.29,4.38-6.09-.13-1.51-3.14-4.79-4.51-4.08ZM153.93,260.49c5.72-9.73,16.01-9.26,8.64-16.3-1.15-1.1-5.1-1.23-5.23.36l-.59,7.48c-1.11.68-4.08,1.21-3.8,2.86.3,1.75,1.25,7.22.97,5.59ZM129.59,264.11l4.22-6.1c.88-1.28-1.92-4.04-3.91-6.54l-.31,12.64ZM144,261.9l1.2-10.42c-3.62,2.98-7.34,6.9-1.2,10.42ZM168.54,263.3l-.69-10.19c-1.54,1.1-4.69,2.96-3.8,4.16l4.48,6.03ZM137.02,272.77c2.05-1.62,4.78-6.06,3.91-7.59-.69-1.22-3.48-4.34-4.53-3.39-1.79,1.62-4.72,5.06-5.61,6.68s4.83,5.41,6.23,4.31ZM166.92,268.27c-.38-2.45-4.95-7.82-6.54-6.31-2.04,1.93-4.66,4.58-3.61,5.78l4.59,5.3c1.04,1.2,5.82-3.2,5.57-4.77ZM128.68,280.58c1.53-1.26,5.04-4.37,4.04-5l-3.47-2.19c-1.77-1.12-3.15,9.3-.58,7.19ZM142.16,281.12l.28-9.08c-3.2,3.31-5.6,5.23-4.63,5.94l4.35,3.14ZM170.63,281.08l-.83-8.86c-2.02,1.6-5.11,4.85-3.86,5.7,1.68,1.13,4.86,3.28,4.69,3.16ZM156.35,281.47c1.66-1.86,3.67-5.38,2.32-5.94l-5.02-2.08,2.7,8.02ZM133.01,294.14c1.77.47,5.32-3.05,5.93-4.75s-1.01-5.65-2.96-7.79c-1.57-1.73-5.88,3.08-7.22,4.95-1.17,1.64,1.77,6.93,4.25,7.58ZM164.46,293.53c1.91.34,4.8-3.6,4.65-5.53s-3.56-5.76-5.53-6.79c-1.87-.98-5.23,3.77-5.22,5.9s3.98,6.05,6.1,6.43ZM172.25,302.58l-.23-9.48c-1.27.56-5.38,2.76-4.36,3.97l4.59,5.5ZM123.69,304.25c6.01-2.96,7.95-7.8,2.93-11.98l-2.93,11.98ZM139.82,302.38l.6-8.46-5.23,4.51c-.94.81,3.3,3.34,4.63,3.94ZM158.26,302.22c5.38-3.69,3.05-8.01-.96-8.24l.96,8.24ZM145.72,303.28c1.64.53,6.39-.71,6-2.34-.49-2.03-2.55-6.75-2.96-5.51l-3.03,7.85ZM130.77,314.52c2.65.13,6.75-5.16,5.89-7.28-.74-1.82-4.15-6.06-5.11-4.99l-5.69,6.61c-1.06,1.23,3.22,5.59,4.91,5.67ZM171.54,308.82l-6.83-7.68c-2.35,3.32-5.42,7.07-4.08,8.37l5.78,5.59c1.34,1.29,6.41-4.85,5.14-6.28ZM146.15,308.86c.54,1.54,1.53,4.95,2.34,4.53s3.25-1.68,3.14-2.64l-.28-2.5c-.1-.9-5.49-.23-5.2.6ZM121.6,325.71l5.72-7.32c.82-1.05-2.07-3.17-4.22-4.71l-1.5,12.02ZM138.2,322.44l.26-7.98-4.75,4.23c-1.04.92,4.51,4.99,4.5,3.75ZM143.83,321.55c1.81-1.64,4.49-4.11,3.64-4.82l-3.82-3.19.17,8.01ZM155.06,321.64l-.04-8.37-3.95,3.57c-.78.7,1.62,2.72,3.99,4.79ZM159.68,315.65l-.1,7.28c-.01.94,2.97-.86,3.8-1.67.91-.9,1.33-3.33.39-4.21-.71-.66-4.08-2.36-4.09-1.39ZM175.92,323.45l-1.44-9.59c-2.54,1.89-5.88,4.92-4.58,5.75l6.03,3.84ZM130,335.19c1.53-1.1,5.23-5.92,5-7.88s-4.08-5.21-5.77-4.04c-2.22,1.54-5.72,5.92-5.41,8.07.27,1.85,4.38,5.15,6.18,3.85ZM169.28,336.6c1.35-.96,4.26-4.41,4.7-6.45s-3.9-6.34-5.89-6.95-6.26,3.96-5.25,5.72,3.76,4.85,6.43,7.69ZM146.83,326.7c-.83,1.02-.64,4.81.28,5.74.69.7,3.54.89,3.8-.06l1.34-4.91c.26-.95-4.79-1.53-5.41-.77ZM119.75,344.93l5.03-4.84c1.05-1.01-2.78-4.37-3.94-4.95l-1.09,9.8ZM135.94,343.77l.36-9.97-4.75,6.66c-.54.76,2.59,2.34,4.4,3.31ZM142.03,343.11l3.74-6.67c.58-1.04-3.91-3.63-4.12-2.72l.38,9.39ZM156.97,343.32l-2.48-10.02c-1.29,1.12-3.97,5.06-2.67,6.07l5.15,3.96ZM178.06,345.22l-.61-10.22c-1.53.5-5.49,4.26-4.29,5.43l4.9,4.79ZM161.92,345.08c3.55-2.95,5.85-5.02,4.75-5.76l-5.16-3.49.41,9.25ZM149.68,348.2c2.11.59,2.55-3.99,1.15-5.56-1-1.12-3.15-.02-5.85,1.96-1.67,1.22-.27,2.2,4.69,3.6ZM129.52,347.82c1.04.1,2.16-4.33.97-4.27-.88.05-3.9.02-4.51.57l-2.81,2.55c-.5.46,4.21.94,6.35,1.14ZM172.93,347.26c.06.07-2.09-2.74-2.91-3.83s-3.96,2.54-5.01,3.83h7.92ZM132.72,354.44c-6.19-2.97-12.58-3.18-17.62.61,6.09,2.98,13.06,3.21,17.62-.61ZM157.28,354.28c-6.76-2.22-12.38-2.07-17.58.31,5.77,3.68,13.43,4.08,17.58-.31ZM181.85,354.58c-6.59-3.15-12.41-3.05-17.14.59,6,2.77,13.03,2.95,17.14-.59ZM178.24,466.27l-15.76-67.86-26.16-.05-13.55,68.44,55.47-.52ZM105.05,411.59c4.62-2.39,9.58-5.23,8.34-6.5l-4.82-5c-2.16,3.82-3.55,8.2-3.52,11.5ZM128.5,409.94l.31-10.59c-4.36,3.12-7.45,5.97-6.82,7.97.54,1.72,6.41,4.55,6.51,2.62ZM171.41,411.17c1.91-.75,6.54-4.63,5.15-5.87l-6.73-5.98c-.77,3.03-.02,8.13,1.58,11.85ZM193.38,410.69l-3.09-10.51c-2.05,1.65-6.03,4.96-4.83,6.11s4.52,2.89,7.92,4.4ZM182.32,420.91c-.66-3.49-3.01-9.27-4.92-9.99-3,4.36-3.19,6.4-1.91,6.96l6.83,3.03ZM110.46,422.91c.96-2.79,1.99-7.05,2.57-10.31l-7.62,4.13c-1.47.8,3.57,6.07,5.06,6.18ZM126.14,415.9l-7.37-5.21-2.93,11.86,10.3-6.65ZM188.06,422.8c2.39-1.41,6.17-6.21,4.44-7.04l-8.24-3.93c-.2,3.5,1.57,8.69,3.8,10.97ZM108.45,427.98l-7.14-6.47-4.35,13.74,11.49-7.28ZM122.95,436.59l3.07-14.68-11.38,6.84,8.31,7.84ZM184.4,428.5l-11.17-6.47,2.93,13.67,8.25-7.19ZM199.94,433.93c.09-3.92-1.36-9.17-3.88-12.5-2.44,1.38-6,6.28-4.57,7.18l8.45,5.32ZM103.64,446.39l4.64-13.02-10.47,6.74,5.82,6.28ZM109.9,445.08c4.56-2.01,9.33-4.53,8.32-6.08s-4.11-4.05-6.07-5.29l-2.25,11.36ZM188.59,444.67l-2.68-11.4c-2.37,1.62-6.46,5.33-5.04,6.27l7.72,5.13ZM194.62,446.09c3.79-3.79,5.77-7.47,4.24-8.22l-8.83-4.35,4.59,12.57ZM101.11,450.34l-6.91-6.33-4.02,13.32,10.92-7ZM117.39,459.75l3.83-15.73-12.09,7.33,8.26,8.4ZM208.53,456.85l-4.54-14.24-6.51,6.91,11.05,7.33ZM190.6,450.87l-12.56-5.81,3.64,14.72,8.92-8.91ZM88.56,465.41c3.21.88,8.22,1.72,9.81.12s1.99-5.87,2.15-9.85l-11.96,9.72ZM210.42,465.33l-13.65-9.72c.73,4.9,1.34,8.83,3.25,10.38,1.64,1.32,6.55.38,10.41-.66ZM115.07,465.49l-8.3-7.92c-1.8,3.35-4.49,8.39-2.51,8.31l10.82-.4ZM195.1,466.26l-3.97-9.87-8.49,9.68,12.46.19ZM77.38,481.14c3.59-.56,2.56-9.27-.29-9.67-1.73-.24-4.72,3.34-4.93,4.99s3.34,4.96,5.21,4.67ZM95.24,480.89c2.63-.18,2.05-9.56-.82-9.55-3.32,0-8.21-.25-9.19,1.29s-.62,5.81,0,7.53,6.15,1,10.01.74ZM112.28,472.75c-1.12-1.99-8.42-1.89-10.21-.47-1.65,1.32-1.92,8.4.2,8.47l9.55.29c1.67.05,1.56-6.33.45-8.29ZM127.92,471.83c-3.12-1.18-10.71-.59-10.91,1.97s1.16,8.4,3.22,8l9.73-1.86c1.85-.35-.27-7.44-2.04-8.12ZM145.59,472.08c-2.72-.4-8.13-.59-10.15-.31-2.38.32-2.88,9.33-.47,9.29l10.48-.21c2.01-.04,2.14-8.47.15-8.76ZM160.55,481.62c2.43-.27,4.14-7.85,2.35-9.04-1.45-.96-4.75-1.33-8.59-1.68-2.35-.22-4.82,5.05-4.5,7.7.28,2.32,7.51,3.38,10.73,3.02ZM179.29,472.36c-2.29-1.19-9.16-1.5-11.09-.11s-.82,9.38,1.63,9.18l9.28-.74c2.03-.16,2.02-7.37.18-8.33ZM195.44,472.15c-2.37-.94-9.22-.83-10.59.9-1.44,1.83-.43,8.45,1.91,8.27l9-.69c1.93-.15,1.45-7.78-.32-8.48ZM212.3,472.76c-1.42-1.83-8.28-1.83-10.16-.46-1.72,1.25-1.62,8.52.45,8.54l9.49.09c1.68.02,1.44-6.58.21-8.17ZM218.47,472.54c-.6,3.11-1.19,7.58.44,7.87,1.75.31,6.4.91,6.47-.74l.3-7.11c.07-1.66-6.9-1.66-7.22-.02ZM224.6,530.19c-.07-9.98-6.58-8.38-11.7-6.38l11.7,6.38ZM62.5,524.42l3.95,5.39c.65.88,3.62-2.37,3.77-3.46.19-1.45-.54-3.52-1.99-3.78-1.08-.19-6.38.96-5.74,1.84ZM85.32,524.34c-2.45-1.24-8.88-1.95-9.64.03-.62,1.61-1.16,3.39-2.11,6.47l11.75-6.5ZM228.67,524.25c.32,1.42,1.21,5.55,2.11,4.96l3.2-2.11c.9-.59,1.36-4.31.27-4.18-1.36.17-5.82.3-5.58,1.33ZM65.58,535.5l-7.63-8.31-8.8,16.86,16.44-8.54ZM249.09,542.02l-8.26-15.39-6.89,8.64,15.15,6.75ZM83.57,534.54c.42-.63.86-3.27,1.2-5.31-4.52,2.5-8.75,4.95-12,7.3.25,1.65,5.58,5.89,6.56,4.42l4.25-6.41ZM226.23,535.77l-13.13-6.27,6.58,12.56,6.55-6.29ZM75.71,547.17l-8.02-7.08-8.02,14.58,16.04-7.5ZM239.37,555.14l-8.27-15.64-7.39,7.75,15.66,7.88ZM54.2,555.21l5.93-11.12-11.17,5.54,5.24,5.59ZM250.35,548.35l-11.26-5.35,6.06,12.41,5.2-7.06ZM51.29,559.39l-7.58-7.48-8.34,15.29,15.93-7.81ZM264.5,567.54c-2.97-7.24-5.52-11.41-9.57-16.12-2.62.81-6.97,7.62-4.89,9.19,4.1,2.95,9.65,5.32,14.46,6.92ZM64.09,568.86l7.31-15.3-13.87,7.31,6.57,7.98ZM238.97,560.08l-11.83-6.11,7.48,14.37c2.92-2.08,6.2-7.31,4.34-8.27ZM39.23,581.42l7.53-15.03-14.65,8.26,7.11,6.78ZM60.03,571.98l-6.63-7.93-7.9,15.62c5.58-2.56,9.47-4.6,14.53-7.69ZM253.35,579.99l-7.87-15.6-7.16,7.93,15.03,7.67ZM264.83,573.38l-12.74-5.82,8.47,13.69c2.37-.6,6.27-6.96,4.27-7.87ZM35.37,585.34l-7.34-8.04-8.72,14.72,16.06-6.68ZM281.35,593.05l-10.32-16.06-6.81,8.68,17.13,7.38ZM50.46,593.06c2.98-5.51,4.61-8.99,6.78-14.1l-12.96,6.76c-2.41,1.26,4.82,9.87,6.19,7.34ZM255.86,586.28l-13.99-6.69,7.55,15.16c2.8-3.01,4.98-5.75,6.45-8.47ZM20.35,597.81c9.27,2.95,11.28-.28,11.48-6.26l-11.48,6.26ZM44.96,598.24l-5.65-6.45c-.75-.86-3.37,2.19-3.72,3.28s-.37,4.18.82,4.06l8.55-.88ZM257.55,592.61c-2.4,3.69-2.6,7.51.62,6.71,3.89-.97,6.18-2.18,5.39-4.19-.7-1.78-4.95-4.14-6.01-2.51ZM281.32,598.6l-14.76-7.64c.84,3.62,1.26,6.8,3.43,7.23,2.28.45,6.52.46,11.33.41Z"/>
  </g>
</svg>