<?xml version="1.0" encoding="UTF-8"?>
<svg id="Layer_2" data-name="Layer 2" xmlns="http://www.w3.org/2000/svg" viewBox="0 0 143.59 617.48">
  <g id="Layer_1-2" data-name="Layer 1">
    <path d="M72.6,0c1.53,6.41,2.23,12.97,1,19.96l3.44,3.32c-1.19,1.51-2.71,4.42-2.32,6.75,5.34,31.89,12.13,62.57,22.42,93.16l2.3-6.39c1.48,18-.75,31.17.28,49.02l4.09,1.68-3.98,1.7c1.7,7.32,3.43,13.98,6.49,21.46l15.02,36.67c.4.97,2.71,2.24,2.79,1.63.66-5.3-1.43-4.94-.3-8.57l7.35-23.57c.74-2.36-3.66-6.25.36-8.88,4.59,3.08-.75,6,2.2,14.83l5.13,15.35c.92,2.75-.41,5.96-.43,8.85l-.16,35.22,5.14,1.34.17,96.95c-1.47.54-3.94,1.57-3.92,2.41.53,2.36-.55,6.59-2.88,7.47,1.48,1.37,3.19,2.97,3.51,4.13.27.97-1.9,2.45-3.27,3.2l.03,190.86c1.8,3.14,2.8,6.05,2.79,9.35l-.18,39.45-73.04.13-62.3-.16-.37-41.33c-.02-2.38,1.09-4.87,2.5-7.28l.07-174.54c0-5.59.51-11.79-.18-16.26-1.18-.79-3.98-3.4-3.15-4.11l3.49-3.02c-7.9-5.52,1.14-7.62-6.68-10.21l.28-95.66c0-1.28,2.68-1.65,5.06-1.7l.16-37.22-1.64-4.57c2.85-8.41,5.69-16.65,7.57-25.25.53-2.41-3.37-7.46,1.03-8.13,3.5,1.57-.14,6.52.43,8.82,2.21,8.88,5.79,17.19,7.38,25.82.32,1.73-3.27,4.83.29,6.05l6.89-15.9c6.29-14.53,12.21-28.77,15.68-43.82l-3.7-1.45,4.29-1.67-.31-34.86c-.05-5.16.19-9.72,1.47-14.3l1.7,7.53c10.17-27.07,18.93-70.63,22.41-96.81.25-1.88-3.59-4.35-2.67-4.69,6.32-2.29.71-9.49,4.3-22.77h2ZM52.22,136.7c-.34.44-2.06,2.03-2.07,2.57l-.49,19.82c-.02.85,1.67,2.49,2.49,2.56,4.98.4,2.5-28,.08-24.94ZM64.48,159.66l-.15-18.71c-.01-1.64-1.76-4.25-3.34-5.2-1.67,8.19-1.49,15.98-1.09,24.4.06,1.18,4.6,1.02,4.58-.49ZM74.53,159.71l-.19-18.64c-.02-1.82-1.64-4.16-3.31-4.73-1.72,4.96-3.79,22.17.02,25.14.66.51,3.49-.84,3.48-1.77ZM84.51,159.08c0-8.54,1.15-18.38-2.49-22.74-.39-.46-2.11,1.82-2.12,2.53l-.37,20.22c-.02.85,1.71,2.62,2.54,2.59s2.44-1.72,2.44-2.61ZM94.05,158.74l.17-15.9c.03-2.31-1.06-4.62-2.82-6.82-1.68,2.95-2.35,5.65-2.31,8.83l.17,14.31c.01.96,1.85,2.79,2.72,2.5.69-.24,2.07-2.05,2.08-2.92ZM115.42,258.63l-.67-10.83c-.09-1.52-3.08-3.83-4.5-3.59-6.18,1.04-4.07,9.74-4.45,14.6l9.62-.17ZM25.73,258.84c.05-5.51.95-14.1-4.64-14.2-1.38-.02-4.54,1.92-4.58,3.43l-.33,10.79,9.55-.02ZM38.46,258.75c.16-5.54-.12-14.78-5.28-14.01-5.56.82-4.23,9.57-4.31,14.08l9.59-.07ZM51.24,258.81c.17-5.36.31-14.11-5.04-14.05-1.33.02-4.11,2-4.15,3.33l-.29,10.69,9.48.03ZM64.08,258.72c.1-4.72.07-7.85-1-11.35-.43-1.41-3.46-2.87-4.77-2.62-1.13.22-3.42,2.21-3.44,3.51l-.2,10.53,9.41-.06ZM77.07,258.54c.2-4.45.23-7.66-.91-11.13-.48-1.45-3.55-2.93-4.91-2.74-1.16.16-3.36,2.18-3.39,3.49l-.27,10.69,9.49-.31ZM89.66,258.66l-.04-9.91c0-2.03-3.37-4.17-5.45-3.75-1.54.32-3.54,2.94-3.54,4.61v9.14s9.03-.09,9.03-.09ZM102.48,258.66c.08-5.24.34-14.97-5.26-13.91-5.24.99-3.96,9.72-3.92,14.02l9.18-.11ZM127.36,258.62l-.38-10.34c-.05-1.39-2.57-3.51-3.94-3.67s-4.49,1.92-4.51,3.4l-.2,10.77,9.03-.15ZM108.46,346.81l.23-71.56-75.15-.18.18,72.11,74.75-.37ZM42.54,461.56l.1-54.11c0-.95-1.22-3.03-1.72-2.69s-1.42,1.64-1.43,2.28l-.2,54.85,1.74,2.06c.35.41,1.51-1.54,1.51-2.4ZM57.39,461.35v-54.06c0-.88-.9-2.03-1.38-2.28s-1.64,1.51-1.65,2.21l-.18,54.1c0,1.06,1.44,2.55,1.96,2.66s1.25-1.45,1.25-2.62ZM73.14,461.31l.26-54.13c0-.71-1.73-2.56-2.21-2.07-.36.37-1.05,1.53-1.05,2.04l-.13,54.71c0,.67,1.51,2.21,2.08,1.95.43-.19,1.04-1.43,1.04-2.5ZM87.4,403.96c-3.95,19.8-.08,39.19-1.92,58.65l2.14.97c1.35.61,1.78-53.77-.22-59.62ZM101.91,403.93c-2.43,20.56-.39,39.7-1.15,59.29l2.48-.05c.72-.02,1.48-56.77-1.33-59.23ZM43.08,550.22v-57.65c0-.82-1.46-2.77-1.9-2.47s-1.36,1.38-1.36,1.91l-.05,58.98c0,.73,1.01,2.12,1.54,2.5s1.78-1.93,1.78-3.29ZM58.3,551.47l.1-59.05c0-.83-1.85-2.64-2.28-2.2-.32.33-.99,1.38-.99,2.17l-.13,58.24c0,.82.81,2.17,1.1,2.71.2.37,2.19-.96,2.2-1.88ZM73.32,551.41l.07-58.04c0-.76-.73-2.96-1.16-2.79l-2,.79-.12,59.02c0,.95.86,2.42,1.02,2.84.17.45,2.19-.76,2.19-1.82ZM88.62,492.84c0-1.1-2.27-2.51-2.37-1.92-.05.35-.38,1.8-.38,2.53l-.1,57.46c0,.85.72,2.45,1.32,2.35s1.58-1.53,1.58-2.51l-.06-57.9ZM104.24,492.42c.07-.79-3.64-1.19-3.59-.47,1.33,20.93-1.48,40.53,1.5,62.28,3.64-20.69.27-40.36,2.09-61.81Z"/>
    <path d="M101.67,319.6c-3.11,14.49-16.68,23.49-30.52,23.4-13.99-.09-26.56-9.59-29.99-23.64-2.8-11.46,1.46-23.12,10.38-30.49,10.41-8.6,24.45-9.91,35.73-3.18s17.43,19.75,14.39,33.91ZM87.63,334.47c2.11-1.67,4.8-4.56,6-6.48-2.34-.97-4.77-2.45-4.12-3.87.98-2.15,4.25-.42,6.32.64,1.54-2.28,3-7.28,2.62-9.28-2.74-.34-4.78-.61-5.88-.96-.88-.29-.05-3.67.83-3.77l6.11-.7c-1.05-3.7-2.09-6.67-3.46-9.89-3.6,1.46-6.1,2.24-8.41,3.73l-10.77,6.96c-.1,2.58-1.05,5.6-2.88,6-1.67.37-4.69-1.08-5.31-2.55-.73-1.75.8-4.52,2.31-5.94l1.31-16.1c2.22,5.99.76,11.25,1.9,17.18l19.27-12.93c-1.23-2.18-4.25-5.27-6.26-6.28-1.03,1.92-2.93,4.65-4.27,3.48-.98-.85.08-4.16.72-5.92-2.22-1.6-7.25-3.04-9.39-2.03l-1.14,4.25c-.21.77-3.35.18-3.29-.62l.29-4.05c-3.23-.06-7.47.98-10.73,2.49,1.23,2.1,2.97,5.28,1.37,6.47-1.49,1.1-3.63-2.13-4.93-3.99-2.1,1.54-4.84,4.11-6.23,5.81,2.79,1.54,5.26,3.17,4.21,5.12-.7,1.29-4.53.19-6.46-.19-2,1.81-3.45,6.91-3.09,9.59,2.67-.26,6.17-.36,6.09,2.59-.05,1.74-3.47,2.2-5.93,2.41.28,2.37,1.5,6.93,2.46,8.98,2.95-.84,4.51-1.42,6.93-.54-.76,1.49-2.09,2.92-3.83,4.62,1.1,1.87,3.79,4.82,5.67,6.18,1.19-2.67,4.07-5.1,5.55-3.47.84.93.04,3.82-.6,6.21l8.82,1.53.89-4.84c.15-.83,3.35-.77,3.56.05l1.15,4.59c1.62-.05,6.11-1.1,8.2-1.91-.68-2.07-1.81-5.56-.34-6.24,1.25-.58,3.49,2.06,4.76,3.7Z"/>
  </g>
</svg>