<?xml version="1.0" encoding="UTF-8"?>
<svg id="Layer_2" data-name="Layer 2" xmlns="http://www.w3.org/2000/svg" viewBox="0 0 1426.28 433.58"><style>path,polygon,circle,rect,ellipse,line,polyline { fill: #D4AF37 !important; stroke: #D4AF37 !important; }</style>
  <g id="Layer_1-2" data-name="Layer 1">
    <path d="M1097.79,250.6l-90.81-.1-.58,57.86-53.15.53,1.85,63.71,2.06-59.79,53.41-.41.11-58.14,83.33-.02,1.52,165.7c6.1-35.29.68-68.29,2.83-104.47,9.32-.71,19.32-1.28,29.94-1.26l178.7.23.89-18.64,11.54-1.71c1.6-8.63,2.87-14.67,5.11-22.12l5.53,8.25,6.7-15.5c3.97,10.67,6.34,19.61,8.6,30.3l40.99.83.68,16.14c.04,1,1.65,3.25,2.34,4.04s3.2-2.85,3.21-3.92l.52-33.65c.08-5.05,3.8-11.38,7.09-17.2l5,17.1,4.75-12.26,5.35,12.46c1.33-12.96,2.49-22.12,5.43-32.54,2.72,5.04,5.5,10.44,5.49,14.27l-.14,122.66c-15.64.35-27.09-1.34-41.38,2.16,14.27,5.47,26.49,1.59,41.56,3.16l-.6,45.28-1425.68-.02,9.66-20.08,16.56-19.34.06-109.56-6.62-6.32,21.07-12.11c3.49-2.01,4.52-10.64,6.15-15.71l4.38,14.14,20.23,10.12c6.47,3.24,18.26.79,26.83,1.02l.82-21.24c12.48-8.98,27.63-6.23,43.46-5.18l.54-36.92c.22-15.02,5.47-28.53,10.15-42.87l7.75,22.91,11.97-30.61,12.32,33.58c2.02,5.51,2.34,13.88,3.99,19.85,6.36-10.75,11.86-17.94,20.65-26.02l17.16,16.64,4.15,14.81c2.9-2.26,5.58-6.04,4.64-7.47-1.36-2.07-3.42-4.45-6.49-7.97,11.34-4.24,15.46-10.9,15.87-23.63l3.42,14.59,11.61,10.31-4.72,4.79c-.83.84.6,3.88,1.66,4.41s5.13.04,5.18-1.2l.32-8.68c.07-2.05,3.67-2.99,7.46-4.12,3.59-1.08,5.58-4.4,7.05-9.32l2.54,7.41,14.06,4.59c1.53,35.29-2.03,68.2,2.31,103.65,3.76-31.67,1.47-60.22,1.51-92.15l.11-93.27c0-2.29,6.81-2.09,7.25-.66l1.98,6.43,2.41-7.69c.43-1.38,5.44-.11,5.86,1.28l1.92,6.44,3.21-7.15c.62-1.38,5.56-1.84,6.05-.4l2.54,7.42,2.93-7.93c.65-1.76,7.88,1.93,6.93,2.4,1.21,3.37,1.73,4.82,1.47,4.11l3.07-6.33c.55-1.13,4.82-1.24,5.28-.07l2.95,7.51,4.33-8.73c2.24.75,4.59,1.41,4.97,2.55l2.24,6.68,1.82-7c.39-1.48,5.42-2.51,6.09-1.13l3.06,6.28,4.43-7.36,32.87,7.14c3.47.76,7.49,1.01,11.65,1.49l-.43,72.32c-.12,19.57-1.05,38.61.08,58.07l1.86,32.04c.06.99-.19,4.52.5,4.17l6.25-3.23c1.61.44-.59-.16-5.16-1.4l.13-99.26,33.72-18.88.17-35.37,6.74-5.03-.32-30.12c-.01-.96-3.13-4.14-3.78-4.86-.86-.96,2.28-3.63,2.58-5.11l3.81-19.2,2.67,14.96c8.1-6.17-.05-16.1,2.72-22.95l19.37-47.95.93-16.12c1.25,11.8,2.48,20.7,7.06,30.44l14.18,30.16.89,26.84c3.18-5,3.39-6.07,5.69-11.41-1.47-2.25-.54-.83.26.41,1.71,7.24,2.94,12.17,5.46,19.21l-3.54,5.48.34,31.43,20.45,15.13-.26,82.99-58.67-.19c-3.32-.01-10.84,2.42-12.24,2.93-4.54,27.56-6.17-1.08-8.84,30.74l-2.04,24.24c-1.06,12.61-1.8,24.19-1.05,36.17,5.28.02,2.96-25.82,5.22-44.44.93-7.65-1.24-19.98,2.25-25.96,3.98-6.82,7.31-10.42,7.43-19.79l88.36-.26c-.03,29.26,7.45,6.14,6.23,43.97l53.17.42c-16.97-4.46-32.86-1.04-50.54-2.74l-.59-21.31c-2.07-7.79-3.4-13.54-4.09-23.04l-20.01-1.18-.14-84.05.12-64.89c1.11-1.07,8.19-3.06,8.86-1.43l3.3,7.94,2.54-6.46c.58-1.48,5.98-2.12,6.7-.68,1.37,2.73,3.39,6.8,3.37,6.76l2.68-6.98c.46-1.19,4.94-1.78,5.77-.82,1.11,1.28,1.37,2.59,3.06,7.53l1.76-.2c1.22-4.25,1.67-6.86,3.22-7.52,1.94-.82,6.84,2.5,7.68,4.2,1,5.24,1.64,5.38,1.72,1.06l4.53-5.33c1.13-1.33,4.65,2.67,5.29,4.3l1.29,3.28c.19.47.15.26.72-2.5,1.15-1.36,4.53-4.28,6.67-5.28,1.89-.89,3.79,3.98,5.73,8.56l3.52-8.61c6.23.49,17.95,4.21,20.16,9.82l1.9,23.63,2.44-6.64c.41-1.11,2.79-2.16,3.92-1.81s2.2,2,4.02,4.38c.21,4.64.41,4.56.66.04,1.1-1.9,2.81-5.32,3.59-4.5l3.29,3.46c1.11,2.36,1.53,3.24.79,1.66l2.37-4.48c.4-.75,3.89-.33,4.69.13l13.94,8.11,12.94-.06.32,59.46,30.17.12,1.33,10.05,22.58,1.88c1.07,4.39,2.11,8.57,3.74,12.68,2.55-21.68,4.27-40.71,9.3-61.03l4.69,8.22,5.86-24.61c3.65,15.25,7.25,28.87,8.51,44.7l1.61,20.19,5.98-29.94c.7-3.5,3.04-8.61,4.78-13.76l22.75-.23,11.52,8.58c2.05,1.53,3.95,6.15,5.96,10.27l3.01-1.5c1.45-13.12,2.98-24.07,8.91-36.21,4.3,9.19,6.31,16.85,8.51,26.92l6.84-10.46c3.32,7.01,8.82,14.76,8.96,20.87l.84,37.16,35.46-.13c1.85-32.14,3.09-60.69,8.42-92.55l10.34,92.81,46.87-.25c1.2,0,2.67-5.46,1.65-6.04l-5.31-2.99,12.3-13.66c2.08-2.31,10.85-2.21,13.41-1.32l13.28,14.99-5.18,2.74c-1.02.54-.14,4.44.31,6.33l42.85.21,2.43-12.88c7.77,2.45,17.01-3.98,22.48-3.36,9.08,1.03,17.67,4.03,29.32,3.2l.49,38.55,73.47.09.42-85.46c.03-7.18,11.32-6.76,15.63-6.77l84.33-.05c1.88-10.96-1.71-23,.96-32.74l6.18-22.57c.49,7.25,2.26,13.06,7.05,20.48,2.46,9.96-5.86,30.43,6.24,37.77l.46,177.34c-2.89.99-7.58,2.33-11.11,2.33l-194-.22-.25-61.51ZM499.49,226.72l1.49-32.83c.15-3.41-8.04-7.67-9.79-6.81,13.33,10.05-1.79,32.07,8.31,39.64ZM511.17,224.48c1.29-10.18,1.28-19.29-.05-28.37-1.29,10.18-1.28,19.29.05,28.37ZM708.83,232.57c1.31-11.2,1.33-20.45-1.14-32-11.54-1.74-21.24-5.17-33.42.41,10.94,1.46,19.39,1.36,31.65,1.25l.56,86.28c5.47-18.48-.5-31.55,2.35-55.93ZM1051.66,212.39l1.74,10.17.82-14.18-52.44-.4c-2.47,3.39-2.5,10.75-.62,14.57l3.3-10.59,47.19.43ZM908.83,212.13c-17.91-3.06-34.49-2.4-50.82-.61l50.82.61ZM182.74,261.03c33.27-2.87,63.11,2.44,95.16-3.04-32.2-3.16-61.91-1.48-94.51-1.3l-24.18-18.46-31.03,23.96c13.98-2.27,19.45-11.77,31.16-19.06l23.4,17.9ZM138.52,275.36c.18-4.22-1.57-8.26-4.4-9.02.98,47.36-2.14,93.15,1.95,139.31,4.71-44.75.55-85.81,2.44-130.28Z"/>
  </g>
</svg>