<?xml version="1.0" encoding="UTF-8"?>
<svg id="Layer_2" data-name="Layer 2" xmlns="http://www.w3.org/2000/svg" viewBox="0 0 148.5 307.46">
  <g id="Layer_1-2" data-name="Layer 1">
    <path d="M108.15,278.26c-9.13-10.62-21.74-15.56-35.44-14.98-22.05.95-36.72,17.81-43.58,37.51,1.54,1.73,2.88,4.38,1.63,6.6l-29.15.04c-1.47,0-2.07-3.99-1.23-4.61s3.31-.45,5-.43c11.93-14.63,21.48-31.02,29.76-48.06l-3.47-16.22,10.66-.16c5.23-13.38,9.67-26.92,12.68-40.79l-7.19-.51-2.11-10.82,59.43.08-2.01,10.2-7.73.75c3.62,14.58,7.68,27.56,12.84,40.98l10.09.29-3.06,15.73c8.21,16.91,17.65,32.87,29.19,47.62l3.65,1.47c1.01.41-.07,4.51-1.41,4.5l-28.54-.13c-3.41-.02.48-4.82.44-6.46-.17-6.72-5.4-16.74-10.45-22.61ZM93.31,237.96c-4.45-14.81-7.45-27.16-9.82-41.36l-16.75.25c-2.31,14.52-5.3,26.61-9.78,41.08l36.35.04Z"/>
    <path d="M74.43,121.11c-.73,1.46-.66,2.32-.81,3.93l-4.9,53.05-11.05.03c3.8-20.9,5.73-41.37,7.72-62.86.31-3.38-.08-5.95-1.51-9.78l22.22-.04c-1.42,4.76-1.87,8.87-1.32,13.73,2.27,20.09,5.13,38.73,8.46,58.9l-11.44.04-7.38-57Z"/>
    <path d="M83.58,98.91l-16.58.29,2.19-61.1c.1-2.79-.74-4.16-2.82-7.97l16.9.06c2,.09-2.01,2.81-1.95,4.56.62,17.37,1.54,43.58,2.27,64.17Z"/>
    <path d="M76.15,27.41c-3.45-.03-5.64-1.16-7.71-3.62,2.03-1.99,4.13-4.73,5.26-7.35l1.79-16.44,1.81,17.65c1.67,2.1,3.39,4.37,4.35,5.93-.78,2.59-3.18,3.84-5.49,3.83Z"/>
  </g>
</svg>