<?xml version="1.0" encoding="UTF-8"?>
<svg id="Layer_2" data-name="Layer 2" xmlns="http://www.w3.org/2000/svg" viewBox="0 0 206.04 175.98">
  <g id="Layer_1-2" data-name="Layer 1">
    <g>
      <path d="M118.02,90.43c0,.35-1.72-2.06-1.94-1.65l-.09-1.8h-25.94s-.02,1.75-.02,1.75l-.86.45c-.16.48-.47.77-1.14.91v36.65s1,.35,1,.35v42.77s.76.22.76.22c.18.05.32.51.45.64l1.05,1.07.76.41-.04,3.78h-18.97s-.02-4.97-.02-4.97l2.01-.06v-16.77s1-.31,1-.31v-58.77s.99-.21.99-.21l.02-3.68-.82-.43c-.26-.44-.54-.71-1.12-1.01l-.16-1.67-.68-.21c-.18-.05-.23-.52-.34-.9h-16.76s-.22.8-.22.8c-.05.18-.5.21-.85.3l-.05,1.65-.85.45c-.14.49-.48.79-1.13.93l-.03,8.66,1.01.32v50.64s1,.36,1,.36v19.86s2,.05,2,.05v4.98s-18.97,0-18.97,0v-2.9s.8-.16.8-.16c.36-.07.03-.94.24-1.68.06-.2.58-.31.77-.44.2-.5.45-.81,1.17-.92v-49.78c.31-.03,1-.14,1-.4v-29.58s-1.98-.18-1.98-.18l-.03-2.94h-17.96s-.03,1.8-.03,1.8l-.8.37c-.22.49-.55.81-1.2,1.01v36.59s.99.34.99.34v42.77c.66.12.93.34,1.06.85l.95.53v4.74s-18.01,0-18.01,0l-.02-4.74.87-.47c.15-.49.47-.78,1.14-.9v-27.79s1-.22,1-.22v-51.72c-1.8-.48-.22-.83-1.96-1.35l-.08-2.59,1.05-.36v-11.84s-2.89-.05-2.89-.05l-.21-.78c-.05-.18-.55-.22-.84-.3l-.15-1.72c-.51-.24-.88-.62-1.14-.98l-.6-.3c-.18-.09-.17-.57-.19-.89l-.03-.83c0-.21-.61-.18-.91-.25l-.09-1.83-.78-.19c-.2-.05-.19-.61-.18-.9l.02-.82c0-.2.78-.32.84-.12l.26.94h202.78s.19-.81.19-.81c.05-.2.67-.22.89-.21l.89.05c.22.01.16.7.14.96l-.04.84c-.01.21-.63.18-.91.25l-.09,1.82c-.3.06-.65.08-.72.2l-.42.74c-.08.14-.54.17-.66.27-.15.13-.14.53-.15.9l-.03.82c0,.21-.59.19-.89.27l-.12,1.79-.72.23c-.18.06-.24.49-.35.86l-2.87.04-.02,11.92,2.03.08-.09,1.86-.92.33-.02,1.72-1.99.2v27.86c0,.43.74.56,1,.6v51.17s.77.34.77.34c.16.07.31.54.44.66l.94.92c.13.13.46.28.84.45v3.86s-18.98,0-18.98,0v-4.97s1.99-.07,1.99-.07v-5.87s1.01-.21,1.01-.21v-62.02s1-.21,1-.21v-12.64s-1.99-.03-1.99-.03l-.03-2.99h-17.87s-.29.91-.29.91c-.05.17-.77.12-.77.31l-.04,1.35c0,.27-.59.42-.78.66-.33.41-.58.67-1.21.91l-.03,12.84,1.01.36v52.4s1,.36,1,.36v12.63s.86.47.86.47c.12.48.48.77,1.12.93v4.86s-18.98,0-18.98,0l.04-3.72c2.43-1.41-.52.16,1.79-1.42.17-.11.16-.47.18-.85l.05-.83c.01-.21.55-.18.94-.27v-50.67s1-.35,1-.35v-27.64s-.83-.45-.83-.45c-.21-.47-.47-.74-1.1-.96l-.1-1.84h-17.93s-.04,1.81-.04,1.81l-.8.36c-.22.49-.54.8-1.19.98v56.09s1,.37,1,.37v23.11s.84.47.84.47l.26.59c.08.17.47.22.89.33v4.89s-18,0-18,0v-4.79s.88-.4.88-.4c.11-.52.42-.83,1.13-.92v-37.64s1.01-.49,1.01-.49v-41.3Z"/>
      <path d="M130.05,44.92l1.84.1.22.76c.05.19.46.2.85.29l.06.85-1.89.12c-.1.69-.39.92-1.09,1.04l-.04,14.89h-53.87s-.17-.8-.17-.8c-.03-.14-.44-.2-.63-.26-.16-.05-.28-.39-.33-.62-.05-.2.39-.27,1.02-.35l.02-12.86-.81-.2c-.19-.05-.22-.49-.31-.86l-1.83-.09-.07-1.96h1.98s.1-2,.1-2l10.63-.03c.32-.42.62-1.04,1.27-1.13l.02-3.58c-.14.05-2.5-1.98-2.19-2.22h-1.6c-.29.73-.42.89-1.15,1.1l-.03,1.75.81.17c.21.04.2.66.19.92l-.02.84c0,.22-.8.18-.87.06-.09-.5-.47-.89-1.11-1.02v-4.75s.99-.36.99-.36l-.03-5.56c-.64-.21-1.02-.52-1.12-1.02l-.86-.39v-4.76s3.83-.01,3.83-.01c.19.64.43,1.01,1.11,1.12l.07,1.72.97.25.05,2.78.76.19c.19.05.23.57.32.92l3.84.03.09,1.97,1.94.04.03-2.87.99-.42v-6.7s2.99-.03,2.99-.03v5.99s2,0,2,0l-.02-6.89-.8-.17c-.2-.04-.24-.68-.22-.89l.08-.85c.02-.21.63-.19.92-.26l.07-1.82.76-.19c.19-.05.23-.53.32-.86l1.9-.12-.04-3.81c-.64-.15-.96-.35-1.13-1.06l-1.83-.1v-3.81c.61-.19.98-.58,1.18-.99l.62-.27c.14-.06.22-.41.22-.56,0-.2-.58-.34-.72-.49l-1.05-1.11-1.01-1.04c-.35-.36-.6-.57-1.22-.91l-.06-1.76h1.84c.47,1.85.91.02,1.33,1.95l3.71-.02c.17-.6.52-1,1.02-1.17l.21-.63c.07-.19.84-.19.89-.04l.02,2.6c-.46.32-.94.67-1.23.99l-1.03,1.13-.52.24c-.13.06-.22.42-.26.56-.04.19.61.32.75.47.29.34.63.78,1.28,1.07v2.65c-1.93.48-.04.95-1.98,1.28v4.86s2.86.03,2.86.03c.15,0,.28.75.14.79l-.98.28v2.92c.52-.06.85-.06.9-.2s.07-.62.21-.67l.83-.32c.18-.07,0-.79-.2-.84-.17-.04-.75-.04-.74-.19l.07-.75,1.77-.03c.16.74.43,1,1.11,1.09l.09,2.85,1.84.1c.05.25.05.7.18.75l.92.35.03,7.6c.54.24.95.63,1.18,1.04l.6.3c.18.09.26.65.24.86l-.08.84c-.02.2-.55.21-.95.3l-.02,9.88,3,.02v-6.83s-1.02-.36-1.02-.36l.05-3.61c-.21.62,2.72-2.29,2.17-2.14l2.74-.09.11-2.86.79-.18c.2-.04.15-.63.16-.91l.05-.83c.01-.2.56-.19.9-.27l.07-1.87,1.89-.12.16-.76c.04-.2.74-.17.78.02.1.49.47.81,1.13.97l.02,5.82-2.03.07.1,1.85c.22.07.89.2.9.39l.07,2.57.96.4-.03,4.63-.79.27c-.44.15.08,1.8-.37,1.81l-1.07.04c-.19,0-.74.03-.74-.12v-.73c0-.2.63-.14.92-.21l.14-1.88.75-.13c.14-.03.15-.42.19-.93l-2.9.04c-.09.68-.42.93-1.09,1.06l-.03,4.88h8.98s.06,1.95.06,1.95ZM102.83,8.03l-1.54-.1c-.23-.01-.46.8-.26.91.71.41,1.85.01,1.99-.01.16-.03-.03-.8-.18-.81ZM94.02,42.98l-.02-4.91-.99-.26-.02-3.83-.88.08c-.1.38-.14.77-.32.82l-.77.22-.03,5.8-.95.23c-.15.04-.01.73.14.77.24.05.65.09.7.27l.25.79,2.88.03ZM119.02,42.94v-3.93s-1-.05-1-.05v3.99s1,0,1,0ZM103.03,42.98l-.03-3.01h-2.98s0,3,0,3h3.01ZM108.03,42.97l-.02-1.99-1.85-.04-.29-.93c-.05-.15-.69,0-.75.13l-.29.74c-.05.13-.74.08-.74.22l-.08,1.86h4.03ZM97.88,40.96c-.08-.15-.77-.09-.78.08l-.11,1.7c-.01.21.85.41.92.21.18-.49.2-1.54-.03-1.99ZM111.03,41.77c0-.34-.15-.88-.36-.86s-.65.04-.65.2l-.02.88c0,.32-.03.82.14.95s.86.12.87-.1l.02-1.07Z"/>
      <path d="M11.98,53.27c0-.15-.76-.26-.8-.4l-.3-.85-1.71-.09c-.1-.67-.43-.96-1.14-1.08l.06-2.87h65.94s.01,15,.01,15H12.06s-.07-9.71-.07-9.71Z"/>
      <path d="M195.21,52.02l-.3.74c-.07.18-.52.22-.88.32v9.89s-62.01,0-62.01,0v-15s65.68,0,65.68,0c.15-.1.49.79.29.84l-.95.26-.04,2.87-1.79.08Z"/>
    </g>
  </g>
</svg>