<?xml version="1.0" encoding="UTF-8"?>
<svg id="Layer_2" data-name="Layer 2" xmlns="http://www.w3.org/2000/svg" viewBox="0 0 128.01 125.01">
  <g id="Layer_1-2" data-name="Layer 1">
    <g>
      <path d="M37.02,65.88v-31.67s1-.37,1-.37l-.09-1.75c0-.15-.64-.08-.77-.17-.17-.12-.12-.58-.03-.92h40.88s0,35.99,0,35.99h-39.9s-.19-.82-.19-.82c-.03-.14-.33-.16-.91-.29ZM49.02,63.96v-20.88c-.75-.04-1.03-.31-1.15-1.09l-2.72.04c-.09.36-.13.85-.33.89l-.8.17v20.89s5-.02,5-.02ZM61.02,63.96v-20.88c-.43-.09-.84-.11-.9-.3l-.27-.79-2.66.04c-.17.68-.45.98-1.16,1.05v19.87c-.67.07-1.18.16-1.12,1h6.12ZM71.02,63.97v-20.9c-.4-.07-.89-.07-.94-.27l-.21-.82-2.7.02c-.15.73-.41,1.01-1.15,1.08v20.91s5-.02,5-.02Z"/>
      <path d="M108,104.98l-.98.02v4.97s-1,.02-1,.02l-.02,4-.98.02v4.99s-.98.02-.98.02l-.04,2.96h1s0,2.02,0,2.02h1.02s0,1,0,1h-4.03s0-4.01,0-4.01h-7.92s0-.99,0-.99h7.88s.03-1.01.03-1.01h-7.93s0-1,0-1h7.93s0-4,0-4h-7.98s.04-1,.04-1h7.92s0-1.01,0-1.01h-8s.03-2.89.03-2.89c.4-.1.82-.13.88-.32l.23-.77,1.88-.08c.03-.22-.07-.94-.28-.94l-2.53.02c-.28.64-.56.88-.99,1.18-.1.18-.35.54-.45.7-.08.12-.47.14-.75.2v2.72s-1.03.36-1.03.36l.04,3.7.95.26c.19.05-.02.8-.22.84l-.76.15c-.15.03-.13.65.02.7l.68.23c.34.49.61.83,1.21,1.16.07.27.12,1.29.11,1.61-.77.22-1.02.38-1.13,1.18l-2.67.02-.46-1.07-4.75.05-.04-2.03-6.93.03v-1.01s6.82,0,6.82,0c.39-1.86.72-.17,1.36-1.93l2.49-.11c.21,0,.49-.7.3-.79-.84-.4-1.95.09-1.97-.33l-.05-1.1c-.01-.32-.1-.81-.3-.8s-.59.04-.62.2l-.18.85-7.83.02v-1s7.99-.01,7.99-.01l-.07-.79c0-.1-.36-.2-.46-.2h-7.5s.03-1.92.03-1.92c.19-.11.92-.1.92-.31l.02-.8c0-.28-.08-.94.14-.95l.89-.04c.24-.01.98.05.97-.17l-.04-.83-2.75.06c.18.23-2.07,2.42-2.18,2.21l-.04,8.63c-.86.22-1.06.44-1.08,1.28-.01.52.49.74,1.1,1.04l-.02,3.67c-.68.14-1.02.4-1.15,1.07l-.83.05v-3.97s-4.99-.04-4.99-.04l-.02,4.02-1.92-.03c-.13-.65-.18-1.64.1-1.9l.82-.23c.15-.04.16-.72,0-.73l-.74-.06-1.07-.09c-.21-.02-.2-.55-.32-.98l-4.54.06c-.23,0-.42-.94-.2-.98l3.84-.07.04-.98h-3.97s0-1.01,0-1.01l3.88.03.16.98c.03.2.8.03.83-.17l.15-.81,2.79-.04c.16-.63.46-.96.93-1.11l.49-.84,2.62-.11c.21,0,.08-.89-.16-.89l-2.72-.06-.05-3.68c0-.22-.75-.42-.8-.24l-.26.95-7.74.02c-.21-.39-.26-1.48-.06-1.9.09-.19.86-.08.86-.29v-.84c.02-.28-.07-.93.16-.95l.88-.05c.23-.01,1,.08.99-.14l-.05-.85-2.75.07c.74-.37-2.68,3.11-2.19,2.07v15.88s-10.01-.01-10.01-.01v-25s59.99,0,59.99,0v4.99ZM102.04,109.78c.03-.37-.13-.85-.35-.82-.27.04-.68,0-.68.17v.89c0,.3.06.74.14.94s.79.1.81-.11l.09-1.07Z"/>
      <path d="M117.03,124l-.03-4.81,1-.3v-4.91s1.01,0,1.01,0v-4.99s.99-.01.99-.01l.03-4.84c.57-.16.89-.38,1.07-.84l.87-.64.18-.59c.04-.14.67-.19.72-.05l.28.81c.05.15.64.11.71.25.1.18.15.55.18.92l.06.82c.01.2.55.18.9.26l.03,4.74.98.28.02,4.72.98.28.03,4.8.98.18v3.9s-1.81.06-1.81.06l-.3.95h-7.71s-.26-.81-.26-.81c-.06-.19-.46-.15-.89-.17Z"/>
      <path d="M112.01,91c-.21,0-.67.02-.88.03-.16.68-.38.98-1.08,1.07l-.05,2.88-.96.02-.06,3.99h-60.98s.01-11,.01-11h65.89s.13,2,.13,2h-2.02s-.01,1.01-.01,1.01Z"/>
      <path d="M119.01,108.99c-.32,0-.99.05-.99.28l-.02,4.71c-.31,0-.96.07-.97.26l-.05,3.55-.98.44v5.73s1.02.05,1.02.05c0,.33-.11.98-.29.98h-8.57s-.33-1.01-.33-1.01h-1.81s-.01-1.97-.01-1.97h-1s0-3,0-3l.99-.02v-4.99s1-.01,1-.01v-4s1.01-.02,1.01-.02v-4.97s1-.02,1-.02l-.03-4.82,1.04-.32-.02-4.84c.42.04.95.07.96-.14l.04-.87c.01-.3,0-.85.2-.89l.79-.19.02-1.9h2.87s.32.88.32.88c.05.13.6.12.66.25l.36.77c.06.13.48.13.76.19l.07,2.8.94.19.06,4.77.97.4v7.74Z"/>
      <path d="M9.01,124.99h-3.83s-.35-.97-.35-.97l-2.68-.07c-.17-.68-.37-.91-1.09-1.1l-.09-1.72-.95-.24-.02-4.7,1.01-.33v-4.65s.97-.35.97-.35l.06-4.76.98-.31v-4.71s.97-.19.97-.19l.04-4.79.98-.32v-3.6s.99-.32.99-.32v-4.66s.98-.34.98-.34l.05-4.79.97-.18.02-3.81.96-.25.08-2.65c-.24.64,2.9-2.44,2.11-2.18h4.69c.17.69.4,1,1.09,1.11l.06,1.73.97.24.04,2.74.97.27.03,4.79.98.17v3.76s.99.27.99.27l.02,4.73.97.27.04,2.69-1.01.32v4.73s-.98.28-.98.28l-.06,3.77-.96.34-.03,4.65-.97.34v3.76s-2.01.04-2.01.04v2.97s-4,.03-4,.03v3.98s-2.98,0-2.98,0l-.03,3.99Z"/>
      <path d="M93.04,86.81l-.04-4.79-1.99-.02v4.45c0,.2-.25.57-.39.61-.18.06-.62-.33-.62-.54v-4.52s-1.98,0-1.98,0l-.04,4.74c0,.32-.96.28-.96-.03l-.02-4.7h-1.98s-.04,4.74-.04,4.74c0,.3-.96.27-.96.02l-.02-4.76h-1.98s-.04,4.76-.04,4.76c0,.28-.95.25-.95-.06l-.02-4.71-1.99.04-.02,4.95h-2.96s-.04-4.98-.04-4.98l2.05-.02c-.06-.33-.1-.56-.26-.99h-30.31c-.57,0-.63.77-.48.82l1,.33v4.71s-.99.41-.99.41v35.64s-.81.16-.81.16c-.2.04-.19.63-.2.9v.88c-.02.21-.59.12-1,.05v-20.9s-6.9-.02-6.9-.02l-.21-.8c-.05-.18-.44-.21-.87-.32l-.02-3.79.81-.16c.2-.04.23-.68.22-.89l-.08-.87c-.02-.2-.51-.19-.96-.26l.03-23.9h33.56c.27,0,.53-.28.55-.38.03-.15-.22-.62-.5-.62h-34.48s-.16-1-.16-1h6.15s.52-1,.52-1c.36.72.49,1.02.88,1.04.85.05,1.24-.05,1.28-1.04h3.07c.07.39.05.91.24.96s.73.04.92-.02.18-.51.26-.94h19.67s.02.85.02.85c0,.15.49.17.57.05s.09-.32.16-.84l4.83-.12.3,1.06h3.89c.27,0,.28,1.01.02,1.02h-2.52c-.11.01-.39.27-.4.37,0,.16.21.59.35.59l1.77.06.02,7.96h34.93c.06.3.2.77.05.81l-.98.29v4.41c-.02.16-.26.52-.4.57-.19.06-.62-.34-.62-.58v-4.49s-1.98,0-1.98,0l-.04,4.79c0,.26-.95.19-.95-.07l-.02-4.72h-1.98s-.04,4.72-.04,4.72c0,.31-.96.27-.96-.08l-.02-4.65h-1.99s-.02,4.72-.02,4.72c0,.26-.95.32-.95.07l-.04-4.79h-1.98s-.03,4.69-.03,4.69c0,.32-.96.32-.96,0l-.03-4.7h-1.99s0,4.51,0,4.51c0,.15-.25.52-.39.56-.19.05-.62-.34-.62-.61v-4.46s-1.99.02-1.99.02l-.03,4.78c0,.21-.95.22-.95.02ZM73.94,72.12c-.42-.2-1.58-.14-2,0-.02.29,0,.85.18.85h.89s.89,0,.89,0c.16,0,.19-.78.04-.85Z"/>
      <path d="M79.03,28.03l-.06,1.96h-42.88s-.09-1.99-.09-1.99l2.99-.05.08-1.88.8-.17c.2-.04.12-.59.14-.9l.06-.83c.02-.21.64-.19.91-.26l.07-1.66c.52-.34.86-.62,1.24-1l.99-.99,1.01-1.01.99-.99c.38-.38.61-.63.95-1.2l1.66-.13.22-.74c.06-.19.61-.19.89-.2l.84-.04c.2-.01.18-.54.27-.91l2.76-.06.27-.95,2.9-.05-.03-2.77,1.02-.31v-5.89s-3.97,0-3.97,0v-.99s3.97,0,3.97,0V0s1,0,1,0v3.99s3.97,0,3.97,0l.02,1h-3.99s0,5.91,0,5.91l.83.18c.2.04.16.58.18.9l.05,1.04c.01.21.53.26.7.42.31.31.81.61,1.13.61h.93c.21,0,.19.58.27.91l2.82.08.17.81c.04.2.63.11.91.14l.83.07c.21.02.19.65.25.88l1.71.13c.35.62.55.81.93,1.19l1.02,1,1,.99,1.01,1.01c.36.36.57.57,1.17.95l.16,1.61c1.8.47.07.9,1.85,1.3l.15,1.75c.66.1.9.38,1.02,1.08l1.91.08Z"/>
      <path d="M21.04,118.03l3.97-.07v-2.94s3.01-.07,3.01-.07v-2.97s3,0,3,0l-.02-3.97,3.01-.04v-2.99s10.01,0,10.01,0v20s-26.03,0-26.03,0l.07-2.99,2.86-.02.15-.83c.04-.2.62-.19.95-.26l-.06-1.58-.79-.14c-.21-.04-.2-.7-.13-1.12Z"/>
      <path d="M22.02,106.98v4.01s-2.01,0-2.01,0v-3.82s.99-.33.99-.33v-4.67s1-.29,1-.29v-4.7s.99-.31.99-.31l.06-3.78.82-.18c.38-.08-.06-1.58.2-1.72l.76-.38c.14-.07.16-.54.27-.64.43-.37,1.68-.15,1.7-.11l.41.67c.33.29.76.74,1,1.04l.6.31c.18.1.19.56.21.89l.06.82c.01.21.56.19.9.27l.07,4.79c.35.13.82.3.96.39l.02,4.73h-6.01s0,3.03,0,3.03l-2.99-.02Z"/>
      <path d="M78.95,68.99h-42.83s.01-1,.01-1h42.63c.12.11.16.44.19,1Z"/>
      <polygon points="66.01 86.98 64.03 86.96 64 82.01 66.02 81.98 66.01 86.98"/>
      <polygon points="69.01 86.97 67.03 86.97 67.01 81.99 69.02 81.99 69.01 86.97"/>
      <polygon points="72.01 86.97 70.04 86.98 70 81.99 72.02 81.99 72.01 86.97"/>
      <polygon points="75.01 86.97 73.03 86.96 73 81.99 75.01 81.99 75.01 86.97"/>
      <path d="M82.93,122.83c.12-.07.3-.62.37-.74s.47-.09.7-.05l.02,1.94-7.01.02.03-1.96h.82c.16-.02.1.37.15.81.47.18,1.56.26,1.99-.02.08-.05.03-.55.06-.64.04-.13.54-.24.57-.1l.19.76c.32.19,1.65.24,2.11-.01Z"/>
      <path d="M51,86.83l-.86.18-.21-.82c-.05-.19-.5-.22-.9-.31l-.03-3.82,2.02-.06-.02,4.83Z"/>
      <path d="M54,86.66c0,.28-.82.45-.87.25l-.2-.73c-.05-.19-.51-.22-.9-.31l-.04-3.87h2.03s-.02,4.66-.02,4.66Z"/>
      <path d="M57.01,86.88c-.18.08-.83.17-.89-.01l-.19-.69c-.05-.19-.49-.21-.9-.3l-.03-3.87h2.02s0,4.87,0,4.87Z"/>
      <path d="M63.01,86.63c0,.28-.82.5-.88.28l-.2-.72c-.05-.19-.5-.22-.89-.31l-.03-3.87,2.02.02v4.61Z"/>
      <path d="M60.01,86.66c0,.29-.85.37-.87.2-.08-.57-.37-.93-1.09-.98l-.04-3.88h2.02s-.01,4.66-.01,4.66Z"/>
      <polygon points="88.03 124.98 85.01 124.99 85.01 121.99 88.02 121.99 88.03 124.98"/>
      <path d="M67.84,113.96l-7.74.05-.02-1.02h7.7c.22,0,.28.97.06.97Z"/>
      <path d="M68.01,115.99h-7.97s.06-1.01.06-1.01l7.57.02c.23,0,.33.56.34,1Z"/>
      <path d="M72.04,125l-1.93-.05c-.14-.73-.31-.93-1.06-1.07l-.02-1.85,2.97-.06.03,3.04Z"/>
      <path d="M83.28,116.01l-6.08-.02c-.14-.05-.18-.68-.09-1h6.62c.17,0,.44.54.35.66-.12.16-.52.35-.8.35Z"/>
      <polygon points="101.04 115.99 94.15 116 94.01 114.99 100.98 114.99 101.04 115.99"/>
      <path d="M64.9,123.94l-4.55.09c-.2,0-.51-.8-.32-.88l.83-.33.33-.76c.08-.18.85-.17.91.02l.26.91,2.41-.04c.26,0,.37.94.13.99Z"/>
      <path d="M82.96,120.98h-5.94s.07-1.01.07-1.01l5.59.03c.26,0,.35.7.28.98Z"/>
      <polygon points="95.79 123.96 94 124 94.02 121.97 95.78 122.02 95.79 123.96"/>
      <path d="M100.94,123.96h-3.08c-.11-.02-.17-.71-.02-.77s.48-.17.65-.18l2.28-.07c.23,0,.37.93.16,1.02Z"/>
      <path d="M90.98,124.78c0,.15-.79.32-.84.18l-.28-.84c-.05-.14-.54-.24-.69-.25-.2-.01-.27-.82-.08-.83l1.92-.08-.03,1.81Z"/>
    </g>
  </g>
</svg>