<?xml version="1.0" encoding="UTF-8"?>
<svg id="Layer_2" data-name="Layer 2" xmlns="http://www.w3.org/2000/svg" viewBox="0 0 506.84 328.3">
  <g id="Layer_1-2" data-name="Layer 1">
    <path d="M364.28,256.81c0-6.51-2.82-13.74-8.4-14.05-6.5-.36-9.86,7.07-9.92,12.78l-.32,35.84-30.75.25-.19-30.41c-.02-3.4-3-8.15-5.02-10.79-3.46-4.52-9.39-5.26-13.81-1.5-2.44,2.08-6.41,6.77-6.43,10.25l-.16,31.55-12.97.88c-.15-11.54.22-21.9-.47-32.66-.55-8.64-8.62-13.65-16.19-12.54-3.63.53-5.71,1.44-8.14,4l-7.84-5.31-.41-32.13-7.88-.42-.61-22.2c-.12-4.32-2.37-9.85-6.23-11.78-6.61-3.29-12.63,1.07-15.85,7.18l-.23-31.29c-.01-1.41-2.3-4.43-3.7-4.67-1.52-.25-3.21,1.44-5,3.82l-5.51-2.94c-51.9.4-103.02,4.62-153.9,14.65-12.38,2.44-23.17,5.66-35.09,9.91,19.41-16.96,140.1-28.18,166.16-29.2l23.74-.93.33-9.86,13.18,5.12,74.08-1.92c1.93,10.31-1.79,21.41.94,31.4,3.92,14.32,11.05,27.16,16.07,41.46l21.18,1.68c4.55,9.5.27,19.72,2.14,29.38,3.15,16.34,8.55,31.56,13.32,47.43l-1.76-55.37-2.02-33.94c-.42-7.13-1.6-21.85-10.59-21.41-9.98.48-7.56,21.01-8.42,28.55l-9.99.06c-1.39-35.23-3.97-15.7-15.98-37.23l-1.99-34.44-22.93.04-.03-13.55,27.83-.07c5.69-.01,10.98,3.37,14.56,7.12,3.92-5.1,9.1-7.35,14.91-7.27,5.58.07,11.07,2.79,14.89,7.53,9.07-9.19,17.94-6.21,26.87.34,3.7-2.61,8.39-4.8,12.96-3.88,3.05.61,6.76,4.27,9.67,6.74,3.38-1.68,7.79-4.14,11.45-3.76,3.91.41,7.06,2.62,9.73,6.93,6.44-7.15,13.52-1.86,19.18,1.09,4.8-.22,11.53-2.07,15.03,3.36,4.26-.88,8.96.91,12.87,2.46,3.49,1.39,6.52,1.98,10.01,4.19,4.27,2.7,13.38,3.65,14.66,10.77l3.49,110.28c.02.72-.87,2.36-1.27,2.83-6.57,7.77-.17-19.72-6.03-27.21-.47-.61-2.4,1.46-2.52,2.23-1.34,8.04-1.17,18.07-.85,26.11-.45,1.1-3.09,1.94-4.52,2.02l-.39-23.97c-.03-1.98-1.13-4.83-2.77-6.83-2.1,2.59-3.42,5.7-3.42,8.44l.05,23.3-3.76.75-.35-22.24c-.05-3.33-1.56-7.67-4.36-9.82-2.22.74-3.94,4.11-3.95,6.6l-.1,26.49c0,1.24-3.14,2.54-4.15,2.33l-.47-25.66c-.05-2.79-1.9-6.78-4.11-8.51-.91-.71-3.87-.32-4.48.62s-2.17,3.56-2.18,4.68l-.22,30.45c-.5.92-3,1.48-4.72,1.47l-.08-26.11c-.01-4.02-1.28-11.46-5.38-12.45-4.31-1.04-6.25,9.42-6.18,13.42l.48,27.08-6.58.22-.51-33.64c-.06-3.99-3.77-6.67-7-6.59s-6.59,3.05-6.65,7.08l-.51,35.56c-2.04.8-5.47.85-8.47.45l-.21-34.95c-.02-2.66-2.29-6.11-4.09-7.3-2.55-1.7-6.97-2.4-9.66-.65-2.12,1.38-3.86,5.14-3.91,7.83l-.61,37.32c-1.22,1.08-4.48,1.24-6.58.67l-.05-33.53ZM328.99,145.01l-.2-14.87-9.08.11.09,14.88,9.19-.12ZM382.99,149.12l-.27-15.31-10.59.17.09,15.68c4.02.05,7.85-.06,10.77-.54ZM422.83,158.43l-.02-17.49-6.95-.22v17.16s6.98.54,6.98.54ZM453.2,158.32l-.12-14.63-5.3.1-.04,14.36,5.46.16ZM362.33,177.29l-.38-17.27c-.09-4.17-4.6-6.7-7.84-6.53-4.13.22-6.13,3.66-6.34,7.92l-.79,16.11,15.35-.23ZM447.31,184.04c-.62-6.68,1.94-21.3-5.42-21.77-1.51-.1-4.28,2.31-4.35,4l-.8,17.76h10.57ZM276.02,236.09l.86-46.87c.17-9-7.08-15.22-14.84-15.28s-15.35,5.65-15.38,14.59l-.17,47.98,29.53-.43ZM364.34,220.7l-.4-29.91c-.07-5.3-4.3-10.66-9.6-10.93-3.85-.2-8.04,4.07-8.22,8.17l-1.42,32.87,19.63-.21ZM394.43,220.73c-.04-12.03.14-20.84-.43-31.09-.31-5.62-5.77-10.97-11.18-9.53-4.21,1.12-6.6,6.3-6.74,10.45l-1.08,30.24,19.43-.06ZM420.29,222.88l.3-29.45c.06-5.71-4.99-10.26-10.57-9.4-3.07.47-6.18,4.34-6.11,7.66l.65,30.87,15.73.32ZM439.91,223.38l-.13-25.13c-.03-5.62-4.38-13.1-9.37-11.47-1.58.52-4.08,3.62-4.09,5.45l-.15,30.7,13.75.46ZM459.04,224.36c.67-5.97,1.64-36.23-6.95-34.75-1.45.25-4.08,3.03-4.09,4.57l-.32,30.03,11.36.15ZM469.76,225.31l.49-21.11c.08-3.33-1.85-9.18-3.48-11.69-.52-.8-3.29-.77-3.77-.03-3.81,5.87-2.32,23.49-2.12,31.39l8.88,1.43ZM479.15,225.24v-23.66c-.01-2.43-1.1-5.22-4.02-5.35l-.35,27.97c.02,1.15,4.37,2.12,4.38,1.03ZM443.38,234.65c-1.46.41-4.71.55-6.19.53-.02-4.01-.84-5.55-4.35-5.48-1.81.04-3.19,1.6-4.75,3.97h-9.43c-.42-1.85-.15-4.6-1.16-4.68s-3.47-.16-4.49-.15-.89,2.98-1.05,4.74l-15.18.03c-.63-3.94-1.71-4.66-4.88-4.57-2.69.08-3.72,1.61-4.37,4.91l-15.69-.26-.51-4.46c-.09-.79-7.11-.74-7.14.18l-.15,4.02h-17.05s.22,5.87.22,5.87l83.26-1.04,49.95-1.61c-5.44-4.89-11.45.05-16.69-2.6l-2.01-3.23c-.51-.83-3.97-.44-4.09.52l-.49,3.91-6.67-.37c-.47-2.52-.45-4.92-1.56-4.9l-4.14.09c-.93.02-.61,4.16-1.4,4.57Z"/>
    <path d="M85.7,320.38c-24.43-3.4-66.65-11.14-85.7-25.81.66-1.25,1.24-2.3,1.63-2.89.49-.74,2.87.26,3.84.71,34,15.74,88.15,22.56,126.09,25.29,72.21,5.19,144.04,4.41,216.16-1.98,47.27-4.19,106.96-13.31,150.87-30.2,3.09-1.19,5.8-2.27,8.26,1.42-16.56,7.73-33.28,13.21-51.22,17.8-79.33,20.33-175.17,24.69-257.13,23.37-38.2-.62-75.13-2.47-112.8-7.7Z"/>
    <path d="M210.52,313.84c-50.63-.33-157.41-3.94-199.74-27.93-1.04-.59-.18-3.15.53-3.46.85-.37,2.45-.07,3.8.43,38.24,14.18,94.14,19.66,135.48,21.76,95.67,4.86,245.44,1.69,336.09-28.04,2.94-.96,5.12-1.71,7.95,1.62-15.44,6.18-31.02,10.88-47.78,14.78-74.08,17.22-160.09,21.33-236.33,20.83Z"/>
    <path d="M23.87,104.78l1.13-24.3c3.62,7.81-.02,14.3,2.26,21.74l7.04-5.85-.1-21.18c0-1.73,1.51-3.88,3.41-5.01l.38,23.08,9.56-4.86-.12-23.22c0-1.77,1.94-3.87,3.84-3.78l.83,24.19,13.2-5.72.09-25.23,5.26-2.36.29,25.72,18.47-7.21.34-23.09c.8-.73,3.48-1.45,4.34-1.31l.34,23.58,22.98-6.11-.08-25.3c.32-1.27,4.34-1.88,5.43-1.21l1.01,37.31-4.79,1.03c-1.09.24-1.64-2.55-2.25-4.4l-21.22,5.83-.75,3.4c-.29,1.33-.72,2.8-1.54,3.04s-3.36.21-3.45-.64l-.51-4.71-17.97,5.97c-.16,1.66.09,5.09-.92,5.54l-4.55,2.02-1.01-5.83-11.74,5.65c-.35,1.59-1.35,3.93-2.53,4.57-.96.52-2.16-1.34-3.33-2.91-13,6.31-5.64,2.03-11.68,9.53-3.77-3-10.04,3.75-10.38,7.47l-2.19-1.31-6.79,6.44-.82-23.14c-.04-1.12.98-3.08,1.92-3.95l.6,22.48,6.02-5.96Z"/>
    <path d="M55.88,107.03c32.5-10.6,65.02-17.39,98.52-21.06l4.5-.49c1.18-.13.71-4.96-1.1-4.83-38.04,2.67-78.22,10.94-113.98,24.75-11.16,4.31-19.55,9.35-28.37,15.64,10.56-14.26,38.6-24.46,54.55-29.25,29.24-8.77,58.66-13.83,89.14-16.66l.37-11.96,7.69,4.75-.07,26.59-7.93-4.09c-36.73,3.9-88.51,11.83-122.02,26.88-10.54,4.73-19.03,11.55-24.46,21-.11-14.7,31.42-27.42,43.17-31.26Z"/>
    <path d="M224.74,298.63l-23.07.1-.09-32.4c-.01-4.41,1.31-9.46,3.76-12.84,3.29-4.55,9.96-6.06,13.98-1.81,2.46,2.6,3.69,7.13,4.09,10.69l1.32,36.26Z"/>
    <path d="M52.21,31.46c-.66.31.9,3.28.34,3.73l-2.97,2.44c-.51.41-2.17,1.58-2.64,1.2l-2.9-2.37c-.99.64-3.69,2.61-4.75,3.54-.3,1.04.65,4.4-.28,5.09l-4.01,2.97c-2.1-2.85-2.74-2.9-4.6-1.19-4.09,3.76,3.52,3.42-2.14,8.18-.94.79-2.81-.37-4.24-1.85-.81.44-3.84,2.56-3.53,3.88l.88,3.72c.2.83-1.91,2.2-2.22,2.17-1.2-1.23-2.84-2.7-3.5-2-1.05,1.12-1.61,3.13-1.18,4.15l1.16,2.72c.29.67-1.25,1.96-1.9,2.43-1.21-1.26-2.56-2.72-3.17-3.71-.71-1.15.53-4.25,1.46-5.67,10.37-15.79,24.61-27.86,41.6-36.57C73.25,14.26,103.19,3.32,125.45,0l5.58,7.11c-6.54.43-12.21.81-16.76,2.51-.37,2.33-1.48,5.31-3.03,5.42-1.79.13-3.63.81-3.84.1l-1.23-4.09-9.51,2.13-.78,5.09c-.18,1.19-3.46,1.4-4.97,1.69-1.01.19-1.66-2.33-2.32-4.17l-8.82,2.83c.87,3.76.72,5.21-2.11,6.44s-3.79,1.07-5.86-2.85c-1.69.68-5.21,2.29-6.71,3.09.42,3.01.3,4.41-1.91,5.42s-3.29.61-5.19-1.98l-5.76,2.71Z"/>
    <path d="M182.27,296.12l-23.07-.06-.11-30.69c-.02-4.84,1.55-10.04,4.94-13.31s9.08-4.15,12.71-.66c2.28,2.19,4.41,6.82,4.5,10.16l1.02,34.56Z"/>
    <path d="M145.56,294.69l-23.1.17-.22-30.53c-.03-4.08,1.72-8.8,4.3-11.79s7.6-3.94,10.74-2.83c2.67.95,6.37,5.06,6.54,8.61l1.74,36.37Z"/>
    <path d="M108.81,293.46l-19.93-1.86-.21-34.02c-.02-3.26,2.42-7.5,4.54-8.95,2.95-2.02,7.79-2.96,11.07-1.04,2.86,1.67,4.13,5.57,4.51,8.74l.02,37.14Z"/>
    <path d="M149.02,139.87l-23.22,1.28c.68-11.16-3.43-31.53,4.79-38.01,3.08-2.43,7.76-3.21,11.51-1.41,3.06,1.47,4.93,5.42,5.69,8.56l1.23,29.58Z"/>
    <path d="M182.64,212.66l-22.9-.04.04-29.12c0-3.3,2.65-7.29,4.7-8.99,2.48-2.06,7.5-3.08,10.64-1.66,4.03,1.83,5.93,6.43,6.13,10.55l1.41,29.25Z"/>
    <path d="M232.33,232.01l-109.83,2.14c-38.12.74-75.04,1.8-113.73-.13,9.82-4.57,19.78-2.61,29.82-2.75l106.9-1.51,96.75-.39c-2.49,3.16-6.16,2.57-9.92,2.64Z"/>
    <path d="M9.1,225.59c-.72-.97-1.47-2.01-1.07-2.21s1.99-.92,2.62-.93l125.73-1.71c35.89-.49,70.06-2.28,106.06.52-45.01,3.89-87.81,3.79-131.94,3.96l-101.41.38Z"/>
    <path d="M146.12,212.71l-23.06-.09.11-29.31c.01-3.64,3.17-7.88,5.57-9.41,2.89-1.84,8.44-2.48,11.41-.28,3.71,2.74,4.7,7.39,4.87,11.67l1.08,27.42Z"/>
    <path d="M478.48,148.39c-10.6-5.67-20.44-10.06-31.85-13.1-41.82-11.12-122.15-19.13-165.06-18.02l-15.05.39.54-4.94c38.08,1.22,75.24,3.01,113.32,6.83,21.66,2.17,85.64,10.13,98.09,28.84Z"/>
    <polygon points="156.28 61.32 136.36 62.66 129.93 10.11 139.9 16.14 156.28 61.32"/>
    <path d="M110.67,214.49l-19.17.37-.34-27.47c-.08-6.22,4.3-10.65,10.38-11.17,4.95-.42,9.48,2.84,9.43,8.17l-.3,30.09Z"/>
    <path d="M113.31,142.83l-19.12,2.61-.32-27.78c-.07-6.42,4.6-10.71,10.82-10.91,4.34-.14,8.94,2.73,8.89,7.74l-.27,28.33Z"/>
    <path d="M80.77,289.75l-16.85-1.93-.02-27.52c0-3.62,2.26-8.19,4.73-10.7,1.72-1.74,5.8-2.47,7.71-1.63,1.75.77,4.24,4.23,4.25,6.37l.17,35.4Z"/>
    <polygon points="246.56 258.36 264.69 297.94 241.39 298.12 241.44 247.22 248.67 252.41 246.56 258.36"/>
    <polygon points="220.67 212.15 199.25 212.35 199.4 165.9 207.35 175.74 220.67 212.15"/>
    <path d="M85.8,147.05l-16.45,2.84.11-27.44c.02-5.62,4.29-10.88,10.06-11.11,3.44-.14,6.07,3.8,6.09,6.98l.18,28.73Z"/>
    <polygon points="181.48 138.31 161.11 138.44 159.75 98.27 170.57 104.55 181.48 138.31"/>
    <path d="M83.63,214.6l-16.19,1,.2-25.2c.03-3.78,2.29-8.27,5.41-10.32,1.67-1.1,5.71-1.31,7.27-.44,1.47.82,3.15,3.82,3.16,5.69l.16,29.27Z"/>
    <path d="M63.75,150.65l-13.74,2.82c.38-7.63-2.82-35.57,7.06-37.08,2.06-.31,6.05,2.86,6.11,5.55l.57,28.72Z"/>
    <path d="M165.47,158.51c-39.8,1.68-78.3,5.65-117.3,12.32-11.53,2.71-21.62,5.75-32.98,9.26,11.95-6.74,25.14-9.49,38.99-12.07,36.28-6.77,72.21-10.11,109.2-12.44,7.04-.44,31.04-1.13,35.54.86.47.21-.33,2.25-1.15,2.23-8.75-.21-22.17-.6-32.31-.17Z"/>
    <path d="M57.05,286.14l-13.05-1.43.31-27.39c.03-2.7,2.2-7.46,4.31-8.53,4.49-2.27,7.05,2.06,8.21,5.87l.22,31.48Z"/>
    <path d="M59.21,216.39l-13,.18v-23.32c0-2.97,1.39-7.52,3.11-9.9.9-1.24,4.92-1.66,6.1-.82,6.45,4.54,3.4,23.92,3.78,33.86Z"/>
    <path d="M39.24,284.55l-10.92-2.19.11-22.08c.01-2.84,1.5-7.42,3.04-9.83.66-1.03,4.1-1.47,4.96-.64s2.58,3.21,2.59,4.63l.22,30.1Z"/>
    <path d="M238.25,297.63l-7.03.38-.06-48c1.92-.32,4.57-.38,7.03-.28l.06,47.9Z"/>
    <path d="M45.24,154.36l-9.78,3.78-1.06-15.81c-.36-5.35.29-19.36,6.6-20.07,1.33-.15,3.86,2.63,3.88,4.27l.36,27.83Z"/>
    <path d="M40.86,216.45l-9.95,1.13-.47-19.34c-.1-4.1,1.23-13.75,6.42-13.59,1.27.04,3.66,2.51,3.67,4.08l.32,27.72Z"/>
    <path d="M194.68,295.49c-1.04,1.3-4.22,1.4-6.43.69l-.06-46.03c1.66-.56,4.08-.63,6.46-.41l.03,45.75Z"/>
    <path d="M153.15,296.46l-4.93-.24.07-46.5c0-1.31,4.82-1.23,4.82.24l.03,46.51Z"/>
    <path d="M117.7,293.68c0,1.47-3.72,1.65-4.86,1v-45.54c1.76-.02,3.71.09,4.9.3l-.03,44.25Z"/>
    <path d="M117.7,210.88c0,.69-2.14,1.87-2.75,1.7-.81-.24-1.54-1.76-1.56-3.14l-.35-37.19c-.02-1.79-3.02-5.48-1.36-6.84,1.31-1.07,4.5-1.47,6.66-.54,1.84.79-.36,4.94-.37,6.83l-.27,39.19Z"/>
    <path d="M193.85,209.81c0,2.18-4.04,2.46-4.04.69l-.12-39.94c0-.52.88-1.57,1.3-1.76.63-.27,2.84,1,2.84,1.96l.03,39.05Z"/>
    <path d="M154.74,102.19l.02,36.26c0,.71-1.08,2.29-1.77,2.34s-1.74-1.59-1.75-2.46l-.23-37.86c-.01-1.81-2.87-5.67-1.18-6.53s4.57-1.93,5.82-.82c1.67,1.48,1.7,6.73-.87,6.7-3.39-.81-2.14.58-.04,2.36Z"/>
    <path d="M153.14,212.33l-4.06-.23.08-39.41c0-.99,3.98-.9,3.98.07v39.57Z"/>
    <path d="M23.23,280.19c-.49.71-4.71-.73-4.74-1.98-.09-3.23-2.18-31.88,4.4-29.08l.35,31.05Z"/>
    <path d="M30.49,158.04c0,1.64-3.23,3.5-4.97,3.56l-.08-24.25c0-2.16,1.33-4.61,3.2-7.44,1.01,1.76,1.89,3.9,1.89,5.35l-.04,22.78Z"/>
    <path d="M25.18,216.59c-.94.57-3.55,1-4.85.93l.02-23.08c0-2.73,1-5.93,4.53-6.26l.31,28.4Z"/>
    <path d="M119.89,141.16c0,1.33-3.02,1.69-4.28,1.18l.11-33.81c.92-.43,4.13-.05,4.13,1.06l.04,31.57Z"/>
    <path d="M86.75,176.32c2.94,12.67.26,24.84,1.54,37.12l-1.32,1.93c-2.62,3.84-2.36-38-.22-39.05Z"/>
    <path d="M60.76,250.37c3.15,11.74.35,23.6,1.6,35.05l-.78,2.11c-3.18,8.63-2.95-37.9-.82-37.16Z"/>
    <path d="M64.4,180.53c-.34,11.44,1.38,24.95-1.17,36.11-3.82-11.54-.2-24.09-1.78-35.16-.09-.61,2.97-1.5,2.96-.95Z"/>
    <path d="M91.02,144.61c-.65.34-2.11.66-3.57.82v-31.99s3.53.54,3.53.54l.04,30.63Z"/>
    <path d="M67.45,149.34c0,.72-2.71.36-2.72-.61l-.18-28.25.52-1.89c.1-.37,2.32.59,2.32.93l.06,29.82Z"/>
    <path d="M83.56,64.12c0,1.63-4.51,3.11-6.27,3.24l.07-13.93c0-1.76,4.39-3.15,6.28-3.04l-.08,13.73Z"/>
    <path d="M84.46,292.03c-1.57-14.65-1.56-28.84-.01-44.26,1.71,14.43,1.72,28.81.01,44.26Z"/>
    <path d="M121.91,28.85c-.02,1.36-4.16,2-5.42,1.53l-.17-10.19c1.27-.53,4.01-.87,5.75-.88l-.17,9.54Z"/>
    <polygon points="109.2 32.24 104.08 33.89 103.89 23.75 108.97 22.32 109.2 32.24"/>
    <path d="M81.82,40.78c-.16,1.27-4.39,2.34-5.02,2.17l.26-9.37,4.9-1.94c.11,2.04.18,6.66-.14,9.14Z"/>
    <path d="M45.23,79.66c.03,1.2-2.99,2.95-3.84,2.79l-.76-11.88,4.3-2.51.29,11.6Z"/>
    <path d="M20.66,163.1c-.29.53-1.79,2.14-2.15,2.42.82-10.1-1.91-19.51,1.66-29.33l.49,26.92Z"/>
    <path d="M86.55,104.84c2.03-1.02,5.74-1.03,6.51.28s.66,4.82-.38,5.92-4.86,1.15-5.99.13c-1.29-1.16-1.69-5.55-.14-6.33Z"/>
    <path d="M90.02,38.48l-.16-10.35,4.83-1.73.02,8.99c0,1.1-2.44,2.32-4.68,3.09Z"/>
    <path d="M41.33,182.84c-2.19.09-3.92-6.14-1.74-7.01,1.16-.47,4.24-.65,5.54-.53s1.53,2.57,1.6,4.69c.05,1.5-1.86,2.7-5.4,2.85Z"/>
    <path d="M63.56,109.62c1.3-.93,5.86-.89,6.33.44.53,1.52.37,4.03-.38,5.45-.94,1.81-5.3,1.8-6.32.54-1.08-1.35-1.05-5.41.37-6.42Z"/>
    <path d="M59.38,171.93c1.4-1.18,6.13-1.12,6.52.24.46,1.6.37,4.01-.41,5.42-.88,1.59-4.6,1.78-5.76.98-1.39-.95-1.89-5.34-.35-6.65Z"/>
    <path d="M116.08,245.93c-1.51.45-4.86,1.05-5.18-.05s-.82-3.4-.99-4.62c-.17-1.14,2.68-2.17,4.34-2.37,1.36-.17,3.47,1.04,3.74,2.23.34,1.49-.74,4.46-1.91,4.81Z"/>
    <path d="M145.74,242.06c-.18-1.76,4.89-2.42,6.78-1.83,1.22.38,1.8,5.2.65,5.78s-2.85,1.04-4.4,1.43c-1.33.33-2.77-2.74-3.03-5.38Z"/>
    <path d="M89.46,173.1c-.7,3.13-5.08,2.48-6.62.42-1.26-1.69-1.18-5.38,1.64-6.27,1.07-.34,4.09-.1,4.83.57.89.8.72,2.76.15,5.28Z"/>
    <path d="M149.51,169.82c-1.01.08-2.36-2.39-2.58-3.47s.39-3.47,1.45-3.67c1.81-.33,4.26-.48,5.24,0s1.02,2.81,1.17,4.29c.13,1.28-2.34,2.62-5.27,2.85Z"/>
    <path d="M193.26,247.1l-5.67-.16c-.35-2.71-.4-6.21,1.02-6.53,1.78-.41,4.21-.7,5.35.21,1.39,1.12,1.22,6.54-.69,6.48Z"/>
    <path d="M237.4,241.22c.23,2.23.33,4.7-.17,5.44-.63.93-2.93.83-5.26.66-1.77-.13-2.05-4.85-.68-6.27,1.19-1.24,5.91-1.66,6.1.18Z"/>
    <path d="M119.28,106.24c-1.76.19-3.97.64-4.11,0l-.86-3.81c-.14-.63-.22-2.19.09-2.53.5-.55,6.66-2.38,7.63,1.24.45,1.69-1.27,4.94-2.75,5.1Z"/>
    <path d="M188.62,160.74c1.06-.99,5.27-.85,5.71.4.52,1.46.71,5.25-.61,6.06-1.13.7-4.12.4-5.34-.13-1.52-.67-1.55-4.67.24-6.33Z"/>
    <path d="M47.09,122l-2.91.14c-1.07.05-1.36-6.15-.1-6.47l4.3-1.08c1.22-.31,2.72,2.23,2.73,3.5,0,1.91-2.16,3.81-4.02,3.91Z"/>
    <path d="M69.88,45.3c-.13.76-2.58,1.99-3.33,2.09-.94.13-1.53-2.86-1.4-3.82l.66-4.94c.15-1.15,2.57-1.24,4.16-1.5.13,1.87.24,6.31-.09,8.17Z"/>
    <path d="M59.59,50.56c-.11.51-2.49,1.32-2.94,1.58-.6.35-.99-1.52-1.16-2.65-.5-3.23-.29-6.11,3.89-6.52.32,1.79.6,5.77.22,7.59Z"/>
    <path d="M39.64,61.47c-.39-5.31-1.49-7.17,2.78-9,.7-.3,1.4,1.92,1.44,2.86.14,3.13,0,5.2-4.21,6.14Z"/>
    <path d="M46.94,57.13c-.92-10.31,3.4-8.97,3.35-9.17l.6,2.4c.8,3.17.31,6.19-3.96,6.77Z"/>
    <path d="M274.66,234.46l-27.17-.02.04-27.74,5.31-.34c1.69-.11-.08-6.27,4.43-9.73,1.37-1.05,5.76-1.22,6.84.24,2.06,2.8,2.47,5.92,3.04,9.55l7.35.32.15,27.71ZM261.03,208.38c.07-1.23,1.43-3.82,2.12-5.07l-1.87-5.51-4.59,5.56c1.04,1.23,2.53,4.15,2.55,5.67l.03,2.35c0,.39,1.58.45,1.6.06l.16-3.05Z"/>
  </g>
</svg>