<?xml version="1.0" encoding="UTF-8"?>
<svg id="Layer_2" data-name="Layer 2" xmlns="http://www.w3.org/2000/svg" xmlns:xlink="http://www.w3.org/1999/xlink" viewBox="0 0 271.62 575.42"><style>path,polygon,circle,rect,ellipse,line,polyline { fill: #D4AF37 !important; stroke: #D4AF37 !important; }</style>
  <defs>
    <style>
      .cls-1 {
        fill: url(#linear-gradient);
      }
    </style>
    <linearGradient id="linear-gradient" x1="135.85" y1="152.35" x2="135.81" y2="578.4" gradientUnits="userSpaceOnUse">
      <stop offset="0" stop-color="#BF9106"/>
      <stop offset="1" stop-color="#947105"/>
    </linearGradient>
  </defs>
  <g id="Layer_1-2" data-name="Layer 1">
    <path class="cls-1" d="M271.62,575.36l-271.62.06c14.82-15.47,34.72-13.26,53.47-18.7,4.37-33.11,9.02-66.79,11.3-100.49.48-7.11.15-7.59,3.22-14.39,5.45-12.07,4.91-33.3,5.67-46.85.1-1.74-2.24-6.32-2.39-7.86-.19-1.94,4.19-4.36,5.37-6.14,2.58-15.4,4.19-33.92,4.4-47.57.04-2.29-3.26-6.19-2.44-7.56s5.28-4.24,5.63-5.93c2.51-12.1,4.27-31.48,4.4-44.94.02-1.83-2.01-6.12-2.43-7.81s4.9-4.6,5.24-6.36c2.61-13.3,4.69-32.12,3.28-46.01-.75-7.34.55-8.23,2.72-14.36,4.41-12.48,4.91-29.33,3.78-42.65-.57-6.78.06-8.03,2.17-13.68,6.37-17.12,4.75-36.25,4.47-54.85,7.69-5.17,14.11-7.64,23.46-10.44l2.85-20.39c1.35-9.67,1.76-20.04,1.69-30.04-.03-3.68-3.94-10.95-2.13-14.46,1.67-3.23,7.21-7.74,11.51-8.99,28.02-8.15,56.48-5.57,84.21,2.68,10.15,3.02,20.08,8.19,26.04,16.75,4.12,5.92-4.41,11.38-5.03,15.73-2.49,17.27-3.97,34.3-5.16,51.2l17.94,10.33c1.8,1.04,4.08,5.64,4.13,7.39-.13-4.14-10.62,25.65-8.26,50.4.7,7.39,1.14,9.03-1.11,16.2-3.88,12.37-5.55,30.37-5.44,42.83.01,1.64,4.17,5.4,3.49,6.66l-3.92,7.28c-7.39,13.73-3.45,54.92-4.82,59.38-4.4,14.27-8.18,32.37-6.05,46.86.99,6.78,1.47,7.66-.59,14.34-4.24,13.79-7.04,31.54-5.3,45.76.72,5.93,2.17,7.26.25,13.43-4.14,13.34-7,34.73-6.95,48.16,0,1.95,3.56,5.91,4.53,7.19s-4.09,4.59-4.33,6.68l-9.56,82.1c17.24,6.21,36.79,2.52,52.32,19.05ZM199.78,47.51l-1.48-18.53c-.14-1.74-5.1-4.22-6.74-3.39-1.37.69-4.49,3.77-4.63,5.38l-1.49,16.68,14.35-.13ZM170.76,76.94l1.84-26.9c.22-3.19-5.2-8.74-8.25-9.33-13.72-2.67-12.9,25.7-14.22,35.9l20.63.33ZM228.58,84.98l1.96-26.98c.24-3.31-3.97-8.38-6.75-9.62s-11.59.39-11.93,3.55l-3.13,28.55,19.85,4.5ZM153.54,138.74l2.75-42.81-9.32-.44-5.57,43.2,12.15.06ZM171.88,139.83c-1.16-8.1,10.4-55.37-7.24-43.92l-6.1,42.5,13.34,1.41ZM136.54,138.49c1.16-11.9,2.17-28.43,2.38-39.97.04-1.96-6.12-2.83-6.7-1.26-.46,1.24-1.3,3.82-1.48,5.2l-4.83,36.74,10.63-.71ZM190.15,140.46c1.58-13.16,2.9-29.6,2.71-41.52-1.03-2.19-8.19-2.66-9.99-1.2-2.7,12.97-4.63,27.73-5.69,42.07,4.42,1.21,9.38,1.54,12.96.65ZM123.51,99.55c-1.54-.82-6.14,1.2-6.33,2.88l-4.37,38c12.83,10.58,10.17-37.55,10.7-40.88ZM208.26,145.02l2.75-37.85c.16-2.13-1.4-6.47-3.03-7.56-11.19-7.5-10.58,38.23-12.22,43.17l12.5,2.25ZM224.45,148.22l3.52-39.74c.15-1.64-2.3-4.88-3.46-5.57-9.34-5.57-9.28,36.76-10.84,42.61l10.78,2.7ZM238.88,151.66l3.67-38.27c.17-1.73-1.53-5.12-2.54-6.25-7.06-7.96-10.16,39.78-10.02,41.87,1.34,1.73,7.31,3.13,8.89,2.66ZM252.4,111.29c-6.59,2.09-10.04,40.48-6.15,44.56,8.13,8.51,8.09-40.57,6.15-44.56ZM130.28,195.97c-.67-.55,7.47-52.43-3.28-41.07-.92.97-2.63,3.68-2.86,5.63l-4.32,37.18c3.52-.15,7.63-.78,10.46-1.74ZM146.91,197.19c1.65-13.08,2.87-28.18,2.37-40.69-.1-2.61-8.42-2.25-8.7-.04l-5.23,40.94,11.56-.21ZM165.18,198.58c1.67-14.86,2.84-28.73,2.27-42.26-.1-2.26-9.26-1.9-9.6.43l-5.79,40.81,13.11,1.02ZM114.35,198.44c1.48-11.06,3.49-31.97,1.88-41.05-.21-1.18-5.1,1.46-5.24,2.65l-4.3,38.03,7.65.37ZM184.29,200.14l2.43-42.65-10.62-.79-5.75,42.01,13.93,1.43ZM202.24,202.93l2.49-41.99c-1.52-1.84-8.06-2.69-9.68-.97l-5.75,41.44,12.94,1.52ZM218.26,206.97l3.07-37.76c.16-2-1.28-5.41-2.52-6.77-.98-1.07-6.32,1.03-6.53,2.66l-4.88,38.67,10.86,3.2ZM232.68,209.85l3.63-37.12c.14-1.45-.58-4.25-1.4-5.27s-4.53-.26-6.12.41c-2.17,11.44-4.35,27.4-5.22,39.35,1.9,1.43,7.48,2.81,9.11,2.63ZM244.97,213.1l3.25-34.24c.36-3.81-.29-6.52-4.75-7.91-2.65,12.36-4.75,28.32-5.47,40.31-.12,1.99,6.83,3.35,6.97,1.84ZM123.21,256.81c-.47.16,8.32-54.29-2.8-42.41-1,1.06-2.81,4.03-2.98,5.57l-4.23,37.02,10.01-.17ZM140.39,256.75c-.31-2.77,8.75-54.56-3.81-43.08-1.2,1.09-3.22,4.23-3.41,5.97l-4.1,37.36,11.32-.25ZM158.71,258.05c-.5-9.02,11.3-55.06-7.2-41.73l-5.67,41.07,12.87.66ZM106.75,214.52c-4.63,14.62-5.5,28.85-6.57,43.51,2.48.37,5.06.53,6.34-.46,1.64-1.27,8.26-41.29.23-43.05ZM177.87,260.29l2.69-42.64c-1.51-1.36-9.49-2.08-10.29-.04-2.68,11.61-4.75,27.92-5.95,41.16l13.55,1.52ZM196.06,263.22l2.85-42.19c-2.4-1.6-7.52-2.33-9.85-1.37l-5.84,41.9,12.85,1.66ZM212.15,267.04l3.29-37.7c.2-2.27-1.32-5.78-2.64-7.16-1.07-1.12-6.63,1.14-6.88,3.07l-5.01,38.75,11.24,3.04ZM226.86,268.96l3.28-35.97-.71-5.89c-.17-1.43-6.74-.6-7,.8-1.81,9.96-4.05,27.93-4.67,39.27.02,2.1,8.77,3.78,9.09,1.8ZM239.35,274.3l3.26-38.34c.1-1.21-.65-3.83-.94-4.74-5.33-16.9-10.51,42.25-10.61,40.67,3.5,1.77,5.6,2.41,8.29,2.41ZM116.78,317.47l2.67-40.48c.12-1.81-6.99-3.24-7.47-1.6-.39,1.34-1.07,3.69-1.34,6.1l-3.81,34.62c-.23,2.08,6.75,2.53,9.95,1.36ZM133.79,316.53c1.58-11.53,2.96-29.36,2.95-39.23,0-1.99-6.27-3.94-7.47-2.72s-2.51,3.77-2.76,5.89l-4.31,37c2.33,1.06,9.61,1.1,11.59-.94ZM152.42,319.32l2.49-42.28c-15.49-13.27-12.57,31.74-15.64,41.78l13.15.5ZM103.83,278.46c0-1.27-5.45-2.51-5.85-1.24s-1.29,4.26-1.44,5.64l-3.96,35.59c12.42,10.1,11.24-34.83,11.26-39.99ZM171.52,321.83l2.99-38.38c.25-3.22-4.09-7.37-7.18-6.85-2.08.35-4.68,3.79-4.98,6.27l-4.61,37.36,13.79,1.61ZM189.38,324.29l3.16-42.99-10.41-1.41-5.57,42.63,12.82,1.77ZM205.64,327.53c1.65-14.47,3.05-29.48,3.2-42.53.02-2.24-8.21-2.65-8.59-.57-2.39,13.05-4.15,27.79-5.01,41.12,3.22.81,7.39,1.56,10.41,1.98ZM220.45,330.91l2.96-35.95c.12-1.5-.21-5.24-.36-6.79-.14-1.46-6.16-1.33-6.44.1-.8,4.07-8.65,42.24-2.61,42.43l6.44.21ZM233.1,335.33l3.73-37.49c.13-1.35-.53-3.99-.79-5.03-.18-.7-3.84-.53-5.28-.32.4,3.93-12.01,50.48,2.34,42.84ZM127.15,379.7l3.33-41.5c.2-2.48-8.95-4.26-9.45-1.77-2.9,14.34-4.67,28.09-6,42.39l12.13.88ZM91.3,336.98c-.47,1-1.8,4.09-1.96,5.4l-4.12,34.82c-.24,2.01,6.59,3.58,7.47,2.25,4.36-6.54,6.5-59.1-1.39-42.47ZM109.65,378.26l3.26-40.03c.13-1.66-5.41-4.17-6.47-2.94s-2.71,4.45-2.91,6.25l-4.26,37.32,10.39-.59ZM145.92,381.07l3.18-42.4c-1.28-2.34-8.9-3.27-10.38-1.14-2.57,12.74-4.72,28.21-6.08,42.14l13.28,1.4ZM164.91,383.56c-.94-11.6,10.94-54.92-7.27-44.15-2.68,12.54-4.78,27.95-6.2,42.25l13.46,1.9ZM182.98,385.98c1.39-14.66,2.51-31.25,2.38-42.3-.04-3.15-9.26-3.67-9.76-.78-2.1,11.9-4.08,27.75-5.21,41.4l12.6,1.68ZM199.46,389.93l3.49-38.44c.18-2.04.03-6.56-1.59-6.73l-6.88-.73c-2.88,12.65-4.93,28.19-5.75,42.06,2.89,1.39,7.05,2.76,10.72,3.84ZM214.39,390.65l3.07-36.46c.11-1.32-.76-4.43-1.14-5.64s-5.83-.41-6.09.71c-13.29,58.68,4.2,40.83,4.15,41.39ZM227.29,393.52l3.35-35.37c.13-1.33-.71-4.09-1.03-5.02s-4.88-.07-5.05.86c-11.26,59.67,2.81,38.74,2.73,39.54ZM86.88,396.78c-6.28-5.8-8.83,41.43-9.39,44.64-.01,1.89,7.61,2.74,8.11.92,1.51-5.52,6.33-40.91,1.28-45.56ZM102.25,441.79c1.66-11.99,3.1-31.02,2.97-43.02-.02-1.85-6.06-3.64-6.71-2.18-3.1,7-6.03,34.76-6.68,45.35,1.67,1.86,8.98,1.95,10.43-.15ZM119.7,443.74c1.87-15.24,3.27-30.91,2.99-44.9-.05-2.49-8.55-2.69-8.93-.54-2.67,15.28-4.48,29.77-6.06,45.2l12,.23ZM139.12,445.63c-1.03-12.41,11.69-58.03-6.97-46.29-3.56,13.38-5.4,29.25-6.53,45.09l13.5,1.2ZM157.66,447.72c1.8-15.36,3.27-30.88,3.13-44.87-.67-2.32-8.57-3.21-10.45-1.45l-6.02,44.61,13.33,1.7ZM176.22,449.65c1.7-16.39,3.16-31.36,3.09-44.46-14.99-15.76-13.22,34.87-16.02,43.14,3.81,1.11,7.8,1.47,12.93,1.32ZM193.19,452.91l3.39-44.04c.17-2.23-8.18-4.15-8.67-1.93-3.03,13.46-4.96,29.99-6,44.6l11.29,1.37ZM208.04,454.34c1.97-13.04,3.18-28.58,3.52-42.23.04-1.7-6.9-3.01-7.37-.95-2.58,11.4-4.91,29.73-5.53,42.21.99,2.15,9.03,3.32,9.38.97ZM220.84,458.03c.7-15.74,5.28-29.54,1.09-45.8-5.79.8-11.8,47.11-6.07,46.41l4.98-.61ZM102.75,551.35l6.27-55.71c.43-3.81,1.55-24.63-.79-27.54-2.54-3.15-9.32-4.45-12.43-2.7-2.42,1.36-4.62,6.57-5,9.48l-1.44,11.17-8.4,67.05,21.79-1.76ZM74.95,465.14c-4.49,10.62-11.36,85.73-10.85,90,3.45,28.89,18.64-96.02,10.85-90ZM140.59,550.58l6.65-58.33c-.47-4.45-.49-8.27-.06-12.89.58-6.31-4.68-11.34-10.63-11.84-5.06-.42-10.95,3.42-11.51,8.59-.52,4.75-1.18,8.34-2.36,12.6l-7.51,62.17,25.43-.31ZM176.85,551.81l6.19-55.88.66-10.56c.41-6.63-2.89-12.11-9.22-13.15s-11.21,3.29-12.21,9.67l-1.65,10.51-6.95,58.46,23.17.94ZM204.61,553.56l7.68-65.76c.44-3.81-4.27-9.57-7.51-9.24-3.05.31-6.52,3.94-7.02,6.84l-2.52,14.43-6.12,52.68c4.68,1.46,10.85,1.89,15.49,1.05Z"/>
  </g>
</svg>