<?xml version="1.0" encoding="UTF-8"?>
<svg id="Layer_2" data-name="Layer 2" xmlns="http://www.w3.org/2000/svg" viewBox="0 0 734.01 680.8"><style>path,polygon,circle,rect,ellipse,line,polyline { fill: #D4AF37 !important; stroke: #D4AF37 !important; }</style>
  <g id="Layer_1-2" data-name="Layer 1">
    <path d="M709.64,391.93l-243.43-.15-33.02-15.51-.04-19.65-18.32-.16-1.9,10.34c-22.05-11.33-33.86-5.73-40.26-34.33,41.34-1.02,80.56.15,122.01.32l214.27.87,19.87-.57-5.53,11.18-.24,47.68h-13.42ZM509.31,342.35c-2.4-.52-8.47.1-10.54.91-1.4.55-1.53,6.28-.05,6.68,3.94,1.1,7.54,3.17,12.93-1.33.96-.8-1.05-5.99-2.34-6.27ZM674.72,377.73l-.26-32.92-27.7-.1-.11,33.09,28.06-.08ZM520.19,377.62l-.45-19.79-29.56.37.33,19.34,29.68.08ZM583.8,377.17l-.24-19.2-18.64-.14-.08,19.29,18.96.05Z"/>
    <path d="M319.14,356.42l-17.72.18-.77,20.23-33.83,15.12-255.94-.17v-47.6s-6.72-11.11-6.72-11.11l23.36.59,206.39-.88c43.17-.18,84.19-1.41,127.2-.18-5.98,26.23-18.39,23.5-39.75,34.4l-2.21-10.59ZM235.19,344.81c-4.5-4.49-12.71-4.08-13.48,1.51-.45,3.31,5.44,5.33,8.67,5.14,2.66-.15,6.56-4.91,4.81-6.65ZM87.28,377.76l-.34-33.1-27.61-.08-.06,33.17h28.02ZM169.39,376.7l-.36-18.78-19.19.05.18,19.32,19.37-.59ZM243.95,377.63l-.38-19.27-29.71.08.24,19.17,29.85.02Z"/>
    <path d="M255.27,291.84l5.58-6.44,9.64,8.98-5.41,23.29c3.44,2.56,14.09,3.75,16.37.52,6.01-16.51-4.29-15.33,7.98-35.99l5.41,14.71c1.78,4.84-.92,13.88-2.3,22.66l35.17.38-3.9-33.21c2.35-1.67,2.7-1.66,4.73-.5l6.75-2.4c.75,5.49,2.36,11.43,2.78,16.33l1.68,19.63,18.78-.04.22,9.98-341.21.21c-20.85.01,3.46-8.76,1.04-18.38-2.62-10.4-1.23-18.04,7.19-25.98,2.06,4.31,4.89,10.5,4.79,13.93l-.55,19.08c9.66-2.47,5.04-11.63,5.75-16.04,11.38,2.54,24.07-15.69,25.36-25.75l11.3-8.71,12.22,8.45c1.66,10.66,8.11,19.13,15.96,25.1l11.81-1.42c-2.86,4.4-5.63,9.05-4.82,12,.98,3.55,5.23,6.75,9.08,7.97,3.68-28.97-6.45-16.41-3.21-32.25,2.15,1.85,4.03,4.11,4.47,3.34l2.36-4.13c.58-1.02,3.16-4.03,3.76-3.04l2.09,3.43c13.22,21.73-2.34,17.66,6.82,33.11l48.38-.75c21.31-.33-1.99-12.84,13.78-34.88l8.04,11.04-2.18,23.75,48.17.44c15.67.14,1.67-18.89,6.12-28.41Z"/>
    <path d="M335.27,283.84c-2.01-2.96-4.64-3.51-7.78-2.63-4.24,1.18-7.01,6.5-6.39,10.23l4.04,24.41-29.66-.05c4.05-8.59.03-33.87-1.29-33.9l-7.69-.16-7.22,14.24c1.73,8.12,1.5,15.16-.83,22.23l-10.06-.79,4.95-25.79c-4.7-1.98-7.51-3.66-12.01-10.42l-6.06,10.64c-2.14,1.01-4.19,4.97-3.91,7.14l2.53,19.05-16.36-1.11-1.1-38.73-.66-10.76,16.58-2.6-1.12-19.92c35.8-9.56,72.61-11.87,110.23-11.67,40.92.21,81.19.2,121.07,11.91l-1.15,19.78,17.11,2.69c-1.82,17.45-2.08,30.47-2.09,48.99l-15.75,1.46,3.93-17.44c.73-3.26-4.31-9.82-7.13-10.42,8.34,16.5,1.29,12.48-.13,26.49-.2,2,5.63,3.68,7.71,3.66l48.4-.55c.43-13.37-9.12-23.13,6.69-35.55,10.39,30.38-1.71,16.4,4.93,35.45l58.44,1.02c.4-8.76-.19-13.16-1.52-21.41l7.78-16.76,11.07,14.35c2.68,3.48,11.94,5.37,15.2,2.36,7.79-7.19,11.75-14.1,13.43-23.18l11.06-7.96,11.97,8.32c2.17,11.76,13.98,26.05,24.74,27.84,2.31,2.96,1.04,13.48,7.03,13.95-1.13-11.82-3.06-22.7,3.28-32.31,10.48,7.6,8.31,20.72,7.56,31.72,4.06,2.83,9.29,6.6,7.97,12.29l-348.01-.18.7-9.89,16.98-.56c-2.68-15.26,8.67-10.39.79-22.83l7.24-14.95c6.28,8.22,6.77,14.1,6.67,22.23l-.2,16.12,32.48-.08-4.26-23.04c3.95-3.4,5.1-6.51,5.23-13.05,24.32,13.84-4.54,41.8,25.17,35.8,2.93-8.1,1.55-19.15-2.66-26.48l5.99-2.45c1.47-.6,1.86-3.76,2.93-7.03l4.49,6.47.66-5.17c.2-1.59-4.7-3.11-5.81-2.54l-9.61,9.87c.52,5.57,2.02,17.33,1.49,22.83-.17,1.78-8.19,2.05-8.77.36-5.7-16.69,4.83-9.1-4.23-27.67-1.41-2.89-9.57-8.82-10.95-5.57l-6.17,14.57,3.38,19.02-27.56.02c4.32-12.12,3.37-28.18-7.97-35.12-15.94,2.95-3.29,20.48-12.91,34.26-2.22,3.18-12.21,1.6-14.72-.06,15.7-28.69-6.43-41.82-7.22-41.12-1.37,1.2-3.95,3.73-5.56,5.46l-5.68,6.09c-1.54,1.65,3.48,6.26,5.8,8.13.49,6.23-.2,14.58-1.57,22.77-5.61.42-13.81-.07-18.31-.83,1.24-13.44.91-21.84-5.62-31.47ZM620.02,319.45c4.09-4.23,6.71-8.17,6.04-10.38-.56-1.84-3.07-5.65-4.6-7.39-5.83,4.14-7.78,11.84-1.44,17.77Z"/>
    <path d="M715.4,452.84c-.01-5.79,3.05-13.73,5.17-18.08,1.22-2.5,8.86-.25,10.34,1.99,2.02,3.07-5.13,7.98-5.14,11.47l-.46,156.2c3.7,6.16,4.05,9.48,4.2,15.2l.64,24.47-48.71.26c-14.48.08,3.44-11.02-2.42-24.36l-40.59.08-1.1,16.44c-3.95-.82-11.29-3.69-11.61-6.7l-2.13-27.84-.24-152.16c0-4.09,3.27-11.11,4.61-15.94l62.84-.04c.65,4.39,2.33,10.41,2.32,14.17l-.17,153.83c-.01,11.76-3.67,23.39-.64,34.11-.39-10.51,4.06-21.01,4.11-30.47l.79-153.65c.03-5.66-2.63-12-4.22-18l24.33.24c-1.03,4.97-3.93,11.4-3.91,15.84l.54,153.97c.04,10.03,5.56,20.79,3.56,32.14,6.44-13.18-1.77-26.5-1.81-40.25l-.32-142.93ZM679.28,503.77v-55.64c.66-1.33,2.6-4.52,1.7-5.08l-4.27-2.64c-11.29-7-24.68-6.7-35.42,1.99l-.04,61.48,38.03-.1ZM682.01,608.29l-.51-62.39c-.01-1.65-5.29-6.2-4.27-7.03l4.53-3.65c.58-12.28-10.13-21.42-21.53-22.13s-22.7,9.45-22.29,19.79c.09,2.33,3.39,5.67,3,7.38-.31,1.35-3.59,4.92-3.59,7.43l-.11,61.75c15.89.44,29.83.46,44.77-1.15Z"/>
    <path d="M39.33,450.91c0-5.42,3.16-11.99,4.55-17.04h62.67c.83,3.97,4.38,11.12,4.38,14.41l-.03,155.29c0,5.11-5.35,12.54-3.19,18.05,1.01,2.58.37,10.34-1.96,11.33s-6.52,2.42-9.39,3.32l-1.13-16.32-41.33.08c-.63,8.64.65,13.02,4.46,24.01l-54.84.27.87-28.6c.09-2.99,2.31-8.01,3.88-11.6l-.32-154.65c0-4.6-9.6-12.26-2.96-14.99,1.86-.77,7.08-1.18,8.15.09,1.34,1.58,3.88,6.27,3.87,8.63l-.11,158.5c0,12.01-3.89,23.35-.31,34.23l.94-21.79c.09-2.09,2.7-6.9,3.77-8.75l-.17-157.2c0-3.39-3.38-10.17-3.97-14.15l23.96-.15c-1.73,7.18-3.88,13.2-3.86,19.91l.4,150.08c.03,10.91,1.84,21.75,3.2,33.51,4.65-1.67,2.95-31.03-1.59-33.89l.07-152.58ZM91.72,440.54c-5.05,21.62-1.28,40.66-2.6,61.32l-31.7-.03-.53-57.9c7.15-8.53,21.07-5.68,32.73-2.15-9.75-9.62-25.36-7.62-36.36.5l.11,61.62,22.18.93c4.81.2,11.76-.81,17.75-1.13-.19-21.33.96-41.71-1.57-63.15ZM84.32,493.31l-.26-29.77c-.06-7.29-4.72-12.37-11.66-11.76-5.22.46-9.97,5.57-9.91,11.66l.29,30.67,21.55-.81ZM96.87,609.3l-.34-63.55c-.01-2.04-5.5-5.8-4.63-6.96s3.99-3.76,4.06-5.68c.32-8.68-10.83-20.65-21.77-20.52-10.71.13-22.54,10.34-21.71,20.05.17,1.97,2.47,5.27,3.2,6.51s-3.52,4.86-3.52,6.42l-.19,63.98,44.9-.25Z"/>
    <path d="M132.66,620.76c-5.36,3.94-12.67,6.31-20.63,9.34-2.56-8.08.97-16.08.98-24.43l.2-155.69c0-4.62-2.93-11.11-4.28-16.07h27.06s-4.71,14.34-4.71,14.34l.07,155.39c0,4.25,7.66,12.46,1.32,17.13Z"/>
    <path d="M320.76,431l-61.69.51-201.67-.05-48.12-.64-.79-22.25c-4.92-2.79-10.4-6.93-7.83-12.93,29.51-2.77,59.31-.94,89.66-.81l160.77.7,18.34,1.94,81.86.79-.56,32.36c-10.46.44-19.1.29-29.96.38Z"/>
    <path d="M610.48,431.63l-33.33-1.4c-35.59-1.49-70.09,1.64-105.84,1.26l-88.39-.94-.43-32.14,80.82-1.45c7.46-.13,14.02-1.47,22.26-1.46l219.47.26c9.58.01,19.07-2.33,27.88.89,3.52,2.24-2.2,10.15-7.21,10.8l-1.48,24.13-113.75.05Z"/>
    <path d="M340.21,680.8c-2.2.02-5.3-4.78-4.64-6.07,4.15-8.19,21.06-4.43,11.13-53.65,2.25-8.13,4.42-19.37,1.01-27.96-2.63-6.62-.12-9.47,1.2-15.77,4.01-19.01,1.92-39.62,2.89-59.46l1.46-30.22c2.22-45.83.74-91.45,4.85-136.82.94-10.4,4.09-17.88,4.75-29.81l1.69-30.43-4.47-3.37,6.82-8.99,2.03,5.12c.54,1.37,3.05,1.87,6.53,3.5l-7.97,3.35,2.81,31.35c.95,10.57-2.51,20.18,6.37,29.59l6.19,222.85,5.04,11.81c-4.58,11.73-4.33,24.34-1.01,35.79-3.96,13.5-7.08,39.85,6.38,48.52l4.27,2.75c1.3.84-1.23,7.53-3.24,7.54l-54.09.37Z"/>
    <path d="M344.63,648.29H93.45c-1.94.01-5.77-.16-5.79-1.39l-.1-5.59c-.02-1.22,4.82-.09,6.05-.59l55.81-22.89,190.7.14c4.69,8.82,6.14,18.9,4.51,30.32Z"/>
    <path d="M638.55,640.35c1.16.47,6.16.53,7.36.74,1.6.28.65,4.2-.02,7.18l-256.48.04c-2.24-11.19-.65-21,4.2-30.43l189.42-.13,55.52,22.61Z"/>
    <path d="M179,615.46c-16.33-2.81-27.45-2.4-40.78,4.26-.63-3.53-2.8-10.47-2.8-14.21l-.26-145.59c-.02-9.27,1.09-17.69,3.61-26.12l42.07.09c1.44,3.97,4.41,10.43,4.41,13.96l.06,152.16c0,4.32-3.55,10.65-6.29,15.45ZM168.22,492.62l.02-32.42c0-3.49-4.97-8.25-7.98-8.22s-8.96,4.59-8.95,7.6l.11,33.88,16.8-.84ZM165.51,533c-5.41-2.23-11.53-1.31-16.49,2.68l16.49-2.68ZM175.58,536.1c-4.16,18.62-1.74,35.21-2.34,53.74h-27.94c-.05-18.52.67-35.01-1.66-53.5-4.68,19.18-1.91,36.55.15,55.53l33.55-.02c-.25-19.03.99-36.35-1.75-55.75ZM168.17,586.47l.34-25.2c.06-4.27-4.41-9.03-8.43-9.32-3.7-.26-9.46,3.76-9.45,7.1l.13,27.32,17.41.1Z"/>
    <path d="M589.3,589.74l-30.02.09-.05-48.27c2.77-3.82,10.46-7.84,15.05-7.85s12.32,4.04,15.03,7.84v48.19ZM583,586.3l-.5-28.43c-.05-2.64-5.77-5.78-8.33-5.92s-8.61,3.2-8.64,6.11l-.3,28.15,17.77.09Z"/>
    <path d="M621.55,630.68l-22.26-9.46c-.22-3.34,1.78-10.31,1.79-13.84l.3-147.46c.02-9.11-1.4-16.91-3.24-25.99h26.74c-1.47,5.14-5.41,12.77-5.4,17.88l.28,151.7c.02,8.61,8.54,17.9,1.78,27.17Z"/>
    <path d="M596.43,620.07c-19.42-10.7-39.96-3.29-43.05-6.21-1.54-1.45-4.06-6.22-4.06-8.62l-.06-162.85c0-3.77,4.89-8.96,7.61-8.93l37.96.51c1.34,4.99,4.38,11.83,4.37,15.89l-.09,151.85c0,4.59-1.76,10.75-2.69,18.36ZM582.62,492.94l.24-31.53c.04-4.51-4.17-9.18-8.62-9.21-4.02-.02-8.63,4.93-8.59,9.24l.33,31.91,16.63-.4ZM591.23,591.72l.17-45.17c0-1.74,2.99-6.58,1.71-7.38l-5.73-3.56c-8.4-5.21-17.36-4.71-26.2.24l-5.78,3.23c-1.32.74,1.75,5.82,1.75,7.44l.18,45.28,33.9-.09Z"/>
    <path d="M387.72,230.16l-39.87.15c-2.37-2.82-1.59-11.38-1.39-16.94,1.07-29.65,4.28-57.92,11.09-87,1.21-5.18,4-8.7,8.7-9.09,4.42-.37,8.76,2.81,9.89,7.98,7.51,34.42,11.52,68.85,11.59,104.9Z"/>
    <path d="M521.01,545.69l-31.64.07-.69,69.26c-6.89-7.31-6.26-14.9-6.54-23.24l-.73-21.87-.18-118.24c0-5.24,3.67-13.18,6.12-17.66l36.31-.27c4.06,4.23,5.72,11.6,5.72,18.08l-.16,149.95c0,4.44-2.8,9.53-7.73,13.37l-.46-69.45ZM523.15,503.81c6.75-32.8-4.35-31.78,1.96-61.34-11.08-9.74-28.42-8.84-39.04.02l1.28,61.36,35.81-.04ZM516.52,527.69l-.39-11.98-21.06.18-.2,12.01,21.66-.21Z"/>
    <path d="M398.15,118.82c-20.81-4.12-42.68-4.59-63.66.1l-1.56-7.94c-.45-2.28,4.86-4.76,7.24-6.49.48-38.51,1.32-10.38,5.39-42.62l.49-3.87c.08-.66,1.99-1.48,2.34-.92l2.94,4.83c15.52-27.13,8.11-35.18,12.18-44.79.77-1.82,2.44-5.07,1.57-5.8l-5.26-4.35,7.41-6.99,5.14,6.88c-2.01,1.62-4.58,7.54-2.74,9.94,3.67,4.8,1.54,8.47,1.64,13.33.22,10.8,6.92,22.48,11.12,31.42l2.87-4.26c.33-.5,2.01-.64,2.11-.05l.79,4.59,4.07,22.18,1.31,20.45c2.92,1.99,7.29,4.16,7.49,6.34s-1.66,7.17-2.89,8ZM348.3,104.03c1.13-7.46,1.12-13.99-.06-20.38-1.13,7.46-1.12,13.99.06,20.38ZM357.04,105.22c3.46-8.6,3.36-15.25.13-23-2.82,7.8-2.77,15.39-.13,23ZM367.04,105.22c3.46-8.6,3.36-15.25.13-23-2.82,7.8-2.77,15.39-.13,23ZM376.3,104.03c1.13-7.46,1.12-13.99-.06-20.38-1.13,7.46-1.12,13.99.06,20.38ZM385.04,105.22c3.46-8.6,3.36-15.25.13-23-2.82,7.8-2.77,15.39-.13,23Z"/>
    <path d="M434.74,580.64c1.13-8.11-4.35-13.18-10.38-13.2-6.4-.02-10.9,5.4-11.02,12.32l-.49,28.5c-4.4-6.3-3.31-12.64-3.33-20.44l-.37-134.04c-.01-5.12.3-17.03,4.76-18.77,6.03-2.35,14.52-1.48,20.52-.76,1.5,3.63,4.77,10.44,4.77,13.74l-.28,111.73c-.04,16.97-1.54,32.45-2.7,48.32l-1.49-27.41ZM432.62,493.19l-.34-33.1c-.05-4.67-5.43-8.85-10.02-8.12-3.4.54-7.15,5.53-7.12,9.39l.25,32.14,17.22-.3ZM432.84,528.27l-.32-12.42-17.09.05-.04,12.16,17.45.22Z"/>
    <path d="M428.49,231.61c-11.42.43-23.77-.06-37.05-1.36l-1.23-23.33c-1.56-29.65-5.16-57.6-13.33-87.69,18.76-8.06,42.75,52.02,44.67,66.52,3.5,14.95,5.25,27.62,6.95,45.87Z"/>
    <path d="M251.39,600.43c.03,5.11-2.54,10.69-5.73,14.29l-.51-69.12-31.81.08-.66,69.72c-7.86-6.13-7.43-13.76-7.43-21.64v-149.91c-.01-2.32,2.83-7.93,4.67-9.96l34.73-.03c1.3,0,5.3,2.17,4.87,3.25l-1.99,5.08c-10.92-8.81-27.89-9.38-38.03.32l-.37,61.32,37.67.03c3.24-20.22-4.23-39.05,3.78-61.36l.79,157.94ZM240.25,527.87l-.56-12.1-22.02-.02-.21,12.01,22.79.12Z"/>
    <path d="M342.58,230.52l-36.82,1.72c1.75-27.12,5.75-51.52,16.19-75.74,4.2-9.75,21.94-43.63,35.09-37.21-7.4,26.3-11.74,50.94-12.93,77.24l-1.54,33.99Z"/>
    <path d="M322.3,606.07l-1.73-28.17c-.34-5.49-5.6-10.86-10.3-10.77-22.03.43-3.81,37.62-14.07,43.81l-1.06-159.09c-.03-5.09,1.51-13.98,4.45-17.35,6.79-.78,14.48-.83,21-.72,7.31,13.93,4.84,57.42,3.68,73.22-2.73,37.35,1.5,61.68-1.97,99.07ZM318.58,492.88l-.03-33.29c0-4.32-6.19-8.57-10.25-7.71-3.3.7-7.12,5.68-7.09,9.39l.24,31.77,17.13-.16ZM318.92,528.35l-.34-12.52-17.03-.07-.26,12.37,17.63.22Z"/>
    <path d="M483.26,613.94l-21.43.47,3.34-10.93.17-149.67c0-6.75-1.62-12.68-3.21-19.68l21.34-.3c-2.3,7.24-4.27,12.89-4.27,20.14l.13,147.02c0,3.05,1.81,6.93,3.92,12.97Z"/>
    <path d="M458.94,614.41l-20.81-.49c1.74-5.75,3.25-10.45,3.24-16.07l-.14-148.09c0-5.44-1.76-10.05-3.42-15.92l20.55.34c-.8,3.77-3.05,9.41-3.05,12.12l-.03,157.25,3.65,10.86Z"/>
    <path d="M344.24,614.4l-20.32-.42,3.23-10.74.17-159.12c0-2.9-2.67-7.78-3.88-10.24l21.18.25c-3.07,8.98-3.54,16.34-3.52,25.79l.35,141.83c0,2.42,1.43,6.55,2.8,12.64Z"/>
    <path d="M435.39,154.06c-1.31-3.92-3.87-6.44-6.12-8.22-3.07-7.65-9.33-13.51-15.58-16.31,9.56-1.54,20.56,10.59,29.45,20.06,23.63,25.17,35.74,57.06,38.3,92.09l-17.58-4.28c-3.27-30.25-9.7-60.68-28.47-83.34Z"/>
    <path d="M413.69,129.54c3.81,6.21,9.72,11.68,15.58,16.31,1.08,2.69,2.83,5.79,6.12,8.22,13.86,25.57,24.28,52.73,25.08,82.24l-28.55-2.85c-2.57-30.31-8.66-62.21-23.46-90.63-4.32-8.29-9.93-14.21-15.55-22.58l20.77,9.3Z"/>
    <path d="M302.18,232.62l-28.29,3.84c.69-41.58,24.57-102.37,67.47-115.95-26.49,28.86-36.56,73.84-39.18,112.1Z"/>
    <path d="M406.2,591.01c-.22,8.39,1.28,14.9,2.88,23.1l-19.27.12c1.44-9.38,2.2-15.73,2.31-24.4l.88-67.98.03-52.03c0-12.93.2-23.19-3.66-35.85l19.96.05c-1.13,5.07-3.9,11.49-3.88,15.76l.31,79.95c.03,6.96,1.65,14.89,1.47,22.02l-1.04,39.26Z"/>
    <path d="M270.9,614.36l-19.87-.22,4.14-14.62.18-141.67c.01-8.46-1.88-15.57-4.14-24.05l20.16.42c-4.56,18.69-6.02,37.07-2.23,56.3l.19,107.38c0,5.09.59,8.15,1.58,16.46Z"/>
    <path d="M204.91,614.35l-19.77-.06c1.22-7.22,2.18-12.14,2.18-18.37-.02-26.85-.54-52.49.97-78.81,1.1-19.12,3.49-67.04-3.09-83.21l20.09-.02c-2.45,9.03-4.22,16.82-4.19,25.98l.41,121.88c-.03-8.4,2.53,31.07,3.4,32.61Z"/>
    <path d="M549.05,614.4l-20.9-.22c1.97-6.31,3.23-10.44,3.23-16.22-.05-28.35-.69-55.43.86-83.2,1.07-19.16,3.7-64.69-3.13-80.9l20,.32c-2.07,6.88-3.89,12.71-3.89,19.63l.09,144.07c0,4.84,1.64,8.63,3.75,16.52Z"/>
    <path d="M292.42,590.82c.18,8.81,1.03,14.96,2.33,23.13l-19.87.36c2.6-8.57,4.5-13.32,4.49-20.47l-.23-143.91c0-4.54-2.25-10.62-3.2-15.73l19.7-.13-4.25,14.14.22,103.58.8,39.02Z"/>
    <path d="M546.01,308.64c3.32-10.16-3.23-24.72-6.33-25.96-5.46-2.19-12.3,15.39-11.93,18.83l1.8,16.47-24.69-.69c1.12-16.92,10.94-29.7,25.69-38.1,2.94-32.9,8.65-20.84,9.8-41.03l7.99,20.63c2.07,5.34,2.63,13.69,3.81,20.15,14.87,8.12,24.74,21.38,24.96,38.49l-27.88.41c-2.33.03-3.97-6.94-3.23-9.19Z"/>
    <path d="M193.93,281.49c-3.5,4.7-8.46,13.24-8.06,17.84l1.63,18.73-31.21-.75c1.41-18.89,11.48-30.48,25.68-38.91,1-6.55,1.56-15.08,3.55-20.15,3.22-7.11,5.38-12.74,6.69-20.33,1.75,6.6,4.07,12.63,7.12,19.52l4.45,21.68c14.09,8.6,22.98,21.02,24.65,37.59-8.84,1.06-17.38,1.25-25.51-.05,4.45-14.5,4.11-25.75-8.99-35.17Z"/>
    <path d="M462.94,394.5c-29,2.1-53.38,1.5-80.77.71l-.48-38.25,81.26,37.54Z"/>
    <path d="M351.55,395.35c-27.72.59-51.34,1.25-80.11-.88,26.37-14.36,51.37-25.14,80.37-37.7l-.26,38.58Z"/>
    <path d="M252.42,241.81c.97-40.35,27.75-96.04,66.25-113.3-29.87,29.08-45.99,66.47-48.56,108.35l-17.7,4.95Z"/>
    <path d="M460.18,605.5l-1.99-64.53-.98-85.26c-.05-4.22,1.14-8.63,2.96-14.25,6.02,10.56,2.38,62.02,2.03,77.27l-2.02,86.77Z"/>
    <path d="M273.46,606.92c-5.26-55.16-.21-106.77-2.74-160.75l4.71-4-1.98,164.75Z"/>
    <path d="M388.89,569.43l-3.5-29.54-.55-45.99c-.24-20.32-1.96-38.81-1.37-60.2,4.86,7.3,6.26,15.14,6.2,24.16l-.78,111.58Z"/>
    <path d="M346.27,569.53l-1.98-74.8c-.38-14.42-4.86-49.36,6.02-60.86l-2.01,80.63-2.02,55.03Z"/>
    <polygon points="373.59 307.48 370.92 295.22 375.66 291.47 373.59 307.48"/>
    <path d="M677.31,501.76l-34.06.12.03-57.45c10.64-8.42,23.35-8.38,33.97-.03l.06,57.36ZM671.26,493.85l.07-30.34c.01-6.52-4.93-11.83-11.05-11.8-5.9.03-11.08,5.28-11.04,11.79l.18,30.1,21.84.24Z"/>
    <path d="M521.26,501.76l-32.03.1.11-57.77c9.3-8.47,22.64-7.85,32.01-.68l-.09,58.35ZM516.04,492.97l-.61-33.74c-.1-5.48-8.33-8.56-12.82-7.12s-7.87,6.46-7.79,11.3l.5,29.91,20.72-.35Z"/>
    <path d="M245.36,501.76h-31.97s-.44-56.46-.44-56.46c2.86-8.94,26.4-10.85,31.22-.98l1.19,57.44ZM239.31,493.04l-.07-29.8c-.01-4.46-3.59-9.77-7.46-11.09-3.42-1.17-12.14,1.3-12.76,5.11-2.1,12.9-1.64,22.48-.55,35.95l20.83-.17Z"/>
  </g>
</svg>