<?xml version="1.0" encoding="UTF-8"?>
<svg id="Layer_2" data-name="Layer 2" xmlns="http://www.w3.org/2000/svg" viewBox="0 0 143.04 180.09">
  <g id="Layer_1-2" data-name="Layer 1">
    <path d="M110.32,129.87l-1.03-1.02-1-.99-10.42-10.43-1.09-1.09-.99-1-1-1-1-1-1.01-1.01c-.31-.31-.65-.68-.97-1.03l-.56-.31c-.17-.1-.25-.53-.34-.84l-1.68-.12c-.32-.59-.56-.81-.94-1.19l-1.01-1-1-.99-1-1-1-1-1-1-1-1-1.01-1.01-.98-.97-1.02-1.01-1-1-.99-1-1.01-1.03c-.36-.36-.6-.59-1.19-.96l-.07-2.56.81-.4c.35-.43.62-.74.96-1.07l1.01-1,.99-.98,1.01-1,1.01-1.01,1-1c.34-.34.63-.6,1.12-.97.18-.24.19-1.31,0-1.55-.5-.37-.79-.63-1.13-.97l-1.01-1.01-.99-.99-1-1.01-1-1-.98-.98-1.02-1.02-.98-.98c-.39-.39-.62-.58-.95-1.22l-2.74-.08-.11-.76c-.03-.19-.74-.33-.79-.14l-.24.85-1.71.17c-.34.54-.59.79-.95,1.16l-1.01,1-1,1-1,1-1,1-1,1-1,1.01-.99,1c-.37.38-.62.62-1.21,1.01l-.08,2.55c-.59.32-.84.55-1.19.91l-1.02,1.05-.88.91c-.13.13-.47.41-.61.54l-1.02,1.02-1,1-1,1-1,1.01-.99,1-1,1.01c-.37.37-.59.61-1.19.94l-.1,1.69c-.27.06-.66.08-.74.2l-.43.67c-.37.34-.72.66-1.04.98l-1,1-1,1-1,1-.99,1-1,1-1,1-1,1-1,1-.99.99-6.46,6.44-1.08,1.08-.99.99-1.01,1.01-.99.99-1,1.01-1,1-1.01,1.01c-.27.27-.73.71-1.01.96l-.34.57c-.1.17-.5.24-.85.34l-.06,1.76c-.29.07-.65.09-.74.21l-.46.66-1.02.99-1.01,1-1.01,1-1,.99c-.39.38-.61.59-.93,1.22l-2.63.08-.3-1.01-1.87-.07-.03-2.95-1.88-.05c-.06-.27-.07-.66-.2-.74l-.68-.43-.97-1.06c-.36-.39-.58-.6-1.21-.92l-.09-1.78-1.71-.07c-.26-.51-.63-.91-1.03-1.16-.09-.13-.26-.45-.34-.58-.1-.17-.49-.24-.85-.35l-.08-1.77-.77-.19c-.35-.09-.19-1.6-.12-1.66.16-.13.55-.34.7-.49l.99-1,1.01-1.01,1-1,1-1,1-.99,1.11-1.11,14.78-14.78,1.12-1.12.99-.99,1-1,1-1,1-1,1-1,1-1,1-1,1-1,1-1,1-1.01.99-1c.38-.39.57-.61,1.2-.94l.08-1.76,1.8-.1c.22-.61.55-.91.96-1.14.09-.14.25-.46.32-.59.09-.17.53-.24.85-.34l.07-1.61c.52-.35.84-.63,1.22-1l1.01-1.01,1.01-1,1-.99c.39-.39.59-.56.95-1.21l1.52-.03c.39.54.64.85,1.01,1.21l1.01,1.01,1.02,1.01,1,1,1,1,.99,1,1,1.01c.37.37.59.6,1.19.95l.11,1.76h.8c.16-.02.15-.51.22-.63.44-.38.82-.73,1.18-1.09l1-1,1-1,.99-1,1-1,1-1,1-1,1-1.01,1-1,.89-.92c.13-.14.43-.28.85-.46v-4.68c-.57-.3-.91-.59-1.23-.91l-1.01-1.02-1-1-1-1-1-1.01-.97-1.02-.55-.33c-.17-.1-.25-.51-.35-.83l-1.71-.12c-.17-.54-.63-.93-.99-1.16-.06-.13-.21-.47-.27-.6s-.34-.17-.56-.21c-.37-.06-.46,1.65-.94,1.08-.13-.16-.37-.53-.52-.69l-1.1-1.1-1.02-1.02-1-1-1.01-1-1.01-1c-.37-.37-.6-.59-.94-1.18l-1.69-.11c-.06-.25-.08-.64-.2-.72l-.67-.44-.99-1.03-1-1-1.01-1.01-1-1-1-1-.99-.99-1.01-1.01-.99-.99-1-1-1.01-1.02-.98-.99-1-1.01-1-1-1-1-1-.99-1.02-1.02c-2-1.99-.38.15-1.34-1.56-.25-.44-1.57,0-1.68-.21l-.4-.72c-.36-.32-.75-.67-1.05-.97l-1.01-1.01-1-1-1-1-1-1-1-1-1-1-1-1.01-1-1-1-1-1-1-1-1-1.01-1c-.31-.31-.65-.68-.96-1.03l-.56-.32c-.17-.1-.24-.51-.35-.85l-1.67-.11c-.33-.57-.57-.83-.94-1.2l-1.03-1.02c-.32-.32-.66-.59-1.14-.91-.15-.25-.13-1.34.01-1.59.5-.35.81-.61,1.13-.93l1.02-1.02.99-1c.36-.36.6-.64.95-1.18l1.6-.16c.32-.56.57-.81.94-1.17l1.01-1,1-.99,1.01-1.01,1-1,1-1.01.97-.98c.38-.39.66-.81,1.09-.84.87-.07.93.35,1.41.84l1,1,1,1,.99.98,1.02,1.01c.37.36.61.61.93,1.17l1.6.15c.33.59.57.81.94,1.18l1.01,1,1,1,1,1,1,1,1,1,.99.99,1.01,1.01,1,1,.98.98,1.01,1.02,1.06,1.07,6.37,6.37,1.06,1.06,1.02,1.02.98.98,1.01,1.01.99.99,1.01,1.02,1,1,1,1,1.01,1c.37.37.61.61.94,1.17l1.6.15c.33.59.57.82.94,1.18l1.01,1,1.01,1,1,.99,1,1,1,1,1,1.01c.39.39.55.61,1.23.92v2.62c-.68.38-.85.57-1.2.92l-4.48,4.47-1.05,1.07c-.38.39-.58.6-1.24.94v2.68s.77.21.77.21c.19.05.23.58.3.87l1.79.09c.06.28.09.66.21.74l.67.44.99,1.03,1,1.01,1.01,1.02.99,1,1,.96c.11.11.26.48.34.61.11.17.54.13.91.16l.79.06c.2.02.18.53.29.94l3.62-.06c.28-.36.75-.92,1-1.17l.99-.98,4.48-4.48,1.07-1.08,1.09-1.1c.15-.16.71-.32.72-.51.02-.92-1.72-.73-1.12-1.2l.72-.56,1.1-1.1,1-1,1-1,1-1,1-1,1.01-1.01.99-.97c.11-.11.26-.45.35-.56.13-.15.5-.24.83-.35l.11-1.66c.6-.33.81-.57,1.19-.94l1-1.01,1-1,1.01-1.01,1.07-1.07,10.32-10.32,1.11-1.11,1-1,1.01-1.01,1.01-.97.34-.56c.1-.17.5-.24.85-.34l.06-1.75c.28-.07.65-.1.73-.22l.45-.65,1.03-1,1-1,1-1,1-1,1-.99.98-.97,4.46-4.44,1.09-1.09,1-1,1-1,1-1,1.01-1.01,1.05-.99.27-.56c.09-.18.7-.19.87-.14l.06,1.92,1.95.04.05,1.88c.29.07.67.09.74.22l.43.67c.36.31.73.64,1.04.95l1.02,1.02.98.98,1.01,1.01,1,1,1.01,1.01c.3.3.66.69.96,1.03l.56.32c.17.1.23.52.33.85l1.89.06-.02,1.71c-.54.37-.83.61-1.21.99l-8.42,8.44-1.11,1.1-1,.99-1,1-1,1-1,1-1,1-1,1-1,1-1,1-1.01,1c-.29.29-.71.68-1.02.96l-.34.56c-.1.17-.5.24-.84.35l-.1,1.67c-.61.32-.82.56-1.19.94l-1,1.01-1,1-1.01,1.01-.99.99-1,1-1.02,1.02-.95.95-11.44,11.43-1.12,1.11-.99.99-1,1-1,1-1,1c-.38.38-.6.82-1.09.84-.78.02-.94-.37-1.42-.84l-.97-.98-1.02-1.03c-.37-.37-.58-.58-.95-1.19l-1.77-.08-.06-1.7c-.51-.35-.85-.63-1.22-1.01l-1.02-1.02c-1.08-1.09-1.05-1.62-1.32-1.27l-.52.68-1.11,1.12-1,1-1,.99-1.01,1.01-1,1-1,1-1,1.01c-.3.3-.55.57-.88.97l-.9.55.07,4.56c.55.27.87.56,1.2.9l1.01,1.01,1,1,1.01,1.01,1,.99,1,1,1,1.01.87.9.76.71c.16.28.34.58.5.7.58.43.26-.81,1.23-1.1.2-.06.33.58.48.73l1.12,1.07,1,1,1.02,1.01,1,1,1,1.01.97,1.02.56.33c.17.1.24.51.34.84l1.77.08c.07.29.09.66.21.74l.66.44.99,1.03,1,1.01,1,1,.98.98,1.01,1.01,1,1,.99.99,1.09,1.1,6.32,6.32,1.1,1.1.99,1,1,1,1,.99,1.01,1c.36.36.61.61.94,1.18l1.69.12c.06.26.09.65.21.73l.66.44.99,1.03,1,1.01.99,1,.98.98,4.46,4.47,1.06,1.06,1,1,1,1,1,1,.97,1.02c.13.08.43.26.56.34.17.1.24.51.34.85l1.88.06-.02,1.65c-.5.41-.83.7-1.22,1.08l-1.04,1c-.37.35-.59.61-.92,1.17l-1.59.18c-.36.54-.6.8-.96,1.16l-.99.98-1.03,1.02-.97.97-1,1.01-1.01,1.01-1.01,1.01c-.3.3-.69.66-1.05.96l-.3.6c-.19.39-1.62.17-1.66.11l-.44-.71-1.04-.98-1.01-1-1.01-1c-.37-.36-.6-.61-.94-1.19l-1.6-.14c-.32-.56-.57-.81-.94-1.17l-1-1-1.02-1.01-.99-.99-.97-.97ZM22.26,8.31l1.08-1.11c.11-.11.68-.12.68-.28v-.69c0-.15-.57-.19-.67-.3l-1.06-1.08-1.01-1.03c-.46-.47-.57-.9-1.39-.83-.46.04-.73.42-1.11.83l-1.08,1.17-.59.22c-.14.05-.19.64-.05.7s.56.19.67.29l1.14,1.18.95.91c.15.14.33.57.45.73.04.06,1.4.26,1.65-.14.08-.13.24-.47.35-.58ZM16.29,14.02c.15.05.64.05.68-.09s.16-.51.26-.61l1.05-.97c.53-.49.9-.57.85-1.43-.03-.41-.44-.72-.82-1.09l-1.04-1.02c-.2-.19-1.83-1.69-1.37-1.71l-.7.04c-.15,0-.1.5-.17.64l-.78.51c-.25.5-.48.71-1.17,1.01v1.59c.61.37.88.58,1.22.92l1.03,1.04c.33.33.7.81.97,1.17ZM27.99,15.08l.15-1.88c.18-.11.84-.12.86-.32l.08-.83c.02-.23-.05-.75-.23-.84l-.6-.31c-.26-.43-1.73-1.84-2.14-2.13l-.22-.58c-.05-.14-.64-.2-.7-.06s-.16.56-.28.67l-1.13,1.05c-.4.37-.85.71-.82,1.1.09,1.33-.16.43,1.32,1.9l1.03,1.02c.35.35.65.72,1.01,1.22l1.68.02ZM132.23,16.38l1.04-1.03,1.11-1.13c.14-.14.7-.28.7-.47,0-.15-.09-.51-.22-.57l-.55-.25-1-1.08c-.48-.52-.56-.87-1.43-.84-.46.02-.71.47-1.1.85l-1.01.97c-.49.47-.84.61-.81,1.43.01.47.42.71.82,1.09l1.17,1.09.24.6c.06.14.63.17.69.04s.23-.57.35-.68ZM23.92,19.1l.29-.94c.04-.14.76-.04.77-.19.04-.41.04-1.39-.01-1.65-.55-.36-.85-.63-1.18-.96l-1.03-1.03c-.23-.23-.61-.61-.83-.96-.16-.26-.83-.38-1.27-.33-.3.03-.54.43-.89.81l-1.03,1.12c-.1.11-.68.13-.7.29s.08.56.15.65c.35.23.8.62,1.07.89l1.05,1.04c.34.34.56.6.96,1.22l2.64.04ZM34.99,17.87l.04-1.77-1.88-.05c-.1-.33-.15-.76-.33-.85l-.64-.31c-.13-.53-.53-1.04-1.29-.89-.45.09-.71.39-1.12.83l-1.05,1.15c-.13.15-.82.29-.74.47.53,1.39-.42-.4,1.31,1.35l1.03,1.04c.32.33.61.67.94,1.07,1.19,1.47,2.84-2.07,3.75-2.05ZM137.75,20.84l1.03-1.04c.37-.37.6-.57,1.22-.92l.05-1.77-1.86-.1c-.13-.58-.71-.98-1.01-1.24-.12-.1-.2-.57-.31-.67s-.51-.12-.6,0-.27.56-.39.66l-1.11,1.07c-.32.3-.77.81-1.05,1.12-.13.15-.76.27-.73.46.02.14.11.5.25.56l.55.23c.33.44.65.8.98,1.11l1.17,1.1.26.62c.24.57.78-.45,1.55-1.22ZM127.35,21.31l.94-.96,1.08-1.1c.19-.19.89-.57.71-.75-.14-.15-.48-.4-.69-.59l-1.16-1.04c-.15-.13-.31-.57-.44-.72-.05-.07-1.48-.23-1.66.1l-.32.62c-.3.25-.76.66-1.04.96l-1.06,1.13c-.09.1-.54.22-.67.28s-.07.65.07.7l.59.21,1.07,1.21c.44.5.68.82,1.42.81.43,0,.75-.45,1.15-.86ZM28.85,25.04c.32-.74.57-.95.99-1.15.12-.18.28-.57.43-.7s.58-.23.75-.33c.12-.07-.04-.65-.17-.71l-.55-.24-1-1.06-1.02-1.02c-.36-.36-.72-.68-1.18-1.06l-.22-.62c-.05-.15-.67,0-.68.09.45-.11-2.03,2.33-2.1,2.07-.03.25-.04,1.32-.02,1.57.6.38.85.59,1.22.95l1,1.01c.37.38.57.58.95,1.22h1.61ZM41.01,23.89v-1.55c-.64-.41-.86-.61-1.23-.98l-1.02-1.02c-.34-.34-.6-.64-.98-1.15-.22-.14-1.26-.14-1.52.02-.11.45-1.82,1.99-2.21,2.2l-.03,1.65,1.87.05c.12.38.2.73.35.86.11.1.48.23.58.34l1.06,1.16.56.67c.28.33,1.64-2.21,2.57-2.25ZM131.82,27.01c-.52.13,2.17-2.44,2.19-2.18l.02-2.52c.12.56-2.8-2.38-2.19-2.1-.03-.11-.64-.16-.71.04-.47,1.28.31-.1-1.33,1.58l-1.1,1.13c-.14.15-.71.28-.7.48,0,.15.09.55.24.58l.73.14.1,1.88,1.9.1c.07.32,0,.91.21.9.17,0,.73-.04.64-.03ZM122.87,27.08c.3-.85.54-.96.97-1.18l.42-.72c.1-.17.63-.17.76-.31.1-.11-.04-.66-.17-.72l-.56-.25-1.02-1.1c-.26-.29-.84-.75-1.16-.99-.12-.09-.08-.72-.23-.72h-.7c.52,0-1.15,1.45-1.41,1.73l-1.03,1.1c-.11.11-.57.26-.71.32-.7.28,2.18,1.99,2.23,2.81l2.6.03ZM36.43,28.19c.21-.22.78-.52.67-.69s-.54-.39-.71-.54l-1.16-1.1c-.09-.19-.31-.54-.42-.72-.14-.23-1.63.16-1.71-.21l-.19-.86-1.69.06c-.26.66-.48.89-1.16,1.16l-.05,2.76,1.9.06c.1.36.16.77.33.86l.64.32c.13.5.55,1.02,1.31.88.43-.08.69-.41,1.09-.82l1.14-1.16ZM46.4,29.11c.15-.04.65-.05.64-.16l-.06-.64c-.4-.25-.85-.59-1.19-.95l-1.01-1.03c-.28-.29-.73-.83-1.03-1.23h-2.58c-.11.34-.16.82-.35.87l-.77.23v2.83s1.79.09,1.79.09c.35.62.57.82.93,1.21.48.5.58.88,1.44.83.45-.02.73-.42,1.11-.84l1.09-1.23ZM127.77,30.77l1.02-.95c.38-.35.61-.57,1.18-.96l.02-.56c-.27.24-2.28-2.04-2.26-2.19h-2.53c-.23.69-.48.91-.99,1.16l-.37.73c-.07.13-.75.07-.75.21l-.03,1.67c.64.34.92.54,1.24.92l.98,1.16c.24.18,1.27.2,1.51,0l.97-1.2ZM117.89,32.08c.26-.85.52-.95.97-1.18.11-.16.23-.64.41-.71l.76-.33c.13-.06-.04-.65-.17-.71l-.56-.24c-.28-.35-.7-.77-1.05-1.04l-.42-.74c-.04-.06-1.46-.24-1.66.15l-.31.59c-.36.3-.74.65-1.05.97l-1.08,1.12c-.16.16-.67.3-.71.5-.03.15.1.54.25.58.3.07.67.1.71.24l.2.8h3.73ZM39.77,36.08c.08-.14.3-.57.41-.68l1.12-1.04c.5-.47.83-.69.82-1.43,0-.44-.47-.74-.84-1.1l-1.01-1-1.11-1.05c-.1-.1-.12-.7-.27-.69l-.7.06c-.15.01-.11.42-.17.65l-.78.49c-.26.5-.51.71-1.16,1-.06.26-.04,1.33.04,1.57.56.37.83.61,1.17.95l1.02,1.03c.97.98,1.19,1.7,1.46,1.24ZM50.76,35.8l1.13-.94c.31-.26.24-1.3,0-1.54-.44-.35-.76-.63-1.1-.97l-1.02-1c-.38-.37-.58-.6-.98-1.2l-1.74-.06-.05,1.91c-.29.07-.92.07-.94.29l-.08.85c-.02.25.05.75.23.85.13.08.49.22.6.33l.96,1.02c.34.36.67.66,1.1,1.03l.32.69c.06.13.68-.02.68-.08.17-.38.57-.92.87-1.17ZM123.82,34.87l.47-.72c.37-.12.75-.2.77-.4.01-.15-.04-.53-.18-.58l-.71-.22c-.2-.06-.11-.84-.32-.85l-.83-.03c-.3,0-.86.05-.91-.15l-.2-.85-1.72.05c-.22.65-.5.9-.98,1.16l-.39.71c-.07.13-.74.07-.74.21l-.02,1.65c.69.32.89.53,1.17,1.04l.71.38c.13.07.08.72.22.75.4.08,1.38.07,1.64-.01-.27-.13,1.95-2.19,2.01-2.15ZM110.33,38.11c.4-.02,1.49-.07,1.42-.06.16-.48,2-2.21,2.27-2.26v-2.57s-.9-.31-.9-.31c-.14-.05-.05-.76-.2-.77-.41-.03-1.38-.02-1.63.01-.4.58-.62.85-.97,1.19l-1.01,1.01c-.36.36-.6.56-1.22.93l-.06,1.77,1.9.05c.05.28.2,1.01.4,1ZM46.32,40.32l1.02-1.12c.1-.11.69-.12.69-.27v-.69c0,.51-1.52-1.21-1.71-1.4l-1.03-1.02c-.15-.14-.36-.52-.49-.68-.05-.07-1.58-.26-1.66.11l-.18.81-1.91.06.03,1.8c.36.18.71.36.85.5l.87.9,1,1.03c.47.48.65.84,1.42.82.46-.01.73-.43,1.12-.85ZM55.76,42.01c.11-.42,2.29-2.53,2.23-2.16l.06-1.72-1.82-.11c-.27-.6-.59-.86-1.01-1.13l-.41-.74c-.04-.07-1.61-.26-1.69.11l-.18.81-1.92.06.07,1.71c.62.42.82.62,1.18.97l1.05,1.05c.34.29.6.6.95,1.12.22.16,1.41.12,1.49.03ZM116.81,41.8l.98-.99c.34-.34.63-.59,1.17-.93.08-.25.08-1.36,0-1.6.08.46-2.6-2.23-2.12-2.16l-1.7-.03c-.09.37-.12.83-.31.89l-.71.23-.16,1.72c-.02.21-.89.13-.91.35l-.05.86c-.01.21.08.69.24.81.12.09.44.27.55.37l1.11,1.07c.11.11.22.52.29.66s.65.1.71-.04l.22-.6c.14-.12.53-.45.7-.61ZM106.09,43.14c.23.02.75-.07.83-.25l.29-.6,1.1-.93c.51-.43.83-.68.81-1.42-.01-.44-.41-.73-.83-1.11l-1.14-1.03c-.11-.1-.11-.64-.25-.69s-.62-.07-.69.06-.13.39-.21.62l-.71.52c-.19.41-1.78,1.82-2.23,2.1v1.66s1.9.06,1.9.06c.08.28.07.92.28.94l.86.08ZM52.78,44.79l.63-.68c.09-.1.54-.09.58-.22.06-.18.1-.79-.07-.79h-.67c-.26,0-.79-.03-1-.06s-.28-.57-.42-.72l-1.09-.97c-.39-.35-.58-.57-.92-1.22l-1.7-.02c-.09.35-.11.84-.31.9l-.79.22.02,2.68c-.17-.59,2.76,2.31,2.22,2.16h2.52c.41-.65.61-.86.99-1.27ZM62.76,45.72c.43-.34.7-.54,1.15-.81l.12-.68c-.43-.13-.8-.18-.88-.35l-.31-.6c-.4-.21-.8-.52-.96-1.13l-1.75-.12-.22-.93c-.19-.79-2.09,2.23-2.72,2.22-.25.24-.21,1.3,0,1.54.4.14,2.1,1.9,2.13,2.19l2.5.04c.41-.69.57-.87.96-1.37ZM111.85,48.04c-.65.09,2.62-2.87,2.17-2.2v-2.75s-1.85-.04-1.85-.04l-.31-.93s-1.39-.26-1.67.17c-.08.13-.29.44-.37.57l-1.01,1.02-.68.44c-.09.06-.24,1.58.11,1.67l.78.19.06,1.9,2.78-.05ZM101.2,48.38l1.07-1.04,1.04-1.01c.48-.47.83-.61.81-1.39,0-.48-.36-.8-.9-1.02l-.45-.87-2.54.08c.51-.09-2.16,2.51-2.14,2.2l-.02,1.54c.66.3.92.53,1.15.99l.75.49.2.7c.04.15.63.13.7,0s.21-.57.33-.68ZM58.03,51.95v-.87c.01-.31-.03-.86.17-.9l.82-.2v-1.86s-1.83-.08-1.83-.08c-.18-.61-.53-.91-.97-1.14l-.4-.76c-.04-.07-1.62-.22-1.7.13l-.18.81-1.9.06v1.93s1.8.08,1.8.08c.31.64.53.85.93,1.21l1.07.98.39.72c.04.08,1.79.13,1.79-.09ZM106.76,52.85l1.06-.98.44-.69c.08-.12.65-.09.69-.23.12-.4.12-1.39-.04-1.66-.04.27-2.34-2.07-2.13-2.13-.24-.06-1.29-.05-1.51,0-.39.57-.62.83-.97,1.18l-1.02,1.02c-.81.81-1.83,1.37-1.13,1.61,1.3.45-.02-.28,1.62,1.34l1.1,1.09c.1.1.27.53.34.66.24.48.64-.39,1.53-1.22ZM96.3,53.32l.98-.98,1.08-1.13c.11-.11.67-.13.67-.28v-.69c0-.15-.59-.16-.69-.28l-1.06-1.15c-.14-.15-.36-.52-.49-.67-.04-.06-1.46-.22-1.65.11l-.33.61-1.04.97c-2.4,2.24.46.18-1.71,1.44-.17.1-.03.67.15.73.14.04.5.18.6.29l.99,1.03.46.69s1.38.31,1.66-.11c.08-.13.28-.48.39-.58ZM100.82,58.9c.43-.49.68-.76.95-1.04l1.02-1.05c.36-.37.58-.57,1.22-.92l.02-1.69c-.33-.09-.86-.11-.91-.31l-.2-.76-1.8-.11-.23-.88c-.04-.15-.69.02-.7.11-.18.36-.59.81-.87,1.09l-1.02,1.01c-.39.39-.59.58-1.24.96v1.58c-.05-.5,2.57,2.22,2.18,2.08.26.2,1.3.24,1.57-.07ZM91.78,58.8l1.01-.99c.27-.27.75-.71,1.12-.98.12-.05.1-.58-.07-.66-1.82-.86.15-.36-1.61-1.29l-.44-.84-2.75.07-.02,1.95-2.01.04.04,1.82c.67.2.91.46,1.17.96l.71.41c.13.07.13.48.19.78l1.71-.03c.31-.64.54-.89.93-1.25ZM94.37,64.11c.39-.02,1.47-.06,1.39-.06.02-.43,2.06-2.29,2.26-2.25v-2.57s-.9-.32-.9-.32c-.14-.05-.06-.76-.21-.77-.41-.01-1.38,0-1.63,0-.4.61-.61.83-.98,1.2l-1.01,1.01c-.39.39-.54.59-1.2.92l-.08,1.79,1.9.05c.06.28.22,1.01.44.99ZM43.95,82.43l.24.59c.05.14.54.17.61.04s.27-.55.37-.65l1.1-1.07,1.04-1.01c.5-.49.86-.57.81-1.41-.03-.44-.44-.71-.84-1.1l-1.08-1.05c-.16-.16-.41-.56-.53-.71-.1-.11-.5.09-.53.23l-.17.75-1.77.12c-.18.61-.47.89-.97,1.12l-.39.73c-.07.13-.55.15-.72.21-.19.07-.05.69.13.78l.56.25c.28.36.69.83.96,1.09l1.19,1.11ZM50.34,86.31l.95-.99,1.06-1.11c.11-.1.53-.22.66-.3s.11-.57,0-.68-.58-.17-.69-.28l-1.01-1.13c-.49-.55-.65-.84-1.44-.83-.47,0-.73.45-1.11.84l-1,1.02-1.07,1.1c-.14.15-.73.28-.71.48.01.15.1.5.24.56l.54.25.99,1.1c.47.51.57.89,1.44.83.39-.03.74-.44,1.14-.85ZM39.93,87.9l.3-.6c.34-.29.75-.65,1.06-.97l1.07-1.1c.11-.11.68-.15.68-.3v-.69c0-.16-.6-.17-.71-.28l-.92-1.02c-.36-.4-.62-.88-.98-.9-.48-.03-1.08.1-1.27.35-.23.3-.62.72-.84.94l-1.02,1.03c-.36.37-.59.56-1.2.94l-.06,1.77,1.91.05c.09.37.13.8.3.93.04.03,1.48.27,1.69-.15ZM44.77,91.79l1-.98c.39-.39.55-.54,1.24-.96v-1.5s-1.27-.96-1.27-.96c-.35-.4-.55-.66-.92-1.24h-.55c-.37.63-.56.82-.94,1.18l-1.04,1c-.34.38-.61.61-1.23.99l-.02,2.65c.36.1.86.13.91.33l.2.78,1.69-.03c.33-.64.54-.87.92-1.25ZM34.76,92.76l1.02-.95c.34-.32.69-.62,1.1-.95.3-.25.27-1.28,0-1.54l-1.12-.96c-.4-.34-.6-.62-.93-1.23h-.56c-.38.62-.58.83-.96,1.21l-1.01,1.02c-.38.39-.57.57-1.24.97l-.03,2.63c.37.1.86.14.92.33l.21.78,1.62-.04.99-1.27ZM86.81,94.04c.4-.73.62-.91,1.03-1.16l.44-.68c.1-.16.62-.18.76-.32.1-.1-.04-.66-.17-.72s-.42-.18-.56-.24c-.3-.34-.72-.8-.99-1.07l-1.03-1.02-1.09-1.06c-.11-.11-.22-.52-.29-.66s-.64-.08-.7.06l-.25.57c-.46.42-.8.78-1.22,1.26l-.61.24c-.14.06-.18.54-.05.62,1.49.88-.12-.43,1.74,1.48.14.14.34.51.47.65.1.11.43.15.72.22l.05,1.9,1.75-.06ZM38.23,98.38l1.05-1.04,1.01-1,1.1-1.16.58-.24c.14-.06.18-.64.05-.7s-.57-.16-.67-.27l-1.04-1.14c-.49-.54-.62-.83-1.43-.82-.49,0-.7.42-1.11.82l-.99,1-1.01,1.01c-.49.49-.86.57-.82,1.41.02.47.39.7.83,1.1l1.13,1.05c.14.13.27.78.46.73.15-.04.49-.12.56-.24l.29-.51ZM84.06,97.05l-.06-2.85c-.3-.09-.83-.12-.88-.31l-.2-.77-1.72-.04-.36-1.05-1.64.12c-.18.64-.49.91-1.14,1.12l-.03,2.78,1.82.09c.28.6.68.91,1.03,1.27.15.16.4.57.53.72.1.11.49-.1.53-.24l.19-.75,1.93-.09ZM30.29,97.18l1.76-.14-.04-1.81c-.67-.2-.91-.46-1.17-.97l-.71-.39-.25-.7c-.11-.31-1.39-.12-1.72.21l-2.39,2.47c-.47.49-.86.6-.81,1.39.02.43.4.72.82,1.11l1.12,1.04c.12.11.22.54.3.67s.51.12.6,0,.27-.54.38-.64l1.11-1.06c.38-.36.62-.64,1-1.17ZM94.23,98.28l.85-.45-.1-1.56c-.58-.34-.85-.56-1.19-.93l-.99-1.07-.65-.44c-.12-.08-.15-.46-.22-.75l-1.65.02c.4.04-2.13,2.43-2.17,2.22l-.07,1.7,1.82.1c.31.62.52.84.94,1.22l1.14,1.01c.12.1.11.72.27.72h.69c-.67,0,1.63-1.66,1.35-1.79ZM90.75,103.69l1.24-.83v-.55c-.59-.39-.84-.59-1.19-.95l-1.01-1.02-.98-1.02-1.01-.99c-.37-.34-.6-.59-.98-1.22h-1.51c-.42.62-.62.85-.99,1.27-.37.37-.58.55-1.23.89v1.67c.77.14.98.4,1.08,1.1l2.83.07.12,1.82c.69.15.91.35,1.06,1.13l1.63-.02.96-1.36ZM34.07,102.24c.83-.23.99-.49,1.1-.98l.92-.38-.1-1.69c-.28-.08-.81-.12-.86-.31l-.22-.8-2.63.05c.44-.11-2.35,2.72-2.2,2.15l-.03,2.65c.77.14,1.02.4,1.11,1.15l2.9-.04.02-1.81ZM23.23,104.17l1.67-.15c.14-.66.38-.95,1.12-1.1v-1.61c.12.48-2.85-2.36-2.21-2.21h-1.53c-.41.63-.6.85-.97,1.22l-1.03,1.03c-.32.32-.67.66-1.14.93-.11,0-.08.61.1.7l.57.28.97,1.08.51.65c.09.12,1.04.25,1.67-.05.14-.07.12-.77.27-.78ZM99.23,105.37l1.05-1.01c.51-.49.86-.58.84-1.41-.02-.49-.42-.71-.82-1.12l-.99-1-1-1.01c-.49-.49-.57-.86-1.44-.82-.44.02-.71.42-1.11.86l-1.03,1.12c-.14.15-.77.27-.73.47.04.19.09.48.22.55l.59.29c.26.3.7.8.96,1.06l1.02,1.02,1.11,1.07c.11.1.21.53.3.65s.57.12.67,0,.22-.56.36-.7ZM27.83,110.07c.44-.82.59-.92.94-1.22l1.05-1,.45-.66c.08-.12.44-.15.76-.22l-.04-1.72c-.19.5-2.07-2.08-1.87-1.41l-.22-.74-1.85-.02-.05,1.89c-.32.09-.82.12-.88.32l-.22.75-1.89.09.05,1.75,1.27.9.9,1.26,1.58.03ZM17.79,111.06c.52-.81.62-.89.98-1.22l1.06-1c.27-.39.54-.65,1.18-.97v-1.63c-.69-.18-.94-.46-1.16-.97l-.74-.37c-.13-.07-.06-.75-.2-.75l-1.7-.03c-.27.71-.5.94-.93,1.2l-.98,1.04c-.37.4-.57.58-1.25.95l.03,1.59c.37-.09,2.2,1.96,2.27,2.17h1.43ZM94.96,110.91c.06-.23.13-.74.28-.77l.77-.16.07-1.79.94-.25c.19-.05.02-.72-.16-.78-.14-.05-.47-.17-.58-.27l-1-1.02-1.11-1.13c-.15-.15-.39-.53-.51-.68-.09-.11-.49.1-.55.23l-.23.55c-.45.28-.79.63-1.05,1.06l-.76.38s-.28,1.43.15,1.68l.6.34c.28.31.65.72.96,1.01l1.13,1.08c.11.11.23.53.29.68s.71-.02.75-.17ZM106.01,111.08l.08-1.89c.4-.12.72-.22.92-.25.15-.03-.03-.7-.1-.68-.39-.25-.81-.6-1.1-.9l-1.03-1.03c-.34-.34-.57-.63-.98-1.22l-2.72-.03-.09,1.91-.9.25c-.68.19.6.88,1.2,1.54l.99,1.09.67.43c.12.08.15.48.22.75h2.85ZM21.82,116.02c.35-.56.59-.85.94-1.18l1.06-1.03c.3-.29.8-.69,1.21-1.01v-2.57s-.91-.32-.91-.32c-.14-.05-.06-.75-.2-.76-.41-.04-1.38-.04-1.63,0-.4.59-.63.86-.97,1.2l-1.03,1.02c-.34.34-.62.56-1.19.96-.04.24-.05,1.31-.02,1.55-.12-.54,2.6,2.26,2.18,2.12l.56.03ZM100.83,116.07c.41-.82.59-.93.98-1.2.31-.43.54-.68,1.21-.95v-1.65c-.66-.29-.91-.52-1.22-.91l-.99-1.06-.68-.4c-.13-.07-.06-.72-.21-.73-.41-.03-1.38-.04-1.63-.01-.4.6-.61.86-.94,1.22l-1.2.98c-.13.24-.13,1.26,0,1.53.45.34.83.65,1.13.95l1.04,1.03c.35.35.67.74,1.05,1.22h1.47ZM12.77,115.78l1.02-.95c.36-.33.64-.57,1.16-.98.06-.27.08-1.25.05-1.55-.7-.33-.89-.53-1.22-.96-.41-.33-.64-.56-.98-1.22h-1.61c-.23.68-.47.9-.97,1.17l-.41.7c-.07.13-.47.15-.77.21v3.76c.37.09.86.12.91.32l.2.79,1.61-.06,1-1.25ZM110.92,116.09c.14-.97.4-.96,1.11-1.15l-.02-1.66c-.67-.33-.91-.54-1.2-.95l-1.03-1c-.36-.35-.62-.62-.92-1.12-.03,0-.65-.1-.6-.09-.35.59-.57.89-.94,1.2l-1.25,1.08-.04,1.66,1.98.02.03,1.98,2.87.02ZM106.85,121.09c-.59.05,2.68-3.09,2.07-2.19.12-.08.16-.65-.04-.72-1.27-.43.09.36-1.57-1.33l-1.02-1.04c-.22-.23-1.94-1.71-1.41-1.71h-.69c-.15,0-.16.59-.27.7l-1.16,1.04c-.17.15-1.89,2.12-1.71,1.42-.04.15.08.57.15.65.35.25.78.63,1.06.9l1.04,1.02c.37.36.58.59.95,1.22l2.6.05ZM17.32,120.32l.98-1,1.07-1.1c.15-.15.73-.29.71-.49-.02-.17-.08-.51-.22-.57l-.6-.25-.95-1.07c-.48-.53-.58-.88-1.42-.84-.46.02-.71.45-1.09.84l-.98,1-1.11,1.12c-.15.15-.73.28-.71.48.02.17.08.5.21.56l.59.26.97,1.06c.49.53.57.89,1.43.85.41-.02.71-.44,1.12-.85ZM7.32,121.32l.97-.99c1.71-1.74.37-.64,1.73-1.5.58-.37-1.87-1.61-2.21-2.61-.26-.2-1.32-.19-1.55-.05-.35.58-.58.84-.96,1.17l-1.02,1.01c-.31.4-.55.64-1.21.95l-.04,1.76,1.92.07c.07.29.06.94.27.95l.87.07c.22.02.7-.1.81-.26.09-.12.29-.45.41-.57ZM116.79,120.81c.12-.42.99-.93,1.29-1.11.34-.2-.28-.36-1.29-1.34l-1.03-1.01c-.35-.34-.59-.62-.96-1.18-.21-.12-1.28-.11-1.55.02-.3.57-.54.82-1.18,1.11l-.06,2.77,2,.03.03,1.99,1.77-.05c.33-.61.59-.88.97-1.24ZM11.29,126.31l.99-.97.99-1.05.72-.43s.26-1.44-.13-1.67c-.13-.08-.49-.23-.6-.34l-1.1-1.1c-.15-.15-.28-.73-.47-.71-.18.02-.49.07-.56.2s-.2.51-.3.61l-1.02.98-1.02.99c-.49.48-.86.61-.84,1.42.01.49.42.71.85,1.1l1.11,1.03c.15.14.29.79.48.76.16-.03.48-.1.56-.23s.23-.47.35-.59ZM111.85,127.07c.36-.85.56-.95.98-1.19.27-.46.51-.73,1.2-.95v-1.6c-.64-.36-.9-.6-1.23-.97l-.99-1.06-.66-.43c-.12-.08-.14-.45-.21-.77l-1.73.03c-.24.66-.5.92-.94,1.2-.31.44-.52.66-1.21.95l.05,1.59c.56.39.84.63,1.17.95l1.02,1.02c.36.36.68.73,1.07,1.23h1.48ZM124.03,124.94v-.69c0,.55-1.39-1.12-1.73-1.43l-1.06-.98-.41-.71s-1.37-.26-1.65.15c-.09.12-.27.46-.38.56l-1.09,1.12c-.13.14-.73.27-.71.47.01.14.11.5.25.56l.54.24c.34.4.68.78.99,1.09l1.01,1.01c.48.49.55.89,1.42.84.79-.05,2.82-3.11,2.82-2.24ZM118.04,132.04l.03-1.86c.29-.08.92-.08.94-.29l.08-.84c.02-.25-.06-.74-.24-.84l-.59-.32c-.28-.32-.68-.75-.98-1.04l-1.12-1.08c-.15-.14-.29-.8-.49-.74-1.43.44.6-.63-1.37,1.31-.35.35-.66.61-1.2.98-.04.25-.06,1.32-.03,1.54.65.36.87.57,1.22.94l.99,1.07.65.43c.12.08.16.45.24.77l1.86-.05ZM126.31,132.91c.13.14.65.18.67.03.01-.11.12-.49.19-.56l1.1-1.01c.54-.5.87-.63.85-1.44,0-.49-.45-.71-.84-1.09l-1.02-1.02-1.12-1.05-.28-.68c-.26-.63-1.95,2.08-2.68,2.22-.22.26-.21,1.34-.04,1.56.52.34.81.6,1.15.94l1.02,1.04,1,1.06ZM123,138.08l.08-1.83c.63-.2.92-.52,1.17-1.01l.79-.33c.46-.19-.56-.87-1.24-1.55l-1.04-1.02c-.34-.34-.6-.64-.96-1.11-.24-.24-1.27-.27-1.53.03l-.98,1.11c-.32.36-.73.66-1.23.99l-.03,1.7,1.89.05c.09.34.12.84.32.89l.76.2.05,1.89h1.94Z"/>
    <path d="M105.01,141.24l.06,2.74.79.18c.2.05.16.63.18.92l.06.81c.02.21.56.2.88.29l.1,2.8.78.18c.2.05.16.64.18.92l.05.83c.01.21.62.17.95.25l-.1,1.93H33.1s-.05-1.89-.05-1.89l.98-.3.05-2.7.78-.19c.2-.05.16-.63.17-.9l.05-.84c.01-.21.59-.19.91-.27l.08-2.8.78-.19c.2-.05.16-.64.18-.91l.05-.83c.01-.21.59-.19.91-.27l.08-2.78.93-.35.07-2.64.94-.37.06-2.64.96-.37v-3.54s.98-.36.98-.36l.03-3.64.97-.35.03-4.7.98-.28v-4.72s.99-.29.99-.29l.05-4.78c.41-.09.98-.3.98-.66v-5.33s.81-.2.81-.2c.42-.1.04-1.62.23-1.72l.73-.39c.34-.39.64-.72.98-1.06l1-1,1-1,1-1,1-1,1-1,1-1,1-1,1-1,1-1,1-1,1-1c.36-.36.64-.6,1.19-.96l.13-1.69c.27-.06.65-.07.71-.2l.42-.9h17.43c.32,0,.52.81.37.86l-.69.24-1.07,1.13-1,1-1,1-1,1-1,1.01c-.38.39-.57.6-1.2.95l-.04,1.65-1,.25.04,1.69c.61.36.83.58,1.19.94l1.01,1.02,1,1,1.01,1c.37.37.62.61.94,1.17l1.6.15c.33.59.57.82.94,1.18l1.01,1,1,.99,1,1,1,1,1,1,1,1.01,1,1,1,1,1,1,1,1,1,1.01.99,1,1,1.01,1,1,1.01,1.02c.28.28.71.67,1.04.94l.31.62c.09.18.55.16.89.17l.88.02c.23,0,.06.73.1.97l.11.82c.03.2.54.18.89.27l.04,3.74.96.28.04,3.72.96.28.04,2.72.95.3.05,2.65.93.35.07,2.71.96.27.04,2.72.96.34ZM74.05,133.09l-.02-10.97-1.91-.07c-.08-.31-.07-.86-.27-.88l-.84-.11c-.2-.03-.83.03-.88.23l-.18.74-1.88.12-.05,1.84-.98.3v8.8s7.01,0,7.01,0Z"/>
    <path d="M73.86,161.09l-5.56.02c-.33.5-.65.89-.98,1.22l-1.02,1.02c-.38.38-.54.61-1.25.9l-.03,14.65-.78.3c-.17.07-.21.4-.36.88h-24.55c-.47,0-.61-.67-.66-.97h-2.55s-.14.81-.14.81c-.03.2-.87.17-.91-.02l-.05-4.61,1.02-.31v-6.72s1-.28,1-.28v-6.71s1-.36,1-.36l.03-4.7c.65-.13,1.02-.39,1.09-1.12h63.83s.09,1.84.09,1.84l.97.26v5.72s1,.28,1,.28v6.71s1,.29,1,.29l.03,7.81.82.16c.2.04.23.78.04.83l-.68.18c-.19.05-.2.5-.29.93h-27.81c-.09-.73-.38-.93-1.08-1.23l-.02-13.36c0-.3-.72-.5-.91-.53l-.17-1.68c.66.79-3.05-2.48-2.1-2.21Z"/>
    <path d="M92.97,82.28c-.09-.42-1.6-.02-1.73-.25l-.39-.7c-.38-.33-.75-.67-1.07-1l-.97-1.01c-.1-.1-.45-.25-.56-.35-.15-.12-.23-.49-.34-.86l-3.8-.03-.12-1.88-.74-.2c-.19-.05-.24-.56-.33-.87l-1.77-.07c-.07-.27-.1-.64-.22-.72l-.66-.44-.97-1.07c-.31-.34-.67-.63-1.23-.92l-.02-3.7,1.01-.3.03-1.7c.22-.06.66-.09.74-.22l.43-.66,1.03-.99,1.02-1c.37-.36.58-.6.94-1.23h2.6c.39.67.56.84.94,1.21l1.02,1.02,1,1.01c.37.37.59.61,1.17.94l.12,1.56c.46.23.92.65,1.18,1.04l.6.29c.18.09.17.56.18.89l.04.83c0,.21.65.17.9.25l.13,1.83.75.18c.2.05.15.66.17.92l.07.82c.02.2.59.18.89.27l.09,3.78.96.33v2.79s-1.94.06-1.94.06l-.14.78c-.04.21-.8.25-.84.05l-.16-.68Z"/>
    <path d="M56.79,78.82c-.3.29-.74.78-.97,1.14-.03.09-.57.23-.62.1l-.32-.74c-.45-.24-.83-.54-.99-1.17l-1.73-.1c-.06-.25-.1-.62-.22-.71l-.63-.45-1.01-1.04-1-1.02c-.35-.36-.6-.59-1.21-.93l-.03-2.69.84-.17c.41-.09,0-1.61.2-1.73.18-.1.52-.31.71-.41l.99-1.05c.31-.33.7-.68,1.05-.98l.32-.57c.1-.17.49-.23.87-.34l.04-1.85,1.98-.05v-1.95s2.76,0,2.76,0c.39.6.63.86.98,1.21l1.01,1.01,1,1,1,1.01c.36.37.6.6,1.18.94l.11,1.7.79.15c.21.04.23.68.21.92l-.07.82c-.02.21-.63.22-.91.3l-.07,1.64c-.52.35-.85.63-1.22,1l-1,1.01-1,1-1,1-1.01.99-1,.98Z"/>
    <path d="M71.83,63.09l-2.57-.06c-.38-.6-.61-.85-.97-1.2l-1-1.01c-.27-.28-.72-.68-1.05-.95l-.31-.61c-.09-.18-.54-.17-.88-.17h-.82c-.21-.02-.13-.8-.33-.86l-.7-.2c-.14-.04-.24-.64-.11-.7l.74-.34c.17-.08.22-.52.32-.83l1.74-.13c.19-.55.57-.9.98-1.12l.28-.62c.08-.18.58-.17.89-.19l.81-.05c.21-.01.19-.57.28-.92l3.73-.06.34,1.03,1.67.04c.21.6.63.91.99,1.16l.29.61c.09.18.58.19.89.19h.89c.9.01-.79,1.37-1.13,1.71l-1.02,1.03-.99,1-1,1.01-1.01,1.01c-.36.36-.52.38-.95,1.25Z"/>
    <path d="M78.01,83.09h-13.85c-.09-.29-.22-.72-.1-.79s.55-.26.65-.36l1.08-1.08,1.01-1.01,1-1,1.01-1.02.97-.99c.4-.41.6-.79,1.1-.82.8-.05.91.34,1.38.81l1.02,1.03,1,.99,1,.99c.39.38.6.59.94,1.2l1.81.08-.03,1.97Z"/>
  </g>
</svg>