<?xml version="1.0" encoding="UTF-8"?>
<svg id="Layer_2" data-name="Layer 2" xmlns="http://www.w3.org/2000/svg" viewBox="0 0 457.99 306.84"><style>path,polygon,circle,rect,ellipse,line,polyline { fill: #D4AF37 !important; stroke: #D4AF37 !important; }</style>
  <g id="Layer_1-2" data-name="Layer 1">
    <path d="M208.39,210.37l1.47,10.43-5.29-3.87-10.18,10.44,6.17,9.05-7.85-5.29c-1.6-1.08-5.18,2.48-6.7,3.51.83-2.24,2.97-9.72,3.24-10.95,5.21,1.12,11.55-5.37,12.92-9.95l-9.85-9.73-8.32,6.63c3.34-9.02,11.23-14.88,18-20-1.24,4.17-4.08,7.19-7.86,11.07l10.28,10.48c1.17-.51,3.14-1.36,3.96-1.82Z"/>
    <path d="M238.01,198.64c4.36-1.43,9.13-5.7,12.47-9.42l-6.94-10.3,8.92,6.23,10.47-10.52-10.5-10.55-9.09,6.54c4.22-8.16,9.19-12.93,16.9-17.94-1.53,3.21-3.24,5.6-5.94,9.11l12.55,12.83-12.47,12.76,6.28,9.26-8.75-6.33-9.7,11.49,10.77,10.8c5.99-8.44,12.25-15.97,21.17-21.61-2.73,4.71-4.7,7.07-7.84,10.85l10.23,10.44,5.6-3.81c-.63,3.16-2.66,6.77-1.65,8.26l5.23,7.73-8.68-7.24-11.24,10.37,11.35,10.78,10.68-12.14,11.22-11.42-9.8-10.11-8.34,3.46c1.26-6.03,17.67-17.08,16.88-18.82l-3.81-8.3c2.19.73,5.87,4.99,7.34,3.6,2.17-2.05,4.91-4.87,6.18-6.43,2.64-3.26-7.08-12.44-8.47-11.89l-4.96,1.96c4.05-7.15-2.75-14.43-8.69-15.09l-6.9,8.59c4.78,5.43,7.9,8.03,13.86,10.78l-13.87,14.98c2.37,3.18,4.29,5.97,5.81,9.02-7.73-5-12.71-9.81-16.92-17.93l9.2,6.57,10.21-10.62-10.15-10.37-9.45,6.11c4.36-6.71,10.75-12.93,15.99-18.81,1.06-3.78-5.32-12.04-9.11-11.18-1.85.42-6.78,4.5-6.35,6.35l2.03,8.73-17.79-17.6-9.59,9.59,4.1,6.8-8.43-3.56-6.24-11.94,8.88,6.77,11.08-12.93,12.05,13.05,7.58-7.04c2.71-2.52-7.81-11.13-14.63-18.92-1.79-2.04-4.72-6.49-6.64-5.55s-7.04,4.5-6.57,6.59,2.32,4.97,4.5,9.79c-6.8-4.3-12.57-9.8-16.61-17.68l8.14,5.7c1.69,1.18,5.27-3.27,6.9-4.97,3.77-3.93-6.28-11.9-16.17-23.49-2.05-2.4-9.79,3.97-9.11,7.11.94,4.31,5.3,8.04,11.47,9.16l-14.49,15.54,10.17,10.18,6.88-2.62-17.03,18.85,3.75,3.34c.48.43-.25,3.33-.73,2.89l-4.12-3.7-11.28,11c4.31,4.19,7.23,7,14.5,11.17l-14.36,14.91,10.13,10.88,9.63-7.65-6.57,10.82c-1.55,2.55-8.09,7.03-10.72,8.48-.31-2.22,3.86-5.83,5.39-8.61-.95-4.49-6.16-9.42-11.77-11.11l-4.35-10.11,5.86,3.75c1.46.94,4.72-2.45,5.98-3.91l4.38-5.09c1.44-1.67-8.59-10.52-9.15-10.29l-7.88,3.13c2.43-7.72,18.72-16.5,16.78-19.97l-4.09-7.28,7.11,4.16,10.51-10.63-14.33-12.57,13.3-12.1c-1.07-3.24-5.93-8.47-8.85-9.27l-20.72,22.03,7.33,9.6,9.17-5.19c-4.95,6.9-8.67,10.57-14.99,15.99l3.75-8.3c-.25-1.52-6.19-7.04-8.54-8.07l-15.92,17.23c-1.5,1.62-5.46,5.61-4.21,7.07l5.65,6.6c2.31,2.71,11.63-6.96,10.76-9.21l-2.88-7.43c5.66,4.62,10.37,9.16,15.83,17.43l-9.83-7.22-10.85,10.75c4.04,3.98,7,7.06,14.08,10.95l-13.34,14.88,6.14,9.16-7.92-5.85-10.69,10.67,8.35,8.97c.85.91,4.22,1.19,5.56.12l2.01,10.19-5.42-3.86-10.59,10.63,10.71,10.91,5.29-3.86c-.6,1.61-2,4.45-3.31,7.08l5.49,7.49-9.06-5.07-20.15,22.7c5.68,3.92-1.95,13.52-7.62,13.54l-99.18.41c-2.33-6.6.98-9.97,5.46-14.88L228.42,78.67l173.75,189.44c3.22,3.51,4.15,7.4,3.44,12.62l-97.97-.08c-3.27,0-9.88-5.57-10.16-8.77-1.16-13.32-9-14.21-8.44-14.55l-5.58,3.37,3.66-8.63,10.99-6.96-5.63,7.66c-1.46,1.98,2.35,7.28,4.22,8.88l4.37,3.71c1.3,1.11,10.76-8.78,9.09-11.4l-5.8-9.09,8.7,7.54c2.27-1.93,7.43-6.92,8.79-10.42,1.28-3.31-6.11-10.04-9.44-11.2-4.5,4.04-7.44,8.96-11.05,15.22l-10.79-14.99c-2.24.2-7.05,3.23-8.62,5.23s-.75,6.42-.32,10.42l-3.76-3.11c-.93-.77-2.87,1.02-4.33,2.37l-2.77,2.56c-7.28,6.73,3.9-7.73,3.12-8.61l-4.36-4.89c-1.05-1.18-3.51-4.37-4.81-3.93l-8.16,2.76,18.16-19.32-9.83-10.1c-1.58.51-5.87,3.7-6.95,5.57-1.26,2.18-.62,6.72-.29,10.66l-4.69-3.36c-1.01-.73-3.58,3.1-4.49,4.1-3.2.74-5.99,1.04-2.29-.89,1.83-2.75,4.62-5.47,3.69-6.53l-4.31-4.89c-.91-1.04-3.69-4.89-4.91-4.24l-6.96,3.71,4.31-9.9ZM178.24,188.92l-6.98-10.39,9.16,6.68,10.51-10.54-10.55-10.61-8.73,6.45c2.54-5.04,5.61-7.98,5.61-10.25s-4.61-6.05-6.76-6.77-5.23,3.49-8.1,6.27c-1.7,1.65-.46,7.56,2.15,9.19,1.78,1.11,4.45,1.91,8.62,3.42l-14.77,14.91,6.35,9.49-7.98-5.89-10.8,10.8,10.82,10.66,21.44-23.42ZM141.41,198.31c5.7.47,13.26-8.43,12.34-10.29l-3.71-7.46,6.61,4.77,10.03-10.59c-2.2-2.94-7.19-7.62-9.58-8.63l-18.1,19.54c-1.01,1.09-2.7,3.94-2.03,5.16l3.36,6.21-5.86-3.82c-2.31-1.5-11.62,8.96-9.36,11.31l6.96,7.27c4.45-2.1,8.84-9.42,9.34-13.48ZM313.06,200.01l7.77-10.85-9.79-10.34-8.88,9.21,10.9,11.98ZM292.19,228.41c1.97,3.89,5.47,7.44,8.76,10.77l10.78-12.93c2.1-2.51,8.64-7.23,9.9-10.29,1.24-5.38-7.25-12.55-12.5-10.32,1.29-4.89-1.45-9.82-8.07-14.48l-11.23,10.38,10.84,10.42,7.38-5.54c-1.82,3.87-5.73,7.91-4.19,9.93l6.47,8.49-9.31-7.3c-2.16.78-10.35,7.81-8.81,10.85ZM331.84,201.63c-2.21-2.99-5.19-6.52-7.7-9.37-3.25,1.91-8.29,6.38-8.21,9.23s4.94,7.57,8.1,9.49c2.81,1.72,9.77-6.68,7.81-9.35ZM120.01,226.03l10.83-11.62-9.68-9.18-9.57,11.3,8.42,9.5ZM119.87,251.49l17.89-17.47c-1.11,3.45-1.53,4.38-3.19,8.01l9.28,9.34,17.63-16.88-2.53,7.22c-.36,1.03,8.17,10.11,9.7,8.78l5.03-4.33c1.32-1.14,5.32-4.9,4.19-6.2l-4.36-5.06c-1.3-1.51-4.49-4.77-5.94-3.91l-5.85,3.45,3.62-6.99-8.58-10.57-10.38,10.47,6.18,9.1-7.69-5.29c-1.55-1.07-4.5,2.07-6.83,3.02l2.91-6.51c.51-1.13-1.71-3.22-3.31-6.66l7.43,3.85,9.92-10.37-11.44-10.92-8.74,12.42c-2.55,3.62-11.06,8.26-12.12,11.95l3.26,6.19c-3.23-1.72-5.32-3.79-6.48-3.05l-5.66,3.6,3.04-8.18c.67-1.79-4.93-6.43-6.83-6.65-4.55-.54-11.17,9.21-9,13.37-7.2-1.77-13.31,8.75-12.74,10.05l2.93,6.68-5.29-3.91c-1.12-.83-3.65,1.66-5.37,3.25-3.89,3.61-4.63,8.04-2.91,13.37l-4.82-2.49c-1.83-.95-7.89,7.28-6.86,7.6l6.03,1.86c1.48.46,7.73-.18,7.25-1.68l-1.79-5.6,7.24,3.01c1.15.48,2.92-2.79,4.17-4.29l15.57-18.64c.66-.8-.19-5.04.72-4.78.68.2,3.43.39,4,.02l4.1-2.76c.53-.36,1.13,2.39.65,2.82l-3.89,3.49,9.86,10.28ZM179.18,214.58l-10.63-10.2c-3.03.6-8.36,7.45-8.51,11.21-.13,3.24,6.09,9.21,8.83,8.91l10.31-9.92ZM349.71,237.58c2.42-.4,7.05-6.54,7.74-8.3l-9.11-11.04-7.93,6.18,4.42-8.68c.69-1.35-2.9-4.85-4.11-5.77l-5.49-4.15c-.66-.5-9,7.46-7.74,9.56l3.98,6.64-7.07-4.47c-2.62,2.22-8.75,7.39-8.21,10.56.75,4.4,6.91,9.73,10.2,10.28l11.48-15.28c2.73,6.06,6.64,14.67,11.84,14.46ZM335.4,255.03l-5.06-8.04,7.06,5.44,10.16-11.2-10.8-11.15-10.84,12.81c-3.13,3.7-8.17,8.76-10.66,12.53l10.21,11.23,9.93-11.63ZM361.36,252.61l9.25-10.06-10.54-10.61c-2.83,2.35-9.09,7.44-7.75,10.03,2.04,3.95,5.83,7.58,9.04,10.64ZM107.99,267.2l10.76-12.83-10.75-10.68-10.89,10.91,10.88,12.6ZM132.13,266.52l10.66-12.09-10.79-10.75-11.08,11.12,11.21,11.72ZM156.32,266.29l10.12-12.02-10.37-10.61-10.9,10.89,11.15,11.74ZM349.39,267.18l10.8-12.08-11.02-11.42-10.08,10.97,10.29,12.53ZM373.47,267.21l8.95-10.58c-2.41-3.8-6.9-9.1-10.33-10.11-2.84-.84-9.7,7.3-7.82,9.57l9.2,11.12ZM105.5,269.16l-9.81-11.56-8.98,11.49,18.79.08ZM128.67,269.13c-2.07-4.17-5.62-9.46-8.74-9.63-2.82-.15-6.6,5.47-8.61,9.61l17.35.03ZM153.63,269.16l-9.83-12.8-9.21,12.88,19.04-.08ZM322.89,269.07l-9.64-12.3-9.25,12.23,18.89.07ZM346.56,269.01l-9.01-11.77c-4.46,4.55-6.15,6.79-9.2,12l18.2-.23ZM370.83,269.09l-9.17-11.42-9.19,11.4,18.36.02ZM393.11,268.92l-8.56-10.1-8.12,10.35,16.68-.25Z"/>
    <path d="M238.01,198.64c-4.35-3.49-8.08-6.4-12.34-7.57l-5.71-12.38,8.33,6.63,10.64-10.72-10.1-10.06-7.89,3.37c6.06-8.47,10.91-12.77,17.07-17.28-1.17,4.15-4.14,7.28-7.91,10.99l12.78,13.01-12.79,13.02c4.03,3.95,7.18,7.37,7.93,10.98Z"/>
    <path d="M405.22,188.31c-.04-2.57-3.95-6.43-6.52-6.43-3.24,0-6.92,4.63-6.89,8.27l.18,20.43-19.09-.34-.12-21.93c-.01-2.18-3.82-6.19-5.92-6.47-2.53-.34-7.22,3.63-7.29,6.51l-.59,23.14c-13.97-3.22-19.05-14.43-19.19-26.59-2.06-1.53-8.5-2.51-12.19-2.55l-35.16-39.31,162.04-.41.24,67.39-17.16.73-.25-22.16c-.03-2.71-3.97-6.62-6.34-6.77s-6.92,3.8-6.92,6.48v21.81s-18.53.57-18.53.57l-.31-22.36ZM338.66,158.61c.13-1.73-.07-6.94-1.62-6.91l-6.85.17c-1.46.04-2.38,11.06-.08,15.55.93,1.82,7.79,1.46,7.94-.58l.61-8.23ZM367.53,151.12c-1.66.1-6.03-.03-6.13,1.56l-.52,8.21c-.14,2.18.17,5.59,1.35,6.72s5.69,1.3,6.96.27c1.99-1.61,3.32-17.07-1.67-16.75ZM403.46,158.51c.11-1.86.28-6.77-1.31-6.78l-7.1-.04c-1.87-.01-2.62,12.48-.12,15.99,1.21,1.7,7.92,1.28,8.04-.8l.49-8.36ZM433.17,151.28c-2.09.1-6.41-.35-6.54,1.21l-.69,8.17c-.15,1.74-.37,7.49,1.28,7.49l7.39-.02c1.02,0,2.93-17.07-1.44-16.86Z"/>
    <path d="M66.08,210.74l.14-20.78c.02-2.52-2.77-7.37-5.18-7.84-3.41-.66-8.03,2.89-8.09,6.08l-.4,22.4-18.43-.06-.17-21.78c-.02-2.31-3.13-6.31-5.11-6.77-2.37-.56-7.94,2.51-8,5.19l-.5,23.2H3.31s.1-67.75.1-67.75l161.44.29-34.5,38.4c-1.82,2.02-10.39-.08-10.95,2.02l-2.46,9.26c-2.13,8.02-8.41,14.76-17.66,19.34l-.88-21.72c-.09-2.21-2.08-6.34-3.71-7.65-1.96-1.57-9.12,1.25-9.18,3.88l-.62,23.75-18.79.56ZM29.23,151.43c-2.26.14-6.18-.37-6.3,1.16l-.68,8.19c-.14,1.66-.2,6.97,1.41,6.98l7.12.04c1.62,0,2.89-16.64-1.54-16.37ZM64.64,158.46c.12-1.58-.08-6.69-1.61-6.66l-6.81.15c-1.41.03-2.48,11.08-.13,15.42.97,1.79,7.78,1.38,7.93-.64l.62-8.28ZM96.87,158.49c.14-1.53-.27-6.81-1.8-6.75l-6.79.26c-1.38.05-2.32,10.17-.15,15.56.77,1.92,7.82,1.31,8-.73l.75-8.33ZM126.89,151.62c-2.84.03-6.79-.54-6.94,1l-.77,8.23c-.16,1.72.68,6.02,1.74,7.26s5.64.43,6.93-.58c1.73-1.36,2.43-15.95-.96-15.91Z"/>
    <path d="M374.37,124.44l16.07-44.69,41.05.21,15.33,44.82,4.89-13.53c5.5,11.02,6.16,18.33,6.28,29.36l-167.63-.07c-5.96-5.08-13.53-12.38-17.53-18.76l.05-30.05c0-1.91-2.77-4.86-4.23-5.41-1.82-.68-7.73,1.09-7.94,2.9l-2,17.03-26.77-29.18,57.94-.39.75,41.25c.04,2.26,1.73,7.26,3.43,8.48s6.86.92,9.06.56c2.52-.4,2.6-6.32,3.25-10.19l6.48-.33c1.91-.1,1.06,5.84,1.3,9.57,4.07,1.3,14.24,1.84,18.3-.28,1.56-.81.94-6.68,1.48-8.36s6.24-1.89,6.62-.15l1.77,8.21c.48,2.23,7.15,1.94,9.45,1.73l6.57-.6c1.24-.11.95-3.55,1.12-6.37.11-1.75,3.86-5.06,5.49-4.37s2.82,3.78,3.28,6.19l.87,4.6c.16.84,4.79-.89,5.25-2.18ZM418.11,126.61c-.19-7.35-.49-15.05-1.1-19.08-.26-1.7-5.72-2.81-7.44-2.36-1.38.37-4.16,2.96-4.2,4.47l-.44,16.98,13.17-.02Z"/>
    <path d="M26.65,80.31l41.06-.29,17.48,47.88c5.27-1.96,5.69-6.61,5.9-10.75.23-.45,5.76-2.24,6.03-.88l1.83,9.2c2.4,2.2,14.4,2.94,17.04-.54l1.84-8.27c.37-1.65,6.29-.94,6.65.69l1.79,8.11c.49,2.22,7.22,1.86,9.49,1.68l6.84-.55c3.25-.26-1.45-7.17,4.56-11.13,10.46-6.9-3.12,12.83,14.31,11.97,2.98-.15,6.37-5.67,6.46-9.73l.95-40.91h56.26s-24.01,26.87-24.01,26.87l-2.46-10.6c-.58-2.5-3.44-6.31-5.63-7.04s-7.84,2.72-7.82,5.04l.29,29.44-19.15,20.08H0c.13-10.35,1.34-17.76,5.32-28.51,2.83,3.44,3.74,6.25,6.21,12.92l15.12-44.69ZM53.5,126.92l-.09-18.37-6.25-3.56c-1.5-.85-6.1,2.8-6.14,4.59l-.33,17.01,12.81.32Z"/>
    <path d="M228,306.84l-81.79-14.9,82.77-80.5,82.62,80.51-83.6,14.9ZM211.21,246.03l13.84-12.43c2.04-1.84,1.23-9.75.1-11.91-8.49,8.53-18.21,13.4-13.94,24.34ZM246.95,246.15c.56-4.16.79-10.35-.97-11.94l-12.91-11.68c-1.54,3.5-1.3,10.57,1.41,12.9l12.48,10.73ZM211.28,264.01l13.62-12.93c2.23-2.12,1.55-10.5.36-12.94l-9.71,8.24c-5.16,4.38-7.67,11.3-4.27,17.63ZM247.26,264.17c.78-3.69,1.46-11.75-.82-13.83l-13.27-12.06c-1.95,3.46-2.19,11.51.56,13.94l13.52,11.94ZM192.8,263l11.36-9.11c1.95-3.48,2.71-8.12,1.77-13.31l-12.89,11.5-.24,10.92ZM252.15,240.74c-3.09,12.02,5.86,15.5,12.73,21.4,4.05-9.35-6.47-15.79-12.73-21.4ZM210.89,284.18c13.17-11.41,18.71-13.15,14.23-28.8l-13.81,13.18c-2.83,2.7-2.07,12.56-.42,15.61ZM204.71,270.12c2.49-2.31,2.04-11.23.82-12.84-8.98,6.17-16.52,12.11-12.38,23.58l11.55-10.74ZM247.75,284.79l.28-15.5-15.21-13c-1.19,3.16-2.43,12.38.38,14.99l14.55,13.5ZM266.02,279.49c2.11-13.76-6.99-18.8-14.31-22.59-2.88,12.62,6.54,19.71,14.31,22.59ZM185.49,271.29c2.77-2.22,3.98-8.09,3.2-12.72-7.28,4.29-14.39,10.05-12.08,19.83l8.87-7.12ZM281.7,277.02c.66-10.82-5.98-15.28-12.03-17.84-1.18,9.93,5.75,15.22,12.03,17.84ZM281.1,282.84l-10.23-9.32c-1.11,2.28-1.85,8-.44,10.02s7.57.57,10.67-.7ZM164.81,281.2c2.17.6,7.17,1.72,7.1.05l-.29-6.49-6.8,6.45ZM178.06,283.39c4.3,1,9.95,2,9.91.2l-.18-9.32c-4.52,2.6-8.93,6.44-9.73,9.12ZM206.45,288.08l-.79-13.76-12.22,11.32,13.01,2.44ZM264.8,285.33l-12-11.2c-.8,3.46-1.4,8.83-.64,11.56s8.41,1.37,12.64-.36ZM292.76,281.09l-6.13-6.49c-.67,1.62-1.46,7.41.09,7.23l6.04-.73ZM226.29,291.14l-.93-15.54-14.49,13.43,15.42,2.1ZM246.91,288.92l-14.34-13.14c-.68,5.26-1.02,11.35-.04,14.15,4.4,1.06,9.16.36,14.38-1.01Z"/>
    <path d="M240.4,52.12l-11.75-4.5-62.09,25.4c1.11-4.36,5.42-9.23,9.74-12.76l-.1-53.46,11.73-.43.75,23.6,13.89-11.12c3.02-2.42,2.83-12.18,3.89-15.87,4.76,2.8,14.9,5.22,18.53,1.45L229.17.1c.8-.83,2.77,3.89,3.75,4.58,4.44,3.11,13.53.93,19.6-2.09.69,4.42,1.72,12.5,3.19,15.99l14.28,13.68.39-25.63,11.59.04.38,53.64c2.75,3.33,6.25,8.31,7.96,12.11l-49.91-20.29Z"/>
    <path d="M421.08,258.14l-12.45.46-.5-24.45c-.07-3.56-6.13-8.85-9.47-8.84-4.09.01-8.61,4.86-9.01,8.83l-1.35,13.61-17.76-19.71c-4.43-4.92-8.83-8.74-13.86-15.02l97.82-.27.28,45.04-14.09.87-.46-24.53c-.07-3.65-5.96-8.79-9.26-8.73-3.5.07-9.42,5.34-9.48,8.67l-.4,24.05Z"/>
    <path d="M49.85,257.85l-12.14.8-.64-23.76c-.1-3.73-4.73-8.91-8.24-9.45-4.49-.7-10.56,4.08-10.65,8.74l-.45,24.45-14.37-.2.1-45.61,96.84.21c-3.39,6.44-8.66,9.88-13.02,14.81l-16.86,19.03-1.73-13.66c-.38-2.98-4.94-7.32-7.97-7.9-3.22-.62-10.17,4.21-10.25,7.51l-.61,25.04Z"/>
    <path d="M243.07,73.37c-10.37.25-19.83.25-29.11,0l-36.44-.99,51.99-21.54,51.1,21.65-37.54.89Z"/>
  </g>
</svg>