<?xml version="1.0" encoding="UTF-8"?>
<svg id="Layer_2" data-name="Layer 2" xmlns="http://www.w3.org/2000/svg" viewBox="0 0 83.15 191.73">
  <g id="Layer_1-2" data-name="Layer 1">
    <path d="M80.54,187.14l2.5,1.85c.55.41-1.24,2.74-1.95,2.74H2.24c-.96,0-2.68-2.31-2.14-2.72l2.46-1.84c1.89-1.41,4.69-4.07,4.7-6.89l.07-39.38c4.4-.74,9.26-1.23,14.14-1.68l11.1-1.02c6.19-.57,11.82-.57,18.01.02l10.09.97,15.1,1.44.11,39.62c0,2.9,2.68,5.42,4.65,6.87Z"/>
    <path d="M45.68,128.58c.02-1.58-2.28-4.1-3.64-4.21-1.78-.14-4.56,2.17-4.53,3.8l.17,8.12-30.31,2.64-.2-36.35c0-.91-1.3-2.54-1.58-3.01s1.26-1.71,1.71-1.39l3.11,2.22,1.05-2.15c.33-.67,2.65.6,3.39.75.69.14,1.93-2,2.52-1.62l2.94,1.92c1.02-1.18,1.68-1.95,2.33-2.56s3.13,1.88,3.35,2.53l2.35-2.94c.75-.94,4.06.69,5.22,1.59.64-1,.97-2.41,2.07-2.41,1.75,0,4.97.71,5.98.97l5.22-1.17c1.14-.26,2.32,1.71,2.51,2.65,1.31-.65,3.6-1.64,4.81-1.87s2.48,2.46,2.92,3.25c.4-.78,2.83-3.18,3.49-2.58s1.21,1.28,2.41,2.68l2.24-2.09c.54-.5,2.23,1.65,2.96,1.56.58-.08,1.87-.65,2.46-.87.68-.26,1.57,1.16,2.48,2.39l1.51-1.68c.47-.52,2.29-.04,2.95.4.58.39-1.25,2.16-1.57,2.86l-.2,37.09-30.18-2.77.08-7.75Z"/>
    <path d="M41.32,65.07l-37.01,4.49c-.83-.93,1.01-2.49,2.68-3.46l.48-13.33c.04-1.19,3.83-2.41,4.59-2.14l.98,8.14c2.98-1.15-.49-8.57,1.99-9.03l4.78-.89,1.24,7.85,1.23-7.8c.21-1.36,5.29-1.31,5.45-.69.16,3.07-.04,5.58,1.09,8.2,2.71-8.19.46-27.07.92-29.96.23-1.43,2.56-2.12,4.23-2.44,1.12-3.27,3.1-6.36,6.41-8.14l-.43-4.52,1.67-11.34,1.58,11.38-.25,4.6c3.18,1.74,5.19,4.82,6.18,8.06,1.37.32,3.79.73,4.05,1.76.37,1.48.41,3.55.22,5.17-1.05,8.48-.52,16.5.98,25.33,1.12-2.49.89-5.08,1.05-8.17.18-.58,5.18-.48,5.47.84l1.25,7.71,1.15-7.63,4.25.41c3.6.35-.67,8.18,2.7,9.32l.59-8.18c.75-.27,4.78.92,4.83,2.13l.52,13.33c.02.44,1.89,1.3,2.32,1.33.57.04.31,2.25-.19,2.19l-36.98-4.52ZM43.4,34.88c-.02-1.12-.22-2.63-.32-3.19s-2.13-.88-2.45-.45c-1.16,1.56-1.64,6.01-.66,7.75.43.77,3.53.91,3.52.05l-.08-4.17Z"/>
    <path d="M46.61,79.42c-.03-3.04-1.74-5.7-4.53-5.9-3.6-.26-5.47,2.4-5.52,5.96l-.2,14.55-9.06.71.12-13.13c.03-2.67-3.27-6.07-5.41-6.12-2.96-.07-6.54,2.59-6.46,6l.35,14.5-8.9.59.1-25.34,24.48-3.85c6.35-1,12.76-1.11,19.09-.11l25.32,4,.08,25.27-8.74-.63-.26-16c-.03-1.73-3.38-4.17-5.07-4.36-8.02-.93-6.07,12.62-6.13,18.96l-9.12-.43-.15-14.66Z"/>
    <path d="M25.47,94.9l-8.1.91.4-16.28c.04-1.53,3.78-2.53,5.15-1.92,1.28.57,2.81,3.11,2.79,4.63l-.23,12.66Z"/>
    <path d="M45.21,93.41l-7.22-.03-.54-13.91c-.06-1.57,2.36-3.94,3.72-4.1,1.62-.19,4.58,2.2,4.53,3.83l-.49,14.21Z"/>
    <path d="M65.76,95.73l-8.06-.6-.09-14.76c0-1.52,3.09-3.33,4.48-3.13s3.63,2.54,3.63,3.97l.03,14.52Z"/>
    <path d="M44.6,129.87c.1,2.04.33,5.63-.74,5.95s-2.76.33-4.07.24c-1.91-.12-2.09-8.8,1.27-9.75,1.31-.37,3.45,1.84,3.54,3.56Z"/>
  </g>
</svg>