<?xml version="1.0" encoding="UTF-8"?>
<svg id="Layer_2" data-name="Layer 2" xmlns="http://www.w3.org/2000/svg" viewBox="0 0 806.11 605.03"><style>path,polygon,circle,rect,ellipse,line,polyline { fill: #D4AF37 !important; stroke: #D4AF37 !important; }</style>
  <defs>
    <style>
      .cls-1 {
        fill: #fff;
      }
    </style>
  </defs>
  <g id="Layer_1-2" data-name="Layer 1">
    <path class="cls-1" d="M587.8,355.73l-1.33-10.54,6.04,5.74c1.1,1.05-3.22,4.01-4.71,4.8Z"/>
    <path d="M.6,604.81l-.6-101.24,145.29-29.61,156.08-32.61c-2.53-3.22-4.92-7.26-4.92-10.9l.13-84.75,120.88.09.1,91.67,82.36,12.52,184.53,32.28c.99-3.06,1.17-7.79,2.86-8.02l10.51-1.45,1.47-17.89c7.67-8.56,8.74-17.62,8.16-28.82-.63-12.28,1.3-25.74-2.8-37.38-1.11-3.15-9.07-8.05-6.48-12.04,7.1-2.02,12.25-4.6,13.32-13.02l9.99-4.09c2.46-30.61-14.81-22.16-4.95-48.14l7.1-18.72c-3.75.32-9.79,1.45-11.61-.58-1.61-1.79-7.02-21.75-4.11-26.68l6.72,12.42c.84,1.55,2.5,3.84,3.83,4.29s4.22-2.65,4.78-4.1l6.3-16.32c-4.02-9.17-3.93-20.43-.12-30.76,3.97-1.76,13.54,2.26,15.01,6.37-.75,3.88-2.03,9.29-1.41,12.16s7.44,5.66,9.69,8.01c10.39,10.83,12.03,28.79,9.94,43.26l-2.9,20.08c-1.61,11.1-.73,28.11,3.3,38.77l4.92,13.01,8.69,3.35c5.15,4.07-5.21,9.37-5.72,13.37-2.09,16.29-3.66,37.37-.33,53.75,2.23,10.95,12.06,18.33,5.59,32.46l19.85,1.4-.28,19.79-64.61-10.57c-4.63-.76-12.38.13-17.85.75l92.81,16.35-.27,101.73-259.43-101.65-127.36-47.42-23.27-.2-.76-36.8c-.36-17.72-16.19-48.84-37.42-48.58-21.49.27-35.55,31.17-35.9,48.69l-.72,36.77c-8.89,0-15.5.64-23.09,4.74L.6,604.81Z"/>
    <path d="M97.66,469.73c7.68,1.87,10.86.63,15.98,6.33l-102.64,20.46-.53-22.8,18.76-1.1c-5.74-13.09,3.54-20.12,5.91-30.68,3.02-13.46,1.44-32.1.52-45.23-1.82-2.49-5.97-8.52-6.86-10.21,5.77-3.45,10.25-6.26,11.14-11.82,10.68-66.7-1.78-37.95,1.95-66.63,1.68-12.91-.54-28.93,8.63-39.18,5.55-6.21,14.88-12.12,7.12-23.42l20.27,4.9c-3.82,28.53-14.18,17.16,2.21,40.4,4.24-3.45,7.82-6.42,10.6-7.87,1.47-.77,4.86,4.49,3.97,5.89l-3.87,6.08c.97,3.35,2.45,9.28,2.16,13.26-.22,2.99-5.1,5.17-8.74,7.52.3,8.35,5.67,19.68,2.73,27.86s-11.62,19.85-6.02,27.47l10.15,11.56c1,1.14,5.69,2.05,7.24,2.32,7.59,1.33-8.28,10.25-7.79,23.06.44,11.34-.81,23.49,1.58,33.81,2.12,9.14,11.65,15.05,5.53,28.02Z"/>
    <path d="M417.51,260.14l-120.37.09c-1.33-12.27.79-25.72-1.91-36.84-1.42-5.84-4.58-10.33-3.36-17.13,3.5-19.53-7.16-16.93-3.64-48.09l138.36.09c4.68,32.17-5.5,26.3-3.08,43.74,1.29,9.28-2.81,14.85-4.92,22.68-2.71,10.05-.39,21.99-1.07,35.44ZM314.22,163.46c-1.33,3.4-.21,8.66,1.82,8.49,3-.25,7.37.32,8.21-1.53s.86-6.85-.69-8.17-8.58-.72-9.34,1.2ZM349.14,171.52c2.69-.37,1.88-9.71-.97-9.7-2.56,0-8.66-.43-8.68,1.36l-.08,7.53c-.02,1.79,6.53,1.25,9.73.81ZM374.45,162.45l-8.86-.52c-1.69,1.4-2.54,9.27-.08,9.38l8.99.41c2.07.1,2.17-9.14-.05-9.27ZM399.31,171.74c2.48-.01,3.3-8.97.79-9.39-2.23-.37-7.04-.45-9.07.13s-.91,6.51-.57,9.3l8.85-.04ZM331.3,245.86l-.78-22.41-7.55.71-.37,20.73,8.7.97ZM343.39,245.2l.12-17.27c.01-2.05-3.24-5.76-4.94-5.13-1.36.5-3.47,3.83-3.46,5.41l.17,16.95,8.11.05ZM379.8,244.98l-.61-19.75c-.05-1.45-5.32-3.26-6.04-2-.54.95-1.83,3.98-1.83,5.11v16.83s8.48-.18,8.48-.18ZM391.58,245.23l-.09-16.93c0-1.67-1.74-4.56-2.72-5.54-.73-.73-4.57,1.38-4.58,2.41l-.13,19.86,7.51.19Z"/>
    <path d="M421.23,342.18l-.17-73.99c-.03-15.13-.45-30.59,1.6-45.14.69-4.91,5.89-8.79,3.44-14.99-3.29-8.35,1.41-16.2,2.57-23.88,5.36-35.53-6.4-37.14-3.58-51.99l9.12-48.06c1-5.26-4.05-12.21,2.66-16.17.37,5.93-.43,13.64.85,20.18l14.48,74.12c1.84,9.44,1.99,20.35,2.03,29.05l.35,82.99-.73,165.11-32.66-5.16.03-92.07Z"/>
    <path d="M417.06,100.66l7.94,54.35c-13.1.82-25.01,1.37-37.61,1.29l-97.42-.61,7.5-51.13c.37-2.53-1.96-9.32-.09-9.76,4.86-1.13,2.04,4.94,2.29,7.44,1.32,12.92,2.86,24.05,4.82,36.43l4.58-28.2c3.68,13.15-2.64,25.39,7.88,37.63l17.61-98.64c6-33.61-1.17-19.38,3.73-49.32.96,4.56,2.85,12.01,2.7,16.19l-.76,21.05,34.09.22-.37-21.64c-.08-4.57,1.41-11.29,2.5-15.96,4.66,28.71-2.31,19.58,3.51,51.4l17.75,97.06c11.99-11.55,5.09-24.32,9.82-37.16l2.76,25.22c3.19-14.15,4.62-27.22,5.72-42.08l2.71,1.65c.84.51-1.27,3.48-1.69,4.57Z"/>
    <path d="M417.55,342.1l-121.01.11-.23-78.31,121.17-.02.07,78.21ZM366.65,327.92l-.28-26.85-18.16-.09-.07,26.71,18.51.24Z"/>
    <path d="M254.43,396.53c-1.78-12.81.78-23.09,11.84-32.02l-.14,32.99c-.03,6.45.75,10.45,3.43,16.05,2.83,5.9-5.87,15.59,4.03,22.45,5.29-11.46,1.52-51.54,10.89-55.58,2.51,4.56,3.94,6.94,5.73,9.42-1.12,8.22-1.57,19.23-.03,28.69l3.38,20.85-90.14,18.8-61.15,12.44c-1.54-3.62-2.45-12.28-.04-14.96l7.6-1.92c2.09-.53,11.29-38.8,1.76-51.86,11.45-8.21,16.08-26.31,14.72-38.68-3.83-34.8.68-23.2,12.13-46.63,1.3-1.18,7.44,1.99,8.12,4.18.83,2.64-.55,6.68-2.43,11s4.71,13.43,4.69,18.03l-.07,14.6-2.83,23.79c-.48,4.06,7.42,11.22,9.29,14.19-7.44,13.45-3.52,42.64,4.42,50.77,6.43,6.57,23.96-22.99,14.58-42.77,2.16-3.72,5.19-9.82,5.23-13.8l.34-33.88,6.56-9.74c.73-1.08,3.24-2.97,4.33-3.5,1.45-.71,2.09,4.18,2.03,5.98l-.17,4.8c-.04,1.02,3.09,2.41,3.82,1.7l4.4-4.27c1.3-1.12,2.88,4.93,1.98,6.76s-3.9,3.74-7,5.28l3.33,17.76c-5.7,7.54-6.29,16.54,2.38,21.56-3.98,11.98-4.88,23.92,4.32,35.31,4.86-9.83,4.75-20.34,5.01-30.34.11-4.41,4.35-12.5,3.66-17.44Z"/>
    <path d="M570.01,458.45c2.89-4.11,5.63-4.98,7.78-5.87,3.74-1.55,12.79-41.2,1.48-50.39,8.95-4.06,11.74-12.83,8.31-22.34-2.11-5.85-1.86-13.34-2.72-19.66l-5.22-38.24c7.94,2.74-.7,14.79,8.5,16.73,2.31.49,7.13-4.17,6.62-6.51-1.28-5.9-2.84-13.31-1.81-17.43.4-1.6,7.46-1,8.07.53.76,1.92,2.29,6.09,3.24,8.14,23.37,21.96-4.53,54.72,18.73,79.03-6.05,12.29-4.89,30.79.67,44.37l2.88,7.05,7.77,2.21c1.89.54,1.05,9.43.61,13.36l-64.9-10.98ZM586.47,345.18l1.33,10.54"/>
    <path d="M488.46,368.61l10.46,2.44.31-9.69c10.85,7.18,15.85,18.35,11.38,29.91-3.04,7.87,3.05,14.25,4.19,20.57,1.92,10.66-3.21,23.29,7.59,33.9,8.37-10.89,9.79-24.44,5-37.8l7.06-8.18-3.24-24.63c2.14-8.88,3.74-11.78-4.18-20.59l8.46,2.79-2.3-8.42c-.41-1.51,1.79-3.72,4.84-5.53l11.04,16.7.14,30.54c.02,5.32,2.86,12.25,5.58,16.46-1.75,12.96-3.08,27.31,5.4,39.03l5.07,3.59c1.52,1.08-.54,7.21-1.94,7.76l-74.86-12.84c5.24-11.85,7.63-21.61,3.14-32.72l7.25-8.68-2.15-24.56c-.26-2.93-5.78-6.95-8.25-10.05Z"/>
    <path d="M457.46,439.83l2.93-23.94c1.32-10.79,4.8-20.27-2.65-30.9l4.79,2.21c.8.37,1.96-2.3,1.82-3.17l-1.2-7.58c8.96.47,11.68,10.77,12.28,19.8l1.27,19.34c.65,9.88.41,16.43,5.15,27.92l-24.4-3.68Z"/>
  </g>
</svg>