<?xml version="1.0" encoding="UTF-8"?>
<svg id="Layer_2" data-name="Layer 2" xmlns="http://www.w3.org/2000/svg" viewBox="0 0 456.31 640.91">
  <g id="Layer_1-2" data-name="Layer 1">
    <g>
      <path d="M15.16,448.51l-3.51-5.85-3.99,5.71c-.83,1.18-3.12,1.99-4.42,1.35l4.52-3.22-1.34-3.93c-.32-.95,2.3-1.8,3.74-2.45-.15-.52-.58-1.86-1.16-1.66l-3.18,1.09c-.75.26-3.01.59-3.86.47-.78-.11-1.45-1.6-1.49-2.01l2.55-1.28c.31-.15.89-.49.56-.65l-2.99-1.44,2.58-1.55c.63-.38,2.2,1.38,2.73,1.91l1.62,1.67c1.1,1.13-.05-7.92,14.71-4.05,1.81.48,4.47-.57,7.02-1.23,2.41-.63,4.95,4.05,5.86,6.25l.68,1.64c.11.27.95.58,1.07.31.19-.39.43-1.79.29-2.18l-1.76-4.93c4.9-.63,7.79-2.17,10.45-4.64l-5.4-2.21,3.99-8.28-6.13,3.73.32,7.64-2.7-2.31-3.19,2.28c-.98.7-4.24.03-4.35-1.16l-.3-3.23c-1.57,1.8-2.57,3.88-3.49,6.1-11.75-3.17-12.71-.55-21.21-.23-.3.01-.24-.47-.01-.7l1.46-1.46-4.3-1.36,6.81-4.55-3.23-.02c-.54,0-1.35-1.12-1.73-1.8l6.93-1.37-5.69-2.32,5.16-1.33c-1.73-4.88-9.45-2.05-8.72-4.35.13-.41.61-1.8,1-1.62l2.55,1.22c0-2.15-.1-3.74.26-4.94.41-1.37,3.97-1.46,5.21-1.24l7.19,1.29,2.25,2.02c-.39-.35,12.29-1.77,13.04-3.73-15.26.19-15.95-2.3-30.16-2.39l3.49-1.04c.76-.23,1.61-1.79,2.36-3.05l1.77,1.91,6.61-6.3-.89,5.52,9-1.87c-1.84-.65-5.55-2.54-6.01-4.43-.67-2.77,3.93-6.26,5.29-4.96l3.53,8.19c3.55,2.81-4.06-12.54,3.34-11.2,3.96.72,5.11,8.59,2.32,11.73,1.71,1.62,4.78,1.35,6.26-.92-.95-.18-3.07-.02-2.92-.84.24-1.34,1.77-3.55,2.76-3.59l2.32-.1c.49-.02,1.05-1.34.58-1.48l-2.5-.72-3.58-1.03c-1.53-.44,3.09-5.87-12.38-8.84l7.98-1.58,4.19-.44,2.15,3.2,1.37-1.88c.48-.66,2.82,1.52,5.79,3.12.93.5,3.35-1.85,3.24-2.15l-2.88-2.12c-2.26-1.66,8.62-3.47,6.83-6.08l-8.73,2.72,4.3-3.36c-7.02-.3-5.36,2.66-10.45,2.32-.52-.03-1.62-.8-1.2-1.11l2.54-1.89-4.23-3.74,4.69-2.57c.93-.51,2.54,2.18,3.4,3.6l9.97-1.96c1.96,3.83,4.85,8.25,10.14,8.83l-6.36-6.99-4.27-6.63c3.62.32,4.9,3.97,6.03,7.14l6.55,2.91c-.48-1.79-1.12-2.85-2.51-4.57l2.53-1.74-8.86-3.11,14.02-5.77c-3.58-.56-6.89,0-8.03-2.37l9.4-5.48.44,4.52,8.97-3.72-6.15-.71,3.86-1.82c-.47-2.81.66-4.85,3.44-6.09l3.62,6.64c.54.99-.9,3.27-1.87,5.05l7.51-.17-1.71-4.62,11.06,1.29c.58.07,2.76-.26,2.65-.74l-.61-2.55.95-7.04c3.28-.64,7.35-2.21,10.21-4.33-1.46-2.03-2.92-3.13-2.49-4.14l2.02-4.75c.22-.53-2.55-1.11-2.64-1.68l-.5-3.25-3.68,5.08-8.42,7.12,7.32-1.81c-1.44,3.36-3.67,5.42-6.47,7.26l-11.1,7.33-3.07-6.36c2.67-1.29,4.86-2.95,4.48-4.84l-3.88,1.12c-.75.22-1.23-.5-2.82-1.17-.58-.47-1.65-1.32-1.48-1.18l10.72-5.51c-1.7-1.11-3.77-1.97-3.33-2.48l2.09-2.35c1.48-3.86,6.19-12.16,11.06-12.4l-.14-2.62,3.83-3.18,3.57,5.5-.77,4.56c6.44-4.82,5.12-7.8,8.97-11.97l-4.55-2.92c-.99-.64,2.59-2.82,3.71-3.26l3.11-1.22c.64-.25-.51-2.63-.34-3.32,1.61-6.39,10.93.13,11.65-1.46-.98-1.42-4.8-3.9-6.7-3.68l-8.88,3.74c.57-6,5.84-6.35,10.65-5.86,3.54.36,13.15-8.48,12.01-12.1l-6.59,6.13c-.97-1.88-2.17-4.27-1.78-5.51.48-1.55,2.85-2.7,4.62-2.64,1.95-2.95-1.36-7.41-4.65-9.24-.36-1.12,1-4.73,1.51-3.97l4.35,2.34-2-3.63c-.46-.84.92-2.85.93-3.84,0-1.61-.16-4.03.64-4.88,2.46-2.65,5.81,4.78,8.11,1.99l-3.55-4.56-1.37-5.42,9.87-3.7.66,4.96,7.06-4.78,4.6-.31-1.19-4.56-7.95,2.12-3.69-3.82-6.44.76,5.68-7.93,5.49.02c-2.22-2.34-4.12-2.21-7.95-2.71,5.17-6.11,5.99-1.33,8.21-7.44.3-.83-2.12-.95-3.56-1.6l7.04.02-6.65-5.95c1.69-1.19,4.94-1.87,7.06-1.62l4.69-1.59,2.37-7.25,7.61-1.83,2.81,4.24.93-4.67c3.2-.49,5.18,2.04,6.75,5.31,1.55-.93.99-5.63-.65-6.71l-5.4-3.56c-3.36.72-6.45,1.3-10.88,1.56l4.08-6.32c4.02,2.5,5.04-.38,7.44-2.04,3.78-2.61,6.53,2.47,7.73,6.8l1.69-2.71c.4-.65-1.67-2.56-1.59-3.32.14-1.24,1.69-2.99,3.1-5.23l-5.9,1.84c-.55-.26-2.17-.94-2.65-1.14-.62-.26.64-1.54,1.34-2.65l-1.48-1.7c-.39-.45.9-1.61,1.49-1.66.65-.06,2.23.29,2.38-.13l.6-1.67,5.89,2.01c-2.53-3.86-5.84-6.19-9.71-8.76l7.24-3.19,3.2,1.03c.43-.67,2.1-3.83,1.26-4.48l-3.25-2.51,4.18-7.31.74,7.9,1.49,5.19c.89,3.11,2.43,5.84,6.18,6.4l-3.51-5.71c1.5.36,3.05-.01,3.41-.97.65-1.71-.17-3.68-.98-5.8l2.82,1.36c.57.27,2.09-.82,2.04-1.07l-5.42-4.41c3.2.4,4.12.7,7.22,1.54l-4.22-7.13-4.45-2.82c2.59-2.82,7.47-2.04,10.07-.2l3.52-.25c.77-.05.8,2.75,1.11,3.52l.89,2.16c.19.45,1.91-.1,1.86-.58l-.29-2.59-.29-3.14c-.08-.83,2.19-.24,3.79.06.05-.44-.33-1.79.16-2.06s2.22-1.22,2.1-1.15l-2.19-5-6.68,4.49-2.16-2.68c-1.39-1.73-2.05,3.14-7.14,2.16-1.86-.36,1.59-8.43,1.7-8.48l4.85-2.14,2.81,2.97.49-3.49c.37-2.65,4.8,2.91,8.37,1.16l-5.38-5.02,8.68,1.16-5.25-3.82c.08-.37.92-1.69,1.45-1.57l3.03.66c.67.13-.04-2.92-.89-2.96l-4.53-.18,3.88-8.76,7.12-.91c-4.26-14.69.69-4.79,1.74-17.41l4.96,10.52,5.37-1.83,2.36.74c.56.18-.08-1.43-.47-2.27-3.46.12-7.43-4.42-7.16-7.42.08-.88,3.18-2.26,3.68-1.58,3.9,5.23,1.8,8.16,8.43,9.77l-.66,4.49,5.88,1.48-2.64-8.62c-1.62-.3-4.93-.28-5.29-1.38-.43-1.28-.92-4.13-1.01-5.16l4.85-1.89c-1.6-.66-2.96-.98-5.45-1.41-.29-5.99,5.39-11.14,11.19-10.29l-.32,9.17-.82,9.29c3.36-1.92,2.78-5.82,3.37-9.03l4.34.36c-1.66-1.85-3.36-3.78-3.47-5.65-.09-1.47,2.31-3.35,3.2-4.64l5.44-7.9c.85,5.44.34,8.22-.54,12.31l-1.46,6.75c-2.91,13.41-2.63,5.28-5.76,13.87-.13.36,1.09,1.01,1.28.67l1.07-1.9c.75-1.33,3.32-3.17,4.87-4.1l2.05-9.52,5.98,3.82c-2.15-4.27-6.18-8.32-2.84-12.03,1.13-1.25,3.42-3.11,4.71-4.29.93.84,2.26,2.04,2.19,1.98,2.09-2.78,3.52-4.25,5.56-5.81l-1.28-2.01c-.31-.48.23-1.52.58-1.96,2.66-3.3,4.32,4.97,8.79,7.09l4.18,6.46c5.49-4.3-6.77-7.93.46-14.58l-.87-5.31c-2.7,1.37-4.3,2.31-6.09,1.56-1.61-.68-2.95-2.47-3.8-4.05l-2.83-.76c-.73-.2.33-2.3.76-3.03.39-.66,1.23.06,2.63.9l1.02-4.08,5.3,7.12c.51-2.72.54-6.25,1.96-6l5.28.91-.88,7.26,5.49-1.03-2.72-2.34c-.56-.48.61-2.72.85-2.94l8.67,2.85c-1.95,6.23-8.47,1.94-10.95,7.79l11.08-3.01,2.57,5.43-1.3,3.93,9.89-4.69-6.7-3.76,3.08-2.86c.8-.74-.84-3.41-1.58-4.37l5.5-4.46-1.05-1.75c-.21-.35.54-1.02,1.02-1.59l5.93-7.01,7.23,2.79c.07-1.1-1.17-2.93-3.21-4.8l2.22-6.78,5.99,2.83c2.56-10.05-10.66-5.44-5.69-11.86l5.64,3.4-.91-9.11c-.06-.64,1.85-1.56,2.14-1.06l1.43,2.48c.43.74,1.59,2.24,2.17,2.83s2.49-.75,3.85-1.5l1.42,4.98c3.66-2.13,6.06-5.13,10.08-2.77l-3.78,5.65c-2.6,3.88-5.87,7.24-9.11,11.03l2.42,2.4-2.95,8.73c1.11.24,2.03.35,1.76.59l-1.67,1.5c-2.09,1.88-3.1,7.37-2.12,10.22,1.04.99,5.15.58,5.56-.77.75-2.49,3.21-6.82,3.74-9.09.7-3.01.67-5.3,2.59-7.85l5.9-7.81c3.2-7.62,5.38-14.92,12.75-20.29l-.53,11.9-6.16,4.74,5.11.63-2.15,15.2c3.57-1.15,4.4-4.04,5.85-6.93l2.26,1.23c.52.28,1.98-.5,2.6-.84,1.02-.56-2.42-5.62-1.21-5.94l3.69-.96c-1.17-1.3-2.27-5.23-.96-6.34.34-.29,2.97-.35,2.74-.74l-1.08-1.91c-.25-.44-1.38-1.79-.91-1.84l3.08-.35c.94-.11,2.29-1.89,1.99-2.78-.37-1.11-2.51-2.14-3.64-2.26l-2.03-.22c-.36-.04-.19-1.29.15-1.41l1.79-.61c.96-.33-.23-2.45-.44-4.58,1.86,1.58,2.62,2.49,5.05,5.19,1.6-3.76-2.36-6.63-.72-7.38.7-.32,2.57-1.16,2.17-.97.49,1.69,1.3,4.22,2.09,4l3.66-1.01c1.19-.33,2.76,2.6,3.42,3.81l6.7.35-4.03,5.9c-.22.32-1.9.36-2.04.76l-.62,1.73c-2.84-.54-5.95-.4-7.64.76l1.26,2.64c.21.43,1.68-.25,2.5-.44.6-.14,2.02,1.57,1.54,1.91l-7.11,4.97c4.24-.05,6.65-1.9,10.61-3.75-.69,8.25-7.09,6.12-8.42,12.81l9.55-2.23,2.09,1.4c.43.29,2-1.39,1.68-1.8l-1.66-2.13,2.85-8.85c.64-1.99,2.26-5.43,3.51-7.83.85-1.62,5.1-.29,6.39,1.06,1.14,1.19,1.1,4.12.93,6.19l.68,3.36,8.35-3.28-1.48,6.02c1.55-.36,3.49-2.16,5.8-4.67l4.76,4.63-3.42,2.93c-.33.28-.62,1.48-.72,1.9-.63,2.67,6.81-3.39,8.94-.41.93,1.3,2.22,3.57,3,5.04,1.21.06,3.5.22,4.54.92s1.86,4.53.69,5.03c-3.96,1.71-8.96,2.71-11.87,5.18-2.02,1.72-3.96,6.86-7.48,6.35-7.55-1.1-14.34-3.29-22.02-5.64-.49,1.35-.7,3.94-.18,5.04s4.03,1.06,5.2,1.6l10,4.62-3.19,5.35,7.34-1.74-5.42,12.44c10.01-9.05,6.15-1.04,14.72-9.45,1.42,2.38,1.17,5.28-.04,8.36l1.81.18c.63.06,1.42-1.91,1.44-2.56l.09-4.77c4.6.81,6.39,3.93,6.77,8.05.11,1.21-.52,3.69-1.28,4.48s-3.61.61-4.6-.11l-7.32-5.33c-.24,3.28.39,8.77-1.61,10.22l-7.3,4.99c-1.06.73-3.69,1.55-4.76,2.08-3.78,1.87.92,8.96-5.23,13.74-3.48-4.46-3.71-11.21.82-15.46-6.04,2.32-5.51,7.91-2.95,12.83l-9.78,9.56,6.11,1.23c-1.57,18.5-8.78,2.13-1.93,30.87.32,1.36,3.49,2.99,4.82,3.32,10.53,2.57,9.23,12.19,15.19,17.58,3.42,3.09,4.32,6.36,1.8,10.35l-12.7,20.12c-2.49,3.95-3.22,8.31-.66,12.59,5.39,9,17.69,35.12,17.14,45.46l-6.68,3.48c.84,1.45,1.82,2.6,1.61,3.24s-.94,2.02-1.11,2.71l-2.46,10c1.41.64,5.22,3.34,4.33,5.21-3.92,1.55-5.78,4.41-4.55,8.68.33,1.15,1.01,3.06,1.46,3.93.84,1.61,8.28.19,7.69,3.72-.4,2.43-5.87,11.83.84,15.89,2.64,1.6,5.69,3.87,5.98,6.03.76,5.81-4.11,12.13-9.68,16.83,1.61,2.17,4.29,5.87,6.21,7.58l5.51,4.92c2.48,2.22,7.36,4.64,8.86,7.54,2.19,4.25,3.82,7.26,6.42,11.67-.88,3.89-2.43,11.45-5.2,15.09l-21.7,28.46c-2.78,3.64-5.44,7.02-8.45,10.44l-10.79,12.29c-2.08,2.37-3.9,3.88-6.46,5.94-4.8,3.86-8.83,9.99-13.02,14.86-3.84,4.46-10.94-5.13-14.19,2.1l-5.46.51.5-5.33c-5.48,2.37-1.43,8.16-6,5.48-.42-.25-.72.75-1.39,2.05l-4.64-4.08c.27,2.9.03,6.08-1.7,7.84l-2.85-2.73c-1.84-1.76-3.47,7.67-11.66,6.7-6.54-.77-8.46,3.34-8,4.23.25.5-1.55-1.39-1.9-1.69l-6.99,1.9c-3.17.86-5.31,1.62-8.64,1.44l-3.59-.19c-.73-.04-.72-1.92-1.01-2.48l-3.49-1.49c-.72-.31-.99-2.37-.69-3.15l2.33-6.09-7.98,4.03-.19-3.7c-.19-3.78-8.48,2.94-11.71-5.38-.4-1.02-2.12-3.02-3.08-3.4s-2.59.07-4.45.73c-2.94.12-1.9-13.9-1.53-15.71.82-4.02,2.13-7.69,2.36-11.43.17-2.69.87-4.48,2.74-6.61l-3.95-11.59c-1.48-4.33-4.26-6.86-1.46-11.9,1.8-3.24-2.8-7.09-3.3-9.86l-1.38-7.7c-.71-3.99,3.17-5.41,4.48-7.67s1.98-7.06,3.19-9.67c5.02-1.73,10.42-4.27,14.12-7.29l-.92-2.9c-.22-.7,1-2.01,1.33-2.81l3.72-8.78,3.63,2.96c5.99-14.52,3.09-5.14,10.54-14.9-.39.51,15.84-22.19,14.85-20.17l5.4-10.94c1.21-1.29,2.83-2.81,3.78-3.52,1.26-.95,4.39-.52,5.36.45,1.31,1.32,2.09,1.97,2.82,2.34s2.6-2.35,2.19-3.06-.97-.94-2.79-2.09c.46-.34,2.69-.8,2.44-1.54l-1.32-3.93c-.75-2.23-.71-3.46-.64-5.45l.34-9.58c.18-5.08-6.3-8.82-10.86-9.36l-2.96-5.25c-4.84-.76-6.71-3.88-8.02-8.27-1.69-5.63-7.03-11.71-4.96-18.3,1.31-4.16,2.62-9.27,3.05-13.72.1-1.02,1.27-3.01,1.54-3.92s-.98-2.95-1.4-3.34l-.97,6.27c-.72,4.66-1.62,8.71-3.06,13.01-2.99,8.91,4.41,18.17,7.15,25.6.36.99-3.43,2.16-4.56,1.65-2.89-1.3-8.71-1.97-12.51,1.81-2.91.11-5.94-3.39-7.97-6.32l-6.97,2.7-1.03,8.11,2.39,3.91-10.98-6.21c1.91,3.26,3.88,5.13,5.91,7.16l-4.26-.28,2.64,4.68-9.84,2.09,3.77,4.38-3.09.13c1.59,3.61,1.73,5.89.01,8.52l-5.55,8.49c-.34.07-2.37-.19-2.21.3.19.55.73,2.04,1.1,2.41l1.69,1.7c.38.38-.17.9-.93,2.34l4.87,5.28,2.24,5.89c-13.81,14.28-6.76,3.4-13.97,22.62-4.82-.72-17.3,11.19-16.91,14.47l-3.29-4.57c-1.56,1.97-3.18,3.82-3.8,5.03l-3.98,7.76c-1.71-.87-3.12-1.62-3.98-1.9s-2.26,1.79-2.85,2.57l-7.06,9.39,2.3,1.08c.48.23.99,1.94.49,2.06l-2.96.74-4.01,1c-.89.22-1.39-1.52-3.17-3.24l1.21,7.03c.33,1.92-.3,5.85-.58,8.34l-4.49,2.74-1.75-2.86c-.32-.53-1.72-.09-2.16.36-1.94,2.01-.74,8.78,2.41,10.3l-2.39,9.08c-.86,3.25-.82,5.63-.31,10.06l-4.88-.44,2.41,3.21-2.14,2.55c-.53.64.48,2.63.53,3.48l.58,9.66c.18,2.97-.45,7.55.39,10,1.24,3.64,2.36,5.83.67,9.01.83.64,2.79,1.79,2.64,2.55l-.64,3.23c-.12.59,1.05,2.06,1.44,1.56l2.12-2.74c-.26-2.32.44-1.45,1.3.31.46.5,1.53,1.91,1.85,1.58l1.51-1.56,1.51-1.56c1.65-1.7,1.7,6.72,6.86,7.49.52.08,2.17-2.37,2.3-1.86l.65,2.45c.13.5-.75.65-2.18,1.17.26,3.52,3.33,6.71,7.64,7.54l2.11,9.25-3.49,2.24,5.7.78-4.8,1.05c-2.36,5.06-6.75,7.78-12.27,9.87,2.99,2.41,6.48,6.94,4.69,8.7-3.76,2.66-5.75,3.76-8.07,8.1l-1.23-6.48-2.06-.85c-1.85-.77.61,3.19-3.44,9.04l-1.92,2.77c-.55.79-3,.61-4.16.76-1.37.18-2.26,3.88-1.89,5.39l-9.78-3.04c-1.25-.39-4.28,1.74-4.31,2.41l10.35,2.13c.55.11,2.36,2.39,1.8,2.42-.6.04-2.3.15-3.01.1l-5.96-.42c2.47,1.77,5.4,2.79,6.29,4.25,1.64,2.69-.37,10.51-3.19,11.53l-.94,2.09c-.24.54-1.71,1.11-2.03,1.25,7.26,4.69.2,9.07,5.26,13.1-6.12,8.97-1.29,11-6.19,23.8l-5.73,14.98c-.22.57-1.17,2.19-1.51,2.74.71-1.16-19.38-.77-21.46.17l.54,3.2c.11.64-2.66-.28-3.31-.04-3.48,1.3-6.76,8.09-5.4,11.85.67,1.85,1.39,3.67,1.64,4.8s-2.3,3.31-3.24,3.49c-10.71-4.44-7.6,4.7-20.53-2.3,8.07-7.67-1.63-11.76-5.43-23.04l5.08-.85-3.1-5.57c3.06-.17,4.36-.8,4.87-2.4,1.53-4.83-2.62-4.09-3.98-6.03l-5.45-7.75c-2.67-3.8-4.3-10.07-5.24-14.68l-2.56-.7c-.39-2.94-1.17-5.93-2.29-8.8l-1.8-4.59c1.81-5.12,2.65-10.14,2.97-16.21-.98-.54-3.46.35-4.94,1.38l-1.93,1.33c-.45.31-3.48-9.95-2.89-5.92l-2.84-19.09c-.15-1.02,1.03-2.44,1.99-2.46,1.34-.02,2.87,2.06,3,3.31.17,1.7.1,3.31.86,3.62s3.23.43,3.5-.35l1.21-3.45c2.24-6.41,2.5-12.93-.28-19.29l3.67-3.04c1.02-.84-.39-4.34-.95-6.32,6.38-1.11,13.21-5.93,12-12.47-4.92,11.01-6.75,8.76-12.83,11.26-2.09.86,3.41,6.59-2.85,9.46,1.88,14.55,4,7.46-1.26,23.64l-2.77-4.98c-1.67-3-7.33-4.39-11.22-5.22-.77-1.92-1.94-4.98-2.14-6.66l-1.07-9.15c-.37-3.18.35-5.41,2.92-7.53-.71-1.26-6-.82-6.06.97-.13,3.89.89,6.12,1.22,10.64-2.43-.39.73-6.23-5.36-6.31l2.1,5-2.07.8c-1.68.65,4.61,5.3,4.03,8.53l-5.47,8.73-1.67-3.01c-.34-.61-2.69.17-2.48.81l1.57,4.83c-2.61-2.38-3.26-3.12-6.92-5.71l1.77,5.1-6.73,3.19.52,3.39c.14.9-2.44,1.38-3.74,1.79l.45,2.05c.13.6-2.17,1.28-2.61,2.17-3.96,7.89-13.18,15.96-22.89,18.43-4.9,1.25-8.84-.06-12.82-4.25-2.14.21-2.56.13-.43-2.37-6.67.39-11.41-2.45-16.42-6.92-2.5-2.23-5.21-4.29-5.95-7.91-.48-2.35.75-6.52,1.76-8.19,3.13,2.54,5.22,2.98,9.47,4.54l-.45-4.11,8.52-3.06c-3.93-1.44-7.85-.49-10.45,2.82l-1.7-4.2c6.97-3.82-2.18-3.32,9.98-7.72l-6.73-3.06,4.99-4.96c-.48-.28-1.94-.92-2.1-1.49l-.78-2.87-1.05,1.26c-.71,1.58-1.42,3.16-1.98,4.02-.65,1-3.44-.05-5.18-1.01l-2.58,4.32-1.49-7.77,5.8.38-1.35-2.26c3.21-1.01,5.35-2.27,7.29-5.15,1.58-1.05,1.71-1.14-.01,0-2.46.8-4.12,1.17-5.85.76l-1.98.3c-.66.1-.34-2.35.25-2.64,6.37-3.22.13-4.32,7.61-8.14.34.05-.75-.8-2.68-2.24,2.04-2.27,4.57-4.89,7.37-7.4l.68,6.33,3.15-7.11,6.29-2.49-8.44-.94-7.94,4.46-3.37,5.15-3.55,5.44c-.88-2.01-1.76-5.11-1.74-7.29l.07-6.2-4.32,11.14-3.94-6.19,2.42-5.05c-.06-.08.73.87.92,1.1,2.23,2.83.2-2.9,1.08-3.34.61-.31,1.95-.86,2.73-1.12l4.25-1.44ZM418.29,87.02c2.96-3.96,1.75-13.78-2.99-16.15-5.53-2.76-9.75-4.94-14.11-9.23-5.81-5.72-4.31-8.61-7.2-8.43-2.12.13-10.1,3.51-9.54,5.55l9.88-4.51c12.42,23.58,26.01,8.29,23.96,32.78ZM350.76,115.31c3.48-1.58,6.42-3.38,7.36-5.44,1.28-2.81-.34-6.01-.27-8.83.3-12.84,3.67-18.82,3.09-27.62,3.74-1.66,7.69-4.58,9.1-8.96,2.41-7.45,11.34.93,13.82-3.84l-6.28-.76c-12.03-1.46-5.44,8.15-17.33,11.94-1,7.64-2.03,15.13-3.43,22.72-.73,3.95-.16,7.63.67,11.82.95,4.8-4.52,6.22-8.21,7.87-2.2,1.04-1.91,6.98-1.06,8.93.45-2.5.51-6.89,2.54-7.82ZM226.22,147.96c4.42-7.21-2.06-11.48,1.36-20.17,8.91,1.8,1.21,3.61,13.97,3.49l15.75,7.47,6.96-8.03-5.62-1.91c5.08-5.23,8.83-13.21,4.16-19.72,3.99,12.44-7.62,19.84-4.68,20.95l3.53,1.34-4.77,5.87-14.46-6.94c-2.23-1.07-7.34.49-9.28-1.37-1.64-1.57-3.36-2.92-4.58-2.52-1.38.45-3.28,3.09-3.14,4.59l.66,6.96c.33,3.43.22,6.36.11,9.98ZM340.92,124.09l-7.3-3.95c-2.92-1.58-4.93-5.45-8.72-6.1l-3.11,5.95-7.49,3.58-7.5-3.74c-1.66-.83-4.28-1.34-5.57-1.3-.73-2.25-2.49-5.89-4.33-7.35l3.4,9.55c1.01-.44,4.45-.31,6.05.48l8.05,3.99,8.64-4.56c1.2-.63,1.2-5.39,3.01-4.68,1.37.53,3.06,1.65,3.98,2.78,5.38,6.61,8.05,2.02,10.72,8.41.29.7,2.76,1.43,2.99.7l.86-2.64-2.43,1.91c-.38.3-.8-2.79-1.25-3.03ZM322.03,186.16c1.56-1.17,2.18-3.89,1.64-5.34-.88-2.36-6.48-1.45-5.98-3.22l.62-2.2c1.19-4.22.41-10.35,1.9-14.5,2.23-6.21-1.33-8.97-3.77-13.23-10.01-17.52-10.44-10.87-28.78-22.57,4.29,7.36,18.27,7.79,23.48,16.46,11.99,19.97,8.34,9.21,7.18,21.1l-1.08,11.04c-.13,1.34-1.15,4.73-.15,5.42s3.18,1.16,5.15,1.69l-.21,5.35ZM192.63,176.77c8.67,1.45,10.67-13.94,11.57-18.43l8.05-8.26,4.7.91c-1.31-1.3-3.39-2.55-4.91-2.77l-8.9,9.18c-1.04,5.74-2.94,11.91-5.32,16.59l-5.41,2.02c-1.9,1.78-.18,7.5,2.06,7.91l-1.85-7.15ZM160.86,279.9c1.43-4.12,3.26-7.87,3.47-10.54l1.44-18.68c.3-3.93-.11-9.1-.03-13.27,4.11-.77,8.16-1.28,10.98-2.88,7.77-4.41,1.27-10.06,2.65-12.31l2.43-3.96-4.16,3.13,1.67,7.14c-3.41,11.76-17.47,2.36-15.56,11.55,1.18,5.67.72,10.47.07,16.12l-1.7,14.79c-.36,3.09-1.72,6.51-1.27,8.91ZM134.84,322.8l7.56-2.09c3.71.94,8.26,2.19,12.33,2.37,2.07.09,4.21-4.83,4.14-6.77l-.38-10.07c-1.74-1.57-5.59-3.48-8.22-4.87l8.41-18.33c-1.91,1.31-11.59,18.77-8.38,19.94l2.47.91c4.61,1.69,5.25,5.43,5.13,9.11-.64,19.61-13.53-.87-23.05,9.8ZM131.17,458.2c3.82-3.8.54-8.18-1.71-11.85l-1.94-7.08c-.34-1.25-.61-2.42-.47-3.17.28-1.55,6.46-.27,7.11-1.8l1.34-3.2c3.1-7.38.08-13.75-7-16.78-2.81-1.2-4.33-5.21-3.95-8.05l2.26-17.13c-4.2-10.91-4.26-9.51-2.63-22.75.38-3.09,2.36-4.43-.13-7.75-1.55-2.07-2.66-6.44-1.91-8.61,3.66-2.54,4.79-5.98,2.17-9.99l6.66-10.95c-3.54,2.69-5.58,6.18-7.61,10.01l1.45,6.84c-5.61,3-4.99,8.45-2.09,13.31.52.88,1.32,2.52,1.6,3.3s-1.86,2.51-1.84,3.41c.05,2.76-.17,7.73-.69,11.17-.56,3.75,3.81,7.98,3.44,11.41l-2.24,20.71c-.75,6.9,17.29,7.15,11.52,20.77-.49,1.15-.87,3.55-1.87,3.68l-3.96.5c-.88.11-3.36.96-3.47,1.81-.02.14,2.63,12.19,4.85,13.85,1.16,2.59,1.26,5.16,1.11,8.32Z"/>
      <path d="M63.44,618.36l-7.08-5.39c.13-.2-.7,1.1-.92,1.46-.27.42-1.47-.65-1.41-1.16,1.1-9.29,5.05-7.61,4.77-11.51-.38-5.35-6.99-3.21-4.45-8.98.37-.84,1.76-1.24,2.93-1.66-1.51-3.06-2.4-5.18-2.89-9.21l9.8,4.44c3.45-5.65-3.09-.08,4.91-10.49.93.67,2.08,1.88,1.79,2.6l-1.48,3.75,5.66,2.17c2.85-3.43-5.05-8.03-.97-13.52.4-.54,2.48-1.8,2.95-1.32l2.15,2.18c1.22-2.48,3.52-3.33,7.43-3.52-1.2-3.14-5.3-2.54-8.18-1.51l-4.85,1.74c-7.48-.84-13.02,3.01-14.25,10.94-.93-.78-2.63-2.65-2.57-3.75s1.21-2.99,1.98-4.37c6.21-11.09,15.27-.98,20.99-10.25l5.9-9.57c3.74-.33,5.98-.87,7.42-2.74,4.23,17.84-1.2,11.65-2.7,24.51l-.7,5.98c-.45-.19,1.55,1.07,1.3,1.55l-1.49,2.84c-.14.27-.34,1.38-.36,1.67-.03.44,1.3,1.3,1.5.9l.88-1.74,8.74.44c1.51.08,1.78,4.84.63,5.82-1.28,1.08-2.97,2.3-5.63,4.27l-.89-3.76c-1.05.32-2.93,1.02-3.65,1.74-2.67,2.65.62,9.16-1.33,9.87l-5.7,2.06,2.36,1.88c.51.4.04,2.56-.62,2.52l-5.94-.38,3.17,4.34-4.52,1.55,2.47,9.09c-1.41.75-3.76,1.83-3.86,2.85s-.12,3.37-.06,3.83c2.24,1.26,3.68,2.51,4.72,4.21l-6.91.99c-3.51-1.73-6.71-2.5-10.81-2.8l-.23-14.53Z"/>
      <path d="M110.5,613.68l8.61,1.83c-2.95-1.97-6.27-3.5-9.34-4.79-.72.75-2.26,2.9-2.67,2.32l-3.06-4.36c5.13,1.31,7.17-1.93,9.46-6.74,3.66,1.08-2.54,6.53,3.47,8.48l5.46,1.78c1.52-3.47-.1-8.45-1.74-11.92,1.18-2.73,8.09-4.63,8.49-1.01.26,2.37.48,5.3,1.02,7.43l1.53,5.96c-2.99-.74-4.97-1.18-6.22-.19-1.93,1.54-1.93,4.9-.55,5.78l2.51,1.59c.51.32-.08,2.3-.63,2.59l-5.74,3.07c1.25,2.62,1.67,4.58.9,5.81-3.59-.61-5.58-3.4-4.47-7.09-2.8-.21-6.67-.47-8.81-.93-3.52-2.45-1.33-8.18,1.76-9.6Z"/>
      <path d="M193.41,127.34c-2.01,2.05-2.87,4.42-4.21,7.8l-1.46-4.09-3.61,4.94c-.17.53-.03,2.65-.57,2.52l-3.08-.72c-.7-.16.78-1.99,1.2-2.6l1.93-2.81c.42-.62-.71-2.06-1.41-2.97l-2.09,3.52-3.19-4.62,5.67-3.36c-.4-.61-2.41-2.87-1.78-3.16l3.19-1.51-2.96-2.7,2.97-1.23c.52-.22-.88-1.95-.87-2.52l.03-2.91c0-.85,2.21-1.13,3.06-1.1s2.25,2.37,2,3.15l-2.21,7,1.66-.46c.31-.09,1.32.26,1.14.54l-1.03,1.65c-1.02,1.64-3.35,4.51-1.63,5.11l2.47-1.78c.59-.43,2.01-.53,2.8-.73l-.17-3.48c-.03-.68,2.22-.68,3.18-.88l-2.9-4.77,5.48-.18c3.49,3.21,2.07,9.73.49,13.41-.48,1.11-.35,4.05-.85,4.98s-2.31,1.34-4.18,1.93l.9-7.98Z"/>
      <path d="M211.09,98.32l-5.63-1.37,3.6-.95c.53-.14.76-2,.26-2.24l-2.56-1.19c.15-.16,1.51-1.66,1.87-2.06s-.26-.71-1.86-1.94l8.53-1.91-2.88-2.7,5.08.74,4.82-4.62c-1.14,3.68-.21,6.21,1.84,8.64l-2.01,10.01c-1.44,1.39-5.32.06-7.59-1.75l-4.31,7.51-6.33-1.55,7.16-4.64Z"/>
      <path d="M234.67,560.8l-5.4,6.01c-3.6-2.03-2.13-5.78-2.31-9.74l-.24-5.12c-.05-1.17,2.7-2.34,3.45-3.48,1.2-1.84,2.82-6.85,5.48-7l4.52-.25,1.06.48c2.05.92-9.6,5.86-2.7,14.24-1.27,1.61-2.51,3.36-3.86,4.87Z"/>
      <path d="M98.13,628.03c-3.28,3.46-10.24-2.66-12.24-4.81-1.34-1.44-2.81-5.96-3.37-7.31,2.74-.73,4.47-1.26,6.72-2.21,5.13-2.16,9.51,2.47,10.49,7.78.37,2.02-.21,5.09-1.6,6.56Z"/>
      <path d="M174.74,121.18l-8.63.71-.85,2.95c-.15.53-2.25.12-2.32-.33-.21-1.35-.31-3.63-.03-4.7.32-1.22,2.68-2.56,4.3-3.05l3.8,2.99,1.47-3.88c.22-.59,1.76-.36,2.52-.48-1.1-3.32-2.31-5.46-1.14-8.57,1.15,2.71,2.26,5.39,2.88,7.86l2.03,8.05-4.17,3.34c-.47.38-2.17.6-2.74.43-.7-.21-1.65-1.8-1.07-2.25l3.96-3.07Z"/>
      <path d="M295.82,32.58l2.38-5.65-3.27-.13c-.6-.02-1-.69-2.23-2.22l6.19-.16,3.37-2.91c.7,2.22,1,4.1,1.82,4.14s2.52-.77,3.09-1.37-.73-2.34-1.37-3.49c-.21-.38,1.11-1.51,1.37-1.14l1.73,2.39c1.66.6,3.82,2.04,4.12,3.4l-4.93,2.65.32,1.8c.09.48-.77,1.53-1.17,1.24l-2.14-1.58-9.29,3.04Z"/>
      <path d="M225.48,80.39l2.34-6.76,8.48.04c1.87-1.22,1.58-5.59.24-8.37l3.39,1.55c1.02.47,1.58,3.55.69,4.37-1.81,1.65-2.59,4.05-3.66,6.61-1.17,2.8-6.83,3.5-11.48,2.56Z"/>
      <path d="M250.32,60.8l-4.66,6.46c-4.54.89-7.38-5.33-6.24-8.9l5.55-3.95,2.84,3.98c.87-.95,1.45-1.99,1.87-1.66l2.22,1.74c.53.42-1.04,1.57-1.58,2.33Z"/>
      <path d="M312.82,43.84l-1.08-4.08-2.93-2.37c-.87-.7.46-3.74,1.37-4.38s2.54-.39,4.96.42c.7-.64,2.33-2.71,3.92-4.77l1.79,5.46-8.03,9.72Z"/>
      <path d="M180.93,111.88c-2.33-4.86,2.02-9.01,5.71-12.73,1.74-1.75.54-6.45,5.36-5.71-3.58,16.83-4.08,7.5-11.07,18.44Z"/>
      <path d="M363.86,5.42l-8.49,2.24c-2,.53-6.18-3.05-5.78-5.64.65-1.52,5.19-.25,6.86-.19l5.25-1.82-3.24,3.05,5.39,2.37Z"/>
      <path d="M117.4,638.49c-.99,5.05-11.89,1.1-12.46-1.92-.22-1.17.6-4.4,1.53-4.04,1.89.74,4.56,2.76,5.98,3.98l2.15-1.2c.66-.37,2.96,2.35,2.8,3.18Z"/>
      <path d="M171.58,139.47c-9.51,1.38-6.25,6.37-10.91,4.94.96-4.07,3.69-10.47,7.71-9.74,1.69.31,4.12,3.93,3.2,4.79Z"/>
      <path d="M328.46,23.23c1.38,2.69-.91,7.8-3.85,8.22-2.37-3.14-2.85-7.33-2.94-11.7l6.79,3.48Z"/>
      <path d="M64.49,343.64l-4.36,1.88c-.95.41-3.09-1.17-3.7-1.95,4.23-1.49,6.01-1.63,7.5-5.16l8.79,3.51c-3.71,2.35-5.05.93-8.23,1.72Z"/>
      <path d="M256.61,465.99c-.75.09-3-.48-2.96-1.24.18-3.46,4.23-2.21,2.69-4.64l-1.97-3.11c5.24-.02,6.87,3.8,7.23,8.66l-4.99.33Z"/>
      <path d="M271.63,51.27l-.66,3.62c-.13.73-3.25-.09-3.95-.5-2.35-1.38-.15-8.58,3.35-8.06,1.04.15,1.48,3.73,1.26,4.94Z"/>
      <path d="M197.51,592.21c-1.92-1.76.26-17.85,5.22-18.61l-5.22,18.61Z"/>
      <path d="M309.99,44.08c-3.59,1.96-8.34-.29-9.83-3.42,1.59-1.3,4.02-2.3,5.11-1.63,1.41.87,3.13,2.62,4.71,5.04Z"/>
      <path d="M157.3,144.6c-1.15.37-4.39.33-4.98,1.34l-2.5,4.27c-.65-3.5-.87-6.13-.95-9.75l3.28,2.91c.61.55,1.89-.1,3.11-.69l1.79-.87c.37-.18.66,2.65.26,2.78Z"/>
      <path d="M175.68,628.78c-3.2,2.4-4.72,1.6-6.56.33-1.7-1.17-1.92-3.27-1.22-6.26l7.79,5.93Z"/>
      <path d="M261.03,51.4l-2.88,3.11c-.83.9-4.31-.68-4.85-1.94-.42-1,1.84-2.83,2.89-2.53l4.83,1.36Z"/>
    </g>
  </g>
</svg>