<?xml version="1.0" encoding="UTF-8"?>
<svg id="Layer_2" data-name="Layer 2" xmlns="http://www.w3.org/2000/svg" viewBox="0 0 732 290.8">
  <g id="Layer_1-2" data-name="Layer 1">
    <g>
      <path d="M485.18,129.11c9.71,5.18,4.31,6.96,15.2,10.55l-4.04,8.85-5.62,12.14,11.5-5.51c-.3-4.22,1.17-9.13,5.13-10.51,1.87-.65,5.84,1.17,7.89,2.09,7.22,3.26,7.44-2.32,12.75-1.64,1.51.19,4.4,2.48,4.49,4.08.45,8.07-10.32,3.18-14.88,11.17-1.24,2.17-.28,6.08,1.96,7.4.04-2.9-.2-5.53.39-6.88s3.89-2.85,5.55-2.93c3.94-.2,6.35-2.83,9.39-4.73,3.24-2.03,9.2,3.75,9.42,7.6l6.68,2.87c-5.25-4.8-10.47-15.11-15.43-17.68l-8.06-4.18c-1.67-.87-5.34,1.73-7.11,1.91-6.5.3-13.67-4.17-19.17-7.44-1.51-.89-5.84-1.45-6.51-2.9l-4.65-10.08-13.53-6.3-14.65,2.96-6.26,6.82-5.93,1.19c-2.09,2.43-4.45,4.36-7.73,5.28-2.74.76-4.38,4.36-6.19,5.73-3.72,2.81-7.08,3.68-8.29,9.26-4.3,2.02-21.32,2.01-25.27-.04l4.53-1.9c1.1-.46.79-3.55,1.7-5.09,1.04-1.76,5.29-2.71,7.47-3.53l-3.25-1.47c-.69-.31.27-1.82.42-3.46-5.45,2.68-9.03,8.52-11.35,13.84-1.06.91-5.67-.99-4.95-2.15l6.28-8.35-12.22,1.83c9.21-8.32,12.2-2.06,19.77-15.63-4.71.18-6.94,3.22-10.18,5.46l-2.06,1.42c-.42.29-1.63-1.89-1.35-2.31,2.14-1.75,6.58-4.73,8.6-6.68,2.43-2.34,3.35-5.19,7.31-4.29,4.83,1.1,8.28-1.26,9.48-5.57l-5.9,3.85.94-4.91-4.49,2.51c-1.01.57-3.17-.85-4.9-1.43-3.62,3.26-7.59,7.41-11.33,10.42l-9.78,7.87,4.29-5.82c-3.82-.45-7.05,2.46-9.69,5.88l3.09-13.02,4.98-1,6.47-13.29c-1.72.03-3.25,1.31-5.33,3.29l-3.63-2.3c3.26-4.52,4.9-8.68,4.62-14.35-1.81,4.06-3.13,7.44-5.33,11.24l2.57-10.63-5.26,4.43-1.38-3c-.41,4.62-1.07,7.47-3.44,11.26-1.77,2.83-2.14,18.34-5.24,26.22-2.05-3.25-1.16-6.26-.94-10.52-14.3,5.81-4.25,14.43-17.87,14.66-4.41.07-8.35.13-12.35-.97l1.9-9.96-6.13-2.55,5.79-4.15-14.6,3.06c-1.59.3-1.52,0,.4-1.68-12.87-1.33-9.79,1.73-19.57,2.3l10.72-7.44-19.1,4.77c-2.06,9.67-7.35,8.33-16.01,12.77,1.99-7.12-2.02-6.41-2.57-10.22-.67-4.56,18.24-14.39,17.53-16.07l-1.21-2.87c-14.93,8.45-3.84-.45-16.01,11.09-3.53,3.35-6.11,7.24-3.55,12.3,2.02,4,.4,7.33-.95,11.21-2.03,5.85-2.86,11.76-8.7,15.57-15.32,10.02-5.99,15.17-14.04,23.93-6.46,7.02,1.86,18.44-21.65,37.35-1.31,1.06-2.75,3.48-3.39,5.12-.51,1.3,1.73,3.69,1.86,5.09l1.33,13.94c.51,5.31-4.25,10.1-6.54,14.56-6.69,13.07-7.9.76-11.4,14.23-1.45,5.59-5.3,11.48-8.49,16.21l-45.24-.52-79.11.16c2.14-6.63,6.68-8.85,11.95-11.85l10.55-6.01c3.67-2.09,8.26-2.41,10.95-5.72,14.6,4.8,6.68.03,30.41-4.53,7.93-1.53,2.73-7.3,14.13-10.97,7.47-2.41,1.99-10.86,8.92-17.75,3.67.3,7.96.71,10.93,0,2.22-6,4.82-10.55,8.74-15.44l11.91-14.86c1.98-2.02,6.13,3.62,7.73,2.13l2.32-2.16,4.15,3.11,8.42-7.87,6.22-5.84c.72-.84.39-3.17.03-5.43l5.99-2.53,3.12-12.76c-2.82,1-4.04,3.28-4.86,6.17-2.33,8.26-4.33,3.66-8.23,12.13l-6.93-1.79-.65,6.57c-3.18-.11-5.16-1.54-8.24-4.32l-4.85,8.75c-7.13-9.27,9.91-21.93,14.18-29.99-.9-5.62-1.24-9.18,2.29-14.02,1.7-2.33.73-7.54,1.09-10.75.99-8.89,1.36-16.9-.03-26.13l11.8-2.02c6.89-14.33,4.74-15.9,5.52-31.53,11.3-.21,22.14-.5,33.22.04,6.59.32,12.75,1.76,19.21,2.68,7.21,1.03,14.78.58,22.21,1.08l31.55,2.11c-.22-6.76-.55-12.48,5.85-15.18l2.19,15.8,38.31.99,9.56-2.79c7.5,4.27,14.27,7.16,22.31,9.26l34.74,9.1c6.7,1.75,12.59.51,19.03-2.21,10.58-4.47,16.54,4.1,21.91-4.8l3.53-5.86,24.03-.67c12.79-.36,25.45-.29,38.32.59l2.79,38.01,8.92-1.59c7.63-1.36,5.33,8.16,10.61,12.37,13.69,10.9,1.07,20.21,17.08,33.91.55,3.52.44,9.49,2.47,12.32,15.35,21.43-1.21,28.43,17.55,46.76,1.85,1.8,3.2,3.43,6.09,2.55,8.9-2.71,6.7,5.52,16.04,10.41l-1.8,7.91c13.38,6.1,13.95-1.23,25.76,7.95,3.99,3.1,6.17,7.08,9.34,11.22,3.23,4.21,12.13-.41,14.36-4.48,1.41-2.56,5.11-3.03,7.36-1.89,13.42,6.77,6.22,11.11,27.12,10.4,1.38.27,1.42,5.55-.05,5.92-15.5.09-31.46.53-46.98-.44-2.87-.18-7.38-2.29-10.42-2.98-1.71-.39-4.53-3.24-6.24-3.09-2,.17-4.55,1.53-6.82,2.94l-5.61-1.89c-18.55,8.17-13.07,8.69-33.96,5.97-1.65,1.79-3.35,3.94-4.97,6.28l6.95-3.69c19.46,3.28,15.25.89,32.49-6.02l3.56,2.14c1.74,1.05,4.29-3.08,8.36-3.4,2.2-.17,2.2,3.94,12.25,4.29l17.92,11.63-45.41.52-14.06,3.1-202.33-.08c1.31-4.96,2.03-8.83,2.58-13.64,8.03-1.39,15.42-6.12,20.86-12.82.99-1.23,4.68-.95,6.17-.22,5.96,2.94,3.06-3.2,13.75-4.51-8.49-4.43-6.81,1.88-12.27,2.51-6.1.7,5.18-9.11,6.25-9.98,3.38-2.73,11.11.45,15.02-5.34l.03-.99c-8.88,3.62-14.88-.63-20.33,8.36-2.43,4-6.47,5.46-9.79,8.13-6.49,5.2-12.13,12.33-21.52,12.66l-3.87,16c-13.64-.52-26.28.54-39.6-.78-8.42-.84-16.21-1.84-24.91-2.2,3.1-3.24,6.14-6.99,9.76-9.98,4.04-3.34,14.59,4.47,19.18.74l7.79-6.32c-3.44-.14-6.61,2.23-10.04,4.99l-14.99-3.23,12.51-18.42c.72-4.2,1.44-9.98,2.67-14.28l3.76-13.15c3.11.51,6.96,1.42,8.35.23,2.21-2.15,3.63-2.99,7.43-3.86-.14-.5-3.61-1.78-5.09-1.75s-3.37,2.88-4.49,3.81l-6.44-.84c-5.04,8.99-6.41,18.86-8.19,28.78l-13.75,19.07c-3.55,4.93-7.43,9.37-11.39,13.77l-88.22.21c-4.18,0-8.4-2.95-11.64-4.95l11.83-.22c-4.27-1.92-7.95-2.36-14.12-3.17,5.15-6.72,8.11-2.17,11.47-12.97l11.36-.82c-4.34-2.18-9.58-1.81-13.41-.92-2.51,12.87-11.8,6.05-11.64,18.16l-32.35-.09c3.34-4.53,5.91-6.88,9.51-10.48-6.34,1.16-9.79,5.39-14.55,10.07l-12.82.49c4.95-8.3,7.91-15.4,10.74-23.53,4.09-2.03,7.42-5.65,9.93-10.19,1.39-2.53,8.64-6.85,5.72-21.54l-2.68-13.48,11.37,1.41c11.48,1.42,1.11-11.29,12.55-12.14,14.24-1.05,4.53-12.15,28.52-9.57l10.48-10.52c1.62-1.62,5.53-2.83,6.22-5.17,3.85-13.03,6.36-11.3,12.7-23.21,2.75-1.34-1.35,13.15,2.25,18.44l2.35-18.21.56-9.35,7.42-15.75c18.82,12.34,26.25,5.87,30.07,7.06l14.2,4.41c2.46.76,6.01,5.14,8.4,6.58l28.43,6.83-7.05,7.26c-2.72,2.8-3.53,8.04-5.2,12.89,4.09-3.97,3.47-7.85,8.56-12.63l.45,1.86c1.38,5.75,3.82-10.09,10.14-8.57-2.86,4.01-5.38,7.17-6.6,11.61l13.72-13.32,12.13.05,6.41-8.95,10.6-2.79c6.18-10.28,12.85-17.43,25.96-15.76-.72,3.02-2.41,5.22-3.71,7.92l-4.23,8.78c-1.92,3.98-5.45,6.5-7.88,10.13l-4.81,4.5c9.77-1.33,9.14-7.96,18.27-12.69,3.83-1.98,6-4.45,4.39-9.11l4.31-6.8ZM371.37,87.38c-5.22,5.28-9.22,11.54-9.34,18.81,3.5-11.66,7.26-11.15,9.34-18.81ZM401.74,105.66l1.85-10.34c-3.87,5.65-6.76,12.07-8.77,18.99,5.38-.73,6.23-4.7,6.93-8.65ZM256.88,118c.52-2.96,2.73-6.01,4.55-7.77-9.01-.45-2.47,15.73-17.08,27.46-3.09,2.48-5.56,5.71-5.78,9.8,9.19-11.79,15.45-13.1,18.3-29.49ZM593.79,190.86c-5.43-16.53-14.76-29.73-25.19-42.33-1.25-3.24-3.6-4.91-6.48-6.69-11.17-6.87-5.14-27.34-17.81-30.5,12.46,11.1,3.95,22.81,15.93,32.54,2.91,1.06,5,3.01,6.02,6.01,11.48,12.38,19.62,26.67,27.53,40.96ZM229.38,167.12c2.45-3.26,4.13-6.66,4.34-10.86l1.08-21.14-4.14,5.13,3.48-13.43c-2.3,2.84-4.95,6.35-6.44,9.07l-3.25,30.09c-.33,3.01-.19,6.03.28,8.89l3.06-12.27,1.58,4.52ZM309.18,189.81c3.31-4.68,4.41-7.9,5.09-12.45l9.48.88c7.55-10.24,4.1-17.29,15.64-21.96.96-2.79.14-7.4-1.1-9.97l.08,7.27c-8.57,3.24-13.12,14.08-16.46,21.9-2.08-.67-7.31-1.62-8.54.04-3.3,4.43-4.79,9.8-4.2,14.29ZM463.79,166.56c4.2-1.13,6.51-2.39,8.8-5.81,1.38-1.41,4.3-3.55,5.49-5.01l5.08-6.25c-4.97,1.06-8.22,3.97-11.65,7.42-6.5,6.52-17.49,6.94-20.36,13.05l12.64-3.4ZM489.27,181.17l4.34-10.72c5.29,1.79,8.11-.7,10.83-4.92,1.33-2.06,4.92-3.44,4.89-6.7-12.53,8.56-3.21,5.24-15.98,11.17-2.77,1.28-4.29,7.72-4.08,11.16ZM367.09,187c2.57-5.03,2.86-10.7,6.02-15.93l4.35-7.18-6.78,5.27-3.59,17.84ZM429.07,167.74l5.83-1.27c-2.31-.39-6.51.17-9.1,1.3l-2.84,13.94c5.98-3.35,3.42-13.39,6.11-13.98ZM476.67,179.82c1.05-4.84,4.37-7.72,10.16-8.43-5.28-3.32-8.36,1.32-11.48,4.33l-10.88,4.98c-.39,1.79-.47,5.05-.28,6.5l1.4-4.74c.39-1.31,8.03-3.2,11.09-2.64ZM482.75,203.67c2.16-4.35,11.34-3.23,14.17-5.95,1.94-1.87-1.06-5.63,7.7-12.85,4.14,1.03,7.58,1.18,10.52-1.11,1.8-1.41,3.11-5.4,3.75-8.33-15.89,1.67-15.69,5.79-28.37,15.3-8.03,6.02-13.76,13.46-16.85,23.17l-8.62,8.97c22.39-7.9,14.45-12.67,17.69-19.2ZM204.96,225.73c5.28-2.78,3.36-12.29,6.37-11.3l3.54,1.17c7.45-4.86,11.26-4.72,15.94-14.79,2.64-5.66,9.62-2.36,13.99-9.09l-7.82-3.74-3.1,3.57c-4.28,4.93-15.72,3.85-23.28,17.52-2.58,4.66-5.24,9.19-7.5,14.11-5.12,11.12-9.85,0-11.44,18.42,5.17-4.64,9.46-9.79,13.3-15.86ZM584.48,198.22c-1.77-5.66-6.5-8.25-11.49-9.67,1.51,1.72,3.12,3.18,4.97,4.61l6.52,5.06ZM516.85,194.24c-2.34-.06-4.97.64-7.07,1.72l-14.92,9.21c-3.77,2.33-6.96,4.4-9.92,7.65,9.47,3.4,23.11-17.06,31.9-18.59ZM590.55,207.71c-.65-4.44-1.3-7.23-3.02-7.62-2.78-.63-5.8.41-6.37,2.37,1.89.18,5.78-.35,6.57.89l2.81,4.37ZM505.14,215.53c3.77-.09,6.48-.1,9.22-2.36-12.71-8.08-10.58.68-27.26,4.29-2.98.65-6.17,2.29-6.59,5.11,7.96-3.21,15.82-6.83,24.63-7.04ZM481.68,228.46c-3.27-2.73-15.79,7.56-17.35,9.24,7.04-1.4,11.89-5.1,17.35-9.24ZM565.74,256.96c-4.94-1.96-8.34-4.47-12.5-7.13-3.79-2.43-8.4-3.91-12-6.89-3.55-2.93-8.45-1.73-12.38-.98-1.43.27-5.26-1.03-6.38-.14s-2.91,3.09-3.38,3.88c3.92-1.41,6.31-1.62,9.57-2.03,5.33-.68,9.95-1.43,13.98,3.21,1.78,2.04,6.86,2.91,8.94,4.44,4.53,3.32,8.45,6.63,14.15,5.66ZM589.91,253.06l-5.31-3.47c-4.18-2.73-9.49-1.46-11.44,3.11,2.03-.85,5.22-2.22,7.07-1.8l9.69,2.16Z"/>
      <path d="M24.12,243.09c1.04-.51,2.49-2.76,3.62-2.85s3.55.58,4.81,1l2.72.89c.73.24,1.69-1.98,1.82-2.77l1.47-9.31c5.08-4.01,3.31-5.24,9.69-16.6,3.2-5.7,4.07-14.22,9.21-11.02,6.41,4,8.31-6.38,13.97.16.49.56,1.6,2.24,2.14,1.95l3.16-1.7c1.55-.83,4.55-1.79,6.17-1.37,1.49.38,3.23,3.28,3.69,4.96,2.44,8.96,5.57,1.5,12.4,10.87,1.37.97,5.83-.31,7.23-1.54,3.11-15.57,17.24-15.93,19.18-38.23l2.25-25.89,6.65-18.57-1.63-13.96c-.58-5,2.4-10.28,4.23-14.98,10.27.03,19.95,2.62,29.95,1.54,5.69-.61,11.02-2.46,17.06-2.35l31.62.6,3.64-3.87,13.7-.87c.72-.05,2.23.98,2.17,1.55-.08.78-1.28,2.54-2.17,2.64l-11.66,1.3c1.35,5.79,2.1,9.36,1.76,14.52-.51,7.74,1.29,17.02-2.36,23.83-2.61,4.87-4.32,7.94-2.98,14.1-2.51,4-6.83,9.66-10.18,13.19-4.49,4.74-3.23,10.13-5.46,15.51-3.44,8.27-11.14,14.91-15.53,22.83l-6.18,11.15-10.67-.13c-4.6,3.87-5.44,10.39-6.48,16.71-7.19-.73-9.75,7.62-13.84,9.79l-25.44,8.68c-1.95-1.11-4.78-2.49-6.38-2.56s-3.73,2.43-5.45,4.56l-7.61-.23c-8.27,8.81-9.33,5.65-17.99,12.16l-86.4.14c2.94-3.91,5.18-7.68,6.57-12.15l3.31-10.62,6.65.58,7.59-3.68Z"/>
      <path d="M440.46,77.39c-.67-.19-13.86,13.17-36.9-2.31l-10.5,3.06-35.36-.31-2.11-12.36c-.16-.94-.99-2.57-1.53-3.21s-3.07-.1-3.87.44c-4.05,2.73-5.35,7.86-4.02,13.81l-21.14-.63c-1.13-2.31-1.57-6.74-1.09-8.73l4.3-2.11c.06-10.56-.48-22.22.44-32.88.26-2.97,5.45-5.2,1.69-9.76-2.77-3.36-1.8-9.06,1.47-11.99l.5-6.61c2.92-.16,6.33-.11,9.51.24l.34,13.53,4.57,1.83.28,10.92c.7.83,4.73.76,5.57-.45l8.07-11.61c.32-.46.56-2.82.71-3.38.2-.75,2.26-.74,2.96-.4s.45,2.95.91,3.61l8.05,11.49c.4.58,2.39,1.58,2.87,1.13l2.65-2.48c2.77,2.7,8.84,3.67,12.05,1.86l.66-3.88c.17-1.01,3.12-1.2,4.21-1.11l4.53.39c1.08.09.93,2.84,1.31,4.86,1.85.56,6.23.55,8.5.09l.27-15.64,5.28-1.34,9.14-13.45,8.07,13.54c1.95.85,6.41.95,8.37.57l.99-5.63c2.41-.98,5.54-1.7,7.74-1.94l.25,31.73c.02,3.19.81,6.41,1.68,9.63l13.01-.25c.95-2.87,2.63-5.4,4.86-5.67l4.85,6.18,23.73-.43c2.07-10.32-2.67-17.51,4.96-21.9,2.31-1.33,8.82.52,8.9,3.21l.62,20.04,16.15.3c4.55.08,8.69-1.46,9.54-6.99l11.04-.06.92,9.14,11.42.61-.14,28.36-31.87.53-25.97.37c-2.34,2.14-4.38,5.66-6.27,8.86-6.69,2.03-12.21-.36-21.63,1.76-.5-3.87-3.12-6.54-6.64-8.33-6.61-3.36-12.16-5.92-19.69-2.27-4.13,2-5.62-2.96-9.21-3.96ZM425.74,38.69v-19.45c0-.65-.9-1.96-1.39-2.15s-1.61,1.52-1.61,2.08l-.07,19.67c0,.73,1.19,2.2,1.68,2.59s1.39-1.74,1.39-2.73ZM366.86,65.88l-.23-28.99c0-.97-1.34-2.63-2.24-2.59-.72.03-1.52,1.79-1.52,3l.06,29.34c0,.96,1.84,2.14,2.45,1.96s1.49-1.76,1.48-2.71ZM384.65,64.11l-.17-21.97c-1.27-.12-3.93.39-3.94,1.45l-.09,20.57c0,1.36,1.81,3.1,2.72,2.72.69-.29,1.49-1.76,1.48-2.77ZM424.22,44.97c-2.25,2.6-2.56,20.75.11,22.49,2.24,1.46,2.13-23.1-.11-22.49Z"/>
      <path d="M250.94,65.83l1.99,3.29,13.99.08,2.23-3.29,9.3-.46c.27-2.19.47-4.32,1.14-5.19s4.07-.32,4.28.75c.18.92,0,4.46.9,4.45l4.12-.07c3.09-.05,5.92.17,7.84,1.89l11.33-14.23,11.23,13.83c1.77,2.18,3.92,5.3,1.96,7.97-8.76-1.23-18.66.61-26.53-1.85-2.59-.81-3.65-2.01-6.7-2.08-15.46-.4-29.67-.85-45.38-.32-.36-1.83-.39-5.82-.16-6.84l8.44,2.09Z"/>
      <path d="M473.06,90.72c2.68,6.47-16.29,3.23-18.4.85l-4.87-7.34c7.29-5.52,21.02,1.06,23.27,6.49Z"/>
      <path d="M308.53,150.28l-15.95-.24c4.63-2.54,8.56-4.4,13.4-5.78l11.12-3.17-3.78,3.41c0,1.17.09,2.58-.15,3.41-.28.99-3.38,2.39-4.64,2.37Z"/>
      <path d="M279.38,184c10.79-14.78.76-5.77,13.73-16.85,2.76-2.36,2.73-8.34,8.04-8.41l-7.36-.12c3.65-1.16,6.94-1.98,11.28-2.77,1.02,5.14-5.58,4.3-9.93,12.73-11.87,6.62-7.12,10.25-15.76,15.42Z"/>
      <path d="M302.62,137.52c2.26-1.44,4.64-2.45,7.4-3.47-1.44-8.64,9.04-3.69,11.28-10.64,1.63-1.56,5.51-2.8,8.63-2.93l-11.01,8.35c-3.74,5.9-8.36,9.9-16.3,8.68Z"/>
      <path d="M299.69,130.2c-6.91,2.94-5.78,11.44-15.84,12.83,4.74-3.57,7.4-7.41,10.16-12.11,5.22-3.8,12.92-6.51,20.01-7.66-4.45,3.22-9.18,4.74-14.34,6.93Z"/>
      <path d="M448.86,90.11c-6.14-.85-12.48-2.28-19.34-4.6l11.53-3.82,7.81,8.42Z"/>
      <path d="M198.19,101.26l-17.32-.27c-.44,0-1.66-.16-1.99-.19s1.32-1.42,1.66-1.47l12.74-1.77c2.35-.33,4.08.26,4.92,3.7Z"/>
      <path d="M452.02,138.47c-.88,1.23-4.65.74-6.73-.65,4.19-3.02,7.19-4.73,11.88-7.15-1.68,2.81-3.08,4.92-5.15,7.8Z"/>
      <path d="M383.23,113.87c-2.07,2.18-.65,6.23-5.09,6.91-.3-2.59,7.21-16.11,10.9-13.11-1.86,2.56-3.94,4.24-5.81,6.2Z"/>
      <path d="M214.35,101.04l-9.76.11c1.01-2.48,2.99-5.01,4.74-4.88,2.26.17,4.14,2.27,5.02,4.76Z"/>
    </g>
  </g>
</svg>