<?xml version="1.0" encoding="UTF-8"?>
<svg id="Layer_2" data-name="Layer 2" xmlns="http://www.w3.org/2000/svg" viewBox="0 0 114 184.01">
  <g id="Layer_1-2" data-name="Layer 1">
    <path d="M66,130.77l.98.35.03,3.71.97.28.03,4.72.97.28.03,3.73.97.27.03,3.73.97.27.04,2.73.96.27.04,2.73.96.28.04,2.72.95.27.05,2.73.96.27.04,2.73.98.27v20.89s-11.99.01-11.99.01v-11.91s-.99-.3-.99-.3l-.05-1.79h-3.86s-.2.79-.2.79c-.05.2-.55.23-.91.31v12.85s-1.99.06-1.99.06l-.02-10.93-.79-.17c-.2-.04-.17-.65-.19-.92l-.06-.81c-.01-.16-.42-.17-.73-.24l-.43-.97-2.68.06c-.06.71-.42.97-1.1,1.08l-.02,12.86-11.88.02-.2-.81c-.05-.19-.49-.22-.89-.32l-.04-3.95,1.02-.28v-16.44s.96-.33.96-.33l.08-2.76.95-.33v-2.58s.95-.34.95-.34l.1-2.74.95-.34v-3.6s.98-.29.98-.29l.02-3.71.96-.29.07-2.77.95-.34.03-3.65.97-.34.03-3.66.98-.35v-4.61s.98-.29.98-.29l.03-5.79.98-.18v-4.76s.99-.27.99-.27v-4.73s1-.28,1-.28l.02-4.71.99-.28v-4.72s1.01-.28,1.01-.28v-8.78s-1.01-.38-1.01-.38v-6.35c.01-.25-.76-.56-.82-.36l-.27.9-2.7.15c.74-.42-2.59,3.05-2.19,2.05l-.02,19.64,1,.37v12.53c-.17.16-.61.33-.98.45l-.02,5.7-.98.3-.02,3.67-.98.35-.02,3.63-.96.36-.06,4.75-.98.33v3.62s-.98.29-.98.29l-.02,3.7-.97.3-.03,2.66-.95.34-.05,2.7-.98.36-.04,2.72-.78.17c-.2.05-.2.65-.2.9v.84c.02.22-.92.27-.92.04l-.09-3.68-.95-.33-.04-3.64-.95-.35-.05-3.7-.97-.36-.05-2.7-.93-.34-.08-2.66c-.38-.1-.94-.31-.94-.57l-.05-3.42-.78-.21c-.19-.05-.17-.62-.18-.9l-.04-.82c-.01-.2-.59-.24-.72-.4-.28-.32-.72-.76-1.04-1.03l-.3-.57c-.2-.39-1.66-.2-1.7-.12l-.39.69c-.38.33-.74.69-1.04,1.06l-.57.29c-.18.09-.19.58-.21.89l-.05.83c-.01.2-.54.19-.9.28l-.05,2.69-.95.34-.08,3.74-.95.34-.03,2.68-.95.21-.06,3.78-.96.33v2.59s-.96.33-.96.33l-.08,3.74-.96.35v3.54s-.97.36-.97.36l-.05,2.68-.97.31-.04,5.78-.98.19v10.91s-3.9,0-3.9,0l-.3-1H1.08s-.13.85-.13.85c-.03.21-.94.18-.94-.09v-18.54s.98-.34.98-.34l.02-3.71.99-.27v-3.72s1-.29,1-.29l.02-3.67.98-.32.02-4.72.99-.28v-4.7s.93-.39.93-.39l.26-.81c.05-.15.7.03.81.15l.02,5.64.98.33.02,3.72.97.28.04,4.72.95.29.07,2.74c0,.26.97.28.97-.11v-71.62s1-.21,1-.21v-10.72s1-.29,1-.29v-7.71s1-.28,1-.28v-7.73s1-.28,1-.28v-13.7s1-.3,1-.3v-6.72s1-.28,1-.28v-7.81s1-.19,1-.19v-9.69s-.99-.44-.99-.44l-.08-1.69-.73-.17c-.2-.04-.25-.67-.23-.88l.1-.85c.02-.21.57-.19.88-.26l.08-1.88,1.87-.13.18-.73c.05-.2.68-.24.91-.21l.83.1c.2.02.18.56.26.88l1.89.09.08,2.88.8.15c.21.04.23.78.03.83l-.7.17c-.38.09-.01,1.7-.2,1.76l-.96.31v9.66s.99.3.99.3v8.71s1,.29,1,.29v8.71s1,.29,1,.29v13.7s.99.31.99.31l.03,9.79c.29.03.98.2.98.5l.02,13.43.82.25c.2.06.18.64.18.91l-.02.85c0,.2.67.16,1,.07l.02-7.78.99-.23v-16.78s1.01-.36,1.01-.36v-8.63s1-.36,1-.36v-8.64s.99-.22.99-.22v-13.79s1.01-.33,1.01-.33l-.02-7.58,1-.3.02-7.79,1-.21-.02-10.75c-.59-.16-.98-.54-1.19-.97l-.59-.27c-.18-.08-.27-.65-.25-.86l.09-.86c.02-.2.58-.19.87-.26l.14-1.79c.65-.11.9-.42,1.09-1.11l3.58.02c.25.41.61,1,1.22,1.12l.08,4.6-1.03.37v11.67s.99.3.99.3v7.71s1,.29,1,.29v6.72s1,.28,1,.28v15.7s.99.3.99.3v7.72s1.01.28,1.01.28v10.71s1,.31,1,.31v14.8s.85.05.85.05c.2.01.15-.58.23-.9l2.71-.07.34-.92,2.74-.11.22-.75c.06-.19.56-.22.9-.31v-3.72s1-.28,1-.28v-7.88s4-.02,4-.02l-.03,1.93-.81.16c-.2.04-.21.67-.19.89l.1.85c.02.2.55.18.9.26l.04,3.74.97.36.06,3.71c.66.14.98.37,1.09,1.08l2.71.06.27.96,2.9.03v-2.85s1-.26,1-.26v-15.7s1-.33,1-.33v-8.61s.99-.37.99-.37v-8.71s1.01-.3,1.01-.3l-.02-4.83-.78-.13c-.15-.02-.21-.44-.22-.61-.02-.2.39-.25,1-.33l.04-7.81.98-.31v-7.62s1-.38,1-.38v-7.61s.99-.38.99-.38l.03-7.65-.97-.37-.1-1.77-.75-.17c-.2-.04-.25-.67-.22-.91l.08-.83c.02-.2.56-.19.87-.26l.14-1.76c.66-.13.93-.48,1.07-1.13l3.74-.02.21.79c.05.19.56.23.9.32l.04,4.64-.97.4-.09,1.79-.76.12c-.15.02-.21.46-.2.62,0,.2.36.24.99.35l.03,8.71.98.36v7.71s1,.28,1,.28v7.72s1,.28,1,.28v13.7s1,.3,1,.3v8.71s1,.29,1,.29v10.7s1,.29,1,.29v18.69s.98.33.98.33l.02,2.86.99-.02v-4.85s1-.27,1-.27l.02-12.48c0-.19.73-.41.98-.45l.02-9.8.99-.2v-13.81s1-.21,1-.21v-7.64s.99-.35.99-.35v-8.71s1.01-.31,1.01-.31l-.02-8.73c-1.85-.48-.14-.87-1.96-1.3l-.03-2.64.93-.34.14-1.76c.67-.08.93-.38,1.07-1.08l2.76-.02.19.79c.05.2.64.18.9.19l.88.03c.22,0,.07.71.1.96l.09.82c.02.2.55.19.9.28v1.82s-.78.18-.78.18c-.2.05-.18.63-.19.91l-.03.82c0,.2-.6.21-.96.3v10.69s.99.29.99.29v7.72s1,.29,1,.29v7.71s1.01.28,1.01.28v12.71s1,.3,1,.3v7.71s1,.29,1,.29v9.71s1,.29,1,.29v11.71s1,.31,1,.31v66.34c0,.25.04.56.15.56l.8.02.07-3.85.97-.32.02-3.63.96-.39.04-3.62.96-.4.05-4.53c0-.19.55-.49.66-.39.15.15.33.55.34.76l.04,1.13c0,.21.57.18.93.26l.02,4.74.97.3.03,4.66.96.35.04,3.65.96.35.05,3.65.95.34.04,2.18c0,.18.06.62.2.64l.79.15v18.92s-13.87,0-13.87,0l-.22-.8c-.05-.18-.47-.21-.9-.31v-13.7s-.97-.33-.97-.33l-.08-3.76-.95-.32-.03-2.7-.94-.2-.08-3.78-.95-.34-.02-3.55-.94-.37-.06-2.65-.91-.35-.12-2.75c-.34-.08-.94-.31-.94-.55v-3.37s-.96-.33-.96-.33l-.04-2.65-.94-.35-.07-2.64-.89-.35-.15-1.75c-.66-.12-.92-.38-1.06-1.1h-2.76s-.2.78-.2.78c-.05.19-.57.23-.88.32l-.04,1.71-.98.31-.02,2.66-.97.34-.04,3.69-.97.31-.03,2.65-.96.35-.04,3.69-.98.29-.02,3.71-.98.32-.04,4.58c0,.27-.83.37-.83.19-.12-.54-.46-.87-1.1-1.06l-.09-2.64-.92-.34-.06-2.7-.95-.31-.05-2.62c-.1-.08-.61-.25-.94-.36l-.06-3.71-.95-.29-.07-3.79-.93-.19-.08-2.79-.95-.33-.03-4.69-.95-.2-.06-3.78-.96-.34-.02-4.68-.98-.22v-34.8s.81-.14.81-.14c.19-.03.31-.71.13-.78l-.76-.32c-.14-.06-.16-.57-.27-.68-.15-.14-.55-.17-.89-.18l-.84-.02c-.21,0-.19-.61-.26-.91l-1.84-.12-.24-.94c-.05-.2-.84.12-.84.32l-.02,3.53-.98.39-.02,5.67-.8.15c-.15.03-.2.45-.21.61,0,.2.37.25.99.33l.04,7.8.97.29.02,3.72.97.29.03,3.67.97.33.04,5.7.98.3v5.66s.99.34.99.34v4.67ZM44.02,100l-.04-5.9-.89-.28c-.13-.04-.1-.58-.2-.68-.14-.14-.6-.11-.9-.09v13.87s.99.04.99.04v-6.6s1.03-.36,1.03-.36ZM72.01,106.96v-13.95s-2,.01-2,.01v13.95s2,0,2,0ZM39.01,108.83v-13.82s-2.01,0-2.01,0v14.95s.9-.02.9-.02c.11-.45.14-.78.31-.84l.8-.28ZM77,108.96v-13.95s-2,0-2,0v13.98s2-.03,2-.03ZM33.16,111.9l.85.08v-14.95s-.89.05-.89.05c-.1.4-.12.8-.3.85l-.81.2v12.73s.91.31.91.31c.13.04.1.72.24.73ZM81.01,111.89v-13.85s-1-.02-1-.02v13.97s1-.1,1-.1ZM30.02,111.65l-1.02-.36v-11.25s-1,.02-1,.02v15.9s.89.04.89.04c.11-.47.14-.86.33-.91l.76-.21.04-3.24ZM85.01,116.98l1-.02v-15.95s-2,.02-2,.02v12.85s1,.29,1,.29v2.8ZM25.01,113.61v-9.47s-.93-.31-.93-.31c-.14-.05-.12-.51-.18-.69-.07-.18-.59-.12-.89-.09v14.92s.98,0,.98,0l.05-3.87c.3-.03.98-.24.98-.49ZM90.02,117.11l.07.89c.01.16.88-.12.91-.28v-14.61s-.99,0-.99,0v6.65s-1,.36-1,.36v5.77c.43.09.91.08.93.28l.08.94ZM20.01,119.94v-14.92s-.89.04-.89.04c-.12.4-.14.75-.32.8l-.79.24v13.88s2-.04,2-.04ZM96,106.09c-.89-.12-1.04-.38-1.09-1l-.9-.06v14.96s2,0,2,0v-13.89ZM15.01,121.95v-13.95s-2.01.03-2.01.03v13.94s2.01-.02,2.01-.02ZM100.01,121.87v-13.81s-1,0-1,0v13.9s1-.08,1-.08ZM63.01,139.99c-.04-.5-.02-.9-.17-.93l-.8-.16-.09-3.78-.95-.29-.05-2.72-.96-.28-.03-2.72-.97-.28-.06-1.7c-.69-.12-.86-.38-1.14-1.11l-1.62.02c-.26.74-.57.95-1.17,1.19l-.08,1.7c-.3.07-.88.06-.89.26l-.06.84c-.02.27.02.86-.18.91l-.77.19-.11,2.76-.94.35-.03,2.66-1,.29.05,2.83,11.98-.02Z"/>
    <path d="M25.01,171.05v11.84s-.81.19-.81.19c-.19.04-.22.51-.32.91h-6.77s-.2-.78-.2-.78c-.05-.18-.48-.22-.9-.33v-10.77s.97-.2.97-.2l.05-3.8.98-.32v-3.61s.98-.29.98-.29l.02-3.71.99-.35.04-2.71.97-.34v-3.6s.97-.3.97-.3l.07-2.76.94-.35.05-3.63.95-.36.05-2.65.96-.36v-3.59s.97-.3.97-.3l.06-1.89h1.96s.02,2.83.02,2.83l.96.27.04,2.73.96.27.04,2.73.96.27.03,2.73.97.27.04,3.72.97.28.03,3.72.97.27.03,3.73.97.27.02,3.72.99.32v17.7s-.81.26-.81.26c-.18.06-.2.47-.31.92l-5.89-.05v-10.63c0-.21-.7-.4-.94-.44l-.1-1.91-2.96.07Z"/>
    <path d="M89,172.16c-.71-.2-.92-.43-1.16-1.12h-1.67c-.27.69-.42.94-1.15,1.07l-.02,11.88h-5.9s-.19-.79-.19-.79c-.05-.18-.46-.22-.89-.32v-18.67s.98-.33.98-.33l.02-3.71.97-.28.05-3.77.96-.33.03-3.66.97-.34.04-3.64.95-.36.05-2.64.94-.36.06-2.64.94-.37.06-2.66.77-.19c.2-.05.21-.63.21-.89v-.89c0-.21.71-.18.78.02.15.39.57.85,1.16.98l.08,2.7.95.27.03,2.73.97.27.04,3.72.97.27.02,2.73.97.27.04,3.73.96.28.03,2.73.96.27.05,3.72.96.28.03,2.73.97.28.04,3.73.99.27v14.89s-7.99.01-7.99.01v-11.84Z"/>
  </g>
</svg>