<?xml version="1.0" encoding="UTF-8"?>
<svg id="Layer_2" data-name="Layer 2" xmlns="http://www.w3.org/2000/svg" viewBox="0 0 1010.91 481.25">
  <g id="Layer_1-2" data-name="Layer 1">
    <path d="M4.81,374.22l115-.03c.92,0,1.49-2.92.74-3.19-4.74-1.77-8.63.38-10.37-4.52-1-2.81.53-7.14,3.66-7.25l22.06-.77-.08-10.66-7-.86c-2.54-.31-4.05-4.76-3.24-6.75,1.2-2.96,4.68-4.76,9.03-3.95l.83-14.72c.39-6.88,5.21-11.97,11.23-14.5l.3-18.1c.04-2.6,4.21-5.01,6.27-4.48,3.19.82,4.9,3.46,4.91,6.67l.05,15.88c6.78,3.04,10.96,8.37,11.32,15.88l.62,13.06c3.38.08,6.48.61,8.48,3.04,1.47,1.78,1.06,6.51-2.01,7.82l-7.6,1.06.14,11.16c10.8,1.66,24.9-4.24,25.85,4.92.41,3.98-2.83,6.65-7.09,6.15-.87-.1-3.61.57-3.93,1.28l.09,18.91,31.95.07.05-89.47c-4.07-.02-6.92-.92-8.36-3.81s.37-5.86,3.29-7.87l28.93-19.94,11.88-.17.08-15.13c.01-2.39,2.29-4.38,4.58-5.06l3.5-1.04c.75-.22.74-2.7.74-3.56,0-4,1.98-6.55,5.83-6.49,7.08.12,4.75,10.33,6.22,10.37l4.58.12c3.14-15.49-5.14-8.8-4.53-16.45.24-3,3.03-5.52,6.12-5.55l8.93-.09.36-10.02c.09-2.37,3.16-5.35,5.24-5.43,2.83-.1,6.17,2.47,6.27,5.46l.35,9.95,8.1.04c3.02.02,6.05,1.9,6.67,4.76.66,3.05-1.13,5.2-4.46,7.25l-.32,9.83,4.5.38c2.85.24-1.01-10.82,6.92-10.71,3.6.05,5.72,2.74,5.8,6.52l.07,3.25c.02,1.16,8.54,1.43,8.6,5.57l.22,16.06,11.83.15,30.04,20.87c2.03,1.41,3.11,5.22,2.2,6.87-1.51,2.74-3.85,3.68-8.13,3.98l.11,11.39,66.45-33.59c3.32-1.68,6.21-2.2,9.47-.53l34.62,17.64.18-83.67-4.86-5.26c-.9-.97-2.04-3.68-1.85-4.96.22-1.46,2.44-4.02,3.86-4.46l8.42-2.64,36.62-172.78c-5.27-4.64-6.62-11.01-3.14-16.66,3.2-5.2,10.71-7.25,16.23-3.49,3.44,2.34,5.06,6.18,5.16,9.75.12,4.22-1.47,7.13-4.7,10.64l31.42,147.75,4.67,23.46c.78,3.92,13.21,1.95,12.62,9.63-.23,3.02-3.71,5.99-6.36,8.39v108.33s26.11.34,26.11.34l.1-25.37-4.47,3.18c-2.51,1.78-6.15,1.96-8.28-.73-1.66-2.1-1.67-5.48.75-7.9l51.56-51.51.11-22.91c.01-2.8,2.33-5.34,4.74-5.86,2.15-.46,6.38,1.46,6.41,4.11l.29,24.51,52.06,52.09c2.37,2.37,1.54,6.39-.27,8.07-2.5,2.32-6.09,1.71-8.39-.28l-3.78-3.28-.08,22.99h14.96c.06-4.4,1.97-7.92,6.17-7.91l16.86.03c4.27,0,6.09,3.77,6.56,7.83l20.64.12c3.29.02,5.44,2.78,5.73,5.95l.73,7.82,90.29-.05.02-30.14c-4.61.23-10.55.66-11.93-3.47-1.96-5.85,2.55-12.53,6.9-16.49,15.56-14.14,47.18-20.12,68.2-19.79l.15-16.14c.03-2.86,2.8-5.6,5.44-5.9,2.36-.26,6.11,2.32,6.15,5.03l.28,17.11c21.71-.34,42.57,4.03,61.21,14.61,7.89,4.48,18.26,15.29,13.47,22.62-1.01,1.54-4.22,2.33-6.5,2.49l-6.01.42v174.57c0,2.88-2.63,5.23-5.22,5.22l-65.5-.21-14.47-.13-11.47.28-642.07.02c-2.06,0-4.66-.82-6.06-.63-4.62.64-8.15.65-12.74.02-1.84-.25-4.7.6-7.04.6l-227.48.02c-3.61,0-5.04-4.25-5.04-6.98v-68.13c-.01-5.02,5.58.39,9.87-4.33,3.62-3.98,2.52-11.67.56-10.24-4.47,3.25-2.34,7.01-4.56,7.18-1.5.11-4.78.03-5.77-.12l-.2-12.52,1.57-1.82c2.11.09,3.99.24,4.63-.52s-.08-3.78-1.03-3.92l-4.81-.74c.37-1.47,1.71-4.87,4.45-4.87ZM505.91,236.01c1.2-.05,2.9-2.23,2.73-3.26-.5-3.09-8.49-1.7-9.94.95-1.66,3.04-1.42,9.39.86,9.74.71.11,2.87-.02,2.88-.72v-3.56s0-2.82,0-2.82c0-.56,2.43-.28,3.48-.32ZM517.01,252.47c2.06-2.79,1.47-10.07-1.64-9.73-.98.11-2.07,2.18-2.11,3.18l-.17,3.87c-.03.72-1.88.56-3.49.57-1.4,0-3.09,1.69-3,3.25.16,2.76,7.86,2.32,10.41-1.13ZM723.77,361.38l-6.02-2.93c-.45-2.99-1.31-6.72-3.73-7.86s-6.23-.32-7.78,1.57l-3.06,3.72,10.74,12.97c.44.53,3.12-.6,2.74-1.1l-1.8-2.39c-.76-1-1.77-2.6-1.22-3.33,2.56-3.38,8.68,4.36,10.14-.66ZM697.73,372.79c-1.24,1.03-2.34,4.22-1.85,5.55.42,1.13,3.17,2.54,4.27,2.04,1.22-.56,7.2-5.47,7.09-5.66l-1.97-3.63c-1.65-3.04-4.4-5.41-7.2-4.78s-5.87,4.05-4.4,6.32c1.94,3,2.2-5.17,5.16-3.92.56.24,2.15,1.39,1.68,1.78l-2.79,2.31ZM689.99,385.51c-.58.7-3.67.05-3.31-.65,2.2-4.24,3.8-2.06,6.43-6.48-2.03-4.28-6.89-5.07-9.91-1.63-2.61,2.98-2.82,5.71.77,9.96,1.3,1.54,4.77,1.87,6.71.93,2.6-1.27,4.73-3.12,2.96-6.53l-3.64,4.41ZM682.67,392.06c-5.34-.45-7.38-5.58-5.28-8.28l-5.52-.95c-.35-.06-1.05,3.56-.32,4.34l5.09,5.44c.78.83,3.41,2.25,4.31,1.63.75-.52,2.04-2.26,1.71-2.19ZM668.28,403.07c2.59-.15,7.53-4.41,5.5-7.72-1.69-2.76-4.71.14-9.65-.59,1.94.29-2.34-.99,2.07-2.34l2.6-.79c.53-.16.22-2.29-.31-2.16l-2.55.63c-2.81.7-5.47,4.13-3.48,6.95s8.55-1.56,8.54.46c-.03,4.56-1.5.74-5.02,3.94-.39.36,1.69,1.66,2.3,1.63ZM653.05,409.31c.23,1.34,3.02,3.66,4.23,3.05,1.58-.8,7.64-5.42,6.96-6.51l-2.24-3.59c-1.68-2.7-4.21-4.74-7.22-3.91-2.53.7-5.58,2.83-4.2,6.55l4.42-4.53,2.53,1.58c1.26.78-5.29,2.71-4.5,7.36ZM646.11,410.5l3.89,4.76c.64.78,3.07.99,3.85.44-2.2-3.05-4.03-5.45-6.5-8.05-1.86-1.96-5.47.26-6.86,1.74l-4.02,3.24c3.42,3.67,5.46,7.97,10.93,9.65l-6.13-9.18c-.56-.87.25-3.72,1.23-3.78.78-.05,3.09.54,3.61,1.18ZM634.23,430.71c-.61-1.32-1.35-4.48.69-5.84,4.6-3.06,5.26,3.09,8.3-.69l-14.82-10.25c-.76-.52-2.89-.61-3.16.13-.2.55-.52,2.85-.26,3.4l6.88,14.29c.22.45,2.12,1.57,2.23,1.13s.36-1.7.14-2.17Z"/>
    <ellipse cx="674.26" cy="398.16" rx="75.84" ry="71.6"/>
  </g>
</svg>