<?xml version="1.0" encoding="UTF-8"?>
<svg id="Layer_2" data-name="Layer 2" xmlns="http://www.w3.org/2000/svg" viewBox="0 0 941.85 526.78"><style>path,polygon,circle,rect,ellipse,line,polyline { fill: #D4AF37 !important; stroke: #D4AF37 !important; }</style>
  <g id="Layer_1-2" data-name="Layer 1">
    <path d="M402.56,491.46l-85,.71c8.61-.07-23.98,6.2-25.07,2.94l-2.65-7.89-.75,12.21,24.19.16,4.79-6.1,80.79-.05,3.39,8.06,27.65-.31,1.73-24.02,34.19.71,4.01,8.54c.42.9,20.71,4.57,22.59-4.59l29.01-.62,6.73,6.28,152.84-.12c6.05,0,13.22-.83,18.17-1.27-.08-4.09,1.37-11.78,4.17-11.96,16.11-1.07,30.38-.84,47.05.44l.76,52.13-666.24.02c-1.54-8.21-1.82-17.24-1.38-25.22,25.21-.62,45.8,1.65,69.56-1.97-22.17-3.88-42.25-1.49-63.93-2.12-6.68-.19-10.13,5.84-9.89,11.78l.71,17.48H.53s2.19-29.45,2.19-29.45c.69-9.22-7.36-21.52,1.42-28.87,3.68-3.08,9.16,4.45,11.89,9.96,3.45-11.68,5.98-20.43,13.35-30.44,7.36,8.23,10.08,18.24,11.77,29.7,7.83-6.19,14.16-10.83,22.65-13.54l4.82-15.89c4.8.25,7.35-.76,10.75-3.08l20.83-.95,4.58-10.84,7.11-.11c1.7-.03,3.53-4.29,4.32-6.43,4.67-12.7,17.81-6.86,19.28-9.85,3.93-8-.06-21.47,16.54-23.18s23.8-20.97,22.8-33.63c-.96-12.22,5.65-13.28,13.65-18.04l14.87-8.86c2.41-21.59,5.27-31.17,13.44-51.47l7.87-19.54c14.05-.55,28.07,2.02,40.32-1.16,5.99-1.55,10.79-2.81,18.82-3.64l2.02-18.26,9.42-2.35c1.93-.48,1.31-6.61,1.94-10.22l42.42-.56c2.05-33.22-3.67-13.27,10.45-38.35l59.4.47c15.93.13,6.94-25.28,10.93-45.95,2.44-12.63,13.37-24,13.28-36.99-.03-4.32-.17-8.29.23-12.3l7.09-71.45c.67-6.79-.54-14.36-1.3-21.38,6.52,1.21,3.69,6.32,4.11,11.5l7.32,88.99c2.48,30.2,12.39,26.59,15.41,55.93l25.28.34,9.3,8.69,3.33-20.71c3.55,14.32,4.36,26.06,14.31,34.81l3.28-14.46,4.23,19.35c2.73-4.78,3.76,1.92,4.79,4.73l5.5-18.13,7.9,48.06,3.84-9.83,3.77,10.37,4.03-10.43,3.29,21.6,36.77-.52,5.03-16.59c11.84,25.01,1.64,45.21,10.99,59.05l5.1-7.9,2.96,22.05,7.99,6.45.23,42.67,14.72,12c1.42,4.2,2.4,13.28,3.11,18.24,5.13-6.38,11.13-6.82,18.77-7.93l7.26-1.06c-.39.06,13.03,15.12,11.5,20.13.43.76,4,1.54,5.23.84,1.55-.88,2.79-7.31,5.14-7.83,10.43-2.32,28.66,8.69,36.07,20.03,7.03,10.75,24.19,3.69,25.96,7.1l4.44,8.57,18.59,2.61c1.57,5.54,2.61,11.95,5.72,13.78,3.38,2,10.93,2.58,15.23,2.8,32.81,1.68,3.66,5.26,25.35,4.65l8.29,9.08c17.44,1.58,13.65,9.61,20.09,10.25,1.34.13,4.61-4.06,5.61-3.16l5.63,5.07c1.57,1.42,6.23-3.2,7.81-5.23,18.09,10.91,25.35-4.78,35.7,12.58,1.88,3.16,5.72,4.64,9.78,4.25l1.81,15.36-26.84-.88-6.2,6.29-131.32-.46c-1.21-3.61-4.1-11.61-6.89-11.61l-49.43-.07-4.84,11.95-165.32.06-6.46-6.2-31.26.46c-2.84,3.42-7.4,7.14-11.82,6.37l-8.37-1.46c-1.64-.28-2.02-4.49-2.95-7.16l-40.26-.03-1.45,22.21-14.89,1.09-5.55.41c-1.52.11-2.33-3.58-3.78-7.7ZM433.18,170.76c3.05-7.18,2.97-12.56.1-18.79-3,6.18-2.99,12.74-.1,18.79ZM442.14,169.51c3.45-5.58,3.23-11.86-.19-16.22-2.77,5.21-2.92,10.99.19,16.22ZM452.82,169.4l-.4-17.41c-5.73,6.35-4.7,13.9.4,17.41Z"/>
    <path d="M755.13,526.78l-.73-41.11,128.88-.17c4.13,0,9.15-2.5,12.47-2.99,9.9-1.46,20.33-1.8,30.04-2.45,1.85-2.66,3.3-6.06,5.32-6.29s7.14.33,10.73.84l-1.89,20.99-1.44,31.07-183.4.11Z"/>
  </g>
</svg>