<?xml version="1.0" encoding="UTF-8"?>
<svg id="Layer_2" data-name="Layer 2" xmlns="http://www.w3.org/2000/svg" viewBox="0 0 398.25 332.58"><style>path,polygon,circle,rect,ellipse,line,polyline { fill: #D4AF37 !important; stroke: #D4AF37 !important; }</style>
  <g id="Layer_1-2" data-name="Layer 1">
    <path d="M233.18,183.92c.13-7.95-5.49-10.31-10.4-10.3l-48.68.1c-4.25,0-9.5,3.35-9.41,8.85l2.34,139.04c.05,2.77,5.05,9.27,2.51,10.81l-32.74-.23,4.3-11.95,1.92-137.97c.06-4.36-4.38-8.69-7.97-8.68l-24.95.07c-5.55.02-9.03,4.83-8.92,10.91l2.48,136.08c.06,3.24,3.4,9.13,2.87,11.7l-31.94-.07c-2.39-2.02,2.74-8.49,2.78-10.98l1.85-138.74c.04-3.15-4.12-8.83-6.6-8.82l-29.71.09c-2.24,1.34-5.09,7.79-5.01,10.75l3.53,138.73c.06,2.22,1.87,7.34,1.51,9.27l-32.26-.32c-2.11-2.43,3.01-8.38,3.06-10.83l2.92-138.77-4-8.56c8.53-37.31-5.21-17.56-12.65-41.32l156.58-.38,241.67.21c-3.06,7.87-7.24,12.6-15.08,16.91-.21,7.92.39,17.77,1.45,25.27-1.09,2.01-3.84,6.53-3.76,10.15l2.8,137.07c.05,2.59,7.12,9.88,2.68,9.94l-32.31.45,3.63-10.8,1.97-137.24c.05-3.48-3.34-10.75-6.74-10.72l-29.62.33c-2.82.03-5.25,7.96-5.19,11.29l2.4,136.02,4.76,11.05-34.71-.11,3.81-10.38,1.92-139.44c.04-3.05-3.82-9.05-6.89-9.01l-28.03.34c-5.2.06-6.92,7.75-6.82,12.8l2.64,134.58c.05,2.55,3.07,8.51,3.58,11.25l-33.7-.08c-.87-2.83,3.92-8.25,3.95-10.62l2.19-137.72Z"/>
    <path d="M147.51,128.74c-6.3-18.77,4.06-9.55-6.03-28.79-3.27-6.23,6.95-10.68,13.04-9.19,4.36,1.07,9.81-1.34,9.79-5.14-.02-4.19-1.69-7.75-5.08-10.08l-4.82,9,1.05-21.58-3.76-7.93c-.91-1.91,2.28-8.3,4.34-7.45,6.28,2.62,7.53,10.89,10.85,14.2,3.1,3.09,10.44,5.29,8.79,10.79-1.21,4.02-2.87,11.96-3.14,15.63-.09,1.22,4.28,3.42,5.32,2.78,7.01-4.3-3.31-10.15,1.59-32.8,1.14-5.27,1.91-8.39,4.67-13.54l3.75,16.15c4.58-4.13-4.57-29.41,11.05-30.05,2.3-.09,3.59,5.78,4.06,9.48l3.56-3.31c.78-.72,3.83.39,4.09,1.43.54,2.17.64,5.83,1.75,6.09l5.2,1.22,1.96,21.34,1.15,22.44c.04.73,4.61-.01,4.84.68.34,1.04-1.12-3.11-1.51-4.24-.1-28.25,4.67-17.38,9-24.89,2.14-3.71,6.67-11.22,9.23-14.93,9.4,2.88,1.95,11.48,2.09,16.42.23,8.02,3.1,14.93-.73,24.1l-2.37-9.44c-.92-2.19-6.07,4.2-6.62,7.36-1.8,10.34,12.3,1.82,20.76,10.08,3.54,3.45-2.53,7.58-2.82,10.75l-2.18,23.39-102.88.03ZM193.71,83.58c-1.35-.49-4.14,5.72-2.71,5.95l5.67.94c1.42.23,1.97-5.12.61-5.61l-3.57-1.28ZM201.85,83.84l-.49,6.13c-.11,1.37,4.36-.4,5.94-.87,1.3-.39-1.05-3.7-1.63-4.93-.44-.92-3.74-1.35-3.82-.33Z"/>
    <path d="M140.89,128.86l-125.06-.04c2.42-4.61,5.43-9.88,5.05-13.51-.44-4.14-3.7-7.39-8.21-15.62l123.97-.17c7.2,7.48,6.62,20.55,4.25,29.34Z"/>
    <path d="M382.17,128.82l-124.74-.06c-3.74-7.57-3.67-20.83,3.86-28.92l123.05.13c-8.06,12.43-10.86,21.03-2.17,28.85Z"/>
    <path d="M199.74,11.28l2.96,6.21c.79,1.66-2.51,5.05-4.86,8.27-1,.21-5.6-3.33-6.7-5.36s.94-7.21,1.3-9.13l-6.64-11.27,9.61,4.24c2.01.88,4.44-.98,9.75-3.51.12,1.73-2.59,6.61-5.42,10.55Z"/>
  </g>
</svg>