<?xml version="1.0" encoding="UTF-8"?>
<svg id="Layer_2" data-name="Layer 2" xmlns="http://www.w3.org/2000/svg" viewBox="0 0 593.51 262.6"><style>path,polygon,circle,rect,ellipse,line,polyline { fill: #D4AF37 !important; stroke: #D4AF37 !important; }</style>
  <g id="Layer_1-2" data-name="Layer 1">
    <path d="M474.29,145.67c18.62,7.44,42.28,19.06,59.95,30l-11.12-12.41c16.32-2.26,39.94,4.07,44.09,20.89l8.8,35.7c3.68,14.92,12.19,27.54,17.49,42.72H0c6.49-32.98,9.05-48.1,33.04-71.22.97-25.89,7.54-25.85,10.12-45.05,1.19-8.88,4.12-14.21,12.24-19.06,2.61-3.8-.12-26,2.82-25.6l6.67.91.79,23.74c.16,4.73-7.71,9.31-9.11,12.79-3.45,9.57-4.63,22.1-4.28,33.5l7.79-32.24c4.1-4.83,15.76-4.87,23.18-4.25l-.02,37.58-7.02,11.36c2.12-1.01,9.2-6.52,9.96-9.94,3.04-8.61-1.18-39.88,1.96-43.33,1.19-1.31,4.92-2.29,7.11-2.41l21.77-1.18c11.43-18.13,8.33-.76,18.91-20.08,1.86-3.4,10.77-3.12,15.3-3.27l-1.62-32.33c-12.62,11.43,3.13,21.99-8.77,32.05l-1.35-28.75-3.86.09c.13,10.04.51,18.27-2.07,27.16l-1.22-43.63,10.84-6.75c3.57,2.06,8.63,4.3,11.75,4.09l32.72-2.15-6.62,6.09c-1.32,1.21-.42,6.02.09,8.35l31.37,1.44-1.85,25.92-3.17-26.32c-1.95,10.42-1.96,16.3-2.83,26.53-1.47-1.89-3.14-5.62-3.19-7.84l-.43-17.26c-7.73,7.86-1.2,15.1-3.28,23.75l-4.42-24.4-2.82,25.85-3.05-25.26-4.1,25.22c-7.53-7.89-2.12-15.4-4.76-25.71-10.11,3.28.63,26.57-8.16,31.15l-2.33-29.65-9.32.09-.26,32.02,16.28.64.83,23.97c4.09,1.88,11.75,2.93,17.67,2.98l21.75.2,24.23-16.71c11.55-7.97,27.34-12.89,41.34-8.77,47.37,13.92,29.62,29.17,68.83,30.77l43.16,1.76c6.54.27,14.97,8.88,21.59,9.82,33.93,4.85,51.18-7.17,60.14-3.58ZM153.14,142.33c1.78.09,5.05,4.59,5.78,5.5,4.67-14.47-23.3-9.07-31.74-7.88-4.45,4.92-7.84,14.44-9.3,22.18l13.43-20.85,21.82,1.05ZM382.56,192.35c-25.06-33.61-19.86-23.64-60.62-26.76-3.88-2.93-9.73-11.8-14.53-12.64l-31.36-5.46-10.61-9.64c2.73,12.1,14.26,14.74,24.67,15.4,35.31,2.23,12.7,17.59,53.29,16.93,4.21-.07,13.79-1.08,16.9,1.78l22.25,20.4ZM480.66,219.24c-25.16-26.05-23.72-22.1-59.39-24.29l34.03,7.68c9.16,3.28,15.96,14.26,25.36,16.61Z"/>
    <path d="M473.47,83.5c0,.84-2.41,3.71-3.46,4.83-.63-12.7,0-23.78-2.26-38.11-3.64,13.29-1.82,23.07-2.78,36.23-7.6-1.59-.21-25.7-4.89-34.07-2.03,9.83-2.51,19.03-3.03,30.11l-4.15.79c-1.75-11.45,4.01-19.28-3.92-28.5l-1.18,29.29-40.48-2.22c-49.06-2.69-96.39-2.02-145.9-.94l7.93-8.83,1.08-39.15c.14-5.15-3.56-10.91-6.74-14.87L322.4,0c3.1.62,10.57,1.84,13.39,2.24l46.23,6.61c3.92.56,7.33,5.25,10.22,6.77,26.52,13.95,36.62,6.31,42.99,29.05,6.19.5,14.95-.16,20.69-1.12l3.36-7.65,30.78,10.53-3.82,45.61c-7.92-12.05,2.23-22.65-4.98-34.54l-3.05,32.72-.95-31.36c-.04-1.35-2.88-4.41-3.57-4.56l-.21,29.2ZM378.78,63.21l.28-34.51c-.27-1.89-8.25-1.4-8.24.6l.21,36.14c0,1.23,4.31,3.36,5.34,2.94s2.38-2.9,2.4-5.18ZM346.97,63.32l.19-33.37-8.6-.19.08,40.31,7.04-.6c1.17-.1,1.26-3.49,1.28-6.15ZM363.05,63.41l.45-33.72c-1.16-.76-6.65-.54-8.92.12l.35,37.37c.01,1.41,5.71,2.98,6.54,1.82.63-.88,1.56-3.38,1.59-5.59ZM388.67,70.24c2.35-15.76,2.28-29.69-1.64-43.3-2.33,15.72-1,29.97,1.64,43.3ZM314.37,70.82l.24-38.16c.01-1.91-8-1.25-8.01.89l-.21,37.28c.54.6,6.67.63,7.98,0ZM331.06,65.98l-.3-34.73c-1.42-1-8.44-.54-8.52,1.67l-.03,33.47c0,2.21,2.64,5.29,4.27,5.32s4.59-3.55,4.57-5.73ZM397.53,71.39c3.26-15,2.93-28.91-1.41-42.22-1.8,15.14-1.59,28.72,1.41,42.22ZM282.59,34.77c0-1.37-6.17-1.06-6.14.39l.84,36.38c.02.8,3.81,2.37,4.11,1.54.2-.56,1.18-3.04,1.18-3.82v-34.49ZM298.49,68.91l.16-35.88c-1.35-1.18-8-.46-7.99,1.76l.07,33.34c0,1.79,1.95,5.19,3.28,5.26s4.47-2.96,4.48-4.48ZM407.06,74.56c.58-15.05,1.1-27.09-1.13-42.27-3.99-4.48-3.64,51.92,1.13,42.27ZM415.41,76.24l.03-40.4-4.03,3.76v33.26s4,3.39,4,3.39ZM422.84,78.37c.92-13.76,1.16-25.91-.68-40.01-6.14,14.3-1.67,27.12.68,40.01ZM428.06,41.03l2.07,39.8c6.17,6.81,1.82-44.91-2.07-39.8ZM441.13,81.49c3.73-9.67,3.6-17.94.13-27.02-2.68,9.53-2.63,17.84-.13,27.02Z"/>
    <path d="M514.81,158.72c-14.39-1.68-26.88-12.39-39.95-17.14l-19.36,1.23-.68-18.69-1.7-37.21,88.19,20.23,7.44,55.54-33.93-3.96Z"/>
    <path d="M331.97,132.85c-29.7-20.88-16.27-16.94-51.13-29.65-7.26-2.65-16.55.43-26.46,1.39l-.1-20.28,124.46-.24c2.08,17.85,3.15,34.46,2.81,51.42l-49.57-2.64Z"/>
    <path d="M450.86,145.67c-12.4.28-25.71,2.77-36.2-.98l-29.83-10.67-.49-16.8-1.9-32.92,23.25,1.15,42.82,1.6c1.92,19.6,3.87,38.05,2.35,58.62Z"/>
    <path d="M71.01,71.68c7.97,6.25,45.34-3.6,44.95,5.25-.11,2.43-3.3,5.49-5.79,5.44l-12.03-.24-.58,18.62-29.91-.57-.03-30.15c2.97-3.6,11.48-2.8,15.79-2.88l21-.43c7.73-.16,15.86,1,23.62,3.09l-57.02,1.87Z"/>
    <path d="M241.16,97.39l-25.03-1.82-.78-28.97-32.3-1.08c15.2-5.12,41.14-6.26,57.51,1.55l.6,30.32Z"/>
    <polygon points="206.32 129.03 177.61 127.76 178.08 98.71 205.69 98.54 206.32 129.03"/>
    <path d="M97.63,124.19c0,.99-25.66,12.89-30.14,9.3l1.73-29.95,28.55.13-.14,20.51Z"/>
    <path d="M234.53,114.46l-24.45,16.68-1.85-33.04c15.83.43,27.57.93,44.85,3.6l-18.56,12.76Z"/>
    <path d="M115.34,125.77l-14.17.31.04-40.14c4.27-.56,10.41-.58,14.02-.06l.11,39.89Z"/>
    <path d="M129.15,98.45c-.1,2.61-9.54,2.82-10.18.35-1.34-5.15-.74-16.83-.12-22.64.25-2.35,9.41-3.19,9.83-1.07.57,5.53.73,16.91.47,23.36Z"/>
    <path d="M130.32,105.76c2.57,4.97-5.46,13.81-11.42,11.2l.34-11.87c.08-2.83,9.74-1.93,11.08.67Z"/>
    <path d="M215.98,58.62l-28.36,1.33c8.97-9.14,18.87-8.72,28.36-1.33Z"/>
    <path d="M249,96.78c-7.28,1.41-7.01-10.58-.78-11.26,3.01-.33,4.13,10.61.78,11.26Z"/>
    <path d="M193.48,52.18l-26.27-.47,19.04-3.68c1.91-.37,4.51.85,7.24,4.15Z"/>
    <path d="M231.72,59.37c-5.69,1.28-10.13.03-14.41-2.88,5.47.23,9.99,1.21,14.41,2.88Z"/>
  </g>
</svg>