<?xml version="1.0" encoding="UTF-8"?>
<svg id="Layer_2" data-name="Layer 2" xmlns="http://www.w3.org/2000/svg" viewBox="0 0 474.37 630.72"><style>path,polygon,circle,rect,ellipse,line,polyline { fill: #D4AF37 !important; stroke: #D4AF37 !important; }</style>
  <g id="Layer_1-2" data-name="Layer 1">
    <path d="M409.23,630.61l-.17-77.99-69.87.46c-5.83.04-11.68-.79-18.44-2.1l-.31,79.67-320.43.08.52-92.46,54.8.43,184.29-.05c7.88-6.77,12.58-16.98,14.67-25.93l92.09-.02c-2.39,10.88-9.7,20.72-9.33,33.69l28.01-70.18c12.3,23.97,16.18,48.78,30.95,71.84l-13.92-37.83c2.15-10.78,6.52-22.71,11.02-34.59,9.13,21.96,12.63,42.49,23.05,64.09-1.23-10.82-4.96-19.76-8.82-32.15,18.5-1.13,37.31-1.11,56.46,1.1-2.37,9.93-3.19,16.62-1.79,25.05l12.37,4.81-.08,42.33-1.66,15.73-.07,34.1-63.34-.06Z"/>
    <path d="M245.79,479.74l1.02,19.12-92.03.02c-.41-23.16,5-46.26,2.58-68.98-.86-8.03-5.61-12.2-1.63-21.49,2.7-6.29-.47-15.13,10.7-16.76,2.92-20.44,5.63-42.47-6.14-60.62-10.77-16.62-12.13-37.31,3.28-52.48l16.93-16.66c8.86-8.71,17.12-21.19,14.95-34.32-.88-5.32-.27-7.56,1.4-12.77,2.82-8.81,1.91-19.76,3.43-30.14l1.84,29.44c3.44,5.38,3.62,7.58,2.08,14.13-4.02,17.17,20.46,40.86,32.5,52.8,14.91,14.78,13.54,34.65,1.91,50.87-10.48,14.62-6.9,41.05-5.67,58.4,14.8.6,14.96,25.12,11.71,35.63s-.57,22.08,0,32.75l1.13,21.05ZM199.07,257.26c-4.39,8.17-11.01,67.86-1.07,73.97,9.35,5.75,4.73-65.03,1.07-73.97ZM205.07,258.84c10.09,24,11.34,47.05,7.97,74.53,20.4-17.6,7.32-58.4-7.97-74.53ZM183.82,333.23c-3.01-24.83-5.33-45.18,6.72-64.9l-.06-4.05c0-.48-.73-.44-1.01-.06l-2,2.64c-14.12,18.7-22.55,47.32-3.65,66.37ZM171.62,332.85c-12.52-24.63-8.42-44.92,8.61-63.88-5.78,3.63-10.99,8.41-14.9,13.91-10.55,14.85-10.79,39.95,6.29,49.97ZM232.53,282.89c-4.42-5.92-8.93-10.42-14.05-13.58,17.55,20.33,18.6,41.37,7.28,64.8,17.78-11.04,17.94-36.26,6.77-51.22ZM166.57,411.44c5.84,1.49,9.77-2.81,8.78-6.68-.63-2.45-4.15-6.57-6.59-6.13s-5.54,5.12-5.87,7.51l-.52,3.84c-.08.59,1.44.76,4.2,1.47ZM205.32,410.78c-.42-9.71-6.44-13.09-13.2-12.35-5.44.6-9.49,5.16-8.99,12.27l22.19.08ZM233.2,410.76c-.04-7.21-5.14-12.7-10.96-12.11s-9.45,6.12-8.27,12.1h19.23Z"/>
    <path d="M102.35,407.46c7.47,9.61-8.94,14.79.91,23.64,3.27,2.94,3.23,14.2-.28,16.95-27.16,21.33,3.73,44.37-33.78,58.72l2.4,13.07-39.98,5.51-.92-19.94c-5.06-5.15-10.5-10.83-11.23-15.85-1.02-7.1,1.19-15.59,5.96-20.03l14.98-13.95c5.52-5.14,2.36-16.27,1.59-22.6l2.67-14.97c.61-3.42,5.04-7.35,7.44-11.14,9.36-14.78,4.54-45.91-4.82-61.85-13.78-16.94-15.32-38.94,1.75-54.94,15.34-14.38,39.15-38.61,35.8-62.58-.87-6.26.93-9.33,1.43-15.19l2.45-29.14c6.02,9.95-.61,20.06,3,29.25,2.33,5.94,1.81,9.84,1.71,16.48-.33,24.01,15.89,45.14,32.88,60.24,15.9,14.13,18.03,32.27,6.51,49.65.24,24.78,32.21,37.23,25.52,52.61l-7.49,17.19-43.14-3.05c-13.05-.92-9.98-24.27-2.1-32.13,26.33-26.23,16.78-26.21,20.6-46.88,1.13-6.14,1.23-13.17,1.72-19.77.56-7.45.47-13.57-8.66-17.44,5,20.67-3.22,39.16-19.78,52.99,8.75,2.58,14.4-1.38,22.71-7.91,6.51,31.06-45.88,39.58-19.87,73.05ZM86.3,249.89c-7.46,16.68-17.7,27.66-28.52,39.04,19.49-13.01,26.94-20.22,28.52-39.04ZM58.91,342.35c.36-15.01,3.11-26.69,10.85-37.24l18.41-25.09c5.78-7.88,4.88-20.37,3.98-29.43-4.46,40.36-48.09,44.49-42.44,83.43.74,5.08,5.18,11.21,9.2,8.33ZM102.85,312.18c7.64-15.89,6.63-33.24-3.69-47.86,4.68,37.75-19.37,41.59-26.86,78.14,13.54,8.13,26.03-20.87,30.55-30.28ZM132.22,329.01c1.13-7.46,1.12-13.99-.06-20.38-1.13,7.46-1.12,13.99.06,20.38ZM63.58,428.51c-.72-6.48-2.21-11.92-6.52-12.43-3.88-.46-7.02,9.27-5.14,12.07,1.49,2.23,8.35,1.48,11.67.37ZM92.44,429.59c.64-4.18-1.31-10.54-4.14-12.8-3.32-2.66-10.6-2.55-13.91,0-2.78,2.13-4.69,8.55-4.12,12.69l22.17.12Z"/>
    <path d="M380.27,502.9c-15.74-25.19-1.12-37.1-17.17-62.04-3.97-6.17-2.94-17.78-2.16-25.43l17.36-1.82c1.35-1.52,1.94-8.66.45-10.6-1.74-2.26-4.86-4.48-9.57-8.03.12-.85,4.46-4.35,6.28-3.33l8.86,4.98,15.12-7.96-3.2-3.9c-.89-1.08-6.23-1.2-6.42.19l-1.05,8-2.7-2.67c-.58-.58-2.1.56-3.49,1.27l-9.22-9.92,7.52-4.45c.55-10.81,1.77-24.2-1.67-35.15l-3.55-11.29,15.44-2.64c8.72-1.49,17.45-1.09,26.21-.1l25.37,2.88-2.87,10.72c-2.72,10.13-2.1,24.02-1.61,34.43,3.19,1.47,8.65,3.95,9.38,6.27,1.5,6.07,5.32,14.09,7.94,19.98l6.84,15.35c2.99,6.71-5.51,17.81-5.59,24.71l-.69,62.49-50.03-.6-13.57-43.99-12.2,42.63ZM422.24,398.39c1.14-.82,5.16-5.22,4.96-7.3-.29-2.98-6.28-7.89-9-7.13-2.43.68-6.36,2.51-9.68,4.2l13.71,10.23ZM435.86,385.42c-1.34,1.17-3.22,5.3-1.77,5.29l6.03-.03c1.1,0,.79-3.55.61-4.65s-3.97-1.41-4.88-.62ZM417.28,413.37c1.23-11.27-6.33-18.94-16.39-17.84-7.39.81-13.79,9.04-12.12,17.8l28.51.04ZM451.97,414.63c-1.51-8.4-3.18-13.35-8.33-16.85-3.61-2.45-11.32-1.09-13.91,2.13s-3.78,9.02-3.09,13.54l25.33,1.18Z"/>
    <path d="M344.27,441.72c9.74.27,20.09.38,22.03,11.15l-5.04,13.17c-1.86,4.86-2.96,12.5-3.85,17.6-.68,3.93-12.99,5.79-9.24,12.44,1.13,2.02,2.63,5.72,2.86,7.62.28,2.27-5.28,5.19-7.84,5.2l-81.97.04c-14.68-5.49-11.25-23.04-12.58-39.94l-1.91-24.19c-.72-9.08.37-16.61,4.59-25.26l-4.36-22.26c-.59-2.99-5.21-7.22-7.7-10.32l51.43-.31c12.44,11.6,15.74,25.97,14.67,42.29-1.71,25.91-9.4,4.35-12.37,41.67l-2.21,27.77,16.2-.62c1.15-1.64.54-8.53-1.42-9.97s-6.48-1.1-9.83-.63l2.16-33.06,3.04,6.45c.73,1.56,6.11.59,9.23.37,2.23-.16.77-6.9-1.34-8.38s-5.8.26-10.07,2.14c1.38-8.72,9.36-14,18.41-13.75l27.11.75ZM337.56,461.18c-.36-7.36-6.77-11.4-12.86-10.26-3.66.68-7.46,5.09-8.73,10.06l21.58.21ZM361.24,461.19c-2.86-6.9-6.51-9.46-11.31-9.49-3.5-.02-7.23,4.91-7.28,9.31l18.58.19ZM324.69,477.67c-1.34-7.77-6.57-11.69-12.56-10.73-4.86.78-9.13,5.91-9.43,11.3l21.99-.57ZM352.37,477.8c-1.71-6.56-6.68-10.69-12.12-10.66-5.2.03-9.24,4.43-10.29,10.6l22.4.06ZM342.61,497.92c-1.11-10.26-8.55-14.85-15.98-14.09-7.22.74-12.9,6.48-13.13,14.08h29.11Z"/>
    <path d="M327.48,307.31l-5.49,6.21c-4.63,5.23-4.86-12.2-13.57-17.07-4.12-2.3-13.02-2.37-16.12,1.46-1.58,1.95-3.04,7.81-3.96,10.82-1.02,2.61-10.36,2.01-11.6-.78-1.67-3.74-3.84-9.86-6.24-12.06-5.46-5-13.42-2.35-20.76-2.22-1.61.03-1.94-6.8-.3-7.18,6.09-1.39,17.6-.47,24.01.94,3.38-8.35-4.66-14.12-11.33-15.15-7.94-1.23-14.21,2.89-18.83,9.76l-13.64-14.13c2.75-.84,7.42-2.63,7.12-4.45-.53-3.18-2.81-8.56-5.14-8.93-2.71-.44-7.41,1.83-11.57,3.67-9.62-12.62,11.53-23.99-6.19-43.66l18.91-2.78c5.9-1.33,11.2-3.6,17.18-1.92,11.14,3.13,22.07-1.49,33.03-1.26,5.47.12,12.18,6.46,19.02,3.7,7.44-2.99,16.67.16,21.1,4.69-3.14,4.45-5.66,9.16-5,12.68,5.25,27.94,9.47,51.73,10.4,77.75l3.86-33.11,2.41,26.22,1.12,14.4c3.01,38.84,57.01,45.5,24.92,83.69l-54.11.79c-3.31.05-6.94-5.14-8.45-7.97-7.42-13.91-3.33-25.91,7.56-36.04,11.67-10.85,29.43-34.63,21.65-48.08ZM275.75,267.29c.86-11.99-8.06-15.39-15.53-15.75s-15.19,4.5-15.25,14.64c10.71-1.84,20.2-1.66,30.78,1.11ZM310.96,267.95c2.43-7.25-4.35-13.9-11.02-14.99-7.44-1.21-15.77,6.55-11.73,13.33,6.68-.41,15.92-.58,22.75,1.66ZM314.26,287.95c-1.43-6.02-4.37-11.07-8.37-13.15-3.06-1.59-9.33-1.52-12.85.1-4.65,2.15-5.97,9.98-3.47,12.22l24.69.82ZM313.55,356.04l-1.19,3.93c-.28.92,2.85,1.1,3.16.19l1.31-3.73c.21-.6-3.11-1.01-3.29-.4ZM325.63,355.81l-1.54,3.98c-.37.96,3.7,1.55,3.89.54l.7-3.74c.13-.68-2.8-1.42-3.05-.78ZM337.43,355.89l-.48,4.01c-.11.92,4.7,1.12,4.72.19l.07-2.98c.02-.93-4.21-2.14-4.32-1.22ZM331.59,361.8c-1.51-.61-2.91,6.25-1.38,6.82,1.22.46,2.72.65,4.02.49s3.32-4.63,2.15-5.21-3.15-1.45-4.79-2.11ZM347.82,369.84c1.45.18,3.71-4.12,2.58-5.04s-3.98-2.25-5.41-1.98c-1.91.36.91,6.77,2.83,7.02ZM304.44,369.91c2.08-1.85,4.85-6.16,3.46-6.47s-4.18,1.07-4.89,2.23c-.53.87.83,3.75,1.43,4.24ZM314.87,364.04c1.25,3.65,2.83,6.63,3.59,5.47l3.14-4.78c.94-1.44-4.96-1.69-6.74-.69ZM364.95,368.18c-3.51-3.16-5.29-4.73-6.68-5.18-1.15-.37.23,5.64,1.39,5.99.87.26.28.3,5.29-.81ZM310.62,379.62c1.58.11,3.99-3.74,3.71-5.31s-3.06-4.73-4.47-4c-1.24.65-2.88,3.96-2.91,5.36s2.27,3.85,3.67,3.94ZM326.44,379.89c1.48-2.15,3.05-6.02,2.19-7.14-.65-.84-3.12-2.81-4.16-2.57-1.68.38-3.41,4.01-3.38,5.75s4.42,5.32,5.35,3.97ZM342.53,379.91c1.35-2.23,2.98-5.99,2.15-7.13s-3.73-3.68-4.98-3.04c-1.85.94-3.95,5.19-3.19,7.02.63,1.51,5.2,4.5,6.02,3.15ZM355.31,379.52c1.39.28,4.15-4.68,3.1-5.62l-3.53-3.17c-1.04-.94-4.22,3.72-3.64,4.96s2.72,3.55,4.07,3.83ZM365.56,381c2.44-2.55,4.79-5.4,3.74-6.51l-3.95-4.19.21,10.7ZM298.09,380.59c3.19-1.58,4.42-7.63.87-7.7-2.08-.04-1.88,7.08-.87,7.7ZM317.12,380.52c-1.13-.58-2.38,5.09-1.15,5.61l3.25,1.4c1.26.54,2.96-4.43,1.77-5.04l-3.87-1.98ZM331.49,380.3c-1.3.03-2.91,5.61-1.65,5.92l4.45,1.12c1.24.31,3.01-3.68,2.1-4.61s-3.61-2.46-4.9-2.43ZM347.67,380.31c-1.72,1.65-3.67,3.54-3.23,4.57s2.35,3.2,3.16,2.43l3.54-3.42c.81-.78-2.63-4.38-3.47-3.58ZM309.63,385.55l-6.19-4.62c.13,1.39.79,5.33,1.17,7.12.22,1.02,2.13-.21,5.02-2.51ZM360.07,381.03l-1.85,6.03c-.26.86,2.56.53,3.09-.19l2.26-3.06c.53-.72-3.25-3.59-3.5-2.78ZM339.49,387.23c-.65.79-2.58,4.26-1.68,4.31l3.55.22c.89.06,1.56-2.62.92-3.25-.43-.41-2.42-1.75-2.79-1.28ZM323.23,389.62c-1.16.23,1.64,3.92,2.77,3.49l3.2-1.23c.74-.28-.39-3.39-1.18-3.23l-4.79.97Z"/>
    <path d="M282.94,205.32c-4.53-1.55-14,3.06-18.33,2.65l-24.57-2.32c-3.88,1.51-8.38,3.3-13.86,4.7l32.03-106.33,23.29.4,30,103.05c-9.4,2.41-17.5,1.62-28.56-2.15Z"/>
    <path d="M424.26,325.71c-15.18-1.93-31.52.03-47.22-.46-11.26-4.73-11.25-25.81-5.06-35.87,6.04-9.82,12.62-17.06,20.05-25.78,22.66-26.62,7.31-26.49,15.09-46.72,3.41-8.86-4.76-18.55,3.33-27.59l.72,27.16,3.63,10.23c-13.12,35.41,57.8,55.04,29.31,99.44-6.04.97-13.38.41-19.85-.41Z"/>
    <path d="M65.58,523.77c6.07,1.03,8.99-2.99,10.33-8.86l71.11-.13,3.56,10.14c2.66-3.96,1.43-11.65-.95-16.99-.89-2.15,4.7-5.35,7.71-5.35l87.03.17c2.43,0,6.95,2.49,8.19,3.74-.46-.46-4.95,25.77-15.58,28.28l-230.45-.28c20.26-5.84,38.23-7.16,59.05-10.7Z"/>
    <path d="M291.43,382.76l-54.17.35c-7.81-38.79,4.18-40.9,14.72-70.06,23.72-.93,48.21,1.02,73.32,3.97-1.68,14.49-10.29,25.63-20.54,35.35-8.81,7.44-13.71,15.88-13.33,30.39Z"/>
    <path d="M386.21,582.56c-.05-3.5-10.76-6.85-13.13-4.68-2.68,2.46-6.08,7.16-9.67,12.07-2.71-4.89-5.5-10.01-8.17-11.94-2.96-2.14-13.58.82-13.63,4.51l-.61,47.43-17.28-.02.07-73.01,81.5-.31.15,73.08-18.52.78-.71-47.91Z"/>
    <path d="M356.93,439.16l-47.79-.46-1.47-35.61c15.74-3.18,35.01-3.06,50.19-.2l-.94,36.27Z"/>
    <path d="M148.96,411.08l-1,35.46c-12.14.25-26.14.04-38.63-1.03l-.53-35.41,24.36.54,15.8.44Z"/>
    <path d="M283.71,58.32c-9.58-.65-19.67-.76-28.41-.44-20.6-21.2,15.52-23.06,12.16-51.85-.13-1.15,2.09-4.13,2.57-4.87,4.5-7-3.76,19.29,12.15,30.8,8.92,6.45,10.52,19.38,1.53,26.36Z"/>
    <path d="M133.19,492.82c-1.27-4.04-6.48-7.78-11.37-7.95-3.88-.14-10.39,3.57-12.63,7.95l-3.13,1.4-10.76-9.33c.8-3.56,6.22-11.34,12.26-11.79,4.92-.37,10.79,5.59,14.53,9.46,2.81-2.66,8.69-8.74,13.28-9.39,5.79-.81,13.07,7.03,14.52,10.64-14.6,7.78-9.56,13.83-16.71,9Z"/>
    <path d="M109.19,492.82c8.16-5.64,16.84-4.83,24,0,1.03,3.28,2.29,6.36,3.3,8.51,4.07-5.97,7.56-11.17,12.24-12.92,6.18,5.57,1.18,14.48-4.49,16.58l-.93,6.26-70.76-.42c9.97-7.23,15.65-12.5,21.39-21.38,5.11.08,8.6,5.52,12.27,11.8l2.99-8.43Z"/>
    <path d="M282.87,101.52c-10.27-.14-16,.16-23.75-1-9.35-1.4,4.58-18.96-4.48-38.63,9.31-1.89,20.87-1.75,30.33.4-9.38,27.73,1.49,16.44-2.1,39.23Z"/>
    <path d="M122.34,478.48c-3.08-2.95-8.32-7.73-12.11-8.1-5.99-.59-11.33,3.03-16,7.65-.44-4.73,0-12.73,2.73-18.35,2.6-1.94,8.5,4.42,10.45,7.03,3.44-2.72,9.48-8.85,13.34-9.35,4.57-.59,11.55,6.2,14.72,9.64,4.12-2.54,9.97-12.76,15.86-8.02,2.78,4.09,1.46,14.67.45,19.65-5.22-4-9.65-7.33-13.62-8.07-6.2-1.16-10.61,2.17-15.82,7.92Z"/>
    <path d="M135.75,461.94c-2.57-2.33-8.47-6.8-11.9-7.24-4.52-.59-9.75,2.58-15.26,6.89l-8.3-7.03c5.59-8.48,45.19-6.63,54.37-2.46-8.47,4.02-13.61,6.5-18.91,9.85Z"/>
  </g>
</svg>