<?xml version="1.0" encoding="UTF-8"?>
<svg id="Layer_2" data-name="Layer 2" xmlns="http://www.w3.org/2000/svg" viewBox="0 0 740 280.47">
  <g id="Layer_1-2" data-name="Layer 1">
    <path d="M367.35,185.26c1.99.51,2.63,1.91,4.67,5.49l5.65-6.81-2.76-4.33-5.85,6.47c-1.98-.89,7.46-12.81,3.14-12.26l-2.2.28c.31-.89.5-2.93.39-3.86-.09-.78-1.73-1.51-2.39-1.85l-1.31-5.37-2.95,5-16.37-.04c-2.97-4.22,1.69-7.35,2.5-10.45l3.2-12.33c2.08-8-2.55-10.52.87-10.43.45.01,1.82.43,1.74.87l-.35,2.02c-.83,4.71.49,9.05,2.33,13.57l.87,2.13c.12.29.69-.2.86-.46,2.26-3.42-1.99-2.77-1.29-12.16,1.1-14.92,4.09-28.8,8.25-43.19,2.97-10.26,7.33-19.69,14.75-27.28,7.89-8.08,17.86,13.35,20.12,19.01,6.42,16.06,10.63,33.99,12.54,50.96.26,2.32-3.92,9.92-1.52,10.27l2.12.31c1.24,7.32,3.92,38.85,2,44.48-1.13,3.3-4,6.4-3.93,9.92,1.34.28,2.17.21,2.51-.27l2.07-2.96-1.79,6.8c3.57,7.4.19,2.41,2.06,11.1.12.56,2.15-.54,2.2-1.12l.54-6.8,7.94-.31c.3,3.91-.75,6.02,1.76,8.09l-.15-74.38c-.01-6.72-2.24-9.05-2.38-19.16l-.31-22.13c-.03-2.43.16-3.81,1.22-6.04l.27-7.98,1.77,6.48c2.04-3.8.49-7.85-.12-11.36,4.52-6.35,8.35-12.57,10.93-20.16,1.34-3.95.16-8.24-.54-12.77-.4-2.58,9.26-15.9,9.25-35.89,0-2.66-.29-4.48.81-6.37,1.89,2.69.65,4.69.85,7.27.7,9.22,2.81,18.71,6.44,27.1,1.21,2.8,2.98,5.45,2.76,8.57-.88,12.46.58,19.7,9.28,30.44l.86,14.22,1.91-7.46c.41,3.44,1.43,7.54,1.42,10.02l-.15,31.81-2.34,13.26.31,75.49c6.53-6.56.88-14.35,3.26-21.48l1.41-12.14,1.86,11.66,9.42-.11,1.79-11.56,1.15,11.47,1.01,20.85,1.9-5.65c.33-.99,3.61.08,3.74,1.11l.63,4.96,14.49-.29-.39-19.76c-2.55.97-4.77,1.59-6.36,1.22-1.41-.33-2.54-3.89-2.03-5.24.44-1.16,2.26-2.15,4.52-3.39l-5.24-10.45-5.07.82c-1.61.26-3.87-3.21-3.38-5.06.41-1.54,2.96-2.8,5.43-3.85l-2.43-11.54c-2.98.49-5.11.55-6.5-.65-1.19-1.03-1.41-4.48-.06-5.82,1.03-1.03,3.3-1.08,5.66-1.27l.42-11.75c-2.41-.21-5.61-.89-6.41-2.56-.58-1.21-.05-3.83,1.04-4.92.95-.95,3.4-.77,6.18-.43l3.56-11.6c-2.36-.98-4.65-1.91-5.16-3.2-.56-1.41.44-4.55,1.75-4.97,1.24-.4,3.47.05,6.14.86l6.2-10.63c-2.74-1.64-4.55-3.06-4.51-4.62s2.21-3.9,3.64-4.02,3.43,1.4,5.07,2.95l8.18-9.08c-1.6-1.79-3.41-3.62-3.42-5.14-.02-1.98,2.95-4.15,4.4-3.72,1.95.58,3.36,2.69,4.12,4.83l10.5-6.89c-.98-1.96-1.8-5.06-1.17-6.69.5-1.31,3.64-2.2,5.05-1.65,1.29.5,2.38,2.47,3.55,4.87l10.38-3.6c-.67-2.08-1.17-4.86-.27-6.21s4.78-1.96,6.07-.94c1.14.89,1.46,2.97,1.87,5.49l11.6-1.2c-.58-2.76-.65-5.61,1-6.61,1.29-.78,4.61-.62,5.7.48s.88,4.04.65,6.15l11.46,1.46c.2-3.03.79-5.48,2.43-6.06s4.92.37,5.78,2.09c.66,1.33-.21,3.7-1.01,5.97l10.98,4.29c1.09-2.63,2.63-4.8,4.19-4.99,1.89-.22,5.07,1.64,4.85,3.16s-1.36,3.77-2.29,5.42l9.84,6.78c1.35-1.8,2.53-3.39,3.74-4.09s5.31.86,5.51,2.48c.3,2.37-1.72,4.66-4.03,6.02l8.49,9.51c2.1-2.29,4.56-3.34,6.61-2.75,1.38.4,2.7,4.13,1.97,5.43s-2.46,2.31-4.45,3.7l5.71,10.04c2.51-1.19,5.51-1.66,6.92-.45,1.04.89,1.48,3.89.63,4.94s-3.24,1.79-5.08,2.45l3.24,11.69c2.97-.6,5.84-.58,6.7.81.73,1.18,1.03,4.3.09,5.27s-3.61,1.43-5.83,1.9l.25,11.74c3.02.17,4.79.18,5.66,1.25,1,1.24,1.23,4.55.15,5.39-1.31,1.02-3.83,1.13-6.74.99l-2.45,11.27c2.3,1,4.49,2.04,5.09,3.34s-.47,5.1-1.9,5.19-3.39-.27-6.06-.81l-5.86,10.41c3.33,1.44,4.94,2.85,4.91,5.12-.02,1.45-2.15,3.95-3.68,3.91-1.38-.04-3.47-1.48-5.13-2.89l-9.59,10.46c1.27,1.26,3.58,2.54,3.33,3.74l-1.13,5.65,15.78-.1.24-11.98,17.56.02.9-9.52,1.56-.2c.24-.03,1.12-1.56,1.1-1.79l-.61-11.18c-.41-7.58,5.75-11.8,10.72-16.1l3.92-14.29c5.68,9.76-.44,13.02,9.79,18.03,1.82,2.57,4.6,7.79,5.67,10.7l-.4,14.46,2.65-1.39,1.03,15.04c.22,3.2.79,6.17,1.96,8.93,2.61,6.21-2.76,13.83,2.69,19.5l.14-84.16c0-1.33-2.92-3.85-2.69-5.11.21-1.16,1.31-2.85,2.46-3.77,4.02-3.18.32-7.79-3.05-10.06-.61-7.01-.5-14.85-.08-21.52,9.88-4.63-.35-2.92,9.13-12.77,3.54-3.68-2.06-16.72,3.28-12.88-.6,4.11-1.14,9.73.18,13.16,9.16,5.59.21,9.32,9.82,12.29.36,6.08.21,13.45-.14,20.05-.22,4.22-5.63,2.83-5.49,9.79.03,1.3,2.19,2.21,3.85,3.79,1.21,1.15-.84,5.3-2.35,6.97l-.11,83.07,6.05-.08c.16-5.73-.11-10.29.61-15.25l1.84-12.67,4.54-3.9c-.04,1.38.55,4.15,1.36,5.52v68.3l-740-.3v-16c.43.17,3.13-1.33,3.12-2.25l-.24-15.38c-.01-.69-2.79-1.53-2.88-1.36v-6l9.28-.36,2.58-6.88.15-35.02c-1.12-.46-1.98-.61-1.8-1.09l.96-2.64-3.93,1.52,4.5-5.75.18-18.03c.05-4.8,1.29-8.86,2.29-14.21l2.74,11.24c3.11-7.38,4.97-14.91,6.52-22.96,1.64,8.34,3.5,15.53,6.44,22.67l2.87-10.99,2.94,15.44c.43,2.24-.65,6.66.08,9.36l31.72-.14c.73-1.53,1.16-2.75,1.8-2.76,6.05-.13,6.03-2.1,9.37-.44l5.76,2.85c7.36,3.64,21.72.51,31.1.43l.18-9.81,2.51-14.76,2.79,10.6c3.22-7.52,5.09-14.65,6.51-22.46,1.69,8.16,3.31,15.15,6.37,22.49l2.89-10.97,2.47,12.69c1.25,6.41-.9,10.58.19,19.36l8.7,9.5-7.09-3.74c3.16,5.93,6.41,10.38,10.28,15.9-5.65-3.33-7.19-9.05-11.98-14.18l.11,36.61c.85,1.45,2.23,4.21,2.74,6.16l46.59.21.33-5.38-6.76-.55.88-6.09,4.67,2.94,7.01-1.15-3.81-50.74-9.81-136.91c-1.4-19.52-1.02-20.98,1.06-41.16,1.22,2.89,2.35,5.82,2.85,9.43l26.67,195.66-12.1.39-4.02,5.79,19.58.28.51-5.44c.1-1.03.04-3.28.72-3.65l2.97-1.6v-9.97s6.29-2.75,6.29-2.75l14.31-.4,8.23,3.08-.45,7.98c-.07,1.19,2.29,2.3,3.5,2.14,1.03-.14,1.15-2.11.99-3.71-.44-4.63,4.95-29.2-2.55-35.31l1.9-3.91c1.25-2.58,3.27-3.74,6.37-5.02,3.57-6.78-3.43-15.61,4.3-16.75l14.46-2.15,2.09-.31c.33-.05-1.41-1.56-1.74-1.5l-16.12,2.64c-.89-15.5,8.38-28.99,21.71-36.94.88-.53,2.84-2.37,2.65-3.32l-.62-3.17c4.03-4.04,2.7-10.18,1.12-15.97.65-1.7,15.28-4.21,14.4.65-1.06,5.81-.57,10.45.82,15.9.58,2.28,1.09,4.99,3.54,6.38,13.35,7.58,21.97,21.31,21.47,36.61-11.42-2.5-36.97-6.24-46.78-1.5,14.54-.73,35.02-.68,48.92,3.79l.06,15.73c4.35.63,5.06,2.28,6.95,4.94l2.54,3.58c.58.82-3.12,2.65-3.27,3.8-2.2,17.3.88,22.79.93,31.87,0,1.33-.1,3.98.87,3.83l3.98-.62.16-9.38,5.6-2.98,18.02.13c1.19,0,3.22-1.97,3.12-2.98ZM571.8,75.88c-.02-.75-.66-2.37-1.16-2.93s-3.19.33-3.08,1.08l.48,3.35c.12.84.94,2.27,1.59,2.68.49.31,2.28-.1,2.26-.68l-.09-3.51ZM576.68,72.73l-2.87.51c-.58.1-1.22,6.59-.2,6.55l3.47-.15c1.06-.05,1.67-7.27-.41-6.9ZM584.48,73.9c-.92-.78-5.27-1.28-5.39.04-.1,1.42.03,4.11.78,4.75.6.51,1.72.77,3.48,1.27.44-1.79.99-4.52,1.13-6.06ZM590.37,76.28c.21-.89-1.95-3.39-2.62-2.82-2.38,2.02-1.94,5.54-2.05,6.64-.09.89,3.46,1.32,3.66.45l1.01-4.28ZM563.4,80.85l3.75-.25-1.75-6.88-10.17,2.81,1.48,6.61c2.48-.92,5.06-2.18,6.7-2.29ZM596.52,80.81c.5,1.04,3.23,2.76,4.75,2.32,1.41-.41,2.61-4.23,2.2-5.75l-9.37-2.93c-.65-.2-2.73-.17-2.76.43l-.16,2.52c-.07,1.12.74,4.05,1.83,4.16.9.09,2.43-.37,3.52-.75ZM534.17,87.22l4.09,4.55c.81-.58,2.44-2.1,3.34-2.48l5.3-2.28c1-.43,3.1-1.52,3-2.47l-.55-4.97,4.19,5.18c1.84-1.96,1.34-5.53-.46-7.64-4.36,1.31-23.66,10.47-23.52,12.69l.15,2.29c-.92-.13-2.99-.8-3.41-.05l-1.9,3.4-3.74,1.88c-.79.4.61,3.58,4.74,4.47.67.14,1.73-1.12,2.46-1.77l8.19-7.3-1.87-5.5ZM644.66,125.53l5.72-1.65c.02-.53-.28-2.44-.67-3.19s-2.19-1.37-3.45-1.96c.28-.02,2.18-2.29,1.52-2.83l-2.69-2.19c-.24-2.3-1.72-4.61-3.56-6.35l-1.49-3.7c-.34-.83-2.61-.76-3.7-.78l.96-2.54c.24-.63-1.8-1.54-2.36-1.17l-5.02,3.39,4.1-5.88c-4.45-3.65-7.79-7.56-12.27-10.05l-9.24-5.14c-2.09-1.16-3.96-2.26-6.66-3.24-.72,1.8-1.35,5.32-1.13,6.64l11.69,5.75,2.12-2.47.58,5.91,5.56-4.04-2.22,5.44c-.41,1,2.95,1.6,3.64,2.43l4.16,5.03c.69.83,1.4,2.33,2.07,2.11l2.28-.75c-.07,1.34-.14,2.76-.1,3.66s2.09,2.53,2.89,2.09l3.74-2.07c-1.5,2.04-2.82,3.51-3.21,4.71-.34,1.03,2.58,2.39,3.85,2.91l-1.31,2.25,4.19,7.68ZM565.29,149.74c7.7-1.51,4.58-11.38,18.33-8.02,1.77,1.83,3.16,5.12,6.17,6.03l-3.22,1.09,7.61.73-8.63,1.47,7.57,1.85-6.06.26,1.71,1.57c.22.2-1.48.37-2.15.5-.27,1.88-.12,5.29.45,7.56l2.72,10.74c.62,2.45.38,6.76.92,9.8,2.07,11.66,4.62,22.49,8.33,33.55,29.91-10.34,49.92-38.71,47.33-70.39-1.71-20.95-12.1-38.63-28.72-50.99-33.5-24.9-81.53-13.28-100.46,23.87-5.79,11.36-9.04,23.2-7.65,35.62,3.14.53,2.65.89-.24,1.8,2.55,16.74,9.41,32.19,22.7,44.55,1.97-4.53,2.77-9.55,3.49-15.29l2.09,8.13,2.13-3.13,1.23,6.42,1.75-7.52,1.93,20.46c3.52,3.17,9.45,5.37,14.17,5.87,1.88-2.24.45-6.36.97-8.44l7.97-31.88c.67-2.67.85-5.68,1.13-8.32l1.01-9.57c.08-.77.46-2.79-.17-3.12l-2.54-1.31c.7-.2,3.76-2.07,2.95-2.34l-4.79-1.57ZM452.09,93.71c0,.44.94,1.64,1,1.34l.39-1.99.86-3.82c.15-.65,2.92.38,3.12.63l.83,6.4,1.8-6.95c.3-.8,3.15.55,3.24,1.4l.44,4.04,2.07-6.03-29.86-.68.31,7.19c.67-2.29,1.13-5.46,2.48-6.08.84-.38,2.55.84,2.46,1.48l-.44,3.05c.53,1.56,2.3,2.09,2.19.06.05-1.8-.36-4.52.52-4.5l3.28.06.71,7.01.87-7.2c1.75.09,3.68-.17,3.69.51l.05,4.09ZM517.65,107.72c1.21.21,3.49,0,4.31-.83s2.11-2.97,1.39-3.78c-1-1.11-4.66-3.18-5.45-2.05l-3,4.32-2.71,3.42c-1.13,1.43,3.54,3.73,5,4.31.67.27,1.96-1.8,1.69-2.46l-1.22-2.93ZM461.4,127.51c-.08.47,3.93.51,3.93-.34,0-2.54-.87-8-1.4-10.4l-4.05-1.09,4.01-1c.56-.14-.7-2.78-.31-3.21,1.49-1.65,2.13-6.17.95-8.99l-13.78.18.59,10.2c.07,1.17,1.5,3.4,2.24,5.12l-5.09.07c1.44-5.38,1.57-8.37,1.62-14.78-4.56-.61-7.78-.86-13.36-1.04l.26,7.9,5.78-5.38-5.99,9.82,5.28,1.12-4.5,1.14c-.7.18,3.73,12.7,12.15,11.87l.83-4.7.97,4.75c5.08-.09,8.55-3.14,12.09-7.43l-2.2,6.18ZM367.69,121.17c8.29-10.5.63-7.77,4.54-15.06l-2.54-1.95-3.97,11.24,4.29-6.5c2.35,3.98-4.66,8.54-2.33,12.27ZM510.86,124.64l3.58-6.3-5.47-1.8c-1.06-.35-3.27,3.3-2.44,4.09l3.65,3.44-4.57-.93c-.92-.19-1.52,2.53-1.34,3.45.37,1.9,5.94,2.88,6.14,1.61.11-.68.11-2.95.45-3.55ZM374.83,119.87c.24-.83-1.8-3.27-2.15-2.72l-1.47,2.37c-1.65,2.66-2.93,5.35-1.51,8.22,1.98-1.75,4.33-5.16,5.13-7.87ZM398.63,126.5c2.13-1.2,4.13-6.44,1.59-8.07-2.54,1.23-4.25,6.41-1.59,8.07ZM373.82,134.93l3.83-7.64c.38-.77-1.09-3.15-1.81-4.29l-3.25,5.08c-.59.93-1.42,3.15-1.11,4.1.26.79,1.46,2.04,2.33,2.75ZM652.48,127.8c-.39-.92-.79-2.96-1.49-2.8l-3.51.8c-.72.16-2.71,1.16-2.46,1.82l1.07,2.88c.22.59,7.17-.83,6.39-2.69ZM510.13,131.81l-6.62-3.2-1.19,4.13c2.84.66,4.88.79,7.81-.93ZM376.92,142.48l3.95-6.96c.75-1.32-.43-4.64-1.74-5.57l-4.76,8,2.54,4.53ZM467.63,132.22c-11.73-1.72-22.49-1.71-33.28.02,11.68,1.5,22.27,1.52,33.28-.02ZM499.46,150.63c2.57.47,6.83-.34,7.32-2.05l-2.29-1.59c-.27-.19-.14-.48.13-.63.29-.17,2.12-.7,2.16-1.03l1.32-9.71c-.58-.33-4.06-.63-5.52-.52-1.07.08-1.3,2.39-1.57,4.3l6.48,1.45-6.84.56-1.19,9.23ZM650.51,142.27c1.89-.2,4.73-.34,4.52-1.22l-.92-3.83c-.17-.7-1.75-.16-3.46-.18-1.29-.01-2.83,1.16-2.72,2.56.09,1.19,1.6,2.76,2.58,2.65ZM381.01,149.52l5.19-7.38-3.38-5.5-4.11,7.84c-.53,1,1.38,3.75,2.3,5.03ZM285.71,145.25c.09-1.28-.45-3.25-1.18-3.79-.58-.43-3.08.34-3.24,1.04-.42,1.84-.44,6.07.32,7.8.38.86,3.69.64,3.76-.31l.34-4.74ZM295.15,144.12c.04-.93-.84-2.95-1.65-3.24s-3.45.63-3.63,1.5c-.38,1.82-.31,5.83.26,7.49.38,1.11,4.76.82,4.81-.37l.21-5.37ZM304.56,144.16c.09-1.13-1.93-3.48-2.96-3.36s-2.67,2.08-2.57,3.27l.52,6.32c1.53.25,4.5.31,4.58-.65l.43-5.57ZM312.61,145.41c.03-.83-.54-2.82-.82-3.46s-2.68-.43-2.92.22c-.7,1.88-.89,6.23-.16,8.09.35.88,3.68.76,3.71-.19l.18-4.66ZM268.4,152.45c2.13-3.47,1.91-7.25.07-10.14-2.48,2.84-2.89,6.94-.07,10.14ZM277.16,149.99l-.69-8.1c-3.56-.42-3.75,2.85-3.38,5.27l.55,3.58c.12.79,3.59.04,3.52-.75ZM319.87,146.32c.16-1.74-1.17-4.28-3.19-4.02l-.47,9.32c2.65-.18,3.18-.02,3.23-.62l.43-4.67ZM654.62,142.98l-5.34.63c-.86.1-1.09,3.6-.27,3.88,2.24.78,4.59.28,6.71-1.02.66-.4-.37-3.59-1.1-3.5ZM384.98,155.83l4.96-8-2.72-3.99-3.86,5.75c-.49.74-1.22,2.85-.77,3.61.36.6,1.34,1.57,2.38,2.63ZM655.98,149.37c-1.85-.23-5.61.09-7.13.56-.48.33,0,3.23.68,3.16l2.53-.26,3.61-.37c.72-.07.81-2.63.31-3.09ZM389.07,163.8l5.29-8.55-3.37-5.46-4.83,8,2.92,6.01ZM500.49,159.76c-.18,1.34.66,4.68,1.98,4.61,1.55-.08,4.77-1.11,5.3-1.91l-1.46-10.86-5.12,1.37c-.91.24-.95,3.13-.94,4.4l6.14,1.14-5.9,1.25ZM655.52,154.84c-1.17-1-5.55-1.31-6.08.13-.21.58-.2,2.84-.14,3.46s1.81.7,2.57.59l3.76-.52c.62-.08.37-3.27-.1-3.67ZM393.02,168.49l4.49-6.64c.72-1.06-1.58-4.48-2.54-4.04-1.23,2.28-3.17,5.76-4.09,7.61-.4.81,1.62,2.96,2.14,3.07ZM589.31,218.66l-8.6-54.37c-.26-1.65-1.8-3.82-3.43-5.13l-6.28,43.12c-.82,5.61-3.31,10.83-3.36,16.75,7.6,1.23,14.32,1.4,21.67-.37ZM655.22,161.03c-1.07-.85-4.36-.94-5.82-.67-.69.13-1.53,2.63-1.01,3.12,1.87,1.75,5.49,2.46,6.18,1.84.64-.57,1.32-3.75.65-4.29ZM397.33,175.39l4.33-7.29c.58-.98-1.97-3.73-2.8-4.12-1.28,2.05-3.42,5.43-4.34,7.16-.48.89,1.49,3.25,2.81,4.25ZM295.53,186.33l.1-17.38c0-1.61-1.61-3.52-3.14-3.54s-3.29,1.96-3.27,3.48l.24,17.89c2.01-.06,4.94-.26,6.07-.46ZM508.49,165.73c-1.55-1.21-5.82-.81-6.34,1.71-.23,1.14,2.93,1.72,4.43,1.68,1.15-.03,2.88-2.62,1.91-3.39ZM654.68,169.4c-3.04-3.63-3.72-3.42-6.73-4.02l-.92,4.69,7.65-.67ZM276.69,185.99l-.13-18.2c0-.89-2.61-2.11-3.05-1.53s-1.28,2.1-1.27,2.82l.16,17.34c.38,1,4.3.63,4.29-.43ZM285.51,185.75l.21-16.72c.02-1.46-1.95-3.42-3.15-3.2-.95.17-2.21,2.09-2.2,3.29l.16,17.45c1.31.39,4.88.31,4.99-.82ZM304.72,186.06l.13-17.08c.01-1.52-1.9-3.4-3.24-3.2-.97.15-2.36,2.12-2.35,3.24l.2,17.62c1.75.25,4.55.16,5.26-.58ZM313.4,186.68l-.03-17.64c0-1.31-1.8-3.3-2.81-3.05-.81.2-1.98,2.11-1.97,3.06l.06,17.45,4.75.18ZM317.26,185.15c0,.8.2,2.44.74,2.46l2.27.09c.54.02.74-1.87.73-2.48l-.21-16.17c-.01-.84-1.17-2.82-1.87-2.44-.56.3-1.68,1.91-1.68,2.78v15.76ZM268.74,186.83l.03-18.48c0-.75-1.84-2.07-2.32-1.67-.31.26-1.51,1.58-1.51,1.96l-.03,18.58c.32.74,3.83.62,3.83-.39ZM325.8,166.83c-2.47,2.37-1.27,18.9-.44,21.46,2.9,8.93,3.5-23.2.44-21.46ZM400.5,181.32l4.27-7.89c.4-.74-1.65-3.94-2.11-3.24l-1.77,2.68c-1.84,2.78-4.39,5.55-.39,8.45ZM504.71,170.67c-1.53.35-1.29,3.2-.39,5.15.61,1.32,3.01,1.24,4.68.46,1.31-.61,1.58-2.77,1.19-3.95-.79-2.41-2.29-2.37-5.48-1.65ZM648.77,178.41c2.59-.43,3.83-2.81,4.21-6.76l-6.21.42-3.64,9.47,4.94,2.23c.65.29,2.09-1.6,1.85-2.25l-1.15-3.11ZM410.35,183.28l-5.22,6.46c-.82-3.72,4.97-9.41,3.07-11.31-.61-.62-2.05-1.87-2.47-2.21l-4.41,7.59,6.56,10.75,3.29-6.25c.66-1.26-.03-4.09-.83-5.02ZM513.47,180.01l-1.66-3.04c-.45-.82-6.47,1.47-6.26,1.96l1.04,2.51c.44,1.06,7.88.39,6.88-1.43ZM447.91,200.83c1.76-7.95,1.7-14.92.05-22.58-1.55,7.88-1.5,14.95-.05,22.58ZM453.06,189.11c.18-3.63,2.23-7.55-.91-10.21-.22,8.03-.35,15.13.46,22.61.97-4.18.24-8.22.45-12.4ZM113.06,183.55l-6.05.21-14.17.14c-.52.16-1.46.75-1.94.58l-2.26-.77c.79,1.6,1.53,3.46,2.71,4.06-.23-.12,14.23,1.65,14.11-2.21.93,1.19,3.36,2.76,5.59,2.72,1.37-.02,2.81-.87,3.04-1.73.18-.64-.35-3.03-1.03-3ZM516.39,186.64c-1.7.2-3.44.53-3.24.17.14-.25.57-1.04.7-1.29l1.07-2.2c-1.85-.55-5.74-.17-7.35,1.33l5.56,9.32c1.26.32,4-1.31,3.86-2.48l-.6-4.86ZM375.8,197.58l4.72-7.34c-.03-1.51-.77-3.3-1.92-4.64l-5.28,7.4,2.48,4.57ZM636.94,193.21l5.11,2.11,3.32-4.65-5.5-2.86-6.37,8.76c.48,1.26,3.02,4.05,4.5,3.78.92-.17,3.07-2.68,2.44-3.36l-3.49-3.78ZM411.54,201.32l4-8.61c.3-.65-1.8-3.65-2.21-3.06-1.03,1.49-6.97,9.03-1.8,11.67ZM113.03,239.3l3.26-6.25v-41.35s-81,.02-81,.02l-.13,41.45,3.55,6.03,74.32.1ZM380.8,205.12c1.97-2.86,3.64-5.24,4.65-7.26.73-1.44-2.38-4.79-3.53-5.9l-4.47,7.48c.05,1.48,1.95,4.15,3.35,5.68ZM238.47,203.77c1.22-3.46-.29-6.46-2.85-7.57-1.54-.67-4.24-.05-5.77,1.23-1.26,1.06-2.2,5.53-.63,6.09,2.4.86,7.19.83,9.25.25ZM314.11,207.61l-20.22-11.45c-7.11,3.49-13.58,6.98-20.14,11.44h40.36ZM359.53,203.57c1.56-.83-.19-5.74-1.69-6.75s-5.11-.77-6.74.46c-1.44,1.09-2.39,5.41-.78,6.24,2.28,1.17,7.16,1.14,9.21.05ZM389.59,211.62c10.89.82-5.16-9.63-1.14-14.85l-5.75,9.75,6.23.28.65,4.82ZM627.14,212.24c.51-.36,1.69-1.74,1.4-2.29l-1.17-2.24,5.47-.05c-.41-3.1-2.36-5.99-4.17-5.91l-6.92,6.55c-.24.46.37,2.9-.19,2.74l-3.04-.85c-1.32,1.3.69,5.95,2.46,6.35l6.17-4.31ZM447.18,208.01c-.26,8.13-.49,14.87.53,23.1,2.08,2.76,1.91-28.61-.53-23.1ZM454.08,228.8c-.71-5.43,1.6-14.73-1.84-20.76l-.26,23.24c.43-.29,1.95-1.94,2.1-2.48ZM465.29,220.54l-.86-12.51-.29,23.41c3.66-3.07,1.41-7.07,1.15-10.9ZM336.47,211.94l-88.22,1.28,90.69,1.02c.09-.32-1.91-2.31-2.47-2.3ZM397.77,216.41l-2.65-4.54c-1.79,1.28-3.78,3.85-4.59,6.31-.59,1.77.67,4.93,2.16,6.95l5.08-8.72ZM603.69,225.48l5.13-2.63c1.92-.59,3.78-2.08,4.76-3.59l3.21-.08c.82-.02,1.32-3.04.84-3.7l-2.26-3.11-9.09,4.9,1.86,4.86-4.92-4.23c-.55,3.02-.29,5.8.48,7.59ZM549.94,216.49l-5.52-2.3.32,8.16c3.04-1.75,4.06-3.3,5.2-5.87ZM634.27,224.58c.77-1.22.96-4.57-.19-4.97-2.17-.78-4.58-2.38-6.27-4.13l-10.81,7.25c1.07.84,3.15,2.09,4.17,2.07l13.1-.22ZM275.17,235.36l-.36-17.41-7.56-.05-.06,17.84,7.98-.38ZM284.16,235.47l-.15-15.51c0-.95-1.59-2.87-2.4-2.54-.66.26-1.76,1.92-1.77,2.77l-.1,15.27,4.41.02ZM307.71,234.85l-.16-15c0-.92-1.87-2.65-2.56-2.25-.56.33-1.8,1.92-1.79,2.68l.26,14.59c.02.96,3.79.65,4.25-.02ZM319.8,235.57l-.11-17.97-7.47.26v17.86s7.58-.16,7.58-.16ZM260.5,232.13l-.08-11.14c0-.88-1.84-2.81-2.69-2.56s-2.25,1.83-2.25,2.93v11.22c0,1.05,2,2.53,2.99,2.48.79-.05,2.03-2.04,2.02-2.93ZM332.07,234.6l.03-13.52c0-1.01-1.65-2.93-2.53-2.81s-2.17,1.9-2.16,2.81l.15,13.48,4.51.04ZM556.69,219.23l-2.34,5.17-.9-7.14c-2.67,1.21-5.39,4.23-4.66,5.92,1.05,1.86,5.85,3.59,7.23,2.28,1.5-1.43,1.62-5.24.67-6.23ZM396.62,230.4c1.46-1.74,3.41-4.66,4.32-6.39.53-1-1.15-3.73-2.04-4.53l-4.33,6.4c-.8,1.19.83,5.12,2.05,4.53ZM238.27,236.57l-.56-15.38-8.48-.26-.02,15.9,9.06-.26ZM214.15,236.49l-.2-13.26c-.01-.83-1.68-2.27-2.44-2.21-.57.05-1.89,1.62-1.89,2.34v12.94s4.53.19,4.53.19ZM358.56,236.81l-.14-15.33-8.92-.08.02,15.23,9.04.19ZM377.09,236.41v-12.87c0-.99-1.8-3.08-2.52-2.69-.53.3-1.83,1.82-1.81,2.54l.26,13.07,4.07-.05ZM572.39,229.83l-2.19-8.33c-2.36,2.97-2.94,4.19-4.02,7.16l6.21,1.18ZM578.13,226.34c-.06-1.59-.56-4-1.45-3.88l-3.92.52c-.71.09-.33,2.25-.26,3.57.06,1.1,1.82,2.82,3,3.05,1.31.26,2.69-1.59,2.63-3.25ZM583.29,222.55l-3.55.05c-1.21.02-.97,6.95.21,6.91l2.66-.09c1.64-.06,1.61-6.89.68-6.88ZM590.74,228.47c-1.93-4.29-1.74-4.22-4.03-7.08-1.08,3.5-1.23,4.52-1.59,7.71l5.62-.62ZM553.78,238.75l1.8-9.78-10.84-3.57-.64,13.37,9.69-.02ZM614.16,238.83c-.15-2.84-.24-5.61-.88-6.98l-2.8-5.95-9.27,3.17,1.35,9.68,11.61.07ZM401.89,238.74c.65-4.86.72-7.54.33-12.25-1.79,2.65-2.59,3.89-3.98,6.2-1.19,2,.75,5.96,3.64,6.06ZM592.85,238.83l-1.43-7.32c-9.46.7-16.73.86-26.61-.13l-1,7.38,29.04.07ZM450.91,258.83c1.76-7.61,1.71-14.26.05-21.58-1.54,7.55-1.49,14.29-.05,21.58ZM456.91,258.83c1.76-7.61,1.71-14.26.05-21.58-1.54,7.55-1.49,14.29-.05,21.58ZM332.3,241.19c-26.46-2.29-52.09-.37-78.23-1.11-.18.44,1.45,2.24,2.85,2.19,23.33-.74,51.36,1.08,75.37-1.08ZM154.33,247.28c8.05-1.32,14.49,1.94,21.34-1.67l-27.28-.14.15,17.9c1.4.55,5.31.19,5.35-1.17l.44-14.92ZM107.95,263.75c.72-2.2.86-5.33,0-6.49-9.82-6.63-21.04-10.07-32.86-10.76-5.34-.36-40.32,7.55-31.19,17.18l64.06.08ZM263.53,263.44l-.23-15.55c-1.24-1.79-6.44-1.97-7.71-.17l-.33,15.61,8.27.11ZM332.01,263.2l-.26-15.66c-1.46-1.45-6.26-1.55-7.41,0l-.45,15.63c2.75.31,5.69.33,8.12.03Z"/>
    <path d="M370,174.11c-.61,1.73-2.1,4.47-3.07,6.38l.41,4.77c-2.36.99-5.49,2.12-8.17,2.04l-13.42-.39c.02-7-.17-11.99-1.13-17.94l18.28.33c.62.01,2.05,1.13,2.54.81l2.56-1.7-3.32,6.06-.2,2.74c-.04.49,1.31.65,1.67.33l3.85-3.43ZM354.49,185.15c1.92-4.82,1.78-8.27,0-12.06-1.57,4.13-1.56,8.73,0,12.06Z"/>
    <path d="M182.66,86l9.27,142.38c-13.73-6.88-25.56-14.71-36.98-24.11l1.82-25.25L175.41,6.1c1.66,7.65,2.86,15.78,3.4,24.04l1.03,15.91,2.83,39.95Z"/>
    <path d="M242.69,186.94l-17.84.09-.13-12.97c-.01-1.28-.96-3.3-1.75-5.4l21.13-.17c-.83,2.8-1.69,5.22-1.66,6.63l.25,11.82ZM234.01,185.03c.97-4.25,1.01-8.03-.11-11.9-2.24,3.97-2.18,8.22.11,11.9Z"/>
    <path d="M241.26,167.16l-15.28.06c-.41-4.11,1.06-6.66,2.89-10.1,2.29-8.74,4.79-14.21,3.12-21.63-.08-.34.96-1.65,1.03-2,.1-.52,1.62,1.23,1.56,1.75-.35,3.08.04,8.73.92,12.3l2.25,9.1c2.38,3.05,4,5.28,3.51,10.52Z"/>
    <path d="M297.91,71.68c-1.59,1.23-6.48,1.02-8.29-.18-2.18-1.45.74-4.66,1.3-6.35,4.17-12.69-2.75-13.02.05-15.29,1.71-1.39,2.14-1.89,4.15-.33,1.47,1.15,1.01,2.41-.61,4.38l1.16,10.86c.17,1.55,3.76,4.57,2.25,6.91Z"/>
    <path d="M157.01,237.16l-4.93.06.87-20.36c2.55,1.37,3.67,3.6,3.9,6.08l.15,14.21Z"/>
    <path d="M168.04,237.24l-7.29.03.06-13.2c6.12,2.1,8.7,5.59,7.23,13.17Z"/>
    <polygon points="168.53 225.58 159.45 219.07 161.4 212.89 168.23 217.42 168.53 225.58"/>
    <path d="M179.25,231.03l-8.18-3.9,1.38-6.53,5.77,3.33c1.36.78,1.19,4.41,1.03,7.1Z"/>
    <path d="M157.56,216.75c-3.3-1.38-6.82-5.51-5.19-10.55,4.21.45,5.41,4.87,5.19,10.55Z"/>
    <path d="M179.17,235.42c.66,1.3-3.04,2.37-4.72,2.15-2.67-.35-3.16-2.2-2.23-6.05,2.06.5,3.97,1.33,6.94,3.89Z"/>
  </g>
</svg>