<?xml version="1.0" encoding="UTF-8"?>
<svg id="Layer_2" data-name="Layer 2" xmlns="http://www.w3.org/2000/svg" viewBox="0 0 605.21 161.1">
  <g id="Layer_1-2" data-name="Layer 1">
    <path d="M508.88,105.91l10.94-5.65.07-2.2c.02-.53,2.23-1.04,2.24-.51l.08,2.79,11.22,5.23.35-19.78,34.11-.02.12,35.38c1.32,1,4.91,2.73,6.72,2.77l10.81-6.81c3.51,2.04,7.13,4.25,10.69,6.83,4.85,3.52,2.2,12.15,3.54,20.2.16.99,2.81,2.92,2.4,3.73-3.15,6.21-2.21,1.53-2.85,5.74-.25,1.6,5.75.52,5.78,2.03l.13,5.34-150.83.11-451.63-.04c-4.22,0-2.42-3.85-2.05-4.68.47-1.06,1.88-1.4,4.49-2.22l.2-17.18c4.36,1.31,11.86-3.48,15.84-2.16,1.7-7.25-3.63-8.3,1.69-15l15.32-.03c.78-1.98,1.08-4.77,1.05-8.03,8.91-1.8,18.8-1.67,28.25-.23l.6,5.33c8.33-3.92,16.71-7.27,25.38-10.14l1.2-10.63,8.46-.71c1.33-12.49,8.96-14.06,8.7-15.96l-.73-5.37,8.14-.2,1.89-13.81c.66-4.84,3.2-9.88,5.23-15.18,1.84,4.86,4.54,9.99,5.2,14.99l1.87,14.02,35.88.1c-.28,1.33-1.03,3.85-1,4.99l.41,17.46c3.36-7.87,7-13.55,14.79-16.35l.89-9.59c.45-.52,2.97-.75,3.1-1.52l.77-4.88c.43,2.22.26,3.58,1.72,6.28l.52-34.59,2.77,3.61,19.37.02,2.91-3.81.79,9.33h20.21s2.87-3.22,2.87-3.22l.21,24.89,8.99.09.11-42.94c2.47-.15,6.26-.27,8.17-.48.83-.09,1.02-3.14.36-3.65l-2.64-2.03c-.7-.54-.28-3.26.4-3.65l9.48-.37.87-13.57,1.04,13.53,9.53.42c1.28.06.85,4.17-.25,4.66-1.2.53-2.35,1.3-2.67,2.01s.99,2.83,1.84,2.87l7.4.32.06,26.55,7.21,1.28.83-9.63.82,8.48,6.21,5.2,2.04,1.26c1.39.85.01,6.64,1.3,6.71l4.6.24c.31,2.48.07,5.21,2.11,8.12l.87-20.01c.82,6.51.41,12.31,1.86,19.62l1.31-13.62.76,13.36c1.72-1.51,1.44-3.56,1.43-6.21l-.19-36.33-.07-18.71,31.05-4.18v24.35s.04,65.7.04,65.7c0,.58,1.42,2.33,1.81,2s1.37-1.48,1.37-2.45l-.02-39.03c2.38.56,3.83.88,4.29.09l2.4-4.15c2.21-3.83,4.46-10.84,3.3-14.42-.12-.36-1.91-.84-2.24-1.04s-.82-1.03-.49-1.24l3.5-2.19.92,11.69c.22,2.82,3.47,8.1,4.77,10.7.49.98,3.62.77,4.84.43l-.04,30.05,1.46-6.23,1.59,6.11.47-57.9c9.08-3.58-3.07-4.99.36-11.26,19.91,3.26,10.6,2.9,30.28.23,2.61,2.01-.25,4.87-2.87,8.2-.61.77,3.54,2.53,3.55,3.78l.39,30.1,19.06.36-.85-16.69,8.58-.48-2-8.86h25.85s-2.01,8.83-2.01,8.83l8.56.51-.82,6.92.05,23.82,32.79.19-.37,36.85,24.93.17c1.69-1.45,2.14-5.96,1.12-7.77-3.71,1.59-6.26,2.49-10.25,2.64ZM530.19,110.91c1.34.02,3.15-.24,3.51-1.12.29-.7-.52-3.32-1.25-3.55l-9.98-3.23c.11,3.32.57,6.26,1.09,7.81l6.63.09ZM519.52,112.92c-9.78-1.21-18.06-.99-27.25-.55,2.25,3.31,5.45,1.36,8.07,1.28,6.57-.21,12.7,1.4,19.18-.73ZM517.96,122.05l.53-5.64-25.26-.08.23,7.86c1.57-.47,4-1.76,5.08-1.78l19.42-.36ZM533.61,122.22l-.09-5.88-9.94.17.73,5.77,9.29-.05Z"/>
  </g>
</svg>